M48
;Layer_Color=9474304
;FILE_FORMAT=4:4
METRIC,LZ
;TYPE=PLATED
T1F00S00C0.3000
T2F00S00C0.6000
T3F00S00C0.8000
;TYPE=NON_PLATED
T4F00S00C2.2000
%
T01
X00193Y-00047
Y-00038
X00209
Y-00047
X00225
Y-00038
X00241
Y-00047
X00254Y-00038
X00263
Y-00022
X00254
Y-00006
X00263
X00271Y0
X0028875Y000065
X00283Y0001275
Y00019
X00288Y00033
X00285Y00045
Y000525
X0027
X0027Y00045
X00255
Y000525
X0024
X002325
X0024Y000425
X0023875Y0003175
X0024075Y000215
X00247Y00007
X0026025Y00028
X00218Y000215
X002Y000425
Y00055
X002075Y000525
X00185Y00055
Y000425
X0017
Y00055
X00155
Y000425
X0018Y0007
Y000825
X0020225Y0008525
X0021
Y00077
X0020225
X002075Y001075
X002085Y001225
X0019Y001175
X001775Y0012
X0016Y00095
X00225Y001
Y00115
X0024
Y001025
X00255
Y00115
X0027
Y001025
X00285
Y00115
X0029475Y0010825
X003045Y0011
X003125Y001025
X003275
Y001125
X003425
X003425Y001025
X003575
X00365Y0011
X0036975Y0007975
X00376094Y00061406
X003625Y0006
X003575Y0005
X0036325Y00040755
X00364Y00031
X003425Y0004
Y0005
X003275
X00327691Y00040171
X0032125Y00031
X003285Y00021755
X003415Y0002275
X00338Y00006
X00329Y00006
Y-00011
X00338
X0030975Y000095
X003125Y0005052
X00305Y0005275
X002925Y0006
X002985Y0007375
X0028875Y-0001775
X0023275Y0012875
T02
X0026725Y0013775
X0027975
X0029225
X0030475
X0031725
X0032975
X0034225
T03
X001173Y00088
X001427
X0013Y001007
T04
X00055Y00135
X00195
X00375Y-00035
M30
