G04*
G04 #@! TF.GenerationSoftware,Altium Limited,Altium Designer,23.3.1 (30)*
G04*
G04 Layer_Color=32896*
%FSLAX44Y44*%
%MOMM*%
G71*
G04*
G04 #@! TF.SameCoordinates,958C5144-9DDC-4948-B6D7-F64729F80DFD*
G04*
G04*
G04 #@! TF.FilePolarity,Positive*
G04*
G01*
G75*
%ADD11C,0.2500*%
%ADD12C,0.1500*%
%ADD13C,0.2000*%
%ADD29C,0.5000*%
%ADD30C,0.2540*%
%ADD39C,0.1524*%
G36*
X331805Y51759D02*
X331963Y51750D01*
X332110Y51722D01*
X332249Y51694D01*
X332379Y51657D01*
X332499Y51620D01*
X332610Y51574D01*
X332711Y51528D01*
X332804Y51482D01*
X332878Y51435D01*
X332943Y51399D01*
X332998Y51361D01*
X333044Y51334D01*
X333072Y51306D01*
X333090Y51297D01*
X333100Y51288D01*
X333192Y51195D01*
X333275Y51093D01*
X333358Y50982D01*
X333423Y50872D01*
X333534Y50650D01*
X333608Y50428D01*
X333636Y50326D01*
X333664Y50224D01*
X333682Y50141D01*
X333701Y50067D01*
X333710Y50002D01*
Y49956D01*
X333719Y49928D01*
Y49919D01*
X332915Y49836D01*
X332896Y50049D01*
X332859Y50234D01*
X332804Y50400D01*
X332739Y50529D01*
X332684Y50640D01*
X332628Y50714D01*
X332591Y50761D01*
X332573Y50779D01*
X332434Y50890D01*
X332286Y50973D01*
X332129Y51038D01*
X331990Y51075D01*
X331861Y51103D01*
X331750Y51112D01*
X331713Y51121D01*
X331657D01*
X331463Y51112D01*
X331287Y51075D01*
X331140Y51019D01*
X331010Y50964D01*
X330909Y50899D01*
X330844Y50853D01*
X330798Y50816D01*
X330779Y50798D01*
X330668Y50668D01*
X330585Y50539D01*
X330520Y50409D01*
X330483Y50280D01*
X330455Y50178D01*
X330446Y50086D01*
X330437Y50030D01*
Y50021D01*
Y50012D01*
X330455Y49845D01*
X330492Y49670D01*
X330557Y49512D01*
X330622Y49365D01*
X330696Y49244D01*
X330760Y49143D01*
X330779Y49106D01*
X330798Y49078D01*
X330816Y49069D01*
Y49059D01*
X330890Y48958D01*
X330982Y48856D01*
X331084Y48745D01*
X331195Y48634D01*
X331426Y48412D01*
X331657Y48190D01*
X331777Y48089D01*
X331879Y47996D01*
X331981Y47913D01*
X332064Y47839D01*
X332129Y47783D01*
X332184Y47737D01*
X332221Y47709D01*
X332231Y47700D01*
X332462Y47506D01*
X332674Y47321D01*
X332850Y47155D01*
X332989Y47016D01*
X333109Y46896D01*
X333192Y46813D01*
X333238Y46757D01*
X333257Y46748D01*
Y46739D01*
X333386Y46582D01*
X333488Y46434D01*
X333580Y46286D01*
X333654Y46156D01*
X333710Y46045D01*
X333747Y45962D01*
X333765Y45907D01*
X333775Y45897D01*
Y45888D01*
X333812Y45786D01*
X333830Y45694D01*
X333849Y45602D01*
X333858Y45518D01*
X333867Y45444D01*
Y45389D01*
Y45352D01*
Y45343D01*
X329623D01*
Y46101D01*
X332776D01*
X332665Y46258D01*
X332610Y46323D01*
X332563Y46387D01*
X332517Y46443D01*
X332480Y46480D01*
X332453Y46508D01*
X332443Y46517D01*
X332397Y46563D01*
X332341Y46609D01*
X332212Y46729D01*
X332064Y46868D01*
X331907Y47007D01*
X331759Y47127D01*
X331694Y47182D01*
X331639Y47238D01*
X331593Y47275D01*
X331556Y47303D01*
X331537Y47321D01*
X331528Y47330D01*
X331380Y47460D01*
X331232Y47580D01*
X331103Y47700D01*
X330982Y47802D01*
X330872Y47904D01*
X330779Y47996D01*
X330687Y48079D01*
X330613Y48153D01*
X330539Y48227D01*
X330483Y48283D01*
X330437Y48329D01*
X330391Y48375D01*
X330345Y48431D01*
X330326Y48449D01*
X330196Y48606D01*
X330086Y48745D01*
X329993Y48884D01*
X329919Y48995D01*
X329864Y49096D01*
X329827Y49170D01*
X329808Y49216D01*
X329799Y49235D01*
X329743Y49374D01*
X329706Y49512D01*
X329669Y49642D01*
X329651Y49753D01*
X329642Y49854D01*
X329633Y49928D01*
Y49975D01*
Y49993D01*
X329642Y50132D01*
X329660Y50261D01*
X329679Y50391D01*
X329716Y50502D01*
X329808Y50724D01*
X329901Y50899D01*
X329956Y50982D01*
X330002Y51047D01*
X330049Y51112D01*
X330095Y51158D01*
X330132Y51195D01*
X330150Y51232D01*
X330169Y51241D01*
X330178Y51251D01*
X330280Y51343D01*
X330391Y51426D01*
X330511Y51491D01*
X330631Y51546D01*
X330872Y51639D01*
X331112Y51704D01*
X331214Y51722D01*
X331315Y51741D01*
X331408Y51750D01*
X331482Y51759D01*
X331546Y51768D01*
X331639D01*
X331805Y51759D01*
D02*
G37*
G36*
X339877Y48042D02*
Y47857D01*
X339867Y47682D01*
X339858Y47515D01*
X339840Y47358D01*
X339821Y47220D01*
X339803Y47090D01*
X339775Y46970D01*
X339757Y46859D01*
X339738Y46757D01*
X339710Y46674D01*
X339692Y46600D01*
X339673Y46545D01*
X339655Y46498D01*
X339646Y46461D01*
X339636Y46443D01*
Y46434D01*
X339535Y46230D01*
X339405Y46045D01*
X339276Y45897D01*
X339137Y45768D01*
X339017Y45666D01*
X338915Y45592D01*
X338878Y45574D01*
X338850Y45555D01*
X338832Y45537D01*
X338823D01*
X338592Y45435D01*
X338351Y45361D01*
X338102Y45306D01*
X337870Y45269D01*
X337769Y45259D01*
X337667Y45250D01*
X337575Y45241D01*
X337501D01*
X337436Y45232D01*
X337353D01*
X337020Y45250D01*
X336872Y45269D01*
X336733Y45287D01*
X336595Y45315D01*
X336474Y45343D01*
X336363Y45370D01*
X336262Y45407D01*
X336169Y45444D01*
X336095Y45472D01*
X336021Y45500D01*
X335966Y45528D01*
X335920Y45555D01*
X335892Y45564D01*
X335873Y45583D01*
X335864D01*
X335661Y45722D01*
X335494Y45879D01*
X335365Y46027D01*
X335254Y46175D01*
X335171Y46304D01*
X335115Y46406D01*
X335097Y46443D01*
X335078Y46471D01*
X335069Y46489D01*
Y46498D01*
X335032Y46609D01*
X334995Y46729D01*
X334939Y46979D01*
X334903Y47238D01*
X334875Y47488D01*
X334866Y47599D01*
X334856Y47709D01*
Y47802D01*
X334847Y47885D01*
Y47950D01*
Y47996D01*
Y48033D01*
Y48042D01*
Y51741D01*
X335698D01*
Y48042D01*
Y47830D01*
X335716Y47626D01*
X335735Y47451D01*
X335762Y47284D01*
X335790Y47136D01*
X335827Y46998D01*
X335855Y46877D01*
X335892Y46776D01*
X335929Y46693D01*
X335966Y46609D01*
X336003Y46554D01*
X336031Y46498D01*
X336058Y46461D01*
X336077Y46434D01*
X336086Y46424D01*
X336095Y46415D01*
X336178Y46341D01*
X336271Y46276D01*
X336474Y46175D01*
X336687Y46101D01*
X336909Y46055D01*
X337112Y46018D01*
X337196Y46008D01*
X337279D01*
X337334Y45999D01*
X337427D01*
X337621Y46008D01*
X337796Y46036D01*
X337963Y46064D01*
X338092Y46110D01*
X338203Y46147D01*
X338286Y46175D01*
X338333Y46203D01*
X338351Y46212D01*
X338481Y46295D01*
X338592Y46397D01*
X338684Y46498D01*
X338749Y46591D01*
X338804Y46683D01*
X338850Y46748D01*
X338869Y46794D01*
X338878Y46813D01*
X338906Y46896D01*
X338924Y46979D01*
X338961Y47173D01*
X338989Y47377D01*
X339008Y47580D01*
X339017Y47756D01*
Y47839D01*
X339026Y47904D01*
Y47959D01*
Y48005D01*
Y48033D01*
Y48042D01*
Y51741D01*
X339877D01*
Y48042D01*
D02*
G37*
G36*
X193213Y77526D02*
X190374D01*
Y76435D01*
X190384Y76333D01*
Y76259D01*
X190393Y76195D01*
X190402Y76149D01*
Y76111D01*
X190411Y76093D01*
Y76084D01*
X190458Y75936D01*
X190485Y75871D01*
X190513Y75816D01*
X190541Y75760D01*
X190559Y75723D01*
X190569Y75705D01*
X190578Y75696D01*
X190633Y75622D01*
X190698Y75547D01*
X190837Y75409D01*
X190901Y75344D01*
X190957Y75298D01*
X190994Y75270D01*
X191003Y75261D01*
X191133Y75168D01*
X191271Y75067D01*
X191419Y74965D01*
X191558Y74863D01*
X191687Y74780D01*
X191789Y74715D01*
X191826Y74688D01*
X191854Y74669D01*
X191872Y74651D01*
X191881D01*
X193213Y73809D01*
Y72755D01*
X191475Y73856D01*
X191290Y73985D01*
X191123Y74105D01*
X190985Y74225D01*
X190855Y74327D01*
X190763Y74420D01*
X190689Y74493D01*
X190643Y74540D01*
X190624Y74558D01*
X190569Y74632D01*
X190504Y74715D01*
X190402Y74882D01*
X190365Y74956D01*
X190328Y75011D01*
X190310Y75048D01*
X190300Y75067D01*
X190273Y74900D01*
X190245Y74743D01*
X190199Y74605D01*
X190162Y74466D01*
X190116Y74346D01*
X190060Y74235D01*
X190014Y74133D01*
X189968Y74040D01*
X189912Y73966D01*
X189866Y73893D01*
X189829Y73837D01*
X189792Y73791D01*
X189764Y73754D01*
X189736Y73726D01*
X189727Y73717D01*
X189718Y73708D01*
X189625Y73634D01*
X189533Y73560D01*
X189339Y73449D01*
X189145Y73375D01*
X188960Y73319D01*
X188803Y73282D01*
X188738Y73273D01*
X188673D01*
X188627Y73264D01*
X188590D01*
X188571D01*
X188562D01*
X188368Y73273D01*
X188192Y73301D01*
X188026Y73347D01*
X187887Y73393D01*
X187767Y73449D01*
X187675Y73486D01*
X187619Y73523D01*
X187610Y73532D01*
X187601D01*
X187453Y73643D01*
X187323Y73754D01*
X187212Y73874D01*
X187129Y73985D01*
X187064Y74087D01*
X187027Y74170D01*
X187000Y74225D01*
X186991Y74235D01*
Y74244D01*
X186963Y74327D01*
X186935Y74429D01*
X186889Y74632D01*
X186861Y74854D01*
X186833Y75058D01*
X186824Y75252D01*
Y75335D01*
X186815Y75409D01*
Y78377D01*
X193213D01*
Y77526D01*
D02*
G37*
G36*
Y68123D02*
X192455D01*
Y71276D01*
X192297Y71165D01*
X192233Y71110D01*
X192168Y71063D01*
X192113Y71017D01*
X192076Y70980D01*
X192048Y70953D01*
X192039Y70943D01*
X191992Y70897D01*
X191946Y70841D01*
X191826Y70712D01*
X191687Y70564D01*
X191549Y70407D01*
X191428Y70259D01*
X191373Y70194D01*
X191317Y70139D01*
X191280Y70093D01*
X191253Y70056D01*
X191234Y70037D01*
X191225Y70028D01*
X191096Y69880D01*
X190975Y69732D01*
X190855Y69603D01*
X190753Y69482D01*
X190652Y69372D01*
X190559Y69279D01*
X190476Y69187D01*
X190402Y69113D01*
X190328Y69039D01*
X190273Y68983D01*
X190226Y68937D01*
X190180Y68891D01*
X190125Y68844D01*
X190106Y68826D01*
X189949Y68696D01*
X189810Y68586D01*
X189672Y68493D01*
X189561Y68419D01*
X189459Y68364D01*
X189385Y68327D01*
X189339Y68308D01*
X189320Y68299D01*
X189182Y68243D01*
X189043Y68207D01*
X188914Y68169D01*
X188803Y68151D01*
X188701Y68142D01*
X188627Y68133D01*
X188581D01*
X188562D01*
X188424Y68142D01*
X188294Y68160D01*
X188165Y68179D01*
X188054Y68216D01*
X187832Y68308D01*
X187656Y68401D01*
X187573Y68456D01*
X187508Y68502D01*
X187444Y68549D01*
X187397Y68595D01*
X187360Y68632D01*
X187323Y68650D01*
X187314Y68669D01*
X187305Y68678D01*
X187212Y68780D01*
X187129Y68891D01*
X187064Y69011D01*
X187009Y69131D01*
X186917Y69372D01*
X186852Y69612D01*
X186833Y69714D01*
X186815Y69815D01*
X186806Y69908D01*
X186796Y69982D01*
X186787Y70046D01*
Y70139D01*
X186796Y70305D01*
X186806Y70462D01*
X186833Y70610D01*
X186861Y70749D01*
X186898Y70879D01*
X186935Y70999D01*
X186981Y71110D01*
X187027Y71211D01*
X187074Y71304D01*
X187120Y71378D01*
X187157Y71442D01*
X187194Y71498D01*
X187222Y71544D01*
X187249Y71572D01*
X187259Y71590D01*
X187268Y71600D01*
X187360Y71692D01*
X187462Y71775D01*
X187573Y71859D01*
X187684Y71923D01*
X187906Y72034D01*
X188128Y72108D01*
X188229Y72136D01*
X188331Y72164D01*
X188414Y72182D01*
X188488Y72201D01*
X188553Y72210D01*
X188599D01*
X188627Y72219D01*
X188636D01*
X188719Y71415D01*
X188507Y71396D01*
X188322Y71359D01*
X188155Y71304D01*
X188026Y71239D01*
X187915Y71184D01*
X187841Y71128D01*
X187795Y71091D01*
X187776Y71073D01*
X187665Y70934D01*
X187582Y70786D01*
X187518Y70629D01*
X187481Y70490D01*
X187453Y70361D01*
X187444Y70250D01*
X187434Y70213D01*
Y70157D01*
X187444Y69963D01*
X187481Y69788D01*
X187536Y69640D01*
X187591Y69510D01*
X187656Y69408D01*
X187702Y69344D01*
X187739Y69297D01*
X187758Y69279D01*
X187887Y69168D01*
X188017Y69085D01*
X188146Y69020D01*
X188276Y68983D01*
X188377Y68955D01*
X188470Y68946D01*
X188525Y68937D01*
X188535D01*
X188544D01*
X188710Y68955D01*
X188886Y68992D01*
X189043Y69057D01*
X189191Y69122D01*
X189311Y69196D01*
X189413Y69261D01*
X189450Y69279D01*
X189478Y69297D01*
X189487Y69316D01*
X189496D01*
X189598Y69390D01*
X189699Y69482D01*
X189810Y69584D01*
X189921Y69695D01*
X190143Y69926D01*
X190365Y70157D01*
X190467Y70278D01*
X190559Y70379D01*
X190643Y70481D01*
X190716Y70564D01*
X190772Y70629D01*
X190818Y70684D01*
X190846Y70721D01*
X190855Y70731D01*
X191049Y70962D01*
X191234Y71174D01*
X191401Y71350D01*
X191539Y71489D01*
X191660Y71609D01*
X191743Y71692D01*
X191798Y71738D01*
X191807Y71757D01*
X191817D01*
X191974Y71886D01*
X192122Y71988D01*
X192270Y72080D01*
X192399Y72154D01*
X192510Y72210D01*
X192593Y72247D01*
X192649Y72265D01*
X192658Y72275D01*
X192667D01*
X192769Y72312D01*
X192861Y72330D01*
X192954Y72348D01*
X193037Y72358D01*
X193111Y72367D01*
X193167D01*
X193204D01*
X193213D01*
Y68123D01*
D02*
G37*
G36*
X167311Y109806D02*
X167413Y109658D01*
X167533Y109510D01*
X167644Y109380D01*
X167755Y109269D01*
X167838Y109177D01*
X167875Y109149D01*
X167903Y109122D01*
X167912Y109112D01*
X167922Y109103D01*
X168116Y108946D01*
X168310Y108798D01*
X168495Y108668D01*
X168680Y108567D01*
X168837Y108474D01*
X168902Y108437D01*
X168957Y108410D01*
X169003Y108382D01*
X169040Y108373D01*
X169059Y108354D01*
X169068D01*
Y107596D01*
X168929Y107651D01*
X168791Y107716D01*
X168652Y107781D01*
X168522Y107846D01*
X168412Y107901D01*
X168319Y107947D01*
X168264Y107984D01*
X168254Y107993D01*
X168245D01*
X168079Y108095D01*
X167931Y108197D01*
X167801Y108289D01*
X167700Y108373D01*
X167607Y108437D01*
X167552Y108493D01*
X167505Y108530D01*
X167496Y108539D01*
Y103537D01*
X166710D01*
Y109963D01*
X167219D01*
X167311Y109806D01*
D02*
G37*
G36*
X175790Y103537D02*
X174939D01*
Y106376D01*
X173848D01*
X173746Y106366D01*
X173672D01*
X173608Y106357D01*
X173561Y106348D01*
X173524D01*
X173506Y106339D01*
X173497D01*
X173349Y106292D01*
X173284Y106265D01*
X173229Y106237D01*
X173173Y106209D01*
X173136Y106191D01*
X173118Y106181D01*
X173108Y106172D01*
X173034Y106117D01*
X172960Y106052D01*
X172822Y105913D01*
X172757Y105849D01*
X172711Y105793D01*
X172683Y105756D01*
X172674Y105747D01*
X172581Y105617D01*
X172480Y105479D01*
X172378Y105331D01*
X172276Y105192D01*
X172193Y105063D01*
X172128Y104961D01*
X172101Y104924D01*
X172082Y104896D01*
X172064Y104878D01*
Y104868D01*
X171222Y103537D01*
X170168D01*
X171269Y105275D01*
X171398Y105460D01*
X171518Y105627D01*
X171638Y105765D01*
X171740Y105895D01*
X171833Y105987D01*
X171906Y106061D01*
X171953Y106107D01*
X171971Y106126D01*
X172045Y106181D01*
X172128Y106246D01*
X172295Y106348D01*
X172369Y106385D01*
X172424Y106422D01*
X172461Y106440D01*
X172480Y106449D01*
X172313Y106477D01*
X172156Y106505D01*
X172017Y106551D01*
X171879Y106588D01*
X171758Y106634D01*
X171648Y106690D01*
X171546Y106736D01*
X171453Y106782D01*
X171379Y106838D01*
X171306Y106884D01*
X171250Y106921D01*
X171204Y106958D01*
X171167Y106986D01*
X171139Y107014D01*
X171130Y107023D01*
X171121Y107032D01*
X171047Y107124D01*
X170973Y107217D01*
X170862Y107411D01*
X170788Y107605D01*
X170732Y107790D01*
X170695Y107947D01*
X170686Y108012D01*
Y108077D01*
X170677Y108123D01*
Y108160D01*
Y108178D01*
Y108188D01*
X170686Y108382D01*
X170714Y108558D01*
X170760Y108724D01*
X170806Y108863D01*
X170862Y108983D01*
X170899Y109075D01*
X170936Y109131D01*
X170945Y109140D01*
Y109149D01*
X171056Y109297D01*
X171167Y109427D01*
X171287Y109538D01*
X171398Y109621D01*
X171500Y109685D01*
X171583Y109722D01*
X171638Y109750D01*
X171648Y109759D01*
X171657D01*
X171740Y109787D01*
X171842Y109815D01*
X172045Y109861D01*
X172267Y109889D01*
X172470Y109917D01*
X172665Y109926D01*
X172748D01*
X172822Y109935D01*
X175790D01*
Y103537D01*
D02*
G37*
G36*
X129293Y78574D02*
X128554Y78473D01*
X128489Y78574D01*
X128406Y78658D01*
X128332Y78741D01*
X128258Y78805D01*
X128184Y78852D01*
X128128Y78898D01*
X128091Y78916D01*
X128082Y78926D01*
X127962Y78981D01*
X127842Y79027D01*
X127731Y79055D01*
X127620Y79083D01*
X127528Y79092D01*
X127454Y79101D01*
X127278D01*
X127167Y79083D01*
X126973Y79037D01*
X126806Y78972D01*
X126658Y78907D01*
X126547Y78833D01*
X126464Y78769D01*
X126418Y78722D01*
X126400Y78713D01*
Y78704D01*
X126270Y78547D01*
X126178Y78380D01*
X126113Y78204D01*
X126067Y78029D01*
X126039Y77881D01*
X126030Y77816D01*
Y77761D01*
X126020Y77715D01*
Y77677D01*
Y77659D01*
Y77650D01*
Y77520D01*
X126039Y77400D01*
X126085Y77169D01*
X126150Y76975D01*
X126215Y76818D01*
X126289Y76688D01*
X126353Y76586D01*
X126381Y76559D01*
X126400Y76531D01*
X126409Y76522D01*
X126418Y76513D01*
X126492Y76439D01*
X126566Y76374D01*
X126732Y76263D01*
X126890Y76189D01*
X127047Y76143D01*
X127176Y76106D01*
X127287Y76097D01*
X127324Y76087D01*
X127380D01*
X127555Y76097D01*
X127712Y76133D01*
X127851Y76180D01*
X127962Y76235D01*
X128064Y76291D01*
X128138Y76337D01*
X128175Y76374D01*
X128193Y76383D01*
X128304Y76513D01*
X128397Y76651D01*
X128471Y76808D01*
X128526Y76947D01*
X128563Y77086D01*
X128591Y77188D01*
X128600Y77234D01*
X128609Y77262D01*
Y77280D01*
Y77289D01*
X129432Y77224D01*
X129414Y77077D01*
X129386Y76938D01*
X129303Y76679D01*
X129201Y76457D01*
X129145Y76355D01*
X129090Y76272D01*
X129044Y76189D01*
X128988Y76115D01*
X128942Y76059D01*
X128896Y76013D01*
X128859Y75976D01*
X128840Y75939D01*
X128822Y75930D01*
X128813Y75921D01*
X128702Y75838D01*
X128591Y75764D01*
X128471Y75699D01*
X128350Y75644D01*
X128119Y75560D01*
X127888Y75505D01*
X127786Y75477D01*
X127685Y75468D01*
X127601Y75459D01*
X127528Y75449D01*
X127463Y75440D01*
X127380D01*
X127185Y75449D01*
X127001Y75477D01*
X126825Y75514D01*
X126668Y75560D01*
X126520Y75625D01*
X126381Y75690D01*
X126252Y75754D01*
X126141Y75828D01*
X126039Y75902D01*
X125947Y75967D01*
X125873Y76041D01*
X125808Y76097D01*
X125762Y76143D01*
X125725Y76180D01*
X125706Y76207D01*
X125697Y76217D01*
X125604Y76337D01*
X125531Y76466D01*
X125456Y76586D01*
X125401Y76716D01*
X125309Y76966D01*
X125253Y77206D01*
X125235Y77308D01*
X125216Y77409D01*
X125207Y77493D01*
X125198Y77567D01*
X125188Y77631D01*
Y77677D01*
Y77705D01*
Y77715D01*
X125198Y77881D01*
X125216Y78038D01*
X125244Y78195D01*
X125281Y78334D01*
X125327Y78463D01*
X125373Y78593D01*
X125429Y78704D01*
X125475Y78805D01*
X125531Y78898D01*
X125586Y78981D01*
X125632Y79046D01*
X125678Y79111D01*
X125715Y79157D01*
X125743Y79185D01*
X125762Y79203D01*
X125771Y79212D01*
X125882Y79314D01*
X125993Y79406D01*
X126113Y79480D01*
X126233Y79545D01*
X126353Y79610D01*
X126474Y79656D01*
X126695Y79721D01*
X126797Y79749D01*
X126890Y79767D01*
X126973Y79776D01*
X127047Y79785D01*
X127102Y79795D01*
X127306D01*
X127417Y79776D01*
X127639Y79730D01*
X127842Y79665D01*
X128027Y79591D01*
X128175Y79517D01*
X128239Y79480D01*
X128295Y79453D01*
X128341Y79425D01*
X128369Y79406D01*
X128387Y79397D01*
X128397Y79388D01*
X128055Y81117D01*
X125493D01*
Y81866D01*
X128674D01*
X129293Y78574D01*
D02*
G37*
G36*
X133103Y82041D02*
X133399Y81995D01*
X133657Y81940D01*
X133778Y81903D01*
X133889Y81866D01*
X133990Y81829D01*
X134083Y81792D01*
X134157Y81764D01*
X134231Y81736D01*
X134277Y81709D01*
X134314Y81690D01*
X134341Y81681D01*
X134351Y81672D01*
X134600Y81514D01*
X134813Y81329D01*
X134998Y81145D01*
X135155Y80960D01*
X135275Y80793D01*
X135322Y80719D01*
X135359Y80655D01*
X135395Y80608D01*
X135414Y80571D01*
X135423Y80544D01*
X135433Y80534D01*
X135562Y80248D01*
X135654Y79952D01*
X135719Y79656D01*
X135765Y79388D01*
X135784Y79268D01*
X135793Y79148D01*
X135802Y79055D01*
Y78963D01*
X135812Y78898D01*
Y78843D01*
Y78805D01*
Y78796D01*
X135793Y78463D01*
X135756Y78140D01*
X135710Y77853D01*
X135673Y77715D01*
X135645Y77594D01*
X135617Y77483D01*
X135581Y77382D01*
X135553Y77289D01*
X135534Y77215D01*
X135506Y77160D01*
X135497Y77113D01*
X135479Y77086D01*
Y77077D01*
X135340Y76799D01*
X135183Y76550D01*
X135016Y76337D01*
X134933Y76254D01*
X134859Y76171D01*
X134785Y76097D01*
X134711Y76032D01*
X134647Y75976D01*
X134591Y75939D01*
X134554Y75902D01*
X134517Y75875D01*
X134499Y75865D01*
X134489Y75856D01*
X134360Y75782D01*
X134231Y75718D01*
X133953Y75616D01*
X133676Y75542D01*
X133408Y75496D01*
X133278Y75477D01*
X133167Y75459D01*
X133066Y75449D01*
X132982D01*
X132908Y75440D01*
X132807D01*
X132622Y75449D01*
X132446Y75468D01*
X132280Y75486D01*
X132123Y75523D01*
X131975Y75570D01*
X131836Y75616D01*
X131706Y75662D01*
X131586Y75718D01*
X131485Y75764D01*
X131383Y75810D01*
X131309Y75856D01*
X131235Y75902D01*
X131189Y75939D01*
X131143Y75958D01*
X131124Y75976D01*
X131115Y75986D01*
X130985Y76097D01*
X130874Y76207D01*
X130773Y76337D01*
X130671Y76466D01*
X130505Y76725D01*
X130375Y76984D01*
X130320Y77104D01*
X130274Y77215D01*
X130237Y77317D01*
X130209Y77400D01*
X130181Y77474D01*
X130162Y77530D01*
X130153Y77567D01*
Y77576D01*
X131004Y77789D01*
X131041Y77641D01*
X131087Y77502D01*
X131133Y77372D01*
X131180Y77252D01*
X131235Y77141D01*
X131291Y77049D01*
X131355Y76956D01*
X131411Y76873D01*
X131457Y76799D01*
X131512Y76744D01*
X131559Y76688D01*
X131596Y76642D01*
X131633Y76614D01*
X131660Y76586D01*
X131670Y76577D01*
X131679Y76568D01*
X131771Y76494D01*
X131873Y76439D01*
X132076Y76337D01*
X132270Y76263D01*
X132465Y76217D01*
X132631Y76180D01*
X132696Y76171D01*
X132760D01*
X132816Y76161D01*
X132881D01*
X133093Y76171D01*
X133297Y76207D01*
X133482Y76254D01*
X133648Y76309D01*
X133778Y76365D01*
X133833Y76392D01*
X133879Y76411D01*
X133916Y76429D01*
X133944Y76448D01*
X133962Y76457D01*
X133972D01*
X134147Y76586D01*
X134295Y76725D01*
X134425Y76882D01*
X134527Y77030D01*
X134610Y77160D01*
X134665Y77271D01*
X134684Y77317D01*
X134702Y77345D01*
X134711Y77363D01*
Y77372D01*
X134785Y77613D01*
X134841Y77853D01*
X134887Y78094D01*
X134915Y78316D01*
X134924Y78417D01*
X134933Y78510D01*
Y78593D01*
X134943Y78658D01*
Y78713D01*
Y78759D01*
Y78787D01*
Y78796D01*
X134933Y79037D01*
X134915Y79258D01*
X134878Y79462D01*
X134841Y79647D01*
X134813Y79804D01*
X134795Y79869D01*
X134776Y79924D01*
X134767Y79970D01*
X134758Y79998D01*
X134748Y80017D01*
Y80026D01*
X134656Y80239D01*
X134554Y80433D01*
X134443Y80590D01*
X134323Y80729D01*
X134221Y80840D01*
X134138Y80913D01*
X134073Y80960D01*
X134064Y80978D01*
X134055D01*
X133861Y81098D01*
X133648Y81191D01*
X133445Y81256D01*
X133251Y81292D01*
X133075Y81320D01*
X133001Y81329D01*
X132936D01*
X132890Y81339D01*
X132816D01*
X132585Y81329D01*
X132372Y81292D01*
X132197Y81237D01*
X132039Y81182D01*
X131919Y81117D01*
X131827Y81071D01*
X131771Y81034D01*
X131753Y81015D01*
X131605Y80877D01*
X131466Y80719D01*
X131355Y80553D01*
X131263Y80386D01*
X131189Y80239D01*
X131161Y80165D01*
X131143Y80109D01*
X131124Y80063D01*
X131106Y80026D01*
X131096Y80007D01*
Y79998D01*
X130264Y80192D01*
X130320Y80359D01*
X130375Y80507D01*
X130449Y80645D01*
X130514Y80784D01*
X130588Y80904D01*
X130671Y81015D01*
X130745Y81126D01*
X130819Y81219D01*
X130893Y81292D01*
X130958Y81367D01*
X131022Y81431D01*
X131069Y81477D01*
X131115Y81524D01*
X131152Y81551D01*
X131170Y81561D01*
X131180Y81570D01*
X131309Y81653D01*
X131438Y81736D01*
X131568Y81801D01*
X131706Y81856D01*
X131984Y81940D01*
X132233Y81995D01*
X132354Y82023D01*
X132455Y82032D01*
X132557Y82041D01*
X132640Y82051D01*
X132705Y82060D01*
X132797D01*
X133103Y82041D01*
D02*
G37*
G36*
X165907Y60313D02*
X163069D01*
Y59222D01*
X163078Y59120D01*
Y59046D01*
X163087Y58982D01*
X163097Y58935D01*
Y58899D01*
X163106Y58880D01*
Y58871D01*
X163152Y58723D01*
X163180Y58658D01*
X163208Y58603D01*
X163235Y58547D01*
X163254Y58510D01*
X163263Y58492D01*
X163272Y58482D01*
X163328Y58408D01*
X163393Y58334D01*
X163531Y58196D01*
X163596Y58131D01*
X163651Y58085D01*
X163688Y58057D01*
X163698Y58048D01*
X163827Y57955D01*
X163966Y57854D01*
X164114Y57752D01*
X164252Y57650D01*
X164382Y57567D01*
X164484Y57502D01*
X164520Y57475D01*
X164548Y57456D01*
X164567Y57438D01*
X164576D01*
X165907Y56596D01*
Y55542D01*
X164169Y56643D01*
X163984Y56772D01*
X163818Y56892D01*
X163679Y57012D01*
X163550Y57114D01*
X163457Y57207D01*
X163383Y57281D01*
X163337Y57327D01*
X163319Y57345D01*
X163263Y57419D01*
X163198Y57502D01*
X163097Y57669D01*
X163060Y57743D01*
X163023Y57798D01*
X163004Y57835D01*
X162995Y57854D01*
X162967Y57687D01*
X162939Y57530D01*
X162893Y57392D01*
X162856Y57253D01*
X162810Y57133D01*
X162755Y57022D01*
X162708Y56920D01*
X162662Y56828D01*
X162607Y56754D01*
X162560Y56680D01*
X162523Y56624D01*
X162486Y56578D01*
X162459Y56541D01*
X162431Y56513D01*
X162422Y56504D01*
X162412Y56495D01*
X162320Y56421D01*
X162228Y56347D01*
X162033Y56236D01*
X161839Y56162D01*
X161654Y56106D01*
X161497Y56069D01*
X161432Y56060D01*
X161368D01*
X161322Y56051D01*
X161285D01*
X161266D01*
X161257D01*
X161063Y56060D01*
X160887Y56088D01*
X160721Y56134D01*
X160582Y56180D01*
X160462Y56236D01*
X160369Y56273D01*
X160314Y56310D01*
X160305Y56319D01*
X160295D01*
X160147Y56430D01*
X160018Y56541D01*
X159907Y56661D01*
X159824Y56772D01*
X159759Y56874D01*
X159722Y56957D01*
X159694Y57012D01*
X159685Y57022D01*
Y57031D01*
X159657Y57114D01*
X159630Y57216D01*
X159583Y57419D01*
X159556Y57641D01*
X159528Y57845D01*
X159519Y58039D01*
Y58122D01*
X159509Y58196D01*
Y61164D01*
X165907D01*
Y60313D01*
D02*
G37*
G36*
X164215Y55043D02*
X164363Y55025D01*
X164502Y54997D01*
X164641Y54960D01*
X164872Y54867D01*
X164983Y54821D01*
X165075Y54766D01*
X165168Y54710D01*
X165242Y54664D01*
X165306Y54609D01*
X165362Y54572D01*
X165408Y54535D01*
X165436Y54507D01*
X165454Y54488D01*
X165464Y54479D01*
X165565Y54368D01*
X165648Y54248D01*
X165722Y54118D01*
X165787Y53989D01*
X165833Y53869D01*
X165880Y53740D01*
X165944Y53490D01*
X165972Y53379D01*
X165991Y53277D01*
X166000Y53185D01*
X166009Y53102D01*
X166018Y53037D01*
Y52944D01*
X166009Y52769D01*
X165991Y52611D01*
X165963Y52454D01*
X165935Y52306D01*
X165889Y52177D01*
X165843Y52048D01*
X165796Y51927D01*
X165741Y51826D01*
X165685Y51733D01*
X165639Y51650D01*
X165593Y51585D01*
X165547Y51521D01*
X165519Y51474D01*
X165491Y51447D01*
X165473Y51428D01*
X165464Y51419D01*
X165353Y51317D01*
X165242Y51225D01*
X165131Y51151D01*
X165011Y51086D01*
X164900Y51021D01*
X164779Y50975D01*
X164567Y50910D01*
X164465Y50883D01*
X164373Y50864D01*
X164289Y50855D01*
X164225Y50846D01*
X164169Y50836D01*
X164123D01*
X164095D01*
X164086D01*
X163873Y50846D01*
X163679Y50883D01*
X163503Y50938D01*
X163356Y50993D01*
X163235Y51049D01*
X163143Y51104D01*
X163087Y51142D01*
X163078Y51151D01*
X163069D01*
X162921Y51280D01*
X162792Y51419D01*
X162690Y51567D01*
X162597Y51705D01*
X162533Y51835D01*
X162486Y51946D01*
X162468Y51983D01*
X162459Y52010D01*
X162449Y52029D01*
Y52038D01*
X162376Y51872D01*
X162292Y51733D01*
X162209Y51613D01*
X162126Y51511D01*
X162052Y51437D01*
X161996Y51382D01*
X161959Y51345D01*
X161941Y51336D01*
X161812Y51252D01*
X161682Y51197D01*
X161553Y51151D01*
X161423Y51123D01*
X161322Y51104D01*
X161238Y51095D01*
X161183D01*
X161174D01*
X161164D01*
X161035Y51104D01*
X160915Y51114D01*
X160684Y51178D01*
X160480Y51262D01*
X160305Y51354D01*
X160166Y51447D01*
X160110Y51493D01*
X160055Y51530D01*
X160018Y51567D01*
X159990Y51595D01*
X159981Y51604D01*
X159972Y51613D01*
X159888Y51715D01*
X159805Y51816D01*
X159740Y51927D01*
X159685Y52038D01*
X159602Y52260D01*
X159546Y52482D01*
X159519Y52575D01*
X159509Y52667D01*
X159500Y52750D01*
X159491Y52824D01*
X159482Y52880D01*
Y52963D01*
X159491Y53111D01*
X159500Y53259D01*
X159556Y53518D01*
X159593Y53638D01*
X159630Y53749D01*
X159676Y53850D01*
X159722Y53943D01*
X159768Y54017D01*
X159815Y54091D01*
X159852Y54156D01*
X159888Y54202D01*
X159916Y54239D01*
X159944Y54267D01*
X159953Y54285D01*
X159962Y54294D01*
X160055Y54377D01*
X160147Y54461D01*
X160249Y54525D01*
X160351Y54581D01*
X160545Y54673D01*
X160730Y54729D01*
X160887Y54766D01*
X160961Y54775D01*
X161016Y54784D01*
X161072Y54794D01*
X161109D01*
X161127D01*
X161137D01*
X161303Y54784D01*
X161460Y54756D01*
X161599Y54720D01*
X161719Y54673D01*
X161812Y54636D01*
X161886Y54599D01*
X161922Y54572D01*
X161941Y54562D01*
X162052Y54461D01*
X162154Y54350D01*
X162246Y54229D01*
X162320Y54109D01*
X162376Y53998D01*
X162412Y53915D01*
X162431Y53878D01*
X162440Y53850D01*
X162449Y53841D01*
Y53832D01*
X162514Y54045D01*
X162597Y54220D01*
X162699Y54377D01*
X162792Y54507D01*
X162884Y54609D01*
X162958Y54682D01*
X163004Y54720D01*
X163013Y54738D01*
X163023D01*
X163189Y54840D01*
X163365Y54923D01*
X163531Y54978D01*
X163698Y55015D01*
X163846Y55034D01*
X163910Y55043D01*
X163966D01*
X164003Y55052D01*
X164040D01*
X164058D01*
X164067D01*
X164215Y55043D01*
D02*
G37*
G36*
X148037Y61488D02*
X148360Y61451D01*
X148647Y61404D01*
X148785Y61367D01*
X148906Y61340D01*
X149017Y61312D01*
X149118Y61275D01*
X149211Y61247D01*
X149285Y61229D01*
X149340Y61201D01*
X149386Y61192D01*
X149414Y61173D01*
X149423D01*
X149701Y61035D01*
X149950Y60877D01*
X150163Y60711D01*
X150246Y60628D01*
X150330Y60554D01*
X150403Y60480D01*
X150468Y60406D01*
X150524Y60341D01*
X150561Y60286D01*
X150598Y60249D01*
X150625Y60212D01*
X150635Y60193D01*
X150644Y60184D01*
X150718Y60054D01*
X150782Y59925D01*
X150884Y59648D01*
X150958Y59370D01*
X151004Y59102D01*
X151023Y58973D01*
X151041Y58862D01*
X151051Y58760D01*
Y58677D01*
X151060Y58603D01*
Y58501D01*
X151051Y58316D01*
X151032Y58141D01*
X151014Y57974D01*
X150977Y57817D01*
X150931Y57669D01*
X150884Y57530D01*
X150838Y57401D01*
X150782Y57281D01*
X150736Y57179D01*
X150690Y57077D01*
X150644Y57003D01*
X150598Y56929D01*
X150561Y56883D01*
X150542Y56837D01*
X150524Y56819D01*
X150514Y56809D01*
X150403Y56680D01*
X150293Y56569D01*
X150163Y56467D01*
X150034Y56365D01*
X149775Y56199D01*
X149516Y56070D01*
X149396Y56014D01*
X149285Y55968D01*
X149183Y55931D01*
X149100Y55903D01*
X149026Y55876D01*
X148970Y55857D01*
X148933Y55848D01*
X148924D01*
X148712Y56698D01*
X148859Y56735D01*
X148998Y56782D01*
X149128Y56828D01*
X149248Y56874D01*
X149359Y56929D01*
X149451Y56985D01*
X149544Y57050D01*
X149627Y57105D01*
X149701Y57151D01*
X149756Y57207D01*
X149812Y57253D01*
X149858Y57290D01*
X149886Y57327D01*
X149913Y57355D01*
X149923Y57364D01*
X149932Y57373D01*
X150006Y57466D01*
X150061Y57568D01*
X150163Y57771D01*
X150237Y57965D01*
X150283Y58159D01*
X150320Y58326D01*
X150330Y58390D01*
Y58455D01*
X150339Y58510D01*
Y58575D01*
X150330Y58788D01*
X150293Y58991D01*
X150246Y59176D01*
X150191Y59343D01*
X150135Y59472D01*
X150108Y59528D01*
X150089Y59574D01*
X150071Y59611D01*
X150052Y59639D01*
X150043Y59657D01*
Y59666D01*
X149913Y59842D01*
X149775Y59990D01*
X149618Y60119D01*
X149470Y60221D01*
X149340Y60304D01*
X149229Y60360D01*
X149183Y60378D01*
X149155Y60397D01*
X149137Y60406D01*
X149128D01*
X148887Y60480D01*
X148647Y60535D01*
X148406Y60581D01*
X148184Y60609D01*
X148083Y60619D01*
X147990Y60628D01*
X147907D01*
X147842Y60637D01*
X147787D01*
X147741D01*
X147713D01*
X147704D01*
X147463Y60628D01*
X147241Y60609D01*
X147038Y60572D01*
X146853Y60535D01*
X146696Y60508D01*
X146631Y60489D01*
X146576Y60471D01*
X146530Y60461D01*
X146502Y60452D01*
X146483Y60443D01*
X146474D01*
X146261Y60350D01*
X146067Y60249D01*
X145910Y60138D01*
X145771Y60018D01*
X145660Y59916D01*
X145587Y59833D01*
X145540Y59768D01*
X145522Y59759D01*
Y59749D01*
X145402Y59555D01*
X145309Y59343D01*
X145244Y59139D01*
X145207Y58945D01*
X145180Y58769D01*
X145170Y58695D01*
Y58631D01*
X145161Y58584D01*
Y58510D01*
X145170Y58279D01*
X145207Y58067D01*
X145263Y57891D01*
X145318Y57734D01*
X145383Y57614D01*
X145429Y57521D01*
X145466Y57466D01*
X145485Y57447D01*
X145624Y57299D01*
X145781Y57161D01*
X145947Y57050D01*
X146114Y56957D01*
X146261Y56883D01*
X146335Y56856D01*
X146391Y56837D01*
X146437Y56819D01*
X146474Y56800D01*
X146493Y56791D01*
X146502D01*
X146308Y55959D01*
X146141Y56014D01*
X145993Y56070D01*
X145855Y56144D01*
X145716Y56208D01*
X145596Y56282D01*
X145485Y56365D01*
X145374Y56439D01*
X145281Y56514D01*
X145207Y56587D01*
X145133Y56652D01*
X145069Y56717D01*
X145022Y56763D01*
X144976Y56809D01*
X144949Y56846D01*
X144939Y56865D01*
X144930Y56874D01*
X144847Y57003D01*
X144764Y57133D01*
X144699Y57262D01*
X144643Y57401D01*
X144560Y57678D01*
X144505Y57928D01*
X144477Y58048D01*
X144468Y58150D01*
X144459Y58252D01*
X144449Y58335D01*
X144440Y58400D01*
Y58492D01*
X144459Y58797D01*
X144505Y59093D01*
X144560Y59352D01*
X144597Y59472D01*
X144634Y59583D01*
X144671Y59685D01*
X144708Y59777D01*
X144736Y59851D01*
X144764Y59925D01*
X144791Y59971D01*
X144810Y60008D01*
X144819Y60036D01*
X144828Y60045D01*
X144986Y60295D01*
X145170Y60508D01*
X145355Y60693D01*
X145540Y60850D01*
X145707Y60970D01*
X145781Y61016D01*
X145845Y61053D01*
X145892Y61090D01*
X145929Y61108D01*
X145956Y61118D01*
X145966Y61127D01*
X146252Y61256D01*
X146548Y61349D01*
X146844Y61414D01*
X147112Y61460D01*
X147232Y61478D01*
X147352Y61488D01*
X147445Y61497D01*
X147537D01*
X147602Y61506D01*
X147657D01*
X147695D01*
X147704D01*
X148037Y61488D01*
D02*
G37*
G36*
X150949Y50994D02*
X150191D01*
Y54147D01*
X150034Y54036D01*
X149969Y53980D01*
X149904Y53934D01*
X149849Y53888D01*
X149812Y53851D01*
X149784Y53823D01*
X149775Y53814D01*
X149728Y53767D01*
X149682Y53712D01*
X149562Y53583D01*
X149423Y53435D01*
X149285Y53278D01*
X149164Y53130D01*
X149109Y53065D01*
X149054Y53009D01*
X149017Y52963D01*
X148989Y52926D01*
X148970Y52908D01*
X148961Y52898D01*
X148832Y52751D01*
X148712Y52603D01*
X148591Y52473D01*
X148490Y52353D01*
X148388Y52242D01*
X148295Y52150D01*
X148212Y52057D01*
X148138Y51983D01*
X148064Y51909D01*
X148009Y51854D01*
X147963Y51807D01*
X147916Y51761D01*
X147861Y51715D01*
X147842Y51697D01*
X147685Y51567D01*
X147547Y51456D01*
X147408Y51364D01*
X147297Y51290D01*
X147195Y51234D01*
X147121Y51197D01*
X147075Y51179D01*
X147057Y51170D01*
X146918Y51114D01*
X146779Y51077D01*
X146650Y51040D01*
X146539Y51022D01*
X146437Y51012D01*
X146363Y51003D01*
X146317D01*
X146298D01*
X146160Y51012D01*
X146030Y51031D01*
X145901Y51049D01*
X145790Y51086D01*
X145568Y51179D01*
X145392Y51271D01*
X145309Y51327D01*
X145244Y51373D01*
X145180Y51419D01*
X145133Y51465D01*
X145097Y51502D01*
X145059Y51521D01*
X145050Y51539D01*
X145041Y51549D01*
X144949Y51650D01*
X144865Y51761D01*
X144801Y51881D01*
X144745Y52002D01*
X144653Y52242D01*
X144588Y52482D01*
X144570Y52584D01*
X144551Y52686D01*
X144542Y52778D01*
X144532Y52852D01*
X144523Y52917D01*
Y53009D01*
X144532Y53176D01*
X144542Y53333D01*
X144570Y53481D01*
X144597Y53620D01*
X144634Y53749D01*
X144671Y53869D01*
X144717Y53980D01*
X144764Y54082D01*
X144810Y54174D01*
X144856Y54248D01*
X144893Y54313D01*
X144930Y54369D01*
X144958Y54415D01*
X144986Y54443D01*
X144995Y54461D01*
X145004Y54470D01*
X145097Y54563D01*
X145198Y54646D01*
X145309Y54729D01*
X145420Y54794D01*
X145642Y54905D01*
X145864Y54979D01*
X145966Y55006D01*
X146067Y55034D01*
X146151Y55053D01*
X146224Y55071D01*
X146289Y55080D01*
X146335D01*
X146363Y55090D01*
X146372D01*
X146456Y54285D01*
X146243Y54267D01*
X146058Y54230D01*
X145892Y54174D01*
X145762Y54110D01*
X145651Y54054D01*
X145577Y53999D01*
X145531Y53962D01*
X145513Y53943D01*
X145402Y53804D01*
X145318Y53657D01*
X145254Y53499D01*
X145217Y53361D01*
X145189Y53231D01*
X145180Y53120D01*
X145170Y53083D01*
Y53028D01*
X145180Y52834D01*
X145217Y52658D01*
X145272Y52510D01*
X145328Y52381D01*
X145392Y52279D01*
X145439Y52214D01*
X145476Y52168D01*
X145494Y52150D01*
X145624Y52039D01*
X145753Y51955D01*
X145882Y51891D01*
X146012Y51854D01*
X146114Y51826D01*
X146206Y51817D01*
X146261Y51807D01*
X146271D01*
X146280D01*
X146446Y51826D01*
X146622Y51863D01*
X146779Y51928D01*
X146927Y51992D01*
X147047Y52066D01*
X147149Y52131D01*
X147186Y52150D01*
X147214Y52168D01*
X147223Y52186D01*
X147232D01*
X147334Y52260D01*
X147436Y52353D01*
X147547Y52455D01*
X147657Y52566D01*
X147879Y52797D01*
X148101Y53028D01*
X148203Y53148D01*
X148295Y53250D01*
X148379Y53351D01*
X148453Y53435D01*
X148508Y53499D01*
X148554Y53555D01*
X148582Y53592D01*
X148591Y53601D01*
X148785Y53832D01*
X148970Y54045D01*
X149137Y54221D01*
X149276Y54359D01*
X149396Y54479D01*
X149479Y54563D01*
X149534Y54609D01*
X149544Y54627D01*
X149553D01*
X149710Y54757D01*
X149858Y54858D01*
X150006Y54951D01*
X150135Y55025D01*
X150246Y55080D01*
X150330Y55117D01*
X150385Y55136D01*
X150394Y55145D01*
X150403D01*
X150505Y55182D01*
X150598Y55201D01*
X150690Y55219D01*
X150773Y55228D01*
X150847Y55238D01*
X150903D01*
X150940D01*
X150949D01*
Y50994D01*
D02*
G37*
G36*
X258458Y51759D02*
X258634Y51741D01*
X258800Y51704D01*
X258958Y51657D01*
X259096Y51593D01*
X259235Y51537D01*
X259355Y51463D01*
X259466Y51399D01*
X259558Y51334D01*
X259651Y51260D01*
X259725Y51204D01*
X259780Y51149D01*
X259827Y51093D01*
X259863Y51056D01*
X259882Y51038D01*
X259891Y51029D01*
X260012Y50862D01*
X260113Y50668D01*
X260206Y50465D01*
X260289Y50252D01*
X260354Y50030D01*
X260409Y49808D01*
X260455Y49577D01*
X260492Y49365D01*
X260520Y49152D01*
X260539Y48958D01*
X260557Y48782D01*
X260566Y48634D01*
Y48505D01*
X260576Y48412D01*
Y48375D01*
Y48348D01*
Y48338D01*
Y48329D01*
X260566Y48033D01*
X260548Y47756D01*
X260520Y47497D01*
X260474Y47256D01*
X260427Y47044D01*
X260381Y46850D01*
X260326Y46674D01*
X260261Y46517D01*
X260206Y46387D01*
X260150Y46267D01*
X260104Y46175D01*
X260049Y46091D01*
X260012Y46027D01*
X259984Y45990D01*
X259965Y45962D01*
X259956Y45953D01*
X259836Y45823D01*
X259706Y45712D01*
X259577Y45620D01*
X259447Y45537D01*
X259309Y45463D01*
X259179Y45407D01*
X259050Y45361D01*
X258920Y45324D01*
X258810Y45296D01*
X258699Y45269D01*
X258606Y45250D01*
X258523Y45241D01*
X258449D01*
X258403Y45232D01*
X258356D01*
X258144Y45241D01*
X257950Y45278D01*
X257774Y45315D01*
X257617Y45370D01*
X257497Y45417D01*
X257404Y45463D01*
X257367Y45472D01*
X257339Y45491D01*
X257330Y45500D01*
X257321D01*
X257164Y45611D01*
X257016Y45740D01*
X256896Y45870D01*
X256794Y45999D01*
X256711Y46119D01*
X256655Y46212D01*
X256637Y46249D01*
X256618Y46276D01*
X256609Y46286D01*
Y46295D01*
X256517Y46489D01*
X256452Y46693D01*
X256406Y46877D01*
X256378Y47053D01*
X256350Y47201D01*
Y47256D01*
X256341Y47312D01*
Y47358D01*
Y47386D01*
Y47404D01*
Y47414D01*
X256350Y47580D01*
X256369Y47737D01*
X256396Y47894D01*
X256424Y48033D01*
X256470Y48162D01*
X256517Y48292D01*
X256563Y48403D01*
X256618Y48505D01*
X256674Y48597D01*
X256720Y48680D01*
X256766Y48745D01*
X256812Y48810D01*
X256840Y48856D01*
X256868Y48884D01*
X256887Y48902D01*
X256896Y48911D01*
X256997Y49013D01*
X257108Y49106D01*
X257229Y49180D01*
X257339Y49244D01*
X257450Y49309D01*
X257561Y49355D01*
X257774Y49420D01*
X257866Y49448D01*
X257959Y49466D01*
X258033Y49475D01*
X258107Y49485D01*
X258162Y49494D01*
X258236D01*
X258403Y49485D01*
X258560Y49457D01*
X258708Y49429D01*
X258837Y49392D01*
X258948Y49346D01*
X259031Y49318D01*
X259087Y49290D01*
X259096Y49281D01*
X259105D01*
X259253Y49189D01*
X259383Y49087D01*
X259503Y48985D01*
X259595Y48875D01*
X259679Y48782D01*
X259743Y48708D01*
X259780Y48653D01*
X259790Y48643D01*
Y48810D01*
X259780Y48976D01*
X259771Y49124D01*
X259753Y49272D01*
X259743Y49401D01*
X259725Y49522D01*
X259706Y49633D01*
X259679Y49734D01*
X259660Y49827D01*
X259642Y49901D01*
X259623Y49965D01*
X259614Y50021D01*
X259595Y50058D01*
X259586Y50086D01*
X259577Y50104D01*
Y50113D01*
X259485Y50298D01*
X259392Y50465D01*
X259290Y50594D01*
X259198Y50705D01*
X259115Y50798D01*
X259050Y50862D01*
X259004Y50899D01*
X258985Y50908D01*
X258874Y50982D01*
X258763Y51029D01*
X258652Y51066D01*
X258541Y51093D01*
X258458Y51112D01*
X258384Y51121D01*
X258319D01*
X258153Y51103D01*
X257996Y51066D01*
X257866Y51010D01*
X257746Y50955D01*
X257654Y50890D01*
X257589Y50834D01*
X257552Y50798D01*
X257534Y50779D01*
X257469Y50696D01*
X257404Y50594D01*
X257349Y50483D01*
X257312Y50372D01*
X257275Y50271D01*
X257247Y50187D01*
X257238Y50132D01*
X257229Y50123D01*
Y50113D01*
X256443Y50178D01*
X256498Y50437D01*
X256581Y50668D01*
X256674Y50872D01*
X256775Y51038D01*
X256877Y51167D01*
X256914Y51223D01*
X256960Y51269D01*
X256988Y51297D01*
X257016Y51325D01*
X257025Y51334D01*
X257034Y51343D01*
X257127Y51417D01*
X257229Y51482D01*
X257432Y51593D01*
X257635Y51667D01*
X257829Y51713D01*
X258005Y51750D01*
X258079Y51759D01*
X258144D01*
X258199Y51768D01*
X258273D01*
X258458Y51759D01*
D02*
G37*
G36*
X266659Y48042D02*
Y47857D01*
X266650Y47682D01*
X266641Y47515D01*
X266622Y47358D01*
X266604Y47220D01*
X266585Y47090D01*
X266557Y46970D01*
X266539Y46859D01*
X266520Y46757D01*
X266493Y46674D01*
X266474Y46600D01*
X266456Y46545D01*
X266437Y46498D01*
X266428Y46461D01*
X266419Y46443D01*
Y46434D01*
X266317Y46230D01*
X266187Y46045D01*
X266058Y45897D01*
X265919Y45768D01*
X265799Y45666D01*
X265697Y45592D01*
X265660Y45574D01*
X265633Y45555D01*
X265614Y45537D01*
X265605D01*
X265374Y45435D01*
X265133Y45361D01*
X264884Y45306D01*
X264653Y45269D01*
X264551Y45259D01*
X264449Y45250D01*
X264357Y45241D01*
X264283D01*
X264218Y45232D01*
X264135D01*
X263802Y45250D01*
X263654Y45269D01*
X263516Y45287D01*
X263377Y45315D01*
X263257Y45343D01*
X263146Y45370D01*
X263044Y45407D01*
X262952Y45444D01*
X262878Y45472D01*
X262804Y45500D01*
X262748Y45528D01*
X262702Y45555D01*
X262674Y45564D01*
X262656Y45583D01*
X262647D01*
X262443Y45722D01*
X262277Y45879D01*
X262147Y46027D01*
X262036Y46175D01*
X261953Y46304D01*
X261898Y46406D01*
X261879Y46443D01*
X261861Y46471D01*
X261851Y46489D01*
Y46498D01*
X261814Y46609D01*
X261777Y46729D01*
X261722Y46979D01*
X261685Y47238D01*
X261657Y47488D01*
X261648Y47599D01*
X261639Y47709D01*
Y47802D01*
X261629Y47885D01*
Y47950D01*
Y47996D01*
Y48033D01*
Y48042D01*
Y51741D01*
X262480D01*
Y48042D01*
Y47830D01*
X262498Y47626D01*
X262517Y47451D01*
X262545Y47284D01*
X262572Y47136D01*
X262610Y46998D01*
X262637Y46877D01*
X262674Y46776D01*
X262711Y46693D01*
X262748Y46609D01*
X262785Y46554D01*
X262813Y46498D01*
X262841Y46461D01*
X262859Y46434D01*
X262868Y46424D01*
X262878Y46415D01*
X262961Y46341D01*
X263053Y46276D01*
X263257Y46175D01*
X263469Y46101D01*
X263691Y46055D01*
X263895Y46018D01*
X263978Y46008D01*
X264061D01*
X264116Y45999D01*
X264209D01*
X264403Y46008D01*
X264579Y46036D01*
X264745Y46064D01*
X264875Y46110D01*
X264986Y46147D01*
X265069Y46175D01*
X265115Y46203D01*
X265133Y46212D01*
X265263Y46295D01*
X265374Y46397D01*
X265466Y46498D01*
X265531Y46591D01*
X265587Y46683D01*
X265633Y46748D01*
X265651Y46794D01*
X265660Y46813D01*
X265688Y46896D01*
X265707Y46979D01*
X265744Y47173D01*
X265772Y47377D01*
X265790Y47580D01*
X265799Y47756D01*
Y47839D01*
X265809Y47904D01*
Y47959D01*
Y48005D01*
Y48033D01*
Y48042D01*
Y51741D01*
X266659D01*
Y48042D01*
D02*
G37*
G36*
X289659Y7861D02*
X289760Y7713D01*
X289881Y7565D01*
X289991Y7436D01*
X290102Y7325D01*
X290186Y7232D01*
X290223Y7205D01*
X290250Y7177D01*
X290260Y7168D01*
X290269Y7158D01*
X290463Y7001D01*
X290657Y6853D01*
X290842Y6724D01*
X291027Y6622D01*
X291184Y6530D01*
X291249Y6493D01*
X291304Y6465D01*
X291351Y6437D01*
X291388Y6428D01*
X291406Y6410D01*
X291415D01*
Y5651D01*
X291277Y5707D01*
X291138Y5772D01*
X290999Y5836D01*
X290870Y5901D01*
X290759Y5957D01*
X290666Y6003D01*
X290611Y6040D01*
X290602Y6049D01*
X290592D01*
X290426Y6151D01*
X290278Y6252D01*
X290149Y6345D01*
X290047Y6428D01*
X289954Y6493D01*
X289899Y6548D01*
X289853Y6585D01*
X289844Y6594D01*
Y1593D01*
X289058D01*
Y8018D01*
X289566D01*
X289659Y7861D01*
D02*
G37*
G36*
X298137Y1593D02*
X297286D01*
Y4431D01*
X296195D01*
X296094Y4422D01*
X296020D01*
X295955Y4412D01*
X295909Y4403D01*
X295872D01*
X295853Y4394D01*
X295844D01*
X295696Y4348D01*
X295631Y4320D01*
X295576Y4292D01*
X295520Y4265D01*
X295483Y4246D01*
X295465Y4237D01*
X295456Y4228D01*
X295382Y4172D01*
X295308Y4107D01*
X295169Y3969D01*
X295104Y3904D01*
X295058Y3849D01*
X295030Y3812D01*
X295021Y3802D01*
X294929Y3673D01*
X294827Y3534D01*
X294725Y3386D01*
X294624Y3248D01*
X294540Y3118D01*
X294476Y3016D01*
X294448Y2979D01*
X294429Y2952D01*
X294411Y2933D01*
Y2924D01*
X293570Y1593D01*
X292516D01*
X293616Y3331D01*
X293745Y3516D01*
X293865Y3682D01*
X293986Y3821D01*
X294087Y3950D01*
X294180Y4043D01*
X294254Y4117D01*
X294300Y4163D01*
X294318Y4181D01*
X294392Y4237D01*
X294476Y4302D01*
X294642Y4403D01*
X294716Y4440D01*
X294771Y4477D01*
X294809Y4496D01*
X294827Y4505D01*
X294660Y4533D01*
X294503Y4561D01*
X294365Y4607D01*
X294226Y4644D01*
X294106Y4690D01*
X293995Y4745D01*
X293893Y4792D01*
X293801Y4838D01*
X293727Y4893D01*
X293653Y4940D01*
X293597Y4976D01*
X293551Y5013D01*
X293514Y5041D01*
X293486Y5069D01*
X293477Y5078D01*
X293468Y5088D01*
X293394Y5180D01*
X293320Y5272D01*
X293209Y5466D01*
X293135Y5661D01*
X293079Y5846D01*
X293043Y6003D01*
X293033Y6068D01*
Y6132D01*
X293024Y6178D01*
Y6215D01*
Y6234D01*
Y6243D01*
X293033Y6437D01*
X293061Y6613D01*
X293107Y6779D01*
X293153Y6918D01*
X293209Y7038D01*
X293246Y7131D01*
X293283Y7186D01*
X293292Y7196D01*
Y7205D01*
X293403Y7353D01*
X293514Y7482D01*
X293634Y7593D01*
X293745Y7676D01*
X293847Y7741D01*
X293930Y7778D01*
X293986Y7806D01*
X293995Y7815D01*
X294004D01*
X294087Y7843D01*
X294189Y7870D01*
X294392Y7917D01*
X294614Y7944D01*
X294818Y7972D01*
X295012Y7981D01*
X295095D01*
X295169Y7991D01*
X298137D01*
Y1593D01*
D02*
G37*
G36*
X285202Y8000D02*
X285433Y7963D01*
X285628Y7898D01*
X285794Y7833D01*
X285933Y7759D01*
X285988Y7732D01*
X286034Y7695D01*
X286071Y7676D01*
X286099Y7658D01*
X286108Y7639D01*
X286118D01*
X286284Y7491D01*
X286423Y7316D01*
X286543Y7140D01*
X286635Y6974D01*
X286709Y6816D01*
X286746Y6752D01*
X286765Y6687D01*
X286783Y6641D01*
X286802Y6604D01*
X286811Y6585D01*
Y6576D01*
X286848Y6437D01*
X286885Y6299D01*
X286940Y5993D01*
X286987Y5688D01*
X287014Y5402D01*
X287024Y5263D01*
X287033Y5143D01*
Y5032D01*
X287042Y4930D01*
Y4856D01*
Y4792D01*
Y4755D01*
Y4745D01*
X287033Y4422D01*
X287014Y4117D01*
X286987Y3839D01*
X286940Y3580D01*
X286894Y3340D01*
X286839Y3127D01*
X286783Y2933D01*
X286728Y2767D01*
X286672Y2619D01*
X286608Y2490D01*
X286561Y2378D01*
X286515Y2295D01*
X286469Y2221D01*
X286441Y2175D01*
X286423Y2147D01*
X286413Y2138D01*
X286312Y2027D01*
X286201Y1926D01*
X286081Y1833D01*
X285960Y1759D01*
X285840Y1694D01*
X285720Y1639D01*
X285600Y1602D01*
X285489Y1565D01*
X285378Y1537D01*
X285276Y1519D01*
X285184Y1500D01*
X285110Y1491D01*
X285045Y1482D01*
X284953D01*
X284703Y1500D01*
X284472Y1537D01*
X284278Y1602D01*
X284111Y1667D01*
X283973Y1731D01*
X283926Y1768D01*
X283880Y1796D01*
X283843Y1814D01*
X283815Y1833D01*
X283806Y1851D01*
X283797D01*
X283631Y2009D01*
X283492Y2175D01*
X283372Y2360D01*
X283279Y2526D01*
X283205Y2684D01*
X283168Y2748D01*
X283150Y2813D01*
X283131Y2859D01*
X283113Y2896D01*
X283104Y2915D01*
Y2924D01*
X283057Y3063D01*
X283020Y3201D01*
X282965Y3497D01*
X282919Y3802D01*
X282891Y4098D01*
X282882Y4228D01*
X282872Y4348D01*
Y4459D01*
X282863Y4561D01*
Y4634D01*
Y4699D01*
Y4736D01*
Y4745D01*
Y4921D01*
X282872Y5088D01*
Y5235D01*
X282882Y5383D01*
X282900Y5513D01*
X282909Y5642D01*
X282919Y5753D01*
X282937Y5855D01*
X282946Y5947D01*
X282965Y6030D01*
X282974Y6095D01*
X282983Y6151D01*
X282993Y6197D01*
X283002Y6225D01*
X283011Y6243D01*
Y6252D01*
X283067Y6456D01*
X283131Y6641D01*
X283205Y6798D01*
X283261Y6937D01*
X283325Y7057D01*
X283362Y7140D01*
X283399Y7186D01*
X283409Y7205D01*
X283510Y7343D01*
X283612Y7464D01*
X283723Y7565D01*
X283825Y7658D01*
X283917Y7722D01*
X283991Y7769D01*
X284037Y7796D01*
X284047Y7806D01*
X284056D01*
X284204Y7880D01*
X284361Y7926D01*
X284509Y7963D01*
X284648Y7991D01*
X284768Y8009D01*
X284869Y8018D01*
X284953D01*
X285202Y8000D01*
D02*
G37*
G36*
X330189Y99967D02*
X330346Y99958D01*
X330494Y99930D01*
X330633Y99903D01*
X330762Y99866D01*
X330882Y99829D01*
X330993Y99783D01*
X331095Y99736D01*
X331187Y99690D01*
X331261Y99644D01*
X331326Y99607D01*
X331381Y99570D01*
X331428Y99542D01*
X331455Y99514D01*
X331474Y99505D01*
X331483Y99496D01*
X331576Y99403D01*
X331659Y99302D01*
X331742Y99191D01*
X331807Y99080D01*
X331918Y98858D01*
X331992Y98636D01*
X332019Y98534D01*
X332047Y98433D01*
X332066Y98350D01*
X332084Y98275D01*
X332093Y98211D01*
Y98165D01*
X332103Y98137D01*
Y98128D01*
X331298Y98044D01*
X331280Y98257D01*
X331243Y98442D01*
X331187Y98608D01*
X331123Y98738D01*
X331067Y98849D01*
X331012Y98923D01*
X330975Y98969D01*
X330956Y98987D01*
X330817Y99098D01*
X330670Y99182D01*
X330512Y99246D01*
X330374Y99283D01*
X330244Y99311D01*
X330133Y99320D01*
X330096Y99330D01*
X330041D01*
X329847Y99320D01*
X329671Y99283D01*
X329523Y99228D01*
X329394Y99172D01*
X329292Y99108D01*
X329227Y99061D01*
X329181Y99024D01*
X329162Y99006D01*
X329052Y98876D01*
X328968Y98747D01*
X328904Y98618D01*
X328867Y98488D01*
X328839Y98386D01*
X328830Y98294D01*
X328820Y98238D01*
Y98229D01*
Y98220D01*
X328839Y98054D01*
X328876Y97878D01*
X328941Y97721D01*
X329005Y97573D01*
X329079Y97453D01*
X329144Y97351D01*
X329162Y97314D01*
X329181Y97286D01*
X329199Y97277D01*
Y97268D01*
X329273Y97166D01*
X329366Y97064D01*
X329468Y96953D01*
X329579Y96842D01*
X329810Y96621D01*
X330041Y96399D01*
X330161Y96297D01*
X330263Y96205D01*
X330364Y96121D01*
X330448Y96047D01*
X330512Y95992D01*
X330568Y95946D01*
X330605Y95918D01*
X330614Y95909D01*
X330845Y95715D01*
X331058Y95530D01*
X331233Y95363D01*
X331372Y95225D01*
X331492Y95104D01*
X331576Y95021D01*
X331622Y94966D01*
X331640Y94956D01*
Y94947D01*
X331770Y94790D01*
X331871Y94642D01*
X331964Y94494D01*
X332038Y94365D01*
X332093Y94254D01*
X332130Y94171D01*
X332149Y94115D01*
X332158Y94106D01*
Y94096D01*
X332195Y93995D01*
X332214Y93902D01*
X332232Y93810D01*
X332241Y93727D01*
X332251Y93653D01*
Y93597D01*
Y93560D01*
Y93551D01*
X328007D01*
Y94309D01*
X331160D01*
X331049Y94466D01*
X330993Y94531D01*
X330947Y94596D01*
X330901Y94651D01*
X330864Y94688D01*
X330836Y94716D01*
X330827Y94725D01*
X330780Y94771D01*
X330725Y94818D01*
X330596Y94938D01*
X330448Y95077D01*
X330290Y95215D01*
X330143Y95335D01*
X330078Y95391D01*
X330022Y95446D01*
X329976Y95483D01*
X329939Y95511D01*
X329921Y95530D01*
X329911Y95539D01*
X329763Y95668D01*
X329616Y95788D01*
X329486Y95909D01*
X329366Y96010D01*
X329255Y96112D01*
X329162Y96205D01*
X329070Y96288D01*
X328996Y96362D01*
X328922Y96436D01*
X328867Y96491D01*
X328820Y96537D01*
X328774Y96584D01*
X328728Y96639D01*
X328709Y96657D01*
X328580Y96815D01*
X328469Y96953D01*
X328377Y97092D01*
X328303Y97203D01*
X328247Y97305D01*
X328210Y97379D01*
X328192Y97425D01*
X328182Y97443D01*
X328127Y97582D01*
X328090Y97721D01*
X328053Y97850D01*
X328035Y97961D01*
X328025Y98063D01*
X328016Y98137D01*
Y98183D01*
Y98202D01*
X328025Y98340D01*
X328044Y98470D01*
X328062Y98599D01*
X328099Y98710D01*
X328192Y98932D01*
X328284Y99108D01*
X328340Y99191D01*
X328386Y99256D01*
X328432Y99320D01*
X328478Y99367D01*
X328515Y99403D01*
X328534Y99440D01*
X328552Y99450D01*
X328562Y99459D01*
X328663Y99551D01*
X328774Y99635D01*
X328894Y99699D01*
X329015Y99755D01*
X329255Y99847D01*
X329495Y99912D01*
X329597Y99930D01*
X329699Y99949D01*
X329791Y99958D01*
X329865Y99967D01*
X329930Y99977D01*
X330022D01*
X330189Y99967D01*
D02*
G37*
G36*
X340784Y100041D02*
X341080Y99995D01*
X341339Y99940D01*
X341459Y99903D01*
X341570Y99866D01*
X341672Y99829D01*
X341764Y99792D01*
X341838Y99764D01*
X341912Y99736D01*
X341958Y99709D01*
X341995Y99690D01*
X342023Y99681D01*
X342032Y99672D01*
X342282Y99514D01*
X342495Y99330D01*
X342680Y99145D01*
X342837Y98960D01*
X342957Y98793D01*
X343003Y98719D01*
X343040Y98655D01*
X343077Y98608D01*
X343096Y98571D01*
X343105Y98544D01*
X343114Y98534D01*
X343244Y98248D01*
X343336Y97952D01*
X343401Y97656D01*
X343447Y97388D01*
X343465Y97268D01*
X343475Y97148D01*
X343484Y97055D01*
Y96963D01*
X343493Y96898D01*
Y96842D01*
Y96805D01*
Y96796D01*
X343475Y96463D01*
X343438Y96140D01*
X343391Y95853D01*
X343354Y95715D01*
X343327Y95594D01*
X343299Y95483D01*
X343262Y95382D01*
X343234Y95289D01*
X343216Y95215D01*
X343188Y95160D01*
X343179Y95113D01*
X343160Y95086D01*
Y95077D01*
X343022Y94799D01*
X342864Y94550D01*
X342698Y94337D01*
X342615Y94254D01*
X342541Y94171D01*
X342467Y94096D01*
X342393Y94032D01*
X342328Y93976D01*
X342273Y93939D01*
X342236Y93902D01*
X342199Y93875D01*
X342180Y93865D01*
X342171Y93856D01*
X342042Y93782D01*
X341912Y93717D01*
X341635Y93616D01*
X341357Y93542D01*
X341089Y93496D01*
X340960Y93477D01*
X340849Y93459D01*
X340747Y93449D01*
X340664D01*
X340590Y93440D01*
X340488D01*
X340303Y93449D01*
X340128Y93468D01*
X339961Y93486D01*
X339804Y93523D01*
X339656Y93569D01*
X339518Y93616D01*
X339388Y93662D01*
X339268Y93717D01*
X339166Y93764D01*
X339064Y93810D01*
X338991Y93856D01*
X338917Y93902D01*
X338870Y93939D01*
X338824Y93958D01*
X338806Y93976D01*
X338796Y93986D01*
X338667Y94096D01*
X338556Y94207D01*
X338454Y94337D01*
X338353Y94466D01*
X338186Y94725D01*
X338057Y94984D01*
X338001Y95104D01*
X337955Y95215D01*
X337918Y95317D01*
X337890Y95400D01*
X337863Y95474D01*
X337844Y95530D01*
X337835Y95567D01*
Y95576D01*
X338685Y95788D01*
X338722Y95640D01*
X338769Y95502D01*
X338815Y95372D01*
X338861Y95252D01*
X338917Y95141D01*
X338972Y95049D01*
X339037Y94956D01*
X339092Y94873D01*
X339138Y94799D01*
X339194Y94744D01*
X339240Y94688D01*
X339277Y94642D01*
X339314Y94614D01*
X339342Y94586D01*
X339351Y94577D01*
X339360Y94568D01*
X339453Y94494D01*
X339555Y94439D01*
X339758Y94337D01*
X339952Y94263D01*
X340146Y94217D01*
X340313Y94180D01*
X340377Y94171D01*
X340442D01*
X340498Y94161D01*
X340562D01*
X340775Y94171D01*
X340978Y94207D01*
X341163Y94254D01*
X341330Y94309D01*
X341459Y94365D01*
X341515Y94392D01*
X341561Y94411D01*
X341598Y94429D01*
X341626Y94448D01*
X341644Y94457D01*
X341653D01*
X341829Y94586D01*
X341977Y94725D01*
X342106Y94882D01*
X342208Y95030D01*
X342291Y95160D01*
X342347Y95271D01*
X342365Y95317D01*
X342384Y95345D01*
X342393Y95363D01*
Y95372D01*
X342467Y95613D01*
X342522Y95853D01*
X342569Y96094D01*
X342596Y96315D01*
X342606Y96417D01*
X342615Y96510D01*
Y96593D01*
X342624Y96657D01*
Y96713D01*
Y96759D01*
Y96787D01*
Y96796D01*
X342615Y97037D01*
X342596Y97259D01*
X342559Y97462D01*
X342522Y97647D01*
X342495Y97804D01*
X342476Y97869D01*
X342458Y97924D01*
X342448Y97970D01*
X342439Y97998D01*
X342430Y98017D01*
Y98026D01*
X342337Y98238D01*
X342236Y98433D01*
X342125Y98590D01*
X342005Y98729D01*
X341903Y98840D01*
X341820Y98913D01*
X341755Y98960D01*
X341746Y98978D01*
X341736D01*
X341542Y99098D01*
X341330Y99191D01*
X341126Y99256D01*
X340932Y99292D01*
X340756Y99320D01*
X340682Y99330D01*
X340618D01*
X340572Y99339D01*
X340498D01*
X340266Y99330D01*
X340054Y99292D01*
X339878Y99237D01*
X339721Y99182D01*
X339601Y99117D01*
X339508Y99071D01*
X339453Y99034D01*
X339434Y99015D01*
X339286Y98876D01*
X339148Y98719D01*
X339037Y98553D01*
X338944Y98386D01*
X338870Y98238D01*
X338843Y98165D01*
X338824Y98109D01*
X338806Y98063D01*
X338787Y98026D01*
X338778Y98007D01*
Y97998D01*
X337946Y98192D01*
X338001Y98359D01*
X338057Y98507D01*
X338131Y98645D01*
X338195Y98784D01*
X338269Y98904D01*
X338353Y99015D01*
X338427Y99126D01*
X338501Y99219D01*
X338574Y99292D01*
X338639Y99367D01*
X338704Y99431D01*
X338750Y99477D01*
X338796Y99524D01*
X338833Y99551D01*
X338852Y99561D01*
X338861Y99570D01*
X338991Y99653D01*
X339120Y99736D01*
X339249Y99801D01*
X339388Y99857D01*
X339665Y99940D01*
X339915Y99995D01*
X340035Y100023D01*
X340137Y100032D01*
X340239Y100041D01*
X340322Y100051D01*
X340387Y100060D01*
X340479D01*
X340784Y100041D01*
D02*
G37*
G36*
X337382Y95807D02*
Y95086D01*
X334599D01*
Y93551D01*
X333813D01*
Y95086D01*
X332944D01*
Y95807D01*
X333813D01*
Y99949D01*
X334451D01*
X337382Y95807D01*
D02*
G37*
G36*
X376912Y112958D02*
X377162Y112912D01*
X377375Y112838D01*
X377560Y112764D01*
X377643Y112718D01*
X377708Y112681D01*
X377772Y112644D01*
X377819Y112607D01*
X377856Y112579D01*
X377883Y112561D01*
X377902Y112551D01*
X377911Y112542D01*
X378087Y112367D01*
X378225Y112172D01*
X378336Y111969D01*
X378429Y111765D01*
X378484Y111590D01*
X378512Y111516D01*
X378531Y111451D01*
X378540Y111396D01*
X378549Y111359D01*
X378558Y111331D01*
Y111322D01*
X377772Y111183D01*
X377735Y111386D01*
X377680Y111562D01*
X377615Y111710D01*
X377551Y111830D01*
X377486Y111923D01*
X377430Y111987D01*
X377393Y112034D01*
X377384Y112043D01*
X377264Y112135D01*
X377134Y112209D01*
X377014Y112256D01*
X376894Y112292D01*
X376783Y112311D01*
X376700Y112330D01*
X376626D01*
X376460Y112320D01*
X376312Y112283D01*
X376182Y112237D01*
X376071Y112191D01*
X375988Y112135D01*
X375923Y112089D01*
X375877Y112052D01*
X375868Y112043D01*
X375766Y111932D01*
X375692Y111812D01*
X375646Y111692D01*
X375609Y111581D01*
X375590Y111479D01*
X375572Y111405D01*
Y111349D01*
Y111340D01*
Y111331D01*
Y111229D01*
X375590Y111137D01*
X375637Y110980D01*
X375701Y110841D01*
X375775Y110721D01*
X375849Y110638D01*
X375914Y110573D01*
X375960Y110536D01*
X375970Y110527D01*
X375979D01*
X376136Y110443D01*
X376284Y110379D01*
X376441Y110332D01*
X376580Y110305D01*
X376700Y110286D01*
X376802Y110268D01*
X376922D01*
X376959Y110277D01*
X377005D01*
X377097Y109584D01*
X376977Y109611D01*
X376866Y109630D01*
X376774Y109648D01*
X376691Y109657D01*
X376626Y109667D01*
X376543D01*
X376348Y109648D01*
X376173Y109611D01*
X376016Y109556D01*
X375886Y109491D01*
X375785Y109426D01*
X375711Y109371D01*
X375664Y109334D01*
X375646Y109316D01*
X375526Y109177D01*
X375433Y109029D01*
X375368Y108881D01*
X375331Y108733D01*
X375304Y108613D01*
X375295Y108511D01*
X375285Y108474D01*
Y108446D01*
Y108428D01*
Y108419D01*
X375304Y108215D01*
X375350Y108030D01*
X375406Y107873D01*
X375480Y107734D01*
X375553Y107624D01*
X375609Y107540D01*
X375655Y107485D01*
X375674Y107466D01*
X375821Y107337D01*
X375979Y107244D01*
X376136Y107180D01*
X376284Y107134D01*
X376413Y107106D01*
X376515Y107097D01*
X376552Y107087D01*
X376607D01*
X376774Y107097D01*
X376931Y107134D01*
X377070Y107180D01*
X377181Y107235D01*
X377273Y107281D01*
X377347Y107328D01*
X377384Y107365D01*
X377402Y107374D01*
X377514Y107503D01*
X377606Y107651D01*
X377689Y107808D01*
X377754Y107975D01*
X377800Y108113D01*
X377819Y108178D01*
X377828Y108234D01*
X377837Y108280D01*
X377846Y108317D01*
X377856Y108335D01*
Y108345D01*
X378642Y108243D01*
X378623Y108095D01*
X378595Y107956D01*
X378512Y107697D01*
X378410Y107476D01*
X378355Y107383D01*
X378299Y107291D01*
X378244Y107207D01*
X378188Y107143D01*
X378142Y107078D01*
X378096Y107032D01*
X378068Y106995D01*
X378041Y106967D01*
X378022Y106949D01*
X378013Y106939D01*
X377902Y106856D01*
X377791Y106773D01*
X377680Y106708D01*
X377560Y106653D01*
X377329Y106560D01*
X377107Y106505D01*
X377005Y106486D01*
X376912Y106468D01*
X376829Y106459D01*
X376755Y106449D01*
X376700Y106440D01*
X376617D01*
X376441Y106449D01*
X376284Y106468D01*
X376127Y106496D01*
X375979Y106532D01*
X375840Y106579D01*
X375720Y106625D01*
X375600Y106680D01*
X375498Y106736D01*
X375396Y106782D01*
X375313Y106838D01*
X375239Y106884D01*
X375184Y106930D01*
X375137Y106967D01*
X375100Y106995D01*
X375082Y107013D01*
X375073Y107022D01*
X374962Y107134D01*
X374869Y107254D01*
X374786Y107374D01*
X374712Y107494D01*
X374657Y107605D01*
X374601Y107725D01*
X374527Y107947D01*
X374509Y108049D01*
X374490Y108141D01*
X374472Y108224D01*
X374462Y108298D01*
X374453Y108354D01*
Y108400D01*
Y108428D01*
Y108437D01*
X374462Y108659D01*
X374499Y108862D01*
X374555Y109038D01*
X374610Y109186D01*
X374666Y109306D01*
X374721Y109399D01*
X374758Y109454D01*
X374768Y109473D01*
X374897Y109611D01*
X375036Y109732D01*
X375184Y109824D01*
X375331Y109898D01*
X375461Y109953D01*
X375563Y109990D01*
X375600Y110000D01*
X375627Y110009D01*
X375646Y110018D01*
X375655D01*
X375498Y110101D01*
X375368Y110184D01*
X375258Y110277D01*
X375165Y110360D01*
X375091Y110434D01*
X375036Y110499D01*
X375008Y110536D01*
X374999Y110554D01*
X374925Y110684D01*
X374869Y110813D01*
X374823Y110943D01*
X374795Y111063D01*
X374777Y111165D01*
X374768Y111238D01*
Y111294D01*
Y111313D01*
X374777Y111470D01*
X374804Y111627D01*
X374841Y111765D01*
X374888Y111886D01*
X374934Y111987D01*
X374971Y112071D01*
X374999Y112117D01*
X375008Y112135D01*
X375100Y112274D01*
X375211Y112394D01*
X375322Y112496D01*
X375433Y112588D01*
X375526Y112653D01*
X375609Y112709D01*
X375664Y112736D01*
X375674Y112746D01*
X375683D01*
X375849Y112819D01*
X376016Y112875D01*
X376182Y112921D01*
X376330Y112949D01*
X376450Y112968D01*
X376552Y112977D01*
X376783D01*
X376912Y112958D01*
D02*
G37*
G36*
X382321Y113041D02*
X382617Y112995D01*
X382876Y112940D01*
X382996Y112903D01*
X383107Y112866D01*
X383209Y112829D01*
X383301Y112792D01*
X383375Y112764D01*
X383449Y112736D01*
X383495Y112709D01*
X383532Y112690D01*
X383560Y112681D01*
X383569Y112672D01*
X383819Y112514D01*
X384032Y112330D01*
X384217Y112145D01*
X384374Y111960D01*
X384494Y111793D01*
X384540Y111719D01*
X384577Y111655D01*
X384614Y111608D01*
X384633Y111571D01*
X384642Y111544D01*
X384651Y111534D01*
X384781Y111248D01*
X384873Y110952D01*
X384938Y110656D01*
X384984Y110388D01*
X385002Y110268D01*
X385012Y110148D01*
X385021Y110055D01*
Y109963D01*
X385030Y109898D01*
Y109843D01*
Y109805D01*
Y109796D01*
X385012Y109463D01*
X384975Y109140D01*
X384929Y108853D01*
X384892Y108715D01*
X384864Y108594D01*
X384836Y108483D01*
X384799Y108382D01*
X384771Y108289D01*
X384753Y108215D01*
X384725Y108160D01*
X384716Y108113D01*
X384697Y108086D01*
Y108076D01*
X384559Y107799D01*
X384402Y107549D01*
X384235Y107337D01*
X384152Y107254D01*
X384078Y107170D01*
X384004Y107097D01*
X383930Y107032D01*
X383865Y106976D01*
X383810Y106939D01*
X383773Y106902D01*
X383736Y106875D01*
X383717Y106865D01*
X383708Y106856D01*
X383579Y106782D01*
X383449Y106717D01*
X383172Y106616D01*
X382894Y106542D01*
X382626Y106496D01*
X382497Y106477D01*
X382386Y106459D01*
X382284Y106449D01*
X382201D01*
X382127Y106440D01*
X382025D01*
X381840Y106449D01*
X381665Y106468D01*
X381498Y106486D01*
X381341Y106523D01*
X381193Y106569D01*
X381055Y106616D01*
X380925Y106662D01*
X380805Y106717D01*
X380703Y106764D01*
X380602Y106810D01*
X380528Y106856D01*
X380454Y106902D01*
X380407Y106939D01*
X380361Y106958D01*
X380343Y106976D01*
X380333Y106986D01*
X380204Y107097D01*
X380093Y107207D01*
X379991Y107337D01*
X379890Y107466D01*
X379723Y107725D01*
X379594Y107984D01*
X379538Y108104D01*
X379492Y108215D01*
X379455Y108317D01*
X379427Y108400D01*
X379400Y108474D01*
X379381Y108530D01*
X379372Y108567D01*
Y108576D01*
X380223Y108788D01*
X380259Y108640D01*
X380306Y108502D01*
X380352Y108372D01*
X380398Y108252D01*
X380454Y108141D01*
X380509Y108049D01*
X380574Y107956D01*
X380629Y107873D01*
X380676Y107799D01*
X380731Y107744D01*
X380777Y107688D01*
X380814Y107642D01*
X380851Y107614D01*
X380879Y107586D01*
X380888Y107577D01*
X380897Y107568D01*
X380990Y107494D01*
X381091Y107439D01*
X381295Y107337D01*
X381489Y107263D01*
X381683Y107217D01*
X381850Y107180D01*
X381914Y107170D01*
X381979D01*
X382035Y107161D01*
X382099D01*
X382312Y107170D01*
X382515Y107207D01*
X382700Y107254D01*
X382867Y107309D01*
X382996Y107365D01*
X383052Y107392D01*
X383098Y107411D01*
X383135Y107429D01*
X383163Y107448D01*
X383181Y107457D01*
X383190D01*
X383366Y107586D01*
X383514Y107725D01*
X383643Y107882D01*
X383745Y108030D01*
X383828Y108160D01*
X383884Y108271D01*
X383902Y108317D01*
X383921Y108345D01*
X383930Y108363D01*
Y108372D01*
X384004Y108613D01*
X384059Y108853D01*
X384106Y109094D01*
X384133Y109316D01*
X384143Y109417D01*
X384152Y109510D01*
Y109593D01*
X384161Y109657D01*
Y109713D01*
Y109759D01*
Y109787D01*
Y109796D01*
X384152Y110037D01*
X384133Y110259D01*
X384096Y110462D01*
X384059Y110647D01*
X384032Y110804D01*
X384013Y110869D01*
X383995Y110924D01*
X383985Y110970D01*
X383976Y110998D01*
X383967Y111017D01*
Y111026D01*
X383875Y111238D01*
X383773Y111433D01*
X383662Y111590D01*
X383542Y111729D01*
X383440Y111840D01*
X383357Y111913D01*
X383292Y111960D01*
X383283Y111978D01*
X383274D01*
X383079Y112098D01*
X382867Y112191D01*
X382663Y112256D01*
X382469Y112292D01*
X382294Y112320D01*
X382220Y112330D01*
X382155D01*
X382109Y112339D01*
X382035D01*
X381804Y112330D01*
X381591Y112292D01*
X381415Y112237D01*
X381258Y112182D01*
X381138Y112117D01*
X381045Y112071D01*
X380990Y112034D01*
X380971Y112015D01*
X380823Y111876D01*
X380685Y111719D01*
X380574Y111553D01*
X380481Y111386D01*
X380407Y111238D01*
X380380Y111165D01*
X380361Y111109D01*
X380343Y111063D01*
X380324Y111026D01*
X380315Y111007D01*
Y110998D01*
X379483Y111192D01*
X379538Y111359D01*
X379594Y111507D01*
X379668Y111645D01*
X379732Y111784D01*
X379806Y111904D01*
X379890Y112015D01*
X379964Y112126D01*
X380037Y112219D01*
X380112Y112292D01*
X380176Y112367D01*
X380241Y112431D01*
X380287Y112477D01*
X380333Y112524D01*
X380370Y112551D01*
X380389Y112561D01*
X380398Y112570D01*
X380528Y112653D01*
X380657Y112736D01*
X380786Y112801D01*
X380925Y112857D01*
X381203Y112940D01*
X381452Y112995D01*
X381572Y113023D01*
X381674Y113032D01*
X381776Y113041D01*
X381859Y113051D01*
X381924Y113060D01*
X382016D01*
X382321Y113041D01*
D02*
G37*
G36*
X371744Y112968D02*
X371892Y112958D01*
X372151Y112903D01*
X372271Y112866D01*
X372382Y112829D01*
X372484Y112783D01*
X372576Y112736D01*
X372650Y112690D01*
X372724Y112644D01*
X372789Y112607D01*
X372835Y112570D01*
X372872Y112542D01*
X372900Y112514D01*
X372918Y112505D01*
X372928Y112496D01*
X373011Y112403D01*
X373094Y112311D01*
X373159Y112209D01*
X373214Y112108D01*
X373307Y111913D01*
X373362Y111729D01*
X373399Y111571D01*
X373408Y111497D01*
X373418Y111442D01*
X373427Y111386D01*
Y111349D01*
Y111331D01*
Y111322D01*
X373418Y111155D01*
X373390Y110998D01*
X373353Y110859D01*
X373307Y110739D01*
X373270Y110647D01*
X373233Y110573D01*
X373205Y110536D01*
X373196Y110517D01*
X373094Y110406D01*
X372983Y110305D01*
X372863Y110212D01*
X372743Y110138D01*
X372632Y110083D01*
X372549Y110046D01*
X372512Y110027D01*
X372484Y110018D01*
X372475Y110009D01*
X372465D01*
X372678Y109944D01*
X372854Y109861D01*
X373011Y109759D01*
X373140Y109667D01*
X373242Y109574D01*
X373316Y109500D01*
X373353Y109454D01*
X373372Y109445D01*
Y109436D01*
X373473Y109269D01*
X373556Y109094D01*
X373612Y108927D01*
X373649Y108761D01*
X373667Y108613D01*
X373677Y108548D01*
Y108493D01*
X373686Y108456D01*
Y108419D01*
Y108400D01*
Y108391D01*
X373677Y108243D01*
X373658Y108095D01*
X373630Y107956D01*
X373593Y107818D01*
X373501Y107586D01*
X373455Y107476D01*
X373399Y107383D01*
X373344Y107291D01*
X373298Y107217D01*
X373242Y107152D01*
X373205Y107097D01*
X373168Y107050D01*
X373140Y107022D01*
X373122Y107004D01*
X373113Y106995D01*
X373002Y106893D01*
X372881Y106810D01*
X372752Y106736D01*
X372623Y106671D01*
X372502Y106625D01*
X372373Y106579D01*
X372123Y106514D01*
X372012Y106486D01*
X371911Y106468D01*
X371818Y106459D01*
X371735Y106449D01*
X371670Y106440D01*
X371578D01*
X371402Y106449D01*
X371245Y106468D01*
X371088Y106496D01*
X370940Y106523D01*
X370810Y106569D01*
X370681Y106616D01*
X370561Y106662D01*
X370459Y106717D01*
X370367Y106773D01*
X370283Y106819D01*
X370219Y106865D01*
X370154Y106912D01*
X370108Y106939D01*
X370080Y106967D01*
X370061Y106986D01*
X370052Y106995D01*
X369951Y107106D01*
X369858Y107217D01*
X369784Y107328D01*
X369720Y107448D01*
X369655Y107559D01*
X369608Y107679D01*
X369544Y107892D01*
X369516Y107993D01*
X369498Y108086D01*
X369488Y108169D01*
X369479Y108234D01*
X369470Y108289D01*
Y108335D01*
Y108363D01*
Y108372D01*
X369479Y108585D01*
X369516Y108779D01*
X369571Y108955D01*
X369627Y109103D01*
X369683Y109223D01*
X369738Y109316D01*
X369775Y109371D01*
X369784Y109380D01*
Y109389D01*
X369914Y109537D01*
X370052Y109667D01*
X370200Y109768D01*
X370339Y109861D01*
X370468Y109926D01*
X370579Y109972D01*
X370616Y109990D01*
X370644Y110000D01*
X370662Y110009D01*
X370672D01*
X370505Y110083D01*
X370367Y110166D01*
X370247Y110249D01*
X370145Y110332D01*
X370071Y110406D01*
X370015Y110462D01*
X369978Y110499D01*
X369969Y110517D01*
X369886Y110647D01*
X369830Y110776D01*
X369784Y110906D01*
X369756Y111035D01*
X369738Y111137D01*
X369729Y111220D01*
Y111276D01*
Y111285D01*
Y111294D01*
X369738Y111423D01*
X369747Y111544D01*
X369812Y111775D01*
X369895Y111978D01*
X369988Y112154D01*
X370080Y112292D01*
X370126Y112348D01*
X370163Y112403D01*
X370200Y112441D01*
X370228Y112468D01*
X370237Y112477D01*
X370247Y112487D01*
X370348Y112570D01*
X370450Y112653D01*
X370561Y112718D01*
X370672Y112773D01*
X370894Y112857D01*
X371115Y112912D01*
X371208Y112940D01*
X371301Y112949D01*
X371384Y112958D01*
X371458Y112968D01*
X371513Y112977D01*
X371596D01*
X371744Y112968D01*
D02*
G37*
G36*
X295908Y104458D02*
X296157Y104412D01*
X296370Y104338D01*
X296555Y104264D01*
X296638Y104218D01*
X296703Y104181D01*
X296768Y104144D01*
X296814Y104107D01*
X296851Y104079D01*
X296879Y104061D01*
X296897Y104051D01*
X296906Y104042D01*
X297082Y103867D01*
X297221Y103672D01*
X297332Y103469D01*
X297424Y103265D01*
X297480Y103090D01*
X297507Y103016D01*
X297526Y102951D01*
X297535Y102896D01*
X297544Y102859D01*
X297554Y102831D01*
Y102822D01*
X296768Y102683D01*
X296731Y102886D01*
X296675Y103062D01*
X296611Y103210D01*
X296546Y103330D01*
X296481Y103423D01*
X296426Y103487D01*
X296389Y103534D01*
X296379Y103543D01*
X296259Y103635D01*
X296130Y103709D01*
X296010Y103756D01*
X295889Y103792D01*
X295779Y103811D01*
X295695Y103829D01*
X295621D01*
X295455Y103820D01*
X295307Y103783D01*
X295177Y103737D01*
X295067Y103691D01*
X294983Y103635D01*
X294919Y103589D01*
X294872Y103552D01*
X294863Y103543D01*
X294762Y103432D01*
X294688Y103312D01*
X294641Y103192D01*
X294604Y103081D01*
X294586Y102979D01*
X294567Y102905D01*
Y102850D01*
Y102840D01*
Y102831D01*
Y102729D01*
X294586Y102637D01*
X294632Y102480D01*
X294697Y102341D01*
X294771Y102221D01*
X294845Y102138D01*
X294909Y102073D01*
X294956Y102036D01*
X294965Y102027D01*
X294974D01*
X295131Y101943D01*
X295279Y101879D01*
X295436Y101833D01*
X295575Y101805D01*
X295695Y101786D01*
X295797Y101768D01*
X295917D01*
X295954Y101777D01*
X296000D01*
X296093Y101084D01*
X295973Y101111D01*
X295862Y101130D01*
X295769Y101148D01*
X295686Y101158D01*
X295621Y101167D01*
X295538D01*
X295344Y101148D01*
X295168Y101111D01*
X295011Y101056D01*
X294882Y100991D01*
X294780Y100926D01*
X294706Y100871D01*
X294660Y100834D01*
X294641Y100815D01*
X294521Y100677D01*
X294429Y100529D01*
X294364Y100381D01*
X294327Y100233D01*
X294299Y100113D01*
X294290Y100011D01*
X294281Y99974D01*
Y99946D01*
Y99928D01*
Y99919D01*
X294299Y99715D01*
X294345Y99530D01*
X294401Y99373D01*
X294475Y99234D01*
X294549Y99123D01*
X294604Y99040D01*
X294650Y98985D01*
X294669Y98966D01*
X294817Y98837D01*
X294974Y98744D01*
X295131Y98680D01*
X295279Y98633D01*
X295409Y98606D01*
X295510Y98596D01*
X295547Y98587D01*
X295603D01*
X295769Y98596D01*
X295926Y98633D01*
X296065Y98680D01*
X296176Y98735D01*
X296269Y98781D01*
X296343Y98828D01*
X296379Y98865D01*
X296398Y98874D01*
X296509Y99003D01*
X296601Y99151D01*
X296684Y99308D01*
X296749Y99475D01*
X296796Y99614D01*
X296814Y99678D01*
X296823Y99734D01*
X296833Y99780D01*
X296842Y99817D01*
X296851Y99835D01*
Y99845D01*
X297637Y99743D01*
X297618Y99595D01*
X297591Y99456D01*
X297507Y99198D01*
X297406Y98976D01*
X297350Y98883D01*
X297295Y98791D01*
X297239Y98707D01*
X297184Y98643D01*
X297138Y98578D01*
X297091Y98532D01*
X297064Y98495D01*
X297036Y98467D01*
X297017Y98449D01*
X297008Y98439D01*
X296897Y98356D01*
X296786Y98273D01*
X296675Y98208D01*
X296555Y98153D01*
X296324Y98060D01*
X296102Y98005D01*
X296000Y97986D01*
X295908Y97968D01*
X295825Y97959D01*
X295751Y97949D01*
X295695Y97940D01*
X295612D01*
X295436Y97949D01*
X295279Y97968D01*
X295122Y97996D01*
X294974Y98033D01*
X294835Y98079D01*
X294715Y98125D01*
X294595Y98180D01*
X294493Y98236D01*
X294392Y98282D01*
X294308Y98338D01*
X294235Y98384D01*
X294179Y98430D01*
X294133Y98467D01*
X294096Y98495D01*
X294077Y98513D01*
X294068Y98523D01*
X293957Y98633D01*
X293865Y98754D01*
X293781Y98874D01*
X293708Y98994D01*
X293652Y99105D01*
X293596Y99225D01*
X293523Y99447D01*
X293504Y99549D01*
X293486Y99641D01*
X293467Y99725D01*
X293458Y99798D01*
X293449Y99854D01*
Y99900D01*
Y99928D01*
Y99937D01*
X293458Y100159D01*
X293495Y100362D01*
X293550Y100538D01*
X293606Y100686D01*
X293661Y100806D01*
X293717Y100899D01*
X293754Y100954D01*
X293763Y100973D01*
X293892Y101111D01*
X294031Y101231D01*
X294179Y101324D01*
X294327Y101398D01*
X294456Y101453D01*
X294558Y101490D01*
X294595Y101500D01*
X294623Y101509D01*
X294641Y101518D01*
X294650D01*
X294493Y101601D01*
X294364Y101685D01*
X294253Y101777D01*
X294160Y101860D01*
X294086Y101934D01*
X294031Y101999D01*
X294003Y102036D01*
X293994Y102054D01*
X293920Y102184D01*
X293865Y102313D01*
X293818Y102443D01*
X293791Y102563D01*
X293772Y102665D01*
X293763Y102739D01*
Y102794D01*
Y102812D01*
X293772Y102970D01*
X293800Y103127D01*
X293837Y103265D01*
X293883Y103386D01*
X293929Y103487D01*
X293966Y103571D01*
X293994Y103617D01*
X294003Y103635D01*
X294096Y103774D01*
X294207Y103894D01*
X294318Y103996D01*
X294429Y104088D01*
X294521Y104153D01*
X294604Y104209D01*
X294660Y104236D01*
X294669Y104246D01*
X294678D01*
X294845Y104319D01*
X295011Y104375D01*
X295177Y104421D01*
X295325Y104449D01*
X295446Y104467D01*
X295547Y104477D01*
X295779D01*
X295908Y104458D01*
D02*
G37*
G36*
X301317Y104541D02*
X301612Y104495D01*
X301871Y104440D01*
X301992Y104403D01*
X302103Y104366D01*
X302204Y104329D01*
X302297Y104292D01*
X302371Y104264D01*
X302445Y104236D01*
X302491Y104209D01*
X302528Y104190D01*
X302556Y104181D01*
X302565Y104172D01*
X302814Y104014D01*
X303027Y103829D01*
X303212Y103645D01*
X303369Y103460D01*
X303489Y103293D01*
X303535Y103219D01*
X303573Y103155D01*
X303610Y103108D01*
X303628Y103071D01*
X303637Y103044D01*
X303647Y103034D01*
X303776Y102748D01*
X303868Y102452D01*
X303933Y102156D01*
X303979Y101888D01*
X303998Y101768D01*
X304007Y101648D01*
X304016Y101555D01*
Y101463D01*
X304026Y101398D01*
Y101342D01*
Y101306D01*
Y101296D01*
X304007Y100963D01*
X303970Y100640D01*
X303924Y100353D01*
X303887Y100215D01*
X303859Y100094D01*
X303831Y99983D01*
X303794Y99882D01*
X303767Y99789D01*
X303748Y99715D01*
X303720Y99660D01*
X303711Y99614D01*
X303693Y99586D01*
Y99577D01*
X303554Y99299D01*
X303397Y99050D01*
X303230Y98837D01*
X303147Y98754D01*
X303073Y98671D01*
X302999Y98596D01*
X302925Y98532D01*
X302861Y98476D01*
X302805Y98439D01*
X302768Y98402D01*
X302731Y98375D01*
X302713Y98365D01*
X302703Y98356D01*
X302574Y98282D01*
X302445Y98217D01*
X302167Y98116D01*
X301890Y98042D01*
X301622Y97996D01*
X301492Y97977D01*
X301381Y97959D01*
X301280Y97949D01*
X301196D01*
X301122Y97940D01*
X301021D01*
X300836Y97949D01*
X300660Y97968D01*
X300494Y97986D01*
X300337Y98023D01*
X300189Y98069D01*
X300050Y98116D01*
X299921Y98162D01*
X299800Y98217D01*
X299699Y98264D01*
X299597Y98310D01*
X299523Y98356D01*
X299449Y98402D01*
X299403Y98439D01*
X299356Y98458D01*
X299338Y98476D01*
X299329Y98486D01*
X299199Y98596D01*
X299088Y98707D01*
X298987Y98837D01*
X298885Y98966D01*
X298719Y99225D01*
X298589Y99484D01*
X298534Y99604D01*
X298487Y99715D01*
X298451Y99817D01*
X298423Y99900D01*
X298395Y99974D01*
X298377Y100030D01*
X298367Y100067D01*
Y100076D01*
X299218Y100288D01*
X299255Y100140D01*
X299301Y100002D01*
X299347Y99872D01*
X299394Y99752D01*
X299449Y99641D01*
X299505Y99549D01*
X299569Y99456D01*
X299625Y99373D01*
X299671Y99299D01*
X299726Y99244D01*
X299773Y99188D01*
X299810Y99142D01*
X299846Y99114D01*
X299874Y99087D01*
X299883Y99077D01*
X299893Y99068D01*
X299985Y98994D01*
X300087Y98939D01*
X300290Y98837D01*
X300485Y98763D01*
X300679Y98717D01*
X300845Y98680D01*
X300910Y98671D01*
X300975D01*
X301030Y98661D01*
X301095D01*
X301307Y98671D01*
X301511Y98707D01*
X301696Y98754D01*
X301862Y98809D01*
X301992Y98865D01*
X302047Y98892D01*
X302093Y98911D01*
X302130Y98929D01*
X302158Y98948D01*
X302176Y98957D01*
X302186D01*
X302361Y99087D01*
X302509Y99225D01*
X302639Y99382D01*
X302740Y99530D01*
X302824Y99660D01*
X302879Y99771D01*
X302898Y99817D01*
X302916Y99845D01*
X302925Y99863D01*
Y99872D01*
X302999Y100113D01*
X303055Y100353D01*
X303101Y100594D01*
X303129Y100815D01*
X303138Y100917D01*
X303147Y101010D01*
Y101093D01*
X303157Y101158D01*
Y101213D01*
Y101259D01*
Y101287D01*
Y101296D01*
X303147Y101537D01*
X303129Y101758D01*
X303092Y101962D01*
X303055Y102147D01*
X303027Y102304D01*
X303008Y102369D01*
X302990Y102424D01*
X302981Y102470D01*
X302972Y102498D01*
X302962Y102517D01*
Y102526D01*
X302870Y102739D01*
X302768Y102933D01*
X302657Y103090D01*
X302537Y103229D01*
X302435Y103340D01*
X302352Y103413D01*
X302287Y103460D01*
X302278Y103478D01*
X302269D01*
X302075Y103598D01*
X301862Y103691D01*
X301659Y103756D01*
X301465Y103792D01*
X301289Y103820D01*
X301215Y103829D01*
X301150D01*
X301104Y103839D01*
X301030D01*
X300799Y103829D01*
X300586Y103792D01*
X300410Y103737D01*
X300253Y103682D01*
X300133Y103617D01*
X300041Y103571D01*
X299985Y103534D01*
X299967Y103515D01*
X299819Y103377D01*
X299680Y103219D01*
X299569Y103053D01*
X299477Y102886D01*
X299403Y102739D01*
X299375Y102665D01*
X299356Y102609D01*
X299338Y102563D01*
X299319Y102526D01*
X299310Y102507D01*
Y102498D01*
X298478Y102692D01*
X298534Y102859D01*
X298589Y103007D01*
X298663Y103145D01*
X298728Y103284D01*
X298802Y103404D01*
X298885Y103515D01*
X298959Y103626D01*
X299033Y103719D01*
X299107Y103792D01*
X299172Y103867D01*
X299236Y103931D01*
X299283Y103977D01*
X299329Y104024D01*
X299366Y104051D01*
X299384Y104061D01*
X299394Y104070D01*
X299523Y104153D01*
X299652Y104236D01*
X299782Y104301D01*
X299921Y104356D01*
X300198Y104440D01*
X300448Y104495D01*
X300568Y104523D01*
X300669Y104532D01*
X300771Y104541D01*
X300854Y104551D01*
X300919Y104560D01*
X301012D01*
X301317Y104541D01*
D02*
G37*
G36*
X292617Y103608D02*
X289482D01*
X289704Y103340D01*
X289917Y103053D01*
X290102Y102775D01*
X290277Y102507D01*
X290351Y102387D01*
X290416Y102276D01*
X290481Y102175D01*
X290527Y102091D01*
X290564Y102017D01*
X290592Y101971D01*
X290610Y101934D01*
X290619Y101925D01*
X290804Y101555D01*
X290971Y101185D01*
X291110Y100834D01*
X291165Y100677D01*
X291220Y100520D01*
X291276Y100381D01*
X291313Y100252D01*
X291350Y100140D01*
X291378Y100048D01*
X291405Y99965D01*
X291424Y99909D01*
X291433Y99872D01*
Y99863D01*
X291525Y99484D01*
X291562Y99299D01*
X291590Y99133D01*
X291618Y98976D01*
X291646Y98818D01*
X291664Y98689D01*
X291683Y98560D01*
X291692Y98449D01*
X291701Y98347D01*
X291710Y98254D01*
Y98180D01*
X291720Y98125D01*
Y98088D01*
Y98060D01*
Y98051D01*
X290915D01*
X290888Y98402D01*
X290841Y98726D01*
X290795Y99022D01*
X290767Y99160D01*
X290740Y99290D01*
X290721Y99401D01*
X290693Y99503D01*
X290675Y99595D01*
X290656Y99669D01*
X290638Y99725D01*
X290629Y99771D01*
X290619Y99798D01*
Y99808D01*
X290481Y100233D01*
X290333Y100631D01*
X290259Y100825D01*
X290185Y101010D01*
X290102Y101176D01*
X290028Y101342D01*
X289963Y101490D01*
X289898Y101620D01*
X289843Y101731D01*
X289797Y101833D01*
X289750Y101916D01*
X289723Y101971D01*
X289704Y102008D01*
X289695Y102017D01*
X289584Y102212D01*
X289473Y102406D01*
X289362Y102581D01*
X289251Y102748D01*
X289149Y102896D01*
X289048Y103044D01*
X288946Y103173D01*
X288863Y103284D01*
X288780Y103395D01*
X288706Y103487D01*
X288632Y103561D01*
X288576Y103626D01*
X288539Y103682D01*
X288502Y103719D01*
X288484Y103737D01*
X288475Y103746D01*
Y104366D01*
X292617D01*
Y103608D01*
D02*
G37*
G36*
X231974Y152056D02*
X232075Y151908D01*
X232195Y151760D01*
X232306Y151630D01*
X232417Y151519D01*
X232501Y151427D01*
X232537Y151399D01*
X232565Y151371D01*
X232575Y151362D01*
X232584Y151353D01*
X232778Y151196D01*
X232972Y151048D01*
X233157Y150919D01*
X233342Y150817D01*
X233499Y150724D01*
X233564Y150687D01*
X233619Y150660D01*
X233666Y150632D01*
X233703Y150623D01*
X233721Y150604D01*
X233730D01*
Y149846D01*
X233591Y149902D01*
X233453Y149966D01*
X233314Y150031D01*
X233185Y150096D01*
X233074Y150151D01*
X232981Y150197D01*
X232926Y150234D01*
X232917Y150244D01*
X232907D01*
X232741Y150345D01*
X232593Y150447D01*
X232464Y150539D01*
X232362Y150623D01*
X232269Y150687D01*
X232214Y150743D01*
X232168Y150780D01*
X232159Y150789D01*
Y145787D01*
X231373D01*
Y152213D01*
X231881D01*
X231974Y152056D01*
D02*
G37*
G36*
X238159Y149097D02*
X240627Y145787D01*
X239610D01*
X237992Y148006D01*
X237955Y148062D01*
X237909Y148126D01*
X237808Y148274D01*
X237761Y148348D01*
X237724Y148404D01*
X237697Y148441D01*
X237687Y148450D01*
X237595Y148311D01*
X237512Y148182D01*
X237475Y148135D01*
X237456Y148099D01*
X237438Y148071D01*
X237428Y148062D01*
X235811Y145787D01*
X234766D01*
X237160Y149143D01*
X234941Y152185D01*
X235866D01*
X237142Y150484D01*
X237253Y150345D01*
X237345Y150216D01*
X237438Y150086D01*
X237512Y149985D01*
X237576Y149892D01*
X237623Y149818D01*
X237650Y149781D01*
X237660Y149763D01*
X237724Y149874D01*
X237798Y149994D01*
X237882Y150123D01*
X237965Y150253D01*
X238048Y150364D01*
X238103Y150456D01*
X238131Y150493D01*
X238150Y150521D01*
X238168Y150530D01*
Y150539D01*
X239333Y152185D01*
X240341D01*
X238159Y149097D01*
D02*
G37*
%LPC*%
G36*
X189644Y77526D02*
X187527D01*
Y75511D01*
X187536Y75261D01*
X187573Y75048D01*
X187619Y74863D01*
X187675Y74725D01*
X187730Y74605D01*
X187776Y74531D01*
X187813Y74484D01*
X187823Y74466D01*
X187943Y74355D01*
X188063Y74272D01*
X188192Y74216D01*
X188303Y74170D01*
X188414Y74151D01*
X188498Y74142D01*
X188553Y74133D01*
X188562D01*
X188571D01*
X188682Y74142D01*
X188793Y74161D01*
X188886Y74188D01*
X188969Y74216D01*
X189043Y74253D01*
X189098Y74281D01*
X189135Y74299D01*
X189145Y74309D01*
X189237Y74373D01*
X189320Y74457D01*
X189385Y74540D01*
X189441Y74623D01*
X189478Y74697D01*
X189505Y74752D01*
X189524Y74789D01*
X189533Y74808D01*
X189570Y74937D01*
X189598Y75085D01*
X189616Y75233D01*
X189625Y75381D01*
X189635Y75511D01*
X189644Y75622D01*
Y77526D01*
D02*
G37*
G36*
X174939Y109223D02*
X172924D01*
X172674Y109214D01*
X172461Y109177D01*
X172276Y109131D01*
X172138Y109075D01*
X172017Y109020D01*
X171943Y108974D01*
X171897Y108937D01*
X171879Y108927D01*
X171768Y108807D01*
X171684Y108687D01*
X171629Y108558D01*
X171583Y108447D01*
X171564Y108336D01*
X171555Y108252D01*
X171546Y108197D01*
Y108188D01*
Y108178D01*
X171555Y108068D01*
X171574Y107957D01*
X171601Y107864D01*
X171629Y107781D01*
X171666Y107707D01*
X171694Y107651D01*
X171712Y107614D01*
X171721Y107605D01*
X171786Y107513D01*
X171870Y107430D01*
X171953Y107365D01*
X172036Y107309D01*
X172110Y107272D01*
X172165Y107245D01*
X172202Y107226D01*
X172221Y107217D01*
X172350Y107180D01*
X172498Y107152D01*
X172646Y107134D01*
X172794Y107124D01*
X172924Y107115D01*
X173034Y107106D01*
X174939D01*
Y109223D01*
D02*
G37*
G36*
X162339Y60313D02*
X160221D01*
Y58298D01*
X160231Y58048D01*
X160268Y57835D01*
X160314Y57650D01*
X160369Y57512D01*
X160425Y57392D01*
X160471Y57318D01*
X160508Y57271D01*
X160517Y57253D01*
X160637Y57142D01*
X160758Y57059D01*
X160887Y57003D01*
X160998Y56957D01*
X161109Y56938D01*
X161192Y56929D01*
X161248Y56920D01*
X161257D01*
X161266D01*
X161377Y56929D01*
X161488Y56948D01*
X161580Y56975D01*
X161664Y57003D01*
X161738Y57040D01*
X161793Y57068D01*
X161830Y57086D01*
X161839Y57096D01*
X161932Y57160D01*
X162015Y57243D01*
X162080Y57327D01*
X162135Y57410D01*
X162172Y57484D01*
X162200Y57539D01*
X162218Y57576D01*
X162228Y57595D01*
X162265Y57724D01*
X162292Y57872D01*
X162311Y58020D01*
X162320Y58168D01*
X162329Y58298D01*
X162339Y58408D01*
Y60313D01*
D02*
G37*
G36*
X161137Y53989D02*
X161127D01*
X161118D01*
X160970Y53980D01*
X160841Y53943D01*
X160721Y53897D01*
X160619Y53841D01*
X160536Y53795D01*
X160471Y53749D01*
X160434Y53712D01*
X160425Y53703D01*
X160323Y53582D01*
X160249Y53462D01*
X160203Y53333D01*
X160166Y53212D01*
X160147Y53102D01*
X160129Y53018D01*
Y52944D01*
X160138Y52787D01*
X160175Y52639D01*
X160221Y52519D01*
X160277Y52408D01*
X160332Y52325D01*
X160378Y52260D01*
X160415Y52214D01*
X160425Y52205D01*
X160545Y52103D01*
X160665Y52029D01*
X160785Y51974D01*
X160896Y51937D01*
X160998Y51918D01*
X161081Y51900D01*
X161137D01*
X161146D01*
X161155D01*
X161303Y51909D01*
X161442Y51946D01*
X161562Y51992D01*
X161664Y52048D01*
X161747Y52103D01*
X161802Y52149D01*
X161849Y52186D01*
X161858Y52196D01*
X161950Y52306D01*
X162024Y52436D01*
X162070Y52556D01*
X162107Y52676D01*
X162126Y52787D01*
X162135Y52870D01*
X162144Y52926D01*
Y52944D01*
X162135Y53111D01*
X162098Y53259D01*
X162052Y53388D01*
X161996Y53499D01*
X161950Y53582D01*
X161904Y53647D01*
X161867Y53693D01*
X161858Y53703D01*
X161747Y53795D01*
X161617Y53869D01*
X161497Y53915D01*
X161377Y53952D01*
X161275Y53971D01*
X161192Y53980D01*
X161137Y53989D01*
D02*
G37*
G36*
X164123Y54248D02*
X164086D01*
X164067D01*
X163873Y54229D01*
X163698Y54193D01*
X163540Y54137D01*
X163402Y54063D01*
X163300Y53998D01*
X163217Y53943D01*
X163171Y53906D01*
X163152Y53887D01*
X163032Y53749D01*
X162939Y53591D01*
X162875Y53444D01*
X162829Y53296D01*
X162801Y53166D01*
X162792Y53064D01*
X162782Y53028D01*
Y52972D01*
X162801Y52769D01*
X162838Y52584D01*
X162903Y52417D01*
X162967Y52279D01*
X163041Y52168D01*
X163106Y52084D01*
X163143Y52038D01*
X163161Y52020D01*
X163309Y51890D01*
X163466Y51798D01*
X163624Y51733D01*
X163762Y51687D01*
X163901Y51659D01*
X164003Y51650D01*
X164040Y51641D01*
X164067D01*
X164086D01*
X164095D01*
X164289Y51659D01*
X164474Y51696D01*
X164631Y51761D01*
X164761Y51826D01*
X164863Y51890D01*
X164946Y51955D01*
X164992Y51992D01*
X165011Y52010D01*
X165131Y52158D01*
X165223Y52306D01*
X165279Y52464D01*
X165325Y52611D01*
X165353Y52741D01*
X165362Y52852D01*
X165371Y52889D01*
Y52944D01*
X165362Y53074D01*
X165343Y53203D01*
X165316Y53323D01*
X165288Y53425D01*
X165260Y53508D01*
X165232Y53573D01*
X165214Y53610D01*
X165205Y53629D01*
X165131Y53740D01*
X165057Y53832D01*
X164974Y53915D01*
X164890Y53980D01*
X164826Y54035D01*
X164770Y54072D01*
X164724Y54091D01*
X164715Y54100D01*
X164594Y54146D01*
X164484Y54183D01*
X164373Y54211D01*
X164271Y54229D01*
X164188Y54239D01*
X164123Y54248D01*
D02*
G37*
G36*
X258449Y48801D02*
X258393D01*
X258199Y48782D01*
X258024Y48736D01*
X257876Y48680D01*
X257746Y48606D01*
X257645Y48532D01*
X257571Y48477D01*
X257524Y48431D01*
X257506Y48412D01*
X257386Y48255D01*
X257293Y48089D01*
X257229Y47913D01*
X257192Y47747D01*
X257164Y47599D01*
X257155Y47534D01*
Y47478D01*
X257145Y47432D01*
Y47395D01*
Y47377D01*
Y47367D01*
X257164Y47118D01*
X257201Y46905D01*
X257256Y46720D01*
X257321Y46563D01*
X257395Y46443D01*
X257450Y46350D01*
X257487Y46295D01*
X257506Y46286D01*
Y46276D01*
X257571Y46203D01*
X257645Y46147D01*
X257792Y46045D01*
X257941Y45981D01*
X258070Y45925D01*
X258190Y45897D01*
X258283Y45888D01*
X258319Y45879D01*
X258366D01*
X258495Y45888D01*
X258615Y45907D01*
X258726Y45944D01*
X258819Y45981D01*
X258902Y46008D01*
X258967Y46045D01*
X259004Y46064D01*
X259022Y46073D01*
X259133Y46156D01*
X259226Y46240D01*
X259309Y46341D01*
X259373Y46424D01*
X259429Y46508D01*
X259466Y46572D01*
X259494Y46618D01*
X259503Y46637D01*
X259558Y46776D01*
X259595Y46914D01*
X259632Y47044D01*
X259651Y47164D01*
X259660Y47266D01*
X259669Y47349D01*
Y47395D01*
Y47414D01*
X259651Y47635D01*
X259614Y47830D01*
X259549Y48005D01*
X259485Y48144D01*
X259420Y48264D01*
X259355Y48348D01*
X259318Y48394D01*
X259300Y48412D01*
X259152Y48542D01*
X259004Y48634D01*
X258846Y48708D01*
X258708Y48754D01*
X258578Y48782D01*
X258486Y48791D01*
X258449Y48801D01*
D02*
G37*
G36*
X297286Y7279D02*
X295271D01*
X295021Y7269D01*
X294809Y7232D01*
X294624Y7186D01*
X294485Y7131D01*
X294365Y7075D01*
X294291Y7029D01*
X294244Y6992D01*
X294226Y6983D01*
X294115Y6863D01*
X294032Y6742D01*
X293976Y6613D01*
X293930Y6502D01*
X293912Y6391D01*
X293902Y6308D01*
X293893Y6252D01*
Y6243D01*
Y6234D01*
X293902Y6123D01*
X293921Y6012D01*
X293949Y5920D01*
X293976Y5836D01*
X294013Y5762D01*
X294041Y5707D01*
X294060Y5670D01*
X294069Y5661D01*
X294133Y5568D01*
X294217Y5485D01*
X294300Y5420D01*
X294383Y5365D01*
X294457Y5328D01*
X294513Y5300D01*
X294550Y5282D01*
X294568Y5272D01*
X294697Y5235D01*
X294845Y5208D01*
X294993Y5189D01*
X295141Y5180D01*
X295271Y5171D01*
X295382Y5161D01*
X297286D01*
Y7279D01*
D02*
G37*
G36*
X285017Y7371D02*
X284962D01*
X284860Y7362D01*
X284758Y7353D01*
X284666Y7325D01*
X284583Y7288D01*
X284426Y7205D01*
X284287Y7112D01*
X284185Y7011D01*
X284102Y6927D01*
X284074Y6890D01*
X284056Y6863D01*
X284037Y6853D01*
Y6844D01*
X283973Y6733D01*
X283917Y6604D01*
X283862Y6456D01*
X283825Y6299D01*
X283788Y6132D01*
X283760Y5957D01*
X283714Y5605D01*
X283695Y5430D01*
X283686Y5272D01*
X283677Y5124D01*
Y5004D01*
X283668Y4893D01*
Y4810D01*
Y4764D01*
Y4755D01*
Y4745D01*
Y4459D01*
X283686Y4200D01*
X283704Y3969D01*
X283723Y3747D01*
X283751Y3562D01*
X283788Y3386D01*
X283825Y3238D01*
X283852Y3100D01*
X283889Y2989D01*
X283926Y2896D01*
X283954Y2813D01*
X283991Y2748D01*
X284010Y2702D01*
X284028Y2674D01*
X284047Y2656D01*
Y2647D01*
X284121Y2554D01*
X284195Y2480D01*
X284268Y2406D01*
X284342Y2351D01*
X284500Y2258D01*
X284638Y2194D01*
X284768Y2157D01*
X284860Y2138D01*
X284897Y2129D01*
X284953D01*
X285054Y2138D01*
X285147Y2147D01*
X285322Y2212D01*
X285480Y2295D01*
X285618Y2388D01*
X285720Y2480D01*
X285803Y2563D01*
X285849Y2628D01*
X285868Y2637D01*
Y2647D01*
X285933Y2758D01*
X285988Y2887D01*
X286044Y3035D01*
X286081Y3192D01*
X286118Y3359D01*
X286145Y3534D01*
X286192Y3895D01*
X286210Y4061D01*
X286219Y4218D01*
X286229Y4366D01*
Y4487D01*
X286238Y4597D01*
Y4681D01*
Y4727D01*
Y4745D01*
X286229Y5032D01*
X286219Y5291D01*
X286201Y5531D01*
X286173Y5753D01*
X286145Y5947D01*
X286108Y6123D01*
X286071Y6280D01*
X286034Y6419D01*
X285997Y6539D01*
X285970Y6641D01*
X285933Y6724D01*
X285905Y6798D01*
X285877Y6844D01*
X285859Y6881D01*
X285840Y6900D01*
Y6909D01*
X285776Y6992D01*
X285711Y7066D01*
X285637Y7121D01*
X285563Y7177D01*
X285415Y7260D01*
X285276Y7316D01*
X285156Y7343D01*
X285054Y7362D01*
X285017Y7371D01*
D02*
G37*
G36*
X334599Y98673D02*
Y95807D01*
X336614D01*
X334599Y98673D01*
D02*
G37*
G36*
X371652Y112330D02*
X371578D01*
X371421Y112320D01*
X371273Y112283D01*
X371152Y112237D01*
X371042Y112182D01*
X370958Y112126D01*
X370894Y112080D01*
X370847Y112043D01*
X370838Y112034D01*
X370737Y111913D01*
X370662Y111793D01*
X370607Y111673D01*
X370570Y111562D01*
X370552Y111460D01*
X370533Y111377D01*
Y111322D01*
Y111313D01*
Y111303D01*
X370542Y111155D01*
X370579Y111017D01*
X370625Y110897D01*
X370681Y110795D01*
X370737Y110711D01*
X370783Y110656D01*
X370820Y110610D01*
X370829Y110601D01*
X370940Y110508D01*
X371069Y110434D01*
X371189Y110388D01*
X371310Y110351D01*
X371421Y110332D01*
X371504Y110323D01*
X371559Y110314D01*
X371578D01*
X371744Y110323D01*
X371892Y110360D01*
X372022Y110406D01*
X372133Y110462D01*
X372216Y110508D01*
X372281Y110554D01*
X372327Y110591D01*
X372336Y110601D01*
X372428Y110711D01*
X372502Y110841D01*
X372549Y110961D01*
X372586Y111081D01*
X372604Y111183D01*
X372613Y111266D01*
X372623Y111322D01*
Y111331D01*
Y111340D01*
X372613Y111488D01*
X372576Y111618D01*
X372530Y111738D01*
X372475Y111840D01*
X372428Y111923D01*
X372382Y111987D01*
X372345Y112024D01*
X372336Y112034D01*
X372216Y112135D01*
X372096Y112209D01*
X371966Y112256D01*
X371846Y112292D01*
X371735Y112311D01*
X371652Y112330D01*
D02*
G37*
G36*
X371661Y109676D02*
X371606D01*
X371402Y109657D01*
X371217Y109621D01*
X371051Y109556D01*
X370912Y109491D01*
X370801Y109417D01*
X370718Y109352D01*
X370672Y109316D01*
X370653Y109297D01*
X370524Y109149D01*
X370431Y108992D01*
X370367Y108835D01*
X370320Y108696D01*
X370293Y108557D01*
X370283Y108456D01*
X370274Y108419D01*
Y108391D01*
Y108372D01*
Y108363D01*
X370293Y108169D01*
X370330Y107984D01*
X370394Y107827D01*
X370459Y107697D01*
X370524Y107596D01*
X370588Y107513D01*
X370625Y107466D01*
X370644Y107448D01*
X370792Y107328D01*
X370940Y107235D01*
X371097Y107180D01*
X371245Y107134D01*
X371374Y107106D01*
X371485Y107097D01*
X371522Y107087D01*
X371578D01*
X371707Y107097D01*
X371837Y107115D01*
X371957Y107143D01*
X372059Y107170D01*
X372142Y107198D01*
X372206Y107226D01*
X372243Y107244D01*
X372262Y107254D01*
X372373Y107328D01*
X372465Y107402D01*
X372549Y107485D01*
X372613Y107568D01*
X372669Y107633D01*
X372706Y107688D01*
X372724Y107734D01*
X372733Y107744D01*
X372780Y107864D01*
X372817Y107975D01*
X372845Y108086D01*
X372863Y108188D01*
X372872Y108271D01*
X372881Y108335D01*
Y108372D01*
Y108391D01*
X372863Y108585D01*
X372826Y108761D01*
X372771Y108918D01*
X372696Y109057D01*
X372632Y109158D01*
X372576Y109242D01*
X372539Y109288D01*
X372521Y109306D01*
X372382Y109426D01*
X372225Y109519D01*
X372077Y109584D01*
X371929Y109630D01*
X371800Y109657D01*
X371698Y109667D01*
X371661Y109676D01*
D02*
G37*
%LPD*%
D11*
X353000Y43250D02*
G03*
X353000Y43250I-1250J0D01*
G01*
X241000Y12000D02*
G03*
X241000Y12000I-1250J0D01*
G01*
D12*
X164250Y63750D02*
Y82250D01*
X175750D01*
X164250Y63750D02*
X175750D01*
Y82250D01*
X345250Y104250D02*
X363750D01*
X345250D02*
Y115750D01*
X363750Y104250D02*
Y115750D01*
X345250D02*
X363750D01*
X306250Y115750D02*
X324750D01*
Y104250D02*
Y115750D01*
X306250Y104250D02*
Y115750D01*
Y104250D02*
X324750D01*
X285000Y10750D02*
Y29250D01*
X296500D01*
X285000Y10750D02*
X296500D01*
Y29250D01*
X121250Y73750D02*
X139750D01*
Y62250D02*
Y73750D01*
X121250Y62250D02*
Y73750D01*
Y62250D02*
X139750D01*
X160750Y63750D02*
Y82250D01*
X149250Y63750D02*
X160750D01*
X149250Y82250D02*
X160750D01*
X149250Y63750D02*
Y82250D01*
X162750Y100750D02*
X181250D01*
Y89250D02*
Y100750D01*
X162750Y89250D02*
Y100750D01*
Y89250D02*
X181250D01*
X195750Y81250D02*
Y99750D01*
X184250Y81250D02*
X195750D01*
X184250Y99750D02*
X195750D01*
X184250Y81250D02*
Y99750D01*
D13*
X321250Y41250D02*
X342250D01*
X321250Y10250D02*
Y41250D01*
Y10250D02*
X342250D01*
Y41250D01*
X261766Y10500D02*
Y39500D01*
X260724D02*
X261766D01*
X260724Y10500D02*
Y39500D01*
Y10500D02*
X261766D01*
X329000Y62500D02*
X343500D01*
X329000Y89500D02*
X343500D01*
D29*
X338000Y34500D02*
G03*
X338000Y34500I-2500J0D01*
G01*
D30*
X247600Y153569D02*
G03*
X247600Y153569I-1270J0D01*
G01*
D39*
X251029Y115977D02*
X358471D01*
X251029D02*
Y150521D01*
X358471D01*
Y115977D02*
Y150521D01*
M02*
