M48
;Layer_Color=9474304
;FILE_FORMAT=4:4
METRIC,LZ
;TYPE=PLATED
T1F00S00C0.3000
T2F00S00C0.5588
T3F00S00C0.8000
;TYPE=NON_PLATED
T4F00S00C2.2000
%
T01
X00043Y00012
Y0002
X00075Y00019
Y00011
X00095Y0003
X00033Y00045
X00019
X00016Y00074
X00036
X00167Y0008
X00176
Y00052
X00167
X00192Y00005
X00187Y-00025
X00198
Y-00054
X00187
X00229Y0003
Y00038
X002435Y000445
X00258Y00035
Y00028
X00262Y00016
Y00009
X0029Y00013
Y00005
X00327Y-00005
X00362Y-00008
Y0
X0039
Y-00008
X003665Y000375
X003555
Y000485
X003665
X00331Y00038
X00322
X00326Y00071
X00333Y00067
Y00076
X0033Y00098
X00278Y00108
X0027
X00265Y0009
Y00082
X00231Y00116
X00341Y-00033
T02
X0026725Y0013775
X0027975
X0029225
X0030475
X0031725
X0032975
X0034225
T03
X001173Y00088
X0013Y001007
X001427Y00088
T04
X00055Y00135
X00195
X00375Y-00035
M30
