G04*
G04 #@! TF.GenerationSoftware,Altium Limited,Altium Designer,23.3.1 (30)*
G04*
G04 Layer_Physical_Order=2*
G04 Layer_Color=36540*
%FSLAX44Y44*%
%MOMM*%
G71*
G04*
G04 #@! TF.SameCoordinates,0A325C66-3388-4B77-B3D2-BE92810A0E17*
G04*
G04*
G04 #@! TF.FilePolarity,Positive*
G04*
G01*
G75*
%ADD12C,0.2000*%
%ADD24C,1.0668*%
%ADD27C,0.2540*%
%ADD28C,0.5000*%
%ADD29C,1.5000*%
%ADD30C,2.2000*%
%ADD31C,0.6000*%
G36*
X397451Y-57451D02*
X167549D01*
X167549Y-5000D01*
X167527Y-4893D01*
X167540Y-4785D01*
X167467Y-3925D01*
X167377Y-3615D01*
X167332Y-3296D01*
X166763Y-1672D01*
X166545Y-1303D01*
X166348Y-924D01*
X165273Y420D01*
X164945Y696D01*
X164634Y989D01*
X163175Y1901D01*
X162873Y2016D01*
X162591Y2171D01*
X161767Y2431D01*
X161381Y2473D01*
X161000Y2549D01*
X2549Y2549D01*
Y92500D01*
X42000D01*
Y127977D01*
X43270Y128317D01*
X44197Y126711D01*
X46711Y124197D01*
X49789Y122420D01*
X53223Y121500D01*
X56777D01*
X60211Y122420D01*
X63289Y124197D01*
X65803Y126711D01*
X67580Y129789D01*
X68500Y133223D01*
Y136777D01*
X67580Y140211D01*
X65803Y143289D01*
X63289Y145803D01*
X60211Y147580D01*
X56777Y148500D01*
X53223D01*
X49789Y147580D01*
X46711Y145803D01*
X44197Y143289D01*
X43270Y141683D01*
X42000Y142023D01*
Y157451D01*
X397451D01*
Y-57451D01*
D02*
G37*
%LPC*%
G36*
X343215Y145084D02*
X341284D01*
X339419Y144584D01*
X337747Y143619D01*
X336828Y142699D01*
X336000Y142394D01*
X335173Y142699D01*
X334253Y143619D01*
X332581Y144584D01*
X330715Y145084D01*
X328784D01*
X326919Y144584D01*
X325247Y143619D01*
X324328Y142699D01*
X323500Y142394D01*
X322673Y142699D01*
X321753Y143619D01*
X320081Y144584D01*
X318216Y145084D01*
X316285D01*
X314419Y144584D01*
X312747Y143619D01*
X311828Y142699D01*
X311000Y142394D01*
X310173Y142699D01*
X309253Y143619D01*
X307581Y144584D01*
X305716Y145084D01*
X303785D01*
X301919Y144584D01*
X300247Y143619D01*
X299328Y142699D01*
X298500Y142394D01*
X297673Y142699D01*
X296753Y143619D01*
X295081Y144584D01*
X293216Y145084D01*
X291285D01*
X289419Y144584D01*
X287747Y143619D01*
X286828Y142699D01*
X286000Y142394D01*
X285173Y142699D01*
X284253Y143619D01*
X282581Y144584D01*
X280716Y145084D01*
X278785D01*
X276919Y144584D01*
X275247Y143619D01*
X274328Y142699D01*
X273500Y142394D01*
X272673Y142699D01*
X271753Y143619D01*
X270081Y144584D01*
X268216Y145084D01*
X268000D01*
Y137750D01*
Y130416D01*
X268216D01*
X270081Y130916D01*
X271753Y131881D01*
X272673Y132801D01*
X273500Y133106D01*
X274328Y132801D01*
X275247Y131881D01*
X276919Y130916D01*
X278785Y130416D01*
X280716D01*
X282581Y130916D01*
X284253Y131881D01*
X285173Y132801D01*
X286000Y133106D01*
X286828Y132801D01*
X287747Y131881D01*
X289419Y130916D01*
X291285Y130416D01*
X293216D01*
X295081Y130916D01*
X296753Y131881D01*
X297673Y132801D01*
X298500Y133106D01*
X299328Y132801D01*
X300247Y131881D01*
X301919Y130916D01*
X303785Y130416D01*
X305716D01*
X307581Y130916D01*
X309253Y131881D01*
X310173Y132801D01*
X311000Y133106D01*
X311828Y132801D01*
X312747Y131881D01*
X314419Y130916D01*
X316285Y130416D01*
X318216D01*
X320081Y130916D01*
X321753Y131881D01*
X322673Y132801D01*
X323500Y133106D01*
X324328Y132801D01*
X325247Y131881D01*
X326919Y130916D01*
X328784Y130416D01*
X330715D01*
X332581Y130916D01*
X334253Y131881D01*
X335173Y132801D01*
X336000Y133106D01*
X336828Y132801D01*
X337747Y131881D01*
X339419Y130916D01*
X341284Y130416D01*
X343215D01*
X345081Y130916D01*
X346753Y131881D01*
X348119Y133247D01*
X349084Y134919D01*
X349584Y136784D01*
Y138715D01*
X349084Y140581D01*
X348119Y142253D01*
X346753Y143619D01*
X345081Y144584D01*
X343215Y145084D01*
D02*
G37*
G36*
X266500D02*
X266285D01*
X264419Y144584D01*
X262747Y143619D01*
X261381Y142253D01*
X260416Y140581D01*
X259916Y138715D01*
Y138500D01*
X266500D01*
Y145084D01*
D02*
G37*
G36*
Y137000D02*
X259916D01*
Y136784D01*
X260416Y134919D01*
X261381Y133247D01*
X262747Y131881D01*
X264419Y130916D01*
X266285Y130416D01*
X266500D01*
Y137000D01*
D02*
G37*
G36*
X196777Y148500D02*
X193223D01*
X189789Y147580D01*
X186711Y145803D01*
X184197Y143289D01*
X182420Y140211D01*
X181500Y136777D01*
Y133223D01*
X182420Y129789D01*
X184197Y126711D01*
X186711Y124197D01*
X189789Y122420D01*
X193223Y121500D01*
X196777D01*
X200211Y122420D01*
X203289Y124197D01*
X205803Y126711D01*
X207580Y129789D01*
X208500Y133223D01*
Y136777D01*
X207580Y140211D01*
X205803Y143289D01*
X203289Y145803D01*
X200211Y147580D01*
X196777Y148500D01*
D02*
G37*
G36*
X231995Y121000D02*
X230005D01*
X228168Y120239D01*
X226761Y118832D01*
X226000Y116995D01*
Y115005D01*
X226761Y113168D01*
X228168Y111761D01*
X230005Y111000D01*
X231995D01*
X233832Y111761D01*
X235239Y113168D01*
X236000Y115005D01*
Y116995D01*
X235239Y118832D01*
X233832Y120239D01*
X231995Y121000D01*
D02*
G37*
G36*
X131251Y110200D02*
X128749D01*
X126333Y109553D01*
X124167Y108302D01*
X123813Y107948D01*
X130000Y101761D01*
X136187Y107948D01*
X135833Y108302D01*
X133667Y109553D01*
X131251Y110200D01*
D02*
G37*
G36*
X122752Y106887D02*
X122398Y106533D01*
X121147Y104367D01*
X120500Y101951D01*
Y99449D01*
X120834Y98203D01*
X119797Y97166D01*
X118551Y97500D01*
X116049D01*
X113633Y96853D01*
X111467Y95602D01*
X111113Y95248D01*
X117830Y88530D01*
X124548Y81813D01*
X124902Y82167D01*
X126153Y84333D01*
X126800Y86749D01*
Y89251D01*
X126466Y90497D01*
X127503Y91534D01*
X128749Y91200D01*
X131251D01*
X132497Y91534D01*
X133534Y90497D01*
X133200Y89251D01*
Y86749D01*
X133847Y84333D01*
X135098Y82167D01*
X136867Y80398D01*
X139033Y79147D01*
X141449Y78500D01*
X143951D01*
X146367Y79147D01*
X148533Y80398D01*
X150302Y82167D01*
X151553Y84333D01*
X152200Y86749D01*
Y89251D01*
X151553Y91667D01*
X150302Y93833D01*
X148533Y95602D01*
X146367Y96853D01*
X143951Y97500D01*
X141449D01*
X140203Y97166D01*
X139166Y98203D01*
X139500Y99449D01*
Y101951D01*
X138853Y104367D01*
X137602Y106533D01*
X137248Y106887D01*
X130530Y100170D01*
X130000Y100700D01*
X129470Y100170D01*
X122752Y106887D01*
D02*
G37*
G36*
X110052Y94187D02*
X109698Y93833D01*
X108447Y91667D01*
X107800Y89251D01*
Y86749D01*
X108447Y84333D01*
X109698Y82167D01*
X110052Y81813D01*
X116239Y88000D01*
X110052Y94187D01*
D02*
G37*
G36*
X117300Y86939D02*
X111113Y80752D01*
X111467Y80398D01*
X113633Y79147D01*
X116049Y78500D01*
X118551D01*
X120967Y79147D01*
X123133Y80398D01*
X123487Y80752D01*
X117300Y86939D01*
D02*
G37*
G36*
X265994Y95000D02*
X264005D01*
X262168Y94239D01*
X260761Y92832D01*
X260000Y90995D01*
Y89005D01*
X260761Y87168D01*
X261929Y86000D01*
X260761Y84832D01*
X260000Y82995D01*
Y81005D01*
X260761Y79168D01*
X262168Y77761D01*
X264005Y77000D01*
X265994D01*
X267832Y77761D01*
X269239Y79168D01*
X270000Y81005D01*
Y82995D01*
X269239Y84832D01*
X268071Y86000D01*
X269239Y87168D01*
X270000Y89005D01*
Y90995D01*
X269239Y92832D01*
X267832Y94239D01*
X265994Y95000D01*
D02*
G37*
G36*
X333995Y81000D02*
X332005D01*
X330168Y80239D01*
X328761Y78832D01*
X328000Y76995D01*
Y76672D01*
X326995Y76000D01*
X325005D01*
X323168Y75239D01*
X321761Y73832D01*
X321000Y71995D01*
Y70005D01*
X321761Y68168D01*
X323168Y66761D01*
X325005Y66000D01*
X326995D01*
X327620Y66259D01*
X328000Y66005D01*
X328761Y64168D01*
X330168Y62761D01*
X332005Y62000D01*
X333995D01*
X335832Y62761D01*
X337239Y64168D01*
X338000Y66005D01*
Y67995D01*
X337239Y69832D01*
X336401Y70670D01*
X335968Y71500D01*
X336401Y72330D01*
X337239Y73168D01*
X338000Y75005D01*
Y76995D01*
X337239Y78832D01*
X335832Y80239D01*
X333995Y81000D01*
D02*
G37*
G36*
X176995Y57000D02*
X175005D01*
X173168Y56239D01*
X172330Y55401D01*
X171500Y54968D01*
X170670Y55401D01*
X169832Y56239D01*
X167995Y57000D01*
X166005D01*
X164168Y56239D01*
X162761Y54832D01*
X162000Y52995D01*
Y51005D01*
X162761Y49168D01*
X164168Y47761D01*
X166005Y47000D01*
X167995D01*
X169832Y47761D01*
X170670Y48599D01*
X171500Y49032D01*
X172330Y48599D01*
X173168Y47761D01*
X175005Y47000D01*
X176995D01*
X178832Y47761D01*
X180239Y49168D01*
X181000Y51005D01*
Y52995D01*
X180239Y54832D01*
X178832Y56239D01*
X176995Y57000D01*
D02*
G37*
G36*
X367495Y53500D02*
X365505D01*
X363668Y52739D01*
X362261Y51332D01*
X361673Y49913D01*
X360327D01*
X359739Y51332D01*
X358332Y52739D01*
X356495Y53500D01*
X354506D01*
X352668Y52739D01*
X351261Y51332D01*
X350500Y49495D01*
Y47505D01*
X351261Y45668D01*
X352668Y44261D01*
X354087Y43673D01*
Y42327D01*
X352668Y41739D01*
X351261Y40332D01*
X350500Y38495D01*
Y36505D01*
X351261Y34668D01*
X352668Y33261D01*
X354506Y32500D01*
X356495D01*
X358332Y33261D01*
X359739Y34668D01*
X360327Y36087D01*
X361673D01*
X362261Y34668D01*
X363668Y33261D01*
X365505Y32500D01*
X367495D01*
X369332Y33261D01*
X370739Y34668D01*
X371500Y36505D01*
Y38495D01*
X370739Y40332D01*
X369332Y41739D01*
X367913Y42327D01*
Y43673D01*
X369332Y44261D01*
X370739Y45668D01*
X371500Y47505D01*
Y49495D01*
X370739Y51332D01*
X369332Y52739D01*
X367495Y53500D01*
D02*
G37*
G36*
X33995Y50000D02*
X32005D01*
X30168Y49239D01*
X28761Y47832D01*
X28000Y45995D01*
Y44005D01*
X28761Y42168D01*
X30168Y40761D01*
X32005Y40000D01*
X33995D01*
X35832Y40761D01*
X37239Y42168D01*
X38000Y44005D01*
Y45995D01*
X37239Y47832D01*
X35832Y49239D01*
X33995Y50000D01*
D02*
G37*
G36*
X19994D02*
X18005D01*
X16168Y49239D01*
X14761Y47832D01*
X14000Y45995D01*
Y44005D01*
X14761Y42168D01*
X16168Y40761D01*
X18005Y40000D01*
X19994D01*
X21832Y40761D01*
X23239Y42168D01*
X24000Y44005D01*
Y45995D01*
X23239Y47832D01*
X21832Y49239D01*
X19994Y50000D01*
D02*
G37*
G36*
X244495Y49500D02*
X242505D01*
X240668Y48739D01*
X239261Y47332D01*
X238500Y45495D01*
Y43506D01*
X239261Y41668D01*
X240668Y40261D01*
X242505Y39500D01*
X244495D01*
X246332Y40261D01*
X247739Y41668D01*
X248500Y43506D01*
Y45495D01*
X247739Y47332D01*
X246332Y48739D01*
X244495Y49500D01*
D02*
G37*
G36*
X229995Y43000D02*
X228005D01*
X226168Y42239D01*
X224761Y40832D01*
X224000Y38995D01*
Y37005D01*
X224761Y35168D01*
X225929Y34000D01*
X224761Y32832D01*
X224000Y30995D01*
Y29005D01*
X224761Y27168D01*
X226168Y25761D01*
X228005Y25000D01*
X229995D01*
X231832Y25761D01*
X233239Y27168D01*
X234000Y29005D01*
Y30995D01*
X233239Y32832D01*
X232071Y34000D01*
X233239Y35168D01*
X234000Y37005D01*
Y38995D01*
X233239Y40832D01*
X231832Y42239D01*
X229995Y43000D01*
D02*
G37*
G36*
X95995Y35000D02*
X94005D01*
X92168Y34239D01*
X90761Y32832D01*
X90000Y30995D01*
Y29005D01*
X90761Y27168D01*
X92168Y25761D01*
X94005Y25000D01*
X95995D01*
X97832Y25761D01*
X99239Y27168D01*
X100000Y29005D01*
Y30995D01*
X99239Y32832D01*
X97832Y34239D01*
X95995Y35000D01*
D02*
G37*
G36*
X43995Y25000D02*
X42005D01*
X40168Y24239D01*
X38761Y22832D01*
X38000Y20995D01*
Y19005D01*
X38761Y17168D01*
X39929Y16000D01*
X38761Y14832D01*
X38000Y12995D01*
Y11005D01*
X38761Y9168D01*
X40168Y7761D01*
X42005Y7000D01*
X43995D01*
X45832Y7761D01*
X47239Y9168D01*
X48000Y11005D01*
Y12995D01*
X47239Y14832D01*
X46071Y16000D01*
X47239Y17168D01*
X48000Y19005D01*
Y20995D01*
X47239Y22832D01*
X45832Y24239D01*
X43995Y25000D01*
D02*
G37*
G36*
X262995Y21000D02*
X261005D01*
X259168Y20239D01*
X257761Y18832D01*
X257000Y16995D01*
Y15005D01*
X257761Y13168D01*
X258429Y12500D01*
X257761Y11832D01*
X257000Y9995D01*
Y8005D01*
X257761Y6168D01*
X259168Y4761D01*
X261005Y4000D01*
X262995D01*
X264832Y4761D01*
X266239Y6168D01*
X267000Y8005D01*
Y9995D01*
X266239Y11832D01*
X265571Y12500D01*
X266239Y13168D01*
X267000Y15005D01*
Y16995D01*
X266239Y18832D01*
X264832Y20239D01*
X262995Y21000D01*
D02*
G37*
G36*
X192995Y10000D02*
X191005D01*
X189168Y9239D01*
X187761Y7832D01*
X187000Y5995D01*
Y4005D01*
X187761Y2168D01*
X189168Y761D01*
X191005Y0D01*
X192995D01*
X194832Y761D01*
X196239Y2168D01*
X197000Y4005D01*
Y5995D01*
X196239Y7832D01*
X194832Y9239D01*
X192995Y10000D01*
D02*
G37*
G36*
X327995Y0D02*
X326005D01*
X324168Y-761D01*
X322761Y-2168D01*
X322000Y-4005D01*
Y-5995D01*
X322761Y-7832D01*
X324168Y-9239D01*
X326005Y-10000D01*
X327995D01*
X329832Y-9239D01*
X331239Y-7832D01*
X332000Y-5995D01*
Y-4005D01*
X331239Y-2168D01*
X329832Y-761D01*
X327995Y0D01*
D02*
G37*
G36*
X362995Y5000D02*
X361006D01*
X359168Y4239D01*
X357761Y2832D01*
X357000Y995D01*
Y-995D01*
X357761Y-2832D01*
X358929Y-4000D01*
X357761Y-5168D01*
X357000Y-7005D01*
Y-8995D01*
X357761Y-10832D01*
X359168Y-12239D01*
X361006Y-13000D01*
X362995D01*
X364832Y-12239D01*
X366239Y-10832D01*
X367000Y-8995D01*
Y-7005D01*
X366239Y-5168D01*
X365071Y-4000D01*
X366239Y-2832D01*
X367000Y-995D01*
Y995D01*
X366239Y2832D01*
X364832Y4239D01*
X362995Y5000D01*
D02*
G37*
G36*
X198995Y-20000D02*
X197005D01*
X195168Y-20761D01*
X193761Y-22168D01*
X193173Y-23587D01*
X191827D01*
X191239Y-22168D01*
X189832Y-20761D01*
X187995Y-20000D01*
X186005D01*
X184168Y-20761D01*
X182761Y-22168D01*
X182000Y-24005D01*
Y-25995D01*
X182761Y-27832D01*
X184168Y-29239D01*
X186005Y-30000D01*
X187995D01*
X189832Y-29239D01*
X191239Y-27832D01*
X191827Y-26413D01*
X193173D01*
X193761Y-27832D01*
X195168Y-29239D01*
X197005Y-30000D01*
X198995D01*
X200832Y-29239D01*
X202239Y-27832D01*
X203000Y-25995D01*
Y-24005D01*
X202239Y-22168D01*
X200832Y-20761D01*
X198995Y-20000D01*
D02*
G37*
G36*
X376777Y-21500D02*
X373223D01*
X369789Y-22420D01*
X366711Y-24197D01*
X364197Y-26711D01*
X362420Y-29789D01*
X361500Y-33223D01*
Y-36777D01*
X362420Y-40211D01*
X364197Y-43289D01*
X366711Y-45803D01*
X369789Y-47580D01*
X373223Y-48500D01*
X376777D01*
X380211Y-47580D01*
X383289Y-45803D01*
X385803Y-43289D01*
X387580Y-40211D01*
X388500Y-36777D01*
Y-33223D01*
X387580Y-29789D01*
X385803Y-26711D01*
X383289Y-24197D01*
X380211Y-22420D01*
X376777Y-21500D01*
D02*
G37*
%LPD*%
D12*
X12502Y127502D02*
Y137498D01*
X22499Y127502D01*
X24998D01*
X27498Y130001D01*
Y134999D01*
X24998Y137498D01*
D24*
X342250Y137750D02*
D03*
X329750D02*
D03*
X317250D02*
D03*
X304750D02*
D03*
X292250D02*
D03*
X279750D02*
D03*
X267250D02*
D03*
D27*
X267000Y138000D02*
X267250Y137750D01*
D28*
X267000Y138000D02*
Y148000D01*
X253250Y137750D02*
X267250D01*
Y126250D02*
Y136250D01*
D29*
X117300Y88000D02*
D03*
X130000Y100700D02*
D03*
X142700Y88000D02*
D03*
D30*
X375000Y-35000D02*
D03*
X195000Y135000D02*
D03*
X55000D02*
D03*
D31*
X330000Y98000D02*
D03*
X243500Y44500D02*
D03*
X326000Y71000D02*
D03*
X258000Y28000D02*
D03*
X290000Y5000D02*
D03*
Y13000D02*
D03*
X322000Y38000D02*
D03*
X270000Y108000D02*
D03*
X167000Y80000D02*
D03*
X176000Y52000D02*
D03*
Y80000D02*
D03*
X95000Y30000D02*
D03*
X333000Y67000D02*
D03*
X366500Y48500D02*
D03*
Y37500D02*
D03*
X355500Y48500D02*
D03*
Y37500D02*
D03*
X75000Y19000D02*
D03*
Y11000D02*
D03*
X36000Y74000D02*
D03*
X16000D02*
D03*
X19000Y45000D02*
D03*
X33000D02*
D03*
X43000Y12000D02*
D03*
Y20000D02*
D03*
X167000Y52000D02*
D03*
X231000Y116000D02*
D03*
X327000Y-5000D02*
D03*
X362000Y-8000D02*
D03*
Y0D02*
D03*
X390000Y-8000D02*
D03*
Y0D02*
D03*
X341000Y-33000D02*
D03*
X262000Y9000D02*
D03*
Y16000D02*
D03*
X198000Y-54000D02*
D03*
X187000D02*
D03*
X198000Y-25000D02*
D03*
X187000D02*
D03*
X331000Y38000D02*
D03*
X333000Y76000D02*
D03*
X278000Y108000D02*
D03*
X265000Y90000D02*
D03*
Y82000D02*
D03*
X258000Y35000D02*
D03*
X229000Y30000D02*
D03*
Y38000D02*
D03*
X192000Y5000D02*
D03*
M02*
