G04*
G04 #@! TF.GenerationSoftware,Altium Limited,Altium Designer,23.3.1 (30)*
G04*
G04 Layer_Physical_Order=4*
G04 Layer_Color=16711680*
%FSLAX44Y44*%
%MOMM*%
G71*
G04*
G04 #@! TF.SameCoordinates,958C5144-9DDC-4948-B6D7-F64729F80DFD*
G04*
G04*
G04 #@! TF.FilePolarity,Positive*
G04*
G01*
G75*
%ADD11C,0.2500*%
%ADD13C,0.2000*%
G04:AMPARAMS|DCode=14|XSize=0.4mm|YSize=0.6mm|CornerRadius=0.1mm|HoleSize=0mm|Usage=FLASHONLY|Rotation=0.000|XOffset=0mm|YOffset=0mm|HoleType=Round|Shape=RoundedRectangle|*
%AMROUNDEDRECTD14*
21,1,0.4000,0.4000,0,0,0.0*
21,1,0.2000,0.6000,0,0,0.0*
1,1,0.2000,0.1000,-0.2000*
1,1,0.2000,-0.1000,-0.2000*
1,1,0.2000,-0.1000,0.2000*
1,1,0.2000,0.1000,0.2000*
%
%ADD14ROUNDEDRECTD14*%
G04:AMPARAMS|DCode=15|XSize=0.4mm|YSize=0.6mm|CornerRadius=0.1mm|HoleSize=0mm|Usage=FLASHONLY|Rotation=90.000|XOffset=0mm|YOffset=0mm|HoleType=Round|Shape=RoundedRectangle|*
%AMROUNDEDRECTD15*
21,1,0.4000,0.4000,0,0,90.0*
21,1,0.2000,0.6000,0,0,90.0*
1,1,0.2000,0.2000,0.1000*
1,1,0.2000,0.2000,-0.1000*
1,1,0.2000,-0.2000,-0.1000*
1,1,0.2000,-0.2000,0.1000*
%
%ADD15ROUNDEDRECTD15*%
%ADD26C,1.1000*%
%ADD29C,0.5000*%
%ADD30C,0.2540*%
%ADD31C,1.5000*%
%ADD32C,2.2000*%
%ADD33C,0.6000*%
G04:AMPARAMS|DCode=35|XSize=1.45mm|YSize=0.3mm|CornerRadius=0.0495mm|HoleSize=0mm|Usage=FLASHONLY|Rotation=180.000|XOffset=0mm|YOffset=0mm|HoleType=Round|Shape=RoundedRectangle|*
%AMROUNDEDRECTD35*
21,1,1.4500,0.2010,0,0,180.0*
21,1,1.3510,0.3000,0,0,180.0*
1,1,0.0990,-0.6755,0.1005*
1,1,0.0990,0.6755,0.1005*
1,1,0.0990,0.6755,-0.1005*
1,1,0.0990,-0.6755,-0.1005*
%
%ADD35ROUNDEDRECTD35*%
G04:AMPARAMS|DCode=36|XSize=1.2052mm|YSize=0.4149mm|CornerRadius=0.2075mm|HoleSize=0mm|Usage=FLASHONLY|Rotation=0.000|XOffset=0mm|YOffset=0mm|HoleType=Round|Shape=RoundedRectangle|*
%AMROUNDEDRECTD36*
21,1,1.2052,0.0000,0,0,0.0*
21,1,0.7903,0.4149,0,0,0.0*
1,1,0.4149,0.3952,0.0000*
1,1,0.4149,-0.3952,0.0000*
1,1,0.4149,-0.3952,0.0000*
1,1,0.4149,0.3952,0.0000*
%
%ADD36ROUNDEDRECTD36*%
%ADD37R,1.2052X0.4149*%
%ADD38R,1.1000X2.0500*%
G36*
X397451Y-57451D02*
X167549D01*
X167549Y-5000D01*
X167527Y-4893D01*
X167540Y-4785D01*
X167467Y-3925D01*
X167377Y-3615D01*
X167332Y-3296D01*
X166763Y-1672D01*
X166545Y-1303D01*
X166348Y-924D01*
X165273Y420D01*
X164945Y696D01*
X164634Y989D01*
X163175Y1901D01*
X162873Y2016D01*
X162591Y2171D01*
X161767Y2431D01*
X161381Y2473D01*
X161000Y2549D01*
X2549Y2549D01*
Y92500D01*
X42000D01*
Y127977D01*
X43270Y128317D01*
X44197Y126711D01*
X46711Y124197D01*
X49789Y122420D01*
X53223Y121500D01*
X56777D01*
X60211Y122420D01*
X63289Y124197D01*
X65803Y126711D01*
X67580Y129789D01*
X68500Y133223D01*
Y136777D01*
X67580Y140211D01*
X65803Y143289D01*
X63289Y145803D01*
X60211Y147580D01*
X56777Y148500D01*
X53223D01*
X49789Y147580D01*
X46711Y145803D01*
X44197Y143289D01*
X43270Y141683D01*
X42000Y142023D01*
Y157451D01*
X397451D01*
Y-57451D01*
D02*
G37*
%LPC*%
G36*
X343237Y145250D02*
X341263D01*
X339355Y144739D01*
X337645Y143751D01*
X336863Y142970D01*
X336000Y142493D01*
X335137Y142970D01*
X334355Y143751D01*
X332645Y144739D01*
X330737Y145250D01*
X328763D01*
X326855Y144739D01*
X325145Y143751D01*
X324363Y142970D01*
X323500Y142493D01*
X322637Y142970D01*
X321855Y143751D01*
X320145Y144739D01*
X318237Y145250D01*
X316263D01*
X314355Y144739D01*
X312645Y143751D01*
X311863Y142970D01*
X311000Y142493D01*
X310137Y142970D01*
X309355Y143751D01*
X307645Y144739D01*
X305737Y145250D01*
X303763D01*
X301855Y144739D01*
X300145Y143751D01*
X299363Y142970D01*
X298500Y142493D01*
X297637Y142970D01*
X296855Y143751D01*
X295145Y144739D01*
X293237Y145250D01*
X291263D01*
X289355Y144739D01*
X287645Y143751D01*
X286863Y142970D01*
X286000Y142493D01*
X285137Y142970D01*
X284355Y143751D01*
X282645Y144739D01*
X280737Y145250D01*
X278763D01*
X276855Y144739D01*
X275145Y143751D01*
X274363Y142970D01*
X273500Y142493D01*
X272637Y142970D01*
X271855Y143751D01*
X270145Y144739D01*
X268237Y145250D01*
X268000D01*
Y137750D01*
X267250D01*
D01*
X268000D01*
Y130250D01*
X268237D01*
X270145Y130761D01*
X271855Y131749D01*
X272637Y132530D01*
X273500Y133007D01*
X274363Y132530D01*
X275145Y131749D01*
X276855Y130761D01*
X278763Y130250D01*
X280737D01*
X282645Y130761D01*
X284355Y131749D01*
X285137Y132530D01*
X286000Y133007D01*
X286863Y132530D01*
X287645Y131749D01*
X289355Y130761D01*
X291263Y130250D01*
X293237D01*
X295145Y130761D01*
X296855Y131749D01*
X297637Y132530D01*
X298500Y133007D01*
X299363Y132530D01*
X300145Y131749D01*
X301855Y130761D01*
X303763Y130250D01*
X305737D01*
X307645Y130761D01*
X309355Y131749D01*
X310137Y132530D01*
X311000Y133007D01*
X311863Y132530D01*
X312645Y131749D01*
X314355Y130761D01*
X316263Y130250D01*
X318237D01*
X320145Y130761D01*
X320361Y130886D01*
X321461Y130251D01*
Y117230D01*
X321471Y117177D01*
X321464Y117123D01*
X321549Y116788D01*
X321616Y116450D01*
X321646Y116405D01*
X321660Y116352D01*
X321773Y116200D01*
X321664Y115820D01*
X321054Y115048D01*
X321000Y115059D01*
X319000D01*
X317829Y114826D01*
X316837Y114163D01*
X316174Y113170D01*
X316147Y113037D01*
X314853D01*
X314826Y113170D01*
X314163Y114163D01*
X313171Y114826D01*
X312000Y115059D01*
D01*
Y110000D01*
X311000D01*
Y109000D01*
X306941D01*
Y108000D01*
X307174Y106830D01*
X307837Y105837D01*
X308238Y105569D01*
X308261Y105332D01*
X307500Y103495D01*
Y101505D01*
X307421Y101096D01*
X306874Y100153D01*
X306853Y100134D01*
X306529Y99918D01*
X306201Y99702D01*
X306197Y99696D01*
X306191Y99692D01*
X305975Y99368D01*
X305755Y99044D01*
X305753Y99036D01*
X305749Y99030D01*
X305673Y98647D01*
X305594Y98264D01*
X305421Y73575D01*
X304205Y73043D01*
X303500Y73609D01*
Y74745D01*
X302739Y76582D01*
X301332Y77989D01*
X299495Y78750D01*
X297505D01*
X295668Y77989D01*
X294261Y76582D01*
X293500Y74745D01*
Y72755D01*
X294261Y70918D01*
X295668Y69511D01*
X297505Y68750D01*
X298814D01*
X310914Y56650D01*
X310616Y55152D01*
X309668Y54759D01*
X308261Y53352D01*
X307500Y51515D01*
Y49525D01*
X308261Y47688D01*
X309668Y46281D01*
X311505Y45520D01*
X313495D01*
X315332Y46281D01*
X315513Y46462D01*
X316686Y45976D01*
Y40531D01*
X316605Y39976D01*
X315536Y39299D01*
X303916D01*
X301513Y41702D01*
X300431Y42425D01*
X299155Y42679D01*
X260595D01*
X259319Y42425D01*
X258237Y41702D01*
X255315Y38780D01*
X254692Y38904D01*
X246789D01*
X245199Y38588D01*
X243851Y37688D01*
X242951Y36340D01*
X242634Y34750D01*
X242951Y33160D01*
X243434Y32436D01*
X243747Y31500D01*
X243434Y30564D01*
X242951Y29840D01*
X242833Y29250D01*
X250740D01*
Y27250D01*
X242584D01*
X241744Y26500D01*
X239755D01*
X237918Y25739D01*
X236511Y24332D01*
X235750Y22495D01*
Y20505D01*
X236511Y18668D01*
X237918Y17261D01*
X239755Y16500D01*
X241744D01*
X242714Y15852D01*
Y11175D01*
X242714D01*
X243121Y10192D01*
X242761Y9832D01*
X242000Y7995D01*
Y6005D01*
X242761Y4168D01*
X244168Y2761D01*
X246005Y2000D01*
X247995D01*
X249832Y2761D01*
X251239Y4168D01*
X252000Y6005D01*
Y7995D01*
X251239Y9832D01*
X251069Y10002D01*
X251555Y11175D01*
X257610D01*
X264643Y4142D01*
X265724Y3420D01*
X267000Y3166D01*
X284933D01*
X285456Y2642D01*
X285698Y2481D01*
X285918Y2261D01*
X286204Y2142D01*
X286538Y1920D01*
X286931Y1841D01*
X287755Y1500D01*
X289745D01*
X291582Y2261D01*
X292989Y3668D01*
X293088Y3908D01*
X293946Y4480D01*
X299858Y10393D01*
X300580Y11474D01*
X300643Y11789D01*
X302017Y12393D01*
X302057Y12388D01*
X302995Y12201D01*
X304314D01*
X305019Y11145D01*
X304750Y10495D01*
Y8505D01*
X305511Y6668D01*
X306918Y5261D01*
X308755Y4500D01*
X310745D01*
X312582Y5261D01*
X313989Y6668D01*
X314750Y8505D01*
Y10495D01*
X314480Y11145D01*
X315186Y12201D01*
X316505D01*
X317479Y12395D01*
X318304Y12946D01*
X318855Y13772D01*
X319049Y14745D01*
Y16755D01*
X318855Y17729D01*
X318507Y18250D01*
X318855Y18772D01*
X319049Y19745D01*
Y21755D01*
X319403Y22186D01*
X323383D01*
X323500Y22069D01*
Y20761D01*
X324261Y18923D01*
X325668Y17517D01*
X327505Y16755D01*
X329495D01*
X331332Y17517D01*
X331579Y17763D01*
X332657Y17657D01*
X336907Y13407D01*
X337982Y12689D01*
X339250Y12436D01*
X345959D01*
X346021Y12395D01*
X346995Y12201D01*
X360505D01*
X361479Y12395D01*
X362304Y12946D01*
X362855Y13772D01*
X363049Y14745D01*
Y16755D01*
X363608Y17436D01*
X365500D01*
X366768Y17689D01*
X367843Y18407D01*
X372093Y22657D01*
X372811Y23732D01*
X373064Y25000D01*
Y75993D01*
X373989Y76918D01*
X374750Y78755D01*
Y80745D01*
X373989Y82582D01*
X372582Y83989D01*
X370745Y84750D01*
X368755D01*
X366918Y83989D01*
X365511Y82582D01*
X364750Y80745D01*
Y78755D01*
X365511Y76918D01*
X366436Y75993D01*
Y46222D01*
X365166Y45374D01*
X364245Y45755D01*
X362255D01*
X362029Y45662D01*
X361309Y46738D01*
X361739Y47168D01*
X362500Y49005D01*
Y50995D01*
X361739Y52832D01*
X360332Y54239D01*
X358495Y55000D01*
X356505D01*
X354668Y54239D01*
X353261Y52832D01*
X352500Y50995D01*
Y49005D01*
X353261Y47168D01*
X354668Y45761D01*
X356505Y45000D01*
X358495D01*
X358721Y45094D01*
X359441Y44017D01*
X359011Y43588D01*
X358250Y41750D01*
Y39761D01*
X357941Y39299D01*
X346995D01*
X346021Y39105D01*
X345196Y38554D01*
X344645Y37729D01*
X344451Y36755D01*
Y34745D01*
X344645Y33772D01*
X344993Y33250D01*
X344645Y32729D01*
X344451Y31755D01*
Y29745D01*
X344645Y28772D01*
X344993Y28250D01*
X344645Y27729D01*
X344451Y26755D01*
Y26750D01*
X353750D01*
Y24750D01*
X344451D01*
Y24745D01*
X344645Y23772D01*
X344993Y23250D01*
X344645Y22729D01*
X344451Y21755D01*
Y19745D01*
X343892Y19064D01*
X340622D01*
X338314Y21372D01*
Y25028D01*
X338061Y26296D01*
X337343Y27371D01*
X323314Y41401D01*
Y45456D01*
X324487Y45942D01*
X324668Y45761D01*
X326505Y45000D01*
X328495D01*
X330332Y45761D01*
X331739Y47168D01*
X332500Y49005D01*
Y50995D01*
X331739Y52832D01*
X330332Y54239D01*
X328495Y55000D01*
X326505D01*
X324668Y54239D01*
X324262Y53833D01*
X324115Y53795D01*
X322697Y54064D01*
X322343Y54593D01*
X320399Y56537D01*
X320885Y57711D01*
X331250D01*
X332030Y57866D01*
X332692Y58308D01*
X333134Y58970D01*
X333289Y59750D01*
Y84867D01*
X345250D01*
Y77000D01*
X360250D01*
Y88250D01*
X354039D01*
Y97230D01*
X355309Y97996D01*
X356505Y97500D01*
X358495D01*
X360332Y98261D01*
X361739Y99668D01*
X362500Y101505D01*
Y103495D01*
X361739Y105332D01*
X361762Y105569D01*
X362163Y105837D01*
X362826Y106830D01*
X363059Y108000D01*
Y109000D01*
X359000D01*
Y110000D01*
X358000D01*
Y115059D01*
X356829Y114826D01*
X355837Y114163D01*
X355174Y113170D01*
X355147Y113037D01*
X353853D01*
X353826Y113170D01*
X353163Y114163D01*
X352170Y114826D01*
X351000Y115059D01*
X349000D01*
X347830Y114826D01*
X346837Y114163D01*
X346174Y113170D01*
X345941Y112000D01*
Y111046D01*
X345939Y111037D01*
X345750Y110729D01*
X345274Y110298D01*
X344789Y110029D01*
X344659Y110028D01*
X344278Y109949D01*
X344195Y109933D01*
X344180Y109931D01*
X344176Y109929D01*
X343895Y109873D01*
X343089Y109539D01*
X341911D01*
X340823Y109990D01*
X339990Y110823D01*
X339539Y111911D01*
Y113089D01*
X339674Y113414D01*
X339713Y113611D01*
X339790Y113796D01*
Y113997D01*
X339829Y114194D01*
X339790Y114391D01*
Y114592D01*
X339713Y114777D01*
X339674Y114974D01*
X339562Y115141D01*
X339485Y115327D01*
X338780Y116383D01*
X338638Y116525D01*
X338526Y116692D01*
X338359Y116804D01*
X338217Y116945D01*
X338039Y117019D01*
Y130251D01*
X339139Y130886D01*
X339355Y130761D01*
X341263Y130250D01*
X343237D01*
X345145Y130761D01*
X346855Y131749D01*
X348251Y133145D01*
X349239Y134855D01*
X349750Y136763D01*
Y138737D01*
X349239Y140645D01*
X348251Y142355D01*
X346855Y143751D01*
X345145Y144739D01*
X343237Y145250D01*
D02*
G37*
G36*
X266500D02*
X266263D01*
X264355Y144739D01*
X262645Y143751D01*
X261248Y142355D01*
X260261Y140645D01*
X259750Y138737D01*
Y138500D01*
X266500D01*
Y145250D01*
D02*
G37*
G36*
Y137000D02*
X259750D01*
Y136763D01*
X260261Y134855D01*
X261248Y133145D01*
X262645Y131749D01*
X264355Y130761D01*
X266263Y130250D01*
X266500D01*
Y137000D01*
D02*
G37*
G36*
X196777Y148500D02*
X193223D01*
X189789Y147580D01*
X186711Y145803D01*
X184197Y143289D01*
X182420Y140211D01*
X181500Y136777D01*
Y133223D01*
X182420Y129789D01*
X183373Y128139D01*
X182738Y127039D01*
X170000D01*
X169220Y126884D01*
X168558Y126442D01*
X168116Y125780D01*
X167961Y125000D01*
Y100059D01*
X166500D01*
X165329Y99826D01*
X164337Y99163D01*
X162849Y99222D01*
X162832Y99239D01*
X160995Y100000D01*
X159005D01*
X157168Y99239D01*
X155761Y97832D01*
X155000Y95995D01*
Y94005D01*
X155761Y92168D01*
X157168Y90761D01*
X159005Y90000D01*
X160995D01*
X162832Y90761D01*
X162849Y90778D01*
X164337Y90837D01*
X165329Y90174D01*
X166500Y89941D01*
X168500D01*
X169671Y90174D01*
X170663Y90837D01*
X171326Y91830D01*
X171353Y91963D01*
X172647D01*
X172674Y91830D01*
X173337Y90837D01*
X174329Y90174D01*
X175500Y89941D01*
X177500D01*
X178247Y90090D01*
X178661Y89165D01*
X178875Y88865D01*
X179080Y88558D01*
X179105Y88541D01*
X179123Y88517D01*
X179435Y88321D01*
X179742Y88116D01*
X179771Y88110D01*
X179797Y88094D01*
X180160Y88033D01*
X180522Y87961D01*
X184153D01*
X184941Y87000D01*
X190000D01*
X195641D01*
X196126Y87488D01*
X196557Y87473D01*
X197292Y86345D01*
X197250Y86245D01*
Y84255D01*
X198011Y82418D01*
X199304Y81125D01*
X198011Y79832D01*
X197250Y77995D01*
Y76005D01*
X198011Y74168D01*
X199418Y72761D01*
X201255Y72000D01*
X203245D01*
X205082Y72761D01*
X206125Y73804D01*
X207168Y72761D01*
X209005Y72000D01*
X210995D01*
X212832Y72761D01*
X214239Y74168D01*
X215000Y76005D01*
Y77995D01*
X214239Y79832D01*
X212946Y81125D01*
X214239Y82418D01*
X215000Y84255D01*
Y86245D01*
X214239Y88082D01*
X212832Y89489D01*
X210995Y90250D01*
X209005D01*
X207168Y89489D01*
X206125Y88446D01*
X205082Y89489D01*
X203245Y90250D01*
X201255D01*
X200809Y90065D01*
X199539Y90914D01*
Y120946D01*
X199513Y121077D01*
X199522Y121212D01*
X200112Y122304D01*
X200382Y122519D01*
X202280Y123615D01*
X203500Y122853D01*
Y121505D01*
X204261Y119668D01*
X205668Y118261D01*
X207505Y117500D01*
X209495D01*
X211332Y118261D01*
X212739Y119668D01*
X213500Y121505D01*
Y123495D01*
X212739Y125332D01*
X211332Y126739D01*
X209495Y127500D01*
X207725D01*
X206830Y128490D01*
X207580Y129789D01*
X208500Y133223D01*
Y136777D01*
X207580Y140211D01*
X205803Y143289D01*
X203289Y145803D01*
X200211Y147580D01*
X196777Y148500D01*
D02*
G37*
G36*
X360000Y115059D02*
Y111000D01*
X363059D01*
Y112000D01*
X362826Y113170D01*
X362163Y114163D01*
X361171Y114826D01*
X360000Y115059D01*
D02*
G37*
G36*
X310000D02*
X308829Y114826D01*
X307837Y114163D01*
X307174Y113170D01*
X306941Y112000D01*
Y111000D01*
X310000D01*
Y115059D01*
D02*
G37*
G36*
X208495Y112500D02*
X206505D01*
X204668Y111739D01*
X203261Y110332D01*
X202500Y108495D01*
Y106505D01*
X203261Y104668D01*
X204668Y103261D01*
X206505Y102500D01*
X208495D01*
X210332Y103261D01*
X211739Y104668D01*
X212500Y106505D01*
Y108495D01*
X211739Y110332D01*
X210332Y111739D01*
X208495Y112500D01*
D02*
G37*
G36*
X131251Y110200D02*
X128749D01*
X126333Y109553D01*
X124167Y108302D01*
X123813Y107948D01*
X130000Y101761D01*
X136187Y107948D01*
X135833Y108302D01*
X133667Y109553D01*
X131251Y110200D01*
D02*
G37*
G36*
X285995Y107500D02*
X284006D01*
X282168Y106739D01*
X280761Y105332D01*
X280000Y103495D01*
Y101505D01*
X280761Y99668D01*
X282168Y98261D01*
X284006Y97500D01*
X285995D01*
X287832Y98261D01*
X289239Y99668D01*
X290000Y101505D01*
Y103495D01*
X289239Y105332D01*
X287832Y106739D01*
X285995Y107500D01*
D02*
G37*
G36*
X270995D02*
X269006D01*
X267168Y106739D01*
X265761Y105332D01*
X265000Y103495D01*
Y101505D01*
X265761Y99668D01*
X267168Y98261D01*
X269006Y97500D01*
X270995D01*
X272832Y98261D01*
X274239Y99668D01*
X275000Y101505D01*
Y103495D01*
X274239Y105332D01*
X272832Y106739D01*
X270995Y107500D01*
D02*
G37*
G36*
X255995D02*
X254005D01*
X252168Y106739D01*
X250761Y105332D01*
X250000Y103495D01*
Y101505D01*
X250761Y99668D01*
X252168Y98261D01*
X254005Y97500D01*
X255995D01*
X257832Y98261D01*
X259239Y99668D01*
X260000Y101505D01*
Y103495D01*
X259239Y105332D01*
X257832Y106739D01*
X255995Y107500D01*
D02*
G37*
G36*
X240995D02*
X239005D01*
X237168Y106739D01*
X235761Y105332D01*
X235000Y103495D01*
Y101505D01*
X235761Y99668D01*
X237168Y98261D01*
X239005Y97500D01*
X240995D01*
X242832Y98261D01*
X244239Y99668D01*
X245000Y101505D01*
Y103495D01*
X244239Y105332D01*
X242832Y106739D01*
X240995Y107500D01*
D02*
G37*
G36*
X122752Y106887D02*
X122398Y106533D01*
X121147Y104367D01*
X120500Y101951D01*
Y99449D01*
X120834Y98203D01*
X119797Y97166D01*
X118551Y97500D01*
X116049D01*
X113633Y96853D01*
X111467Y95602D01*
X111113Y95248D01*
X117830Y88530D01*
X124548Y81813D01*
X124902Y82167D01*
X126153Y84333D01*
X126800Y86749D01*
Y89251D01*
X126466Y90497D01*
X127503Y91534D01*
X128749Y91200D01*
X131251D01*
X132497Y91534D01*
X133534Y90497D01*
X133200Y89251D01*
Y86749D01*
X133847Y84333D01*
X135098Y82167D01*
X136867Y80398D01*
X139033Y79147D01*
X139386Y79053D01*
Y77073D01*
X135373Y73059D01*
X134000D01*
X132830Y72826D01*
X131837Y72163D01*
X131174Y71171D01*
X131147Y71037D01*
X129853D01*
X129826Y71171D01*
X129163Y72163D01*
X128170Y72826D01*
X127000Y73059D01*
Y68000D01*
Y62941D01*
X128170Y63174D01*
X129163Y63837D01*
X129826Y64830D01*
X129853Y64963D01*
X131147D01*
X131174Y64830D01*
X131837Y63837D01*
X132830Y63174D01*
X134000Y62941D01*
X136000D01*
X137170Y63174D01*
X138163Y63837D01*
X138826Y64830D01*
X139059Y66000D01*
Y67373D01*
X145043Y73357D01*
X145761Y74432D01*
X146014Y75700D01*
Y78204D01*
X147284Y78730D01*
X150047Y75966D01*
X150174Y75329D01*
X150837Y74337D01*
X151830Y73674D01*
X151963Y73647D01*
Y72353D01*
X151830Y72326D01*
X150837Y71663D01*
X150174Y70670D01*
X149941Y69500D01*
Y67500D01*
X150174Y66329D01*
X150837Y65337D01*
X151830Y64674D01*
X153000Y64441D01*
X157000D01*
X158170Y64674D01*
X158937Y65186D01*
X166063D01*
X166829Y64674D01*
X168000Y64441D01*
X172000D01*
X173171Y64674D01*
X174123Y65310D01*
X174768Y65439D01*
X175843Y66157D01*
X176308Y66621D01*
X177168Y65761D01*
X179005Y65000D01*
X180995D01*
X182832Y65761D01*
X184239Y67168D01*
X185000Y69005D01*
Y70995D01*
X184239Y72832D01*
X182832Y74239D01*
X180995Y75000D01*
X179005D01*
X177168Y74239D01*
X176243Y73314D01*
X175000D01*
X174873Y73288D01*
X174390Y74002D01*
X174244Y74458D01*
X174826Y75329D01*
X175059Y76500D01*
Y78500D01*
X174826Y79671D01*
X174163Y80663D01*
X173171Y81326D01*
X172000Y81559D01*
X168000D01*
X166829Y81326D01*
X166063Y80814D01*
X158937D01*
X158170Y81326D01*
X157000Y81559D01*
X153827D01*
X151370Y84017D01*
X151553Y84333D01*
X152200Y86749D01*
Y89251D01*
X151553Y91667D01*
X150302Y93833D01*
X148533Y95602D01*
X146367Y96853D01*
X143951Y97500D01*
X141449D01*
X140203Y97166D01*
X139166Y98203D01*
X139500Y99449D01*
Y101951D01*
X138853Y104367D01*
X137602Y106533D01*
X137248Y106887D01*
X130530Y100170D01*
X130000Y100700D01*
X129470Y100170D01*
X122752Y106887D01*
D02*
G37*
G36*
X195059Y85000D02*
X191000D01*
Y81941D01*
X192000D01*
X193171Y82174D01*
X194163Y82837D01*
X194826Y83829D01*
X195059Y85000D01*
D01*
D02*
G37*
G36*
X189000D02*
X184941D01*
X185174Y83829D01*
X185837Y82837D01*
X186829Y82174D01*
X188000Y81941D01*
X189000D01*
Y85000D01*
D02*
G37*
G36*
X110052Y94187D02*
X109698Y93833D01*
X108447Y91667D01*
X107800Y89251D01*
Y86749D01*
X108447Y84333D01*
X109698Y82167D01*
X110052Y81813D01*
X116239Y88000D01*
X110052Y94187D01*
D02*
G37*
G36*
X117300Y86939D02*
X111113Y80752D01*
X111467Y80398D01*
X113633Y79147D01*
X116049Y78500D01*
X118551D01*
X120967Y79147D01*
X123133Y80398D01*
X123487Y80752D01*
X117300Y86939D01*
D02*
G37*
G36*
X125000Y73059D02*
X123829Y72826D01*
X122837Y72163D01*
X122174Y71171D01*
X121941Y70000D01*
Y69000D01*
X125000D01*
Y73059D01*
D02*
G37*
G36*
X360250Y75000D02*
X353750D01*
Y63750D01*
X360250D01*
Y75000D01*
D02*
G37*
G36*
X351750D02*
X345250D01*
Y63750D01*
X351750D01*
Y75000D01*
D02*
G37*
G36*
X125000Y67000D02*
X121941D01*
Y66000D01*
X122174Y64830D01*
X122837Y63837D01*
X123829Y63174D01*
X125000Y62941D01*
Y67000D01*
D02*
G37*
G36*
X200995Y60000D02*
X199005D01*
X197168Y59239D01*
X195761Y57832D01*
X195000Y55995D01*
Y54005D01*
X195761Y52168D01*
X197168Y50761D01*
X199005Y50000D01*
X200995D01*
X202832Y50761D01*
X204239Y52168D01*
X205000Y54005D01*
Y55995D01*
X204239Y57832D01*
X202832Y59239D01*
X200995Y60000D01*
D02*
G37*
G36*
X185995D02*
X184005D01*
X182168Y59239D01*
X180761Y57832D01*
X180000Y55995D01*
Y54005D01*
X180761Y52168D01*
X182168Y50761D01*
X184005Y50000D01*
X185995D01*
X187832Y50761D01*
X189239Y52168D01*
X190000Y54005D01*
Y55995D01*
X189239Y57832D01*
X187832Y59239D01*
X185995Y60000D01*
D02*
G37*
G36*
X170995D02*
X169005D01*
X167168Y59239D01*
X165761Y57832D01*
X165000Y55995D01*
Y54005D01*
X165761Y52168D01*
X167168Y50761D01*
X169005Y50000D01*
X170995D01*
X172832Y50761D01*
X174239Y52168D01*
X175000Y54005D01*
Y55995D01*
X174239Y57832D01*
X172832Y59239D01*
X170995Y60000D01*
D02*
G37*
G36*
X155995D02*
X154005D01*
X152168Y59239D01*
X150761Y57832D01*
X150000Y55995D01*
Y54005D01*
X150761Y52168D01*
X152168Y50761D01*
X154005Y50000D01*
X155995D01*
X157832Y50761D01*
X159239Y52168D01*
X160000Y54005D01*
Y55995D01*
X159239Y57832D01*
X157832Y59239D01*
X155995Y60000D01*
D02*
G37*
G36*
X285995Y57500D02*
X284005D01*
X282168Y56739D01*
X280761Y55332D01*
X280000Y53495D01*
Y51505D01*
X280761Y49668D01*
X282168Y48261D01*
X284005Y47500D01*
X285995D01*
X287832Y48261D01*
X289239Y49668D01*
X290000Y51505D01*
Y53495D01*
X289239Y55332D01*
X287832Y56739D01*
X285995Y57500D01*
D02*
G37*
G36*
X270995D02*
X269006D01*
X267168Y56739D01*
X265761Y55332D01*
X265000Y53495D01*
Y51505D01*
X265761Y49668D01*
X267168Y48261D01*
X269006Y47500D01*
X270995D01*
X272832Y48261D01*
X274239Y49668D01*
X275000Y51505D01*
Y53495D01*
X274239Y55332D01*
X272832Y56739D01*
X270995Y57500D01*
D02*
G37*
G36*
X255995D02*
X254005D01*
X252168Y56739D01*
X250761Y55332D01*
X250000Y53495D01*
Y51505D01*
X250761Y49668D01*
X252168Y48261D01*
X254005Y47500D01*
X255995D01*
X257832Y48261D01*
X259239Y49668D01*
X260000Y51505D01*
Y53495D01*
X259239Y55332D01*
X257832Y56739D01*
X255995Y57500D01*
D02*
G37*
G36*
X240995D02*
X239005D01*
X237168Y56739D01*
X235761Y55332D01*
X235000Y53495D01*
Y51505D01*
X235761Y49668D01*
X237168Y48261D01*
X239005Y47500D01*
X240995D01*
X242832Y48261D01*
X244239Y49668D01*
X245000Y51505D01*
Y53495D01*
X244239Y55332D01*
X242832Y56739D01*
X240995Y57500D01*
D02*
G37*
G36*
X343495Y55000D02*
X341505D01*
X339668Y54239D01*
X338261Y52832D01*
X337500Y50995D01*
Y49005D01*
X338261Y47168D01*
X339668Y45761D01*
X341505Y45000D01*
X343495D01*
X345332Y45761D01*
X346739Y47168D01*
X347500Y49005D01*
Y50995D01*
X346739Y52832D01*
X345332Y54239D01*
X343495Y55000D01*
D02*
G37*
G36*
X329995Y11000D02*
X328005D01*
X326168Y10239D01*
X324761Y8832D01*
X324000Y6995D01*
Y5005D01*
X324761Y3168D01*
X326168Y1761D01*
X328005Y1000D01*
X329995D01*
X331832Y1761D01*
X333239Y3168D01*
X334000Y5005D01*
Y6995D01*
X333239Y8832D01*
X331832Y10239D01*
X329995Y11000D01*
D02*
G37*
G36*
X254995Y-1000D02*
X253005D01*
X251168Y-1761D01*
X249761Y-3168D01*
X249000Y-5005D01*
Y-6995D01*
X249761Y-8832D01*
X251168Y-10239D01*
X253005Y-11000D01*
X254995D01*
X256832Y-10239D01*
X258239Y-8832D01*
X259000Y-6995D01*
Y-5005D01*
X258239Y-3168D01*
X256832Y-1761D01*
X254995Y-1000D01*
D02*
G37*
G36*
X329995Y-6000D02*
X328005D01*
X326168Y-6761D01*
X324761Y-8168D01*
X324000Y-10005D01*
Y-11995D01*
X324761Y-13832D01*
X326168Y-15239D01*
X328005Y-16000D01*
X329995D01*
X331832Y-15239D01*
X333239Y-13832D01*
X334000Y-11995D01*
Y-10005D01*
X333239Y-8168D01*
X331832Y-6761D01*
X329995Y-6000D01*
D02*
G37*
G36*
X254995Y-17000D02*
X253005D01*
X251168Y-17761D01*
X249761Y-19168D01*
X249000Y-21005D01*
Y-22995D01*
X249761Y-24832D01*
X251168Y-26239D01*
X253005Y-27000D01*
X254995D01*
X256832Y-26239D01*
X258239Y-24832D01*
X259000Y-22995D01*
Y-21005D01*
X258239Y-19168D01*
X256832Y-17761D01*
X254995Y-17000D01*
D02*
G37*
G36*
Y-33000D02*
X253005D01*
X251168Y-33761D01*
X249761Y-35168D01*
X249000Y-37005D01*
Y-38995D01*
X249761Y-40832D01*
X251168Y-42239D01*
X253005Y-43000D01*
X254995D01*
X256832Y-42239D01*
X258239Y-40832D01*
X259000Y-38995D01*
Y-37005D01*
X258239Y-35168D01*
X256832Y-33761D01*
X254995Y-33000D01*
D02*
G37*
G36*
X241995D02*
X240005D01*
X238168Y-33761D01*
X236761Y-35168D01*
X236000Y-37005D01*
Y-38995D01*
X236761Y-40832D01*
X238168Y-42239D01*
X240005Y-43000D01*
X241995D01*
X243832Y-42239D01*
X245239Y-40832D01*
X246000Y-38995D01*
Y-37005D01*
X245239Y-35168D01*
X243832Y-33761D01*
X241995Y-33000D01*
D02*
G37*
G36*
X225995D02*
X224005D01*
X222168Y-33761D01*
X220761Y-35168D01*
X220000Y-37005D01*
Y-38995D01*
X220761Y-40832D01*
X222168Y-42239D01*
X224005Y-43000D01*
X225995D01*
X227832Y-42239D01*
X229239Y-40832D01*
X230000Y-38995D01*
Y-37005D01*
X229239Y-35168D01*
X227832Y-33761D01*
X225995Y-33000D01*
D02*
G37*
G36*
X209995D02*
X208005D01*
X206168Y-33761D01*
X204761Y-35168D01*
X204000Y-37005D01*
Y-38995D01*
X204761Y-40832D01*
X206168Y-42239D01*
X208005Y-43000D01*
X209995D01*
X211832Y-42239D01*
X213239Y-40832D01*
X214000Y-38995D01*
Y-37005D01*
X213239Y-35168D01*
X211832Y-33761D01*
X209995Y-33000D01*
D02*
G37*
G36*
X193995D02*
X192005D01*
X190168Y-33761D01*
X188761Y-35168D01*
X188000Y-37005D01*
Y-38995D01*
X188761Y-40832D01*
X190168Y-42239D01*
X192005Y-43000D01*
X193995D01*
X195832Y-42239D01*
X197239Y-40832D01*
X198000Y-38995D01*
Y-37005D01*
X197239Y-35168D01*
X195832Y-33761D01*
X193995Y-33000D01*
D02*
G37*
G36*
X376777Y-21500D02*
X373223D01*
X369789Y-22420D01*
X366711Y-24197D01*
X364197Y-26711D01*
X362420Y-29789D01*
X361500Y-33223D01*
Y-36777D01*
X362420Y-40211D01*
X364197Y-43289D01*
X366711Y-45803D01*
X369789Y-47580D01*
X373223Y-48500D01*
X376777D01*
X380211Y-47580D01*
X383289Y-45803D01*
X385803Y-43289D01*
X387580Y-40211D01*
X388500Y-36777D01*
Y-33223D01*
X387580Y-29789D01*
X385803Y-26711D01*
X383289Y-24197D01*
X380211Y-22420D01*
X376777Y-21500D01*
D02*
G37*
%LPD*%
G36*
X334750Y136763D02*
X335261Y134855D01*
X336000Y133575D01*
Y115250D01*
X337084D01*
X337790Y114194D01*
X337500Y113495D01*
Y111505D01*
X338261Y109668D01*
X339668Y108261D01*
X341505Y107500D01*
X343495D01*
X344676Y107989D01*
X344806Y107990D01*
X346033Y107362D01*
X346080Y107301D01*
X346174Y106830D01*
X346837Y105837D01*
X347830Y105174D01*
X349000Y104941D01*
Y110000D01*
X351000D01*
Y104941D01*
X351018Y104945D01*
X352000Y104139D01*
Y88250D01*
X345250D01*
Y86906D01*
X331250D01*
Y59750D01*
X317186D01*
X314360Y62577D01*
X314846Y63750D01*
X318750D01*
Y75000D01*
X312250D01*
Y66346D01*
X311077Y65860D01*
X307432Y69504D01*
X307633Y98250D01*
X316750D01*
Y104368D01*
X317446Y104888D01*
X318020Y105136D01*
X319000Y104941D01*
Y110000D01*
X321000D01*
Y104941D01*
X321000D01*
X322170Y105174D01*
X323163Y105837D01*
X323826Y106830D01*
X323920Y107301D01*
X323967Y107362D01*
X325194Y107990D01*
X325324Y107989D01*
X326505Y107500D01*
X328495D01*
X330332Y108261D01*
X331739Y109668D01*
X332500Y111505D01*
Y113495D01*
X331739Y115332D01*
X330332Y116739D01*
X328495Y117500D01*
X326505D01*
X324770Y116781D01*
X323500Y117230D01*
Y133575D01*
X324239Y134855D01*
X324750Y136763D01*
Y138250D01*
X334750D01*
Y136763D01*
D02*
G37*
%LPC*%
G36*
X327250Y88250D02*
X320750D01*
Y77000D01*
X327250D01*
Y88250D01*
D02*
G37*
G36*
X318750D02*
X312250D01*
Y77000D01*
X318750D01*
Y88250D01*
D02*
G37*
G36*
X327250Y75000D02*
X320750D01*
Y63750D01*
X327250D01*
Y75000D01*
D02*
G37*
%LPD*%
G36*
X186711Y124197D02*
X189789Y122420D01*
X193223Y121500D01*
X196777D01*
X197500Y120946D01*
Y90000D01*
X194255D01*
X194062Y90242D01*
X194163Y91837D01*
X194826Y92830D01*
X195059Y94000D01*
X190000D01*
X184941D01*
X185174Y92830D01*
X185837Y91837D01*
X185938Y90242D01*
X185745Y90000D01*
X180522D01*
X179952Y91270D01*
X180326Y91830D01*
X180559Y93000D01*
Y94000D01*
X176500D01*
Y95000D01*
X175500D01*
Y100059D01*
X175500D01*
X174329Y99826D01*
X173337Y99163D01*
X172674Y98170D01*
X172647Y98037D01*
X171353D01*
X171326Y98170D01*
X170663Y99163D01*
X170000Y99606D01*
Y125000D01*
X185908D01*
X186711Y124197D01*
D02*
G37*
%LPC*%
G36*
X192000Y99059D02*
X191000D01*
Y96000D01*
X195059D01*
Y96000D01*
X194826Y97170D01*
X194163Y98163D01*
X193171Y98826D01*
X192000Y99059D01*
D02*
G37*
G36*
X189000D02*
X188000D01*
X186829Y98826D01*
X185837Y98163D01*
X185174Y97170D01*
X184941Y96000D01*
Y96000D01*
X189000D01*
Y99059D01*
D02*
G37*
G36*
X177500Y100059D02*
Y96000D01*
X180559D01*
Y97000D01*
X180326Y98170D01*
X179663Y99163D01*
X178671Y99826D01*
X177500Y100059D01*
D02*
G37*
%LPD*%
D11*
X250490Y21500D02*
X250740Y21750D01*
X240750Y21500D02*
X250490D01*
X258500D02*
X264750Y15250D01*
X250990Y21500D02*
X258500D01*
X335000Y20000D02*
Y25028D01*
Y20000D02*
X339250Y15750D01*
X298500Y73750D02*
X320000Y52250D01*
Y40028D02*
X335000Y25028D01*
X320000Y40028D02*
Y52250D01*
X339250Y15750D02*
X353750D01*
X310000Y25500D02*
X324755D01*
X309750Y25750D02*
X310000Y25500D01*
X324755D02*
X328500Y21755D01*
X363750Y30750D02*
X364000Y31000D01*
X353750Y30750D02*
X363750D01*
X365500Y20750D02*
X369750Y25000D01*
Y79750D01*
X160000Y95000D02*
X167500D01*
X153200Y77500D02*
X155000D01*
X142700Y88000D02*
X153200Y77500D01*
X155000D02*
X170000D01*
X155000Y68500D02*
X170000D01*
X173500D01*
X175000Y70000D01*
X180000D01*
X135000Y68000D02*
X142700Y75700D01*
Y88000D01*
X309750Y9500D02*
Y15750D01*
X264750Y15250D02*
X271750D01*
X353750Y20750D02*
X365500D01*
D13*
X12502Y100001D02*
X27498D01*
X20000Y107498D01*
Y97502D01*
D14*
X350000Y110000D02*
D03*
X359000D02*
D03*
X320000D02*
D03*
X311000D02*
D03*
X135000Y68000D02*
D03*
X126000D02*
D03*
X176500Y95000D02*
D03*
X167500D02*
D03*
D15*
X170000Y77500D02*
D03*
Y68500D02*
D03*
X290750Y24500D02*
D03*
Y15500D02*
D03*
X155000Y68500D02*
D03*
Y77500D02*
D03*
X190000Y86000D02*
D03*
Y95000D02*
D03*
D26*
X267250Y137750D02*
D03*
X279750D02*
D03*
X292250D02*
D03*
X304750D02*
D03*
X317250D02*
D03*
X329750D02*
D03*
X342250D02*
D03*
D29*
X283000Y15250D02*
X290500D01*
X271750D02*
X283000D01*
Y12750D02*
Y15250D01*
X267125Y126375D02*
Y136375D01*
X253125Y137875D02*
X267125D01*
X266875Y138125D02*
Y148125D01*
X283000Y15250D02*
Y19000D01*
D30*
X117300Y76450D02*
Y88000D01*
X260000Y28250D02*
X260250Y28000D01*
X250740Y28250D02*
X260000D01*
X260250Y27000D02*
X265500Y21750D01*
X260250Y27000D02*
Y28000D01*
X341750Y23000D02*
Y25750D01*
X341500Y22750D02*
X341750Y23000D01*
Y25750D02*
X353750D01*
X291588Y6838D02*
X297500Y12750D01*
X289088Y6838D02*
X291588D01*
X297500Y12750D02*
Y18293D01*
X280670Y6500D02*
X286314D01*
X287814Y5000D01*
X288750Y5936D01*
Y6500D01*
X289088Y6838D01*
X299956Y20750D02*
X309750D01*
X297500Y18293D02*
X299956Y20750D01*
X267000Y6500D02*
X280670D01*
X258250Y15250D02*
X267000Y6500D01*
X250740Y15250D02*
X258250D01*
X238750Y31750D02*
X242250Y28250D01*
X250740D01*
X260595Y39345D02*
X299155D01*
X256000Y34750D02*
X260595Y39345D01*
X250740Y34750D02*
X256000D01*
X302750Y35750D02*
X309750D01*
X299155Y39345D02*
X302750Y35750D01*
X265500Y21750D02*
X271750D01*
X288000Y33000D02*
X293250D01*
X295500Y30750D01*
X271750Y34750D02*
X286250D01*
X288000Y33000D01*
X316774Y35750D02*
X319520Y33004D01*
X309750Y35750D02*
X316774D01*
X319520Y31000D02*
Y33004D01*
Y31000D02*
X321250D01*
X304500Y110000D02*
X311000D01*
X180000Y82500D02*
X183500Y86000D01*
X190000D01*
X359000Y110000D02*
X365000D01*
X353750Y35750D02*
X360750D01*
X363250Y38250D02*
Y40755D01*
X360750Y35750D02*
X363250Y38250D01*
X295500Y30750D02*
X309750D01*
X281750Y26000D02*
X289250D01*
X290750Y24500D01*
X279500Y28250D02*
X281750Y26000D01*
X271750Y28250D02*
X279500D01*
D31*
X142700Y88000D02*
D03*
X130000Y100700D02*
D03*
X117300Y88000D02*
D03*
D32*
X375000Y-35000D02*
D03*
X195000Y135000D02*
D03*
X55000D02*
D03*
D33*
X218000Y21500D02*
D03*
X240750D02*
D03*
X312500Y50520D02*
D03*
X327500Y50000D02*
D03*
X327691Y40171D02*
D03*
X338000Y6000D02*
D03*
X260250Y28000D02*
D03*
X341500Y22750D02*
D03*
X298500Y73750D02*
D03*
X288750Y6500D02*
D03*
Y-17750D02*
D03*
X238750Y31750D02*
D03*
X294750Y108250D02*
D03*
X288000Y33000D02*
D03*
X342500Y40000D02*
D03*
X321250Y31000D02*
D03*
X328500Y21755D02*
D03*
X285000Y45000D02*
D03*
Y52500D02*
D03*
X270000Y45000D02*
D03*
X270000Y52500D02*
D03*
X364000Y31000D02*
D03*
X342500Y112500D02*
D03*
X376094Y61406D02*
D03*
X362500Y60000D02*
D03*
X270000Y102500D02*
D03*
Y115000D02*
D03*
X285000D02*
D03*
X338000Y-11000D02*
D03*
X329000D02*
D03*
Y6000D02*
D03*
X271000Y0D02*
D03*
X263000Y-6000D02*
D03*
Y-22000D02*
D03*
Y-38000D02*
D03*
X241000D02*
D03*
Y-47000D02*
D03*
X193000Y-38000D02*
D03*
X225000D02*
D03*
X209000D02*
D03*
Y-47000D02*
D03*
X225000D02*
D03*
X193000D02*
D03*
X285000Y102500D02*
D03*
X304500Y110000D02*
D03*
X240000Y115000D02*
D03*
X255000D02*
D03*
Y102500D02*
D03*
X240000D02*
D03*
X327500D02*
D03*
X232750Y128750D02*
D03*
X225000Y115000D02*
D03*
Y100000D02*
D03*
X207500Y107500D02*
D03*
X208500Y122500D02*
D03*
X160000Y95000D02*
D03*
X180000Y82500D02*
D03*
Y70000D02*
D03*
X327500Y112500D02*
D03*
X365000Y110000D02*
D03*
X312500Y102500D02*
D03*
X342500D02*
D03*
X357500D02*
D03*
X342500Y50000D02*
D03*
X357500D02*
D03*
X363250Y40755D02*
D03*
X283000Y19000D02*
D03*
X255000Y45000D02*
D03*
X240000Y42500D02*
D03*
X255000Y52500D02*
D03*
X240000D02*
D03*
X305000Y52750D02*
D03*
X292500Y60000D02*
D03*
X232500Y52500D02*
D03*
X207500D02*
D03*
X155000Y42500D02*
D03*
X185000D02*
D03*
X170000D02*
D03*
X200000D02*
D03*
Y55000D02*
D03*
X254000Y-38000D02*
D03*
X247000Y7000D02*
D03*
X254000Y-22000D02*
D03*
Y-6000D02*
D03*
X309750Y9500D02*
D03*
X283000Y12750D02*
D03*
X369750Y79750D02*
D03*
X210000Y77000D02*
D03*
X202250D02*
D03*
X210000Y85250D02*
D03*
X202250D02*
D03*
X170000Y55000D02*
D03*
X185000D02*
D03*
X155000D02*
D03*
X190000Y117500D02*
D03*
X177500Y120000D02*
D03*
D35*
X353750Y35750D02*
D03*
Y30750D02*
D03*
Y25750D02*
D03*
Y20750D02*
D03*
Y15750D02*
D03*
X309750D02*
D03*
Y20750D02*
D03*
Y25750D02*
D03*
Y30750D02*
D03*
Y35750D02*
D03*
D36*
X271750Y15250D02*
D03*
Y21750D02*
D03*
Y28250D02*
D03*
Y34750D02*
D03*
X250740D02*
D03*
Y28250D02*
D03*
Y21750D02*
D03*
D37*
Y15250D02*
D03*
D38*
X319750Y76000D02*
D03*
X352750D02*
D03*
M02*
