G04*
G04 #@! TF.GenerationSoftware,Altium Limited,Altium Designer,23.3.1 (30)*
G04*
G04 Layer_Physical_Order=3*
G04 Layer_Color=16440176*
%FSLAX44Y44*%
%MOMM*%
G71*
G04*
G04 #@! TF.SameCoordinates,DEEE6DAE-04B1-499B-BC7B-553C298136E7*
G04*
G04*
G04 #@! TF.FilePolarity,Positive*
G04*
G01*
G75*
%ADD14C,0.2000*%
%ADD27C,1.1000*%
%ADD30C,0.6000*%
%ADD33C,1.5000*%
%ADD34C,2.2000*%
%ADD35C,0.5000*%
%ADD36C,0.6000*%
G36*
X397451Y-57451D02*
X167549D01*
X167549Y-5000D01*
X167527Y-4893D01*
X167540Y-4785D01*
X167467Y-3925D01*
X167377Y-3615D01*
X167332Y-3296D01*
X166763Y-1672D01*
X166545Y-1303D01*
X166348Y-924D01*
X165273Y420D01*
X164945Y696D01*
X164634Y989D01*
X163175Y1901D01*
X162873Y2016D01*
X162591Y2171D01*
X161767Y2431D01*
X161381Y2473D01*
X161000Y2549D01*
X2549Y2549D01*
Y92500D01*
X42000D01*
Y127977D01*
X43270Y128317D01*
X44197Y126711D01*
X46711Y124197D01*
X49789Y122420D01*
X53223Y121500D01*
X56777D01*
X60211Y122420D01*
X63289Y124197D01*
X65803Y126711D01*
X67580Y129789D01*
X68500Y133223D01*
Y136777D01*
X67580Y140211D01*
X65803Y143289D01*
X63289Y145803D01*
X60211Y147580D01*
X56777Y148500D01*
X53223D01*
X49789Y147580D01*
X46711Y145803D01*
X44197Y143289D01*
X43270Y141683D01*
X42000Y142023D01*
Y157451D01*
X397451D01*
Y-57451D01*
D02*
G37*
%LPC*%
G36*
X318237Y145250D02*
X316263D01*
X314355Y144739D01*
X312645Y143751D01*
X311863Y142970D01*
X311000Y142493D01*
X310137Y142970D01*
X309355Y143751D01*
X307645Y144739D01*
X305737Y145250D01*
X303763D01*
X301855Y144739D01*
X300145Y143751D01*
X299363Y142970D01*
X298500Y142493D01*
X297637Y142970D01*
X296855Y143751D01*
X295145Y144739D01*
X293237Y145250D01*
X291263D01*
X289355Y144739D01*
X287645Y143751D01*
X286863Y142970D01*
X286000Y142493D01*
X285137Y142970D01*
X284355Y143751D01*
X282645Y144739D01*
X280737Y145250D01*
X278763D01*
X276855Y144739D01*
X275145Y143751D01*
X274363Y142970D01*
X273500Y142493D01*
X272637Y142970D01*
X271855Y143751D01*
X270145Y144739D01*
X268237Y145250D01*
X266263D01*
X264355Y144739D01*
X262645Y143751D01*
X261248Y142355D01*
X260261Y140645D01*
X259750Y138737D01*
Y136763D01*
X260261Y134855D01*
X261248Y133145D01*
X262645Y131749D01*
X264355Y130761D01*
X266263Y130250D01*
X268237D01*
X270145Y130761D01*
X271855Y131749D01*
X272637Y132530D01*
X273500Y133007D01*
X274363Y132530D01*
X275145Y131749D01*
X276855Y130761D01*
X278763Y130250D01*
X280737D01*
X282645Y130761D01*
X284355Y131749D01*
X285137Y132530D01*
X286000Y133007D01*
X286863Y132530D01*
X287645Y131749D01*
X289355Y130761D01*
X291263Y130250D01*
X293237D01*
X295145Y130761D01*
X296855Y131749D01*
X297637Y132530D01*
X298500Y133007D01*
X299363Y132530D01*
X300145Y131749D01*
X301855Y130761D01*
X303763Y130250D01*
X305737D01*
X307645Y130761D01*
X309355Y131749D01*
X310137Y132530D01*
X311000Y133007D01*
X311863Y132530D01*
X312645Y131749D01*
X314355Y130761D01*
X316263Y130250D01*
X318237D01*
X320145Y130761D01*
X321855Y131749D01*
X323251Y133145D01*
X324239Y134855D01*
X324750Y136763D01*
Y138737D01*
X324239Y140645D01*
X323251Y142355D01*
X321855Y143751D01*
X320145Y144739D01*
X318237Y145250D01*
D02*
G37*
G36*
X343237D02*
X341263D01*
X339355Y144739D01*
X337645Y143751D01*
X336249Y142355D01*
X335261Y140645D01*
X334750Y138737D01*
Y136763D01*
X335261Y134855D01*
X336249Y133145D01*
X337645Y131749D01*
X339355Y130761D01*
X341263Y130250D01*
X343237D01*
X345145Y130761D01*
X346855Y131749D01*
X348251Y133145D01*
X349239Y134855D01*
X349750Y136763D01*
Y138737D01*
X349239Y140645D01*
X348251Y142355D01*
X346855Y143751D01*
X345145Y144739D01*
X343237Y145250D01*
D02*
G37*
G36*
X178495Y125000D02*
X176505D01*
X174668Y124239D01*
X173261Y122832D01*
X172500Y120995D01*
Y119005D01*
X173261Y117168D01*
X174668Y115761D01*
X176505Y115000D01*
X178495D01*
X180332Y115761D01*
X181739Y117168D01*
X182500Y119005D01*
Y120995D01*
X181739Y122832D01*
X180332Y124239D01*
X178495Y125000D01*
D02*
G37*
G36*
X165995D02*
X164005D01*
X162168Y124239D01*
X160761Y122832D01*
X160000Y120995D01*
Y119005D01*
X160761Y117168D01*
X162168Y115761D01*
X164005Y115000D01*
X165995D01*
X167832Y115761D01*
X169239Y117168D01*
X170000Y119005D01*
Y120995D01*
X169239Y122832D01*
X167832Y124239D01*
X165995Y125000D01*
D02*
G37*
G36*
X196777Y148500D02*
X193223D01*
X189789Y147580D01*
X186711Y145803D01*
X184197Y143289D01*
X182420Y140211D01*
X181500Y136777D01*
Y133223D01*
X182420Y129789D01*
X184197Y126711D01*
X186711Y124197D01*
X187995Y123456D01*
X187902Y122043D01*
X187168Y121739D01*
X185761Y120332D01*
X185000Y118495D01*
Y116505D01*
X185761Y114668D01*
X187168Y113261D01*
X189005Y112500D01*
X190995D01*
X192832Y113261D01*
X194239Y114668D01*
X195000Y116505D01*
Y118495D01*
X194281Y120230D01*
X194468Y120758D01*
X194867Y121500D01*
X196777D01*
X200211Y122420D01*
X203289Y124197D01*
X205803Y126711D01*
X207580Y129789D01*
X208500Y133223D01*
Y136777D01*
X207580Y140211D01*
X205803Y143289D01*
X203289Y145803D01*
X200211Y147580D01*
X196777Y148500D01*
D02*
G37*
G36*
X306995Y110000D02*
X305005D01*
X303168Y109239D01*
X301761Y107832D01*
X301000Y105995D01*
Y104005D01*
X301761Y102168D01*
X303168Y100761D01*
X305005Y100000D01*
X306995D01*
X308832Y100761D01*
X310239Y102168D01*
X311000Y104005D01*
Y105995D01*
X310239Y107832D01*
X308832Y109239D01*
X306995Y110000D01*
D02*
G37*
G36*
X131251Y110200D02*
X128749D01*
X126333Y109553D01*
X124167Y108302D01*
X122398Y106533D01*
X121147Y104367D01*
X120500Y101951D01*
Y99449D01*
X120834Y98203D01*
X119797Y97166D01*
X118551Y97500D01*
X116049D01*
X113633Y96853D01*
X111467Y95602D01*
X109698Y93833D01*
X108447Y91667D01*
X107800Y89251D01*
Y86749D01*
X108447Y84333D01*
X109698Y82167D01*
X111467Y80398D01*
X113633Y79147D01*
X116049Y78500D01*
X118551D01*
X120967Y79147D01*
X123133Y80398D01*
X124902Y82167D01*
X126153Y84333D01*
X126800Y86749D01*
Y89251D01*
X126466Y90497D01*
X127503Y91534D01*
X128749Y91200D01*
X131251D01*
X132497Y91534D01*
X133534Y90497D01*
X133200Y89251D01*
Y86749D01*
X133847Y84333D01*
X135098Y82167D01*
X136867Y80398D01*
X139033Y79147D01*
X141449Y78500D01*
X143951D01*
X146367Y79147D01*
X148533Y80398D01*
X150302Y82167D01*
X151553Y84333D01*
X152200Y86749D01*
Y89251D01*
X151553Y91667D01*
X150302Y93833D01*
X148533Y95602D01*
X146367Y96853D01*
X143951Y97500D01*
X141449D01*
X140203Y97166D01*
X139166Y98203D01*
X139500Y99449D01*
Y101951D01*
X138853Y104367D01*
X137602Y106533D01*
X135833Y108302D01*
X133667Y109553D01*
X131251Y110200D01*
D02*
G37*
G36*
X158995Y100000D02*
X157005D01*
X155168Y99239D01*
X153761Y97832D01*
X153000Y95995D01*
Y94005D01*
X153761Y92168D01*
X155168Y90761D01*
X157005Y90000D01*
X158995D01*
X160832Y90761D01*
X162239Y92168D01*
X163000Y94005D01*
Y95995D01*
X162239Y97832D01*
X160832Y99239D01*
X158995Y100000D01*
D02*
G37*
G36*
X370745Y84750D02*
X368755D01*
X366918Y83989D01*
X365511Y82582D01*
X364750Y80745D01*
Y78755D01*
X365511Y76918D01*
X366918Y75511D01*
X368755Y74750D01*
X370745D01*
X372582Y75511D01*
X373989Y76918D01*
X374750Y78755D01*
Y80745D01*
X373989Y82582D01*
X372582Y83989D01*
X370745Y84750D01*
D02*
G37*
G36*
X359245Y46750D02*
X357255D01*
X355418Y45989D01*
X354011Y44582D01*
X353250Y42745D01*
Y40755D01*
X354011Y38918D01*
X355418Y37511D01*
X357255Y36750D01*
X359245D01*
X361082Y37511D01*
X362489Y38918D01*
X363250Y40755D01*
Y42745D01*
X362489Y44582D01*
X361082Y45989D01*
X359245Y46750D01*
D02*
G37*
G36*
X294495Y37750D02*
X292505D01*
X290668Y36989D01*
X290080Y36401D01*
X289250Y35593D01*
X288420Y36401D01*
X287832Y36989D01*
X285995Y37750D01*
X284005D01*
X282168Y36989D01*
X280761Y35582D01*
X280000Y33745D01*
Y31755D01*
X280761Y29918D01*
X282168Y28511D01*
X284005Y27750D01*
X285995D01*
X287832Y28511D01*
X288420Y29099D01*
X289250Y29907D01*
X290080Y29099D01*
X290668Y28511D01*
X292505Y27750D01*
X294495D01*
X296332Y28511D01*
X297739Y29918D01*
X298500Y31755D01*
Y33745D01*
X297739Y35582D01*
X296332Y36989D01*
X294495Y37750D01*
D02*
G37*
G36*
X344009Y30014D02*
X342020D01*
X340182Y29253D01*
X338775Y27846D01*
X338014Y26009D01*
Y24019D01*
X338775Y22182D01*
X340182Y20775D01*
X342020Y20014D01*
X344009D01*
X345846Y20775D01*
X347253Y22182D01*
X348014Y24019D01*
Y26009D01*
X347253Y27846D01*
X345846Y29253D01*
X344009Y30014D01*
D02*
G37*
G36*
X352500Y89539D02*
X197500D01*
X196720Y89384D01*
X196058Y88942D01*
X195616Y88280D01*
X195461Y87500D01*
Y52500D01*
X195616Y51720D01*
X196058Y51058D01*
X196720Y50616D01*
X197500Y50461D01*
X235461D01*
X235461Y-29298D01*
X235616Y-30079D01*
X235961Y-30911D01*
Y-32089D01*
X235616Y-32921D01*
X235461Y-33702D01*
Y-35000D01*
X235616Y-35780D01*
X236058Y-36442D01*
X236720Y-36884D01*
X237500Y-37039D01*
X260000Y-37039D01*
X260780Y-36884D01*
X261442Y-36442D01*
X261884Y-35780D01*
X262039Y-35000D01*
Y50461D01*
X352500D01*
X353280Y50616D01*
X353942Y51058D01*
X354384Y51720D01*
X354539Y52500D01*
Y87500D01*
X354384Y88280D01*
X353942Y88942D01*
X353280Y89384D01*
X352500Y89539D01*
D02*
G37*
G36*
X376777Y-21500D02*
X373223D01*
X369789Y-22420D01*
X366711Y-24197D01*
X364197Y-26711D01*
X362420Y-29789D01*
X361500Y-33223D01*
Y-36777D01*
X362420Y-40211D01*
X364197Y-43289D01*
X366711Y-45803D01*
X369789Y-47580D01*
X373223Y-48500D01*
X376777D01*
X380211Y-47580D01*
X383289Y-45803D01*
X385803Y-43289D01*
X387580Y-40211D01*
X388500Y-36777D01*
Y-33223D01*
X387580Y-29789D01*
X385803Y-26711D01*
X383289Y-24197D01*
X380211Y-22420D01*
X376777Y-21500D01*
D02*
G37*
%LPD*%
G36*
X352500Y52500D02*
X260000D01*
Y-35000D01*
X237500Y-35000D01*
Y-33702D01*
X238000Y-32495D01*
Y-30505D01*
X237500Y-29298D01*
X237500Y52500D01*
X197500D01*
Y87500D01*
X352500D01*
Y52500D01*
D02*
G37*
%LPC*%
G36*
X299495Y78750D02*
X297505D01*
X295668Y77989D01*
X294261Y76582D01*
X293500Y74745D01*
Y72755D01*
X294261Y70918D01*
X295668Y69511D01*
X297505Y68750D01*
X299495D01*
X301332Y69511D01*
X302739Y70918D01*
X303500Y72755D01*
Y74745D01*
X302739Y76582D01*
X301332Y77989D01*
X299495Y78750D01*
D02*
G37*
%LPD*%
D14*
X24998Y122498D02*
X27498Y119999D01*
Y115001D01*
X24998Y112502D01*
X22499D01*
X20000Y115001D01*
Y117500D01*
Y115001D01*
X17501Y112502D01*
X15002D01*
X12502Y115001D01*
Y119999D01*
X15002Y122498D01*
D27*
X267250Y137750D02*
D03*
X279750D02*
D03*
X292250D02*
D03*
X304750D02*
D03*
X317250D02*
D03*
X329750D02*
D03*
X342250D02*
D03*
D30*
X343014Y25014D02*
D03*
X306000Y105000D02*
D03*
X298500Y73750D02*
D03*
X322500Y60000D02*
D03*
X335000D02*
D03*
X347500D02*
D03*
X250000Y62500D02*
D03*
X262500D02*
D03*
X275000D02*
D03*
X246000Y-30250D02*
D03*
Y-22562D02*
D03*
Y-14875D02*
D03*
Y-7188D02*
D03*
Y500D02*
D03*
X233000Y-31500D02*
D03*
X220500D02*
D03*
X208000D02*
D03*
X323500Y22750D02*
D03*
X309750Y9500D02*
D03*
X283000Y12750D02*
D03*
Y19000D02*
D03*
X293500Y32750D02*
D03*
X285000D02*
D03*
X358250Y41750D02*
D03*
X369750Y79750D02*
D03*
X322500Y93500D02*
D03*
X335250D02*
D03*
X347750D02*
D03*
X275250D02*
D03*
X262750D02*
D03*
X250000D02*
D03*
X210000Y77000D02*
D03*
X202250D02*
D03*
X210000Y83500D02*
D03*
X202250D02*
D03*
X164750Y62250D02*
D03*
X177500D02*
D03*
X190000D02*
D03*
X183000Y93000D02*
D03*
X158000Y95000D02*
D03*
X165000Y120000D02*
D03*
X190000Y117500D02*
D03*
X177500Y120000D02*
D03*
D33*
X142700Y88000D02*
D03*
X130000Y100700D02*
D03*
X117300Y88000D02*
D03*
D34*
X375000Y-35000D02*
D03*
X195000Y135000D02*
D03*
X55000D02*
D03*
D35*
X335000Y83000D02*
D03*
Y72000D02*
D03*
X260000Y83000D02*
D03*
Y72000D02*
D03*
D36*
X329750Y137750D02*
Y148750D01*
Y127250D02*
Y137750D01*
M02*
