G04*
G04 #@! TF.GenerationSoftware,Altium Limited,Altium Designer,23.3.1 (30)*
G04*
G04 Layer_Color=8421504*
%FSLAX44Y44*%
%MOMM*%
G71*
G04*
G04 #@! TF.SameCoordinates,DEEE6DAE-04B1-499B-BC7B-553C298136E7*
G04*
G04*
G04 #@! TF.FilePolarity,Positive*
G04*
G01*
G75*
G04:AMPARAMS|DCode=15|XSize=0.4mm|YSize=0.6mm|CornerRadius=0.1mm|HoleSize=0mm|Usage=FLASHONLY|Rotation=0.000|XOffset=0mm|YOffset=0mm|HoleType=Round|Shape=RoundedRectangle|*
%AMROUNDEDRECTD15*
21,1,0.4000,0.4000,0,0,0.0*
21,1,0.2000,0.6000,0,0,0.0*
1,1,0.2000,0.1000,-0.2000*
1,1,0.2000,-0.1000,-0.2000*
1,1,0.2000,-0.1000,0.2000*
1,1,0.2000,0.1000,0.2000*
%
%ADD15ROUNDEDRECTD15*%
G04:AMPARAMS|DCode=16|XSize=0.4mm|YSize=0.6mm|CornerRadius=0.1mm|HoleSize=0mm|Usage=FLASHONLY|Rotation=270.000|XOffset=0mm|YOffset=0mm|HoleType=Round|Shape=RoundedRectangle|*
%AMROUNDEDRECTD16*
21,1,0.4000,0.4000,0,0,270.0*
21,1,0.2000,0.6000,0,0,270.0*
1,1,0.2000,-0.2000,-0.1000*
1,1,0.2000,-0.2000,0.1000*
1,1,0.2000,0.2000,0.1000*
1,1,0.2000,0.2000,-0.1000*
%
%ADD16ROUNDEDRECTD16*%
%ADD17R,1.6000X0.6500*%
%ADD18O,0.9000X0.2000*%
%ADD19R,1.4500X1.7400*%
%ADD20R,0.9000X0.6000*%
D15*
X330000Y-8500D02*
D03*
X339000D02*
D03*
X330000Y1500D02*
D03*
X339000D02*
D03*
X330000Y11500D02*
D03*
X339000D02*
D03*
X263000Y-25250D02*
D03*
X254000D02*
D03*
X263000Y-12750D02*
D03*
X254000D02*
D03*
X263000Y-250D02*
D03*
X254000D02*
D03*
X224250Y16000D02*
D03*
X215250D02*
D03*
X315500Y122750D02*
D03*
X306500D02*
D03*
X296500Y90000D02*
D03*
X287500D02*
D03*
D16*
X232750Y-49000D02*
D03*
Y-40000D02*
D03*
X220250Y-49000D02*
D03*
Y-40000D02*
D03*
X207750Y-49000D02*
D03*
Y-40000D02*
D03*
X275000Y111500D02*
D03*
Y102500D02*
D03*
X262500Y111500D02*
D03*
Y102500D02*
D03*
X250000Y111500D02*
D03*
Y102500D02*
D03*
X190000Y101000D02*
D03*
Y110000D02*
D03*
X177500Y101000D02*
D03*
Y110000D02*
D03*
X165000D02*
D03*
Y101000D02*
D03*
X347500Y41000D02*
D03*
Y50000D02*
D03*
X335000Y41000D02*
D03*
Y50000D02*
D03*
X322500Y41000D02*
D03*
Y50000D02*
D03*
X335000Y111500D02*
D03*
Y102500D02*
D03*
X322500Y111500D02*
D03*
Y102500D02*
D03*
X307500Y91500D02*
D03*
Y82500D02*
D03*
X292500Y77500D02*
D03*
Y68500D02*
D03*
X305000Y61000D02*
D03*
Y70000D02*
D03*
X206250Y98750D02*
D03*
Y89750D02*
D03*
X220250Y80000D02*
D03*
Y89000D02*
D03*
X207500Y69000D02*
D03*
Y60000D02*
D03*
X232500Y89000D02*
D03*
Y80000D02*
D03*
X250000Y41000D02*
D03*
Y50000D02*
D03*
X262500Y41000D02*
D03*
Y50000D02*
D03*
X275000Y41000D02*
D03*
Y50000D02*
D03*
X190000Y46000D02*
D03*
Y55000D02*
D03*
X362500Y77500D02*
D03*
Y68500D02*
D03*
X347500Y111500D02*
D03*
Y102500D02*
D03*
X177500Y46000D02*
D03*
Y55000D02*
D03*
X165000Y46000D02*
D03*
Y55000D02*
D03*
X232500Y60000D02*
D03*
Y69000D02*
D03*
X377500Y68500D02*
D03*
Y77500D02*
D03*
D17*
X207750Y-21500D02*
D03*
Y-12000D02*
D03*
Y-2500D02*
D03*
X232750D02*
D03*
Y-12000D02*
D03*
Y-21500D02*
D03*
D18*
X320000Y85000D02*
D03*
Y80000D02*
D03*
Y75000D02*
D03*
Y70000D02*
D03*
X350000D02*
D03*
Y75000D02*
D03*
Y80000D02*
D03*
Y85000D02*
D03*
X245000Y85000D02*
D03*
Y80000D02*
D03*
Y75000D02*
D03*
Y70000D02*
D03*
X275000D02*
D03*
Y75000D02*
D03*
Y80000D02*
D03*
Y85000D02*
D03*
D19*
X335000Y77500D02*
D03*
X260000Y77500D02*
D03*
D20*
X192000Y70500D02*
D03*
Y80000D02*
D03*
Y89500D02*
D03*
X168000D02*
D03*
Y70500D02*
D03*
M02*
