G04*
G04 #@! TF.GenerationSoftware,Altium Limited,Altium Designer,23.3.1 (30)*
G04*
G04 Layer_Physical_Order=3*
G04 Layer_Color=16440176*
%FSLAX44Y44*%
%MOMM*%
G71*
G04*
G04 #@! TF.SameCoordinates,0A325C66-3388-4B77-B3D2-BE92810A0E17*
G04*
G04*
G04 #@! TF.FilePolarity,Positive*
G04*
G01*
G75*
%ADD12C,0.2000*%
%ADD24C,1.0668*%
%ADD27C,0.2540*%
%ADD29C,1.5000*%
%ADD30C,2.2000*%
%ADD31C,0.6000*%
%ADD32C,0.6000*%
G36*
X397451Y-57451D02*
X203279D01*
X202509Y-56181D01*
X203000Y-54995D01*
Y-53005D01*
X202239Y-51168D01*
X200832Y-49761D01*
X198995Y-49000D01*
X197005D01*
X195168Y-49761D01*
X193761Y-51168D01*
X193173Y-52587D01*
X191827D01*
X191239Y-51168D01*
X189832Y-49761D01*
X187995Y-49000D01*
X186005D01*
X184168Y-49761D01*
X182761Y-51168D01*
X182000Y-53005D01*
Y-54995D01*
X182491Y-56181D01*
X181721Y-57451D01*
X167549D01*
X167549Y-5000D01*
X167527Y-4893D01*
X167540Y-4785D01*
X167467Y-3925D01*
X167377Y-3615D01*
X167332Y-3296D01*
X166763Y-1672D01*
X166545Y-1303D01*
X166348Y-924D01*
X165273Y420D01*
X164945Y696D01*
X164634Y989D01*
X163175Y1901D01*
X162873Y2016D01*
X162591Y2171D01*
X161767Y2431D01*
X161381Y2473D01*
X161000Y2549D01*
X2549Y2549D01*
Y92500D01*
X42000D01*
Y127977D01*
X43270Y128317D01*
X44197Y126711D01*
X46711Y124197D01*
X49789Y122420D01*
X53223Y121500D01*
X56777D01*
X60211Y122420D01*
X63289Y124197D01*
X65803Y126711D01*
X67580Y129789D01*
X68500Y133223D01*
Y136777D01*
X67580Y140211D01*
X65803Y143289D01*
X63289Y145803D01*
X60211Y147580D01*
X56777Y148500D01*
X53223D01*
X49789Y147580D01*
X46711Y145803D01*
X44197Y143289D01*
X43270Y141683D01*
X42000Y142023D01*
Y157451D01*
X397451D01*
Y-57451D01*
D02*
G37*
%LPC*%
G36*
X343215Y145084D02*
X341284D01*
X339419Y144584D01*
X337747Y143619D01*
X336828Y142699D01*
X336000Y142394D01*
X335173Y142699D01*
X334253Y143619D01*
X332581Y144584D01*
X330715Y145084D01*
X330500D01*
Y137750D01*
Y130416D01*
X330715D01*
X332581Y130916D01*
X334253Y131881D01*
X335173Y132801D01*
X336000Y133106D01*
X336828Y132801D01*
X337747Y131881D01*
X339419Y130916D01*
X341284Y130416D01*
X343215D01*
X345081Y130916D01*
X346753Y131881D01*
X348119Y133247D01*
X349084Y134919D01*
X349584Y136784D01*
Y138715D01*
X349084Y140581D01*
X348119Y142253D01*
X346753Y143619D01*
X345081Y144584D01*
X343215Y145084D01*
D02*
G37*
G36*
X329000D02*
X328784D01*
X326919Y144584D01*
X325247Y143619D01*
X324328Y142699D01*
X323500Y142394D01*
X322673Y142699D01*
X321753Y143619D01*
X320081Y144584D01*
X318216Y145084D01*
X316285D01*
X314419Y144584D01*
X312747Y143619D01*
X311828Y142699D01*
X311000Y142394D01*
X310173Y142699D01*
X309253Y143619D01*
X307581Y144584D01*
X305716Y145084D01*
X303785D01*
X301919Y144584D01*
X300247Y143619D01*
X299328Y142699D01*
X298500Y142394D01*
X297673Y142699D01*
X296753Y143619D01*
X295081Y144584D01*
X293216Y145084D01*
X291285D01*
X289419Y144584D01*
X287747Y143619D01*
X286828Y142699D01*
X286000Y142394D01*
X285173Y142699D01*
X284253Y143619D01*
X282581Y144584D01*
X280716Y145084D01*
X278785D01*
X276919Y144584D01*
X275247Y143619D01*
X274328Y142699D01*
X273500Y142394D01*
X272673Y142699D01*
X271753Y143619D01*
X270081Y144584D01*
X268216Y145084D01*
X266285D01*
X264419Y144584D01*
X262747Y143619D01*
X261381Y142253D01*
X260416Y140581D01*
X259916Y138715D01*
Y136784D01*
X260416Y134919D01*
X261381Y133247D01*
X262747Y131881D01*
X264419Y130916D01*
X266285Y130416D01*
X268216D01*
X270081Y130916D01*
X271753Y131881D01*
X272673Y132801D01*
X273500Y133106D01*
X274328Y132801D01*
X275247Y131881D01*
X276919Y130916D01*
X278785Y130416D01*
X280716D01*
X282581Y130916D01*
X284253Y131881D01*
X285173Y132801D01*
X286000Y133106D01*
X286828Y132801D01*
X287747Y131881D01*
X289419Y130916D01*
X291285Y130416D01*
X293216D01*
X295081Y130916D01*
X296753Y131881D01*
X297673Y132801D01*
X298500Y133106D01*
X299328Y132801D01*
X300247Y131881D01*
X301919Y130916D01*
X303785Y130416D01*
X305716D01*
X305974Y130485D01*
X306632Y129347D01*
X305619Y128334D01*
X253000D01*
X251724Y128080D01*
X250643Y127358D01*
X242619Y119334D01*
X234737D01*
X233832Y120239D01*
X231995Y121000D01*
X230005D01*
X228168Y120239D01*
X226761Y118832D01*
X226000Y116995D01*
Y115005D01*
X226761Y113168D01*
X228168Y111761D01*
X230005Y111000D01*
X231995D01*
X233832Y111761D01*
X234737Y112666D01*
X244000D01*
X245276Y112920D01*
X246357Y113643D01*
X254381Y121666D01*
X307000D01*
X308276Y121920D01*
X309357Y122642D01*
X317131Y130416D01*
X318216D01*
X320081Y130916D01*
X321753Y131881D01*
X322673Y132801D01*
X323500Y133106D01*
X324328Y132801D01*
X325247Y131881D01*
X326919Y130916D01*
X328784Y130416D01*
X329000D01*
Y137750D01*
Y145084D01*
D02*
G37*
G36*
X196777Y148500D02*
X193223D01*
X189789Y147580D01*
X186711Y145803D01*
X184197Y143289D01*
X182420Y140211D01*
X181500Y136777D01*
Y133223D01*
X182420Y129789D01*
X184197Y126711D01*
X186711Y124197D01*
X189789Y122420D01*
X193223Y121500D01*
X196777D01*
X200211Y122420D01*
X203289Y124197D01*
X205803Y126711D01*
X207580Y129789D01*
X208500Y133223D01*
Y136777D01*
X207580Y140211D01*
X205803Y143289D01*
X203289Y145803D01*
X200211Y147580D01*
X196777Y148500D01*
D02*
G37*
G36*
X278995Y113000D02*
X277005D01*
X275168Y112239D01*
X274000Y111071D01*
X272832Y112239D01*
X270995Y113000D01*
X269005D01*
X267168Y112239D01*
X265761Y110832D01*
X265000Y108995D01*
Y107006D01*
X265761Y105168D01*
X267168Y103761D01*
X269005Y103000D01*
X270995D01*
X272832Y103761D01*
X274000Y104929D01*
X275168Y103761D01*
X277005Y103000D01*
X278995D01*
X280832Y103761D01*
X282239Y105168D01*
X283000Y107006D01*
Y108995D01*
X282239Y110832D01*
X280832Y112239D01*
X278995Y113000D01*
D02*
G37*
G36*
X330995Y103000D02*
X329005D01*
X327168Y102239D01*
X326926Y101997D01*
X325770Y101442D01*
X325603Y101553D01*
X325461Y101695D01*
X325275Y101772D01*
X325108Y101884D01*
X324912Y101923D01*
X324726Y102000D01*
X324525D01*
X324328Y102039D01*
X285000D01*
X284220Y101884D01*
X283558Y101442D01*
X283116Y100780D01*
X282961Y100000D01*
Y75887D01*
X254039D01*
Y100000D01*
X253884Y100780D01*
X253442Y101442D01*
X252780Y101884D01*
X252000Y102039D01*
X157500D01*
X156720Y101884D01*
X156058Y101442D01*
X155616Y100780D01*
X155461Y100000D01*
Y64039D01*
X14000D01*
X13220Y63884D01*
X12558Y63442D01*
X12116Y62780D01*
X11961Y62000D01*
Y38296D01*
X12116Y37516D01*
X12558Y36854D01*
X13220Y36412D01*
X14000Y36257D01*
X155461D01*
Y25000D01*
X155616Y24220D01*
X156058Y23558D01*
X156720Y23116D01*
X157500Y22961D01*
X196812D01*
X197298Y21788D01*
X189643Y14132D01*
X188920Y13051D01*
X188666Y11775D01*
Y8737D01*
X187761Y7832D01*
X187000Y5995D01*
Y4005D01*
X187761Y2168D01*
X189168Y761D01*
X191005Y0D01*
X192995D01*
X194832Y761D01*
X196239Y2168D01*
X197000Y4005D01*
Y5995D01*
X196239Y7832D01*
X195334Y8737D01*
Y10394D01*
X225601Y40661D01*
X240268D01*
X240668Y40261D01*
X242505Y39500D01*
X244495D01*
X246332Y40261D01*
X247288Y39558D01*
X247405Y39480D01*
X247498Y39376D01*
X247663Y39295D01*
X248711Y-11042D01*
X248792Y-11411D01*
X248866Y-11780D01*
X248878Y-11798D01*
X248883Y-11819D01*
X249098Y-12128D01*
X249308Y-12442D01*
X249326Y-12454D01*
X249338Y-12472D01*
X249656Y-12675D01*
X249970Y-12884D01*
X249991Y-12888D01*
X250009Y-12900D01*
X250381Y-12966D01*
X250750Y-13039D01*
X325101D01*
X325298Y-13000D01*
X325499D01*
X325684Y-12923D01*
X325881Y-12884D01*
X326048Y-12772D01*
X326234Y-12695D01*
X326844Y-12569D01*
X327156D01*
X327766Y-12695D01*
X327952Y-12772D01*
X328119Y-12884D01*
X328316Y-12923D01*
X328501Y-13000D01*
X328702D01*
X328899Y-13039D01*
X337024D01*
X337804Y-12884D01*
X338465Y-12442D01*
X338908Y-11780D01*
X339063Y-11000D01*
Y19961D01*
X374000D01*
X374780Y20116D01*
X375442Y20558D01*
X375884Y21220D01*
X376039Y22000D01*
Y100000D01*
X375884Y100780D01*
X375442Y101442D01*
X374780Y101884D01*
X374000Y102039D01*
X335672D01*
X335475Y102000D01*
X335274D01*
X335088Y101923D01*
X334892Y101884D01*
X334725Y101772D01*
X334539Y101695D01*
X333472Y101806D01*
X333083Y101993D01*
X333067Y102004D01*
X332832Y102239D01*
X330995Y103000D01*
D02*
G37*
G36*
X131251Y110200D02*
X128749D01*
X126333Y109553D01*
X124167Y108302D01*
X122398Y106533D01*
X121147Y104367D01*
X120500Y101951D01*
Y99449D01*
X120834Y98203D01*
X119797Y97166D01*
X118551Y97500D01*
X116049D01*
X113633Y96853D01*
X111467Y95602D01*
X109698Y93833D01*
X108447Y91667D01*
X107800Y89251D01*
Y86749D01*
X108447Y84333D01*
X109698Y82167D01*
X111467Y80398D01*
X113633Y79147D01*
X116049Y78500D01*
X118551D01*
X120967Y79147D01*
X123133Y80398D01*
X124902Y82167D01*
X126153Y84333D01*
X126800Y86749D01*
Y89251D01*
X126466Y90497D01*
X127503Y91534D01*
X128749Y91200D01*
X131251D01*
X132497Y91534D01*
X133534Y90497D01*
X133200Y89251D01*
Y86749D01*
X133847Y84333D01*
X135098Y82167D01*
X136867Y80398D01*
X139033Y79147D01*
X141449Y78500D01*
X143951D01*
X146367Y79147D01*
X148533Y80398D01*
X150302Y82167D01*
X151553Y84333D01*
X152200Y86749D01*
Y89251D01*
X151553Y91667D01*
X150302Y93833D01*
X148533Y95602D01*
X146367Y96853D01*
X143951Y97500D01*
X141449D01*
X140203Y97166D01*
X139166Y98203D01*
X139500Y99449D01*
Y101951D01*
X138853Y104367D01*
X137602Y106533D01*
X135833Y108302D01*
X133667Y109553D01*
X131251Y110200D01*
D02*
G37*
G36*
X36995Y79000D02*
X35005D01*
X33168Y78239D01*
X31761Y76832D01*
X31000Y74995D01*
Y73005D01*
X31761Y71168D01*
X33168Y69761D01*
X35005Y69000D01*
X36995D01*
X38832Y69761D01*
X40239Y71168D01*
X41000Y73005D01*
Y74995D01*
X40239Y76832D01*
X38832Y78239D01*
X36995Y79000D01*
D02*
G37*
G36*
X16995D02*
X15005D01*
X13168Y78239D01*
X11761Y76832D01*
X11000Y74995D01*
Y73005D01*
X11761Y71168D01*
X13168Y69761D01*
X15005Y69000D01*
X16995D01*
X18832Y69761D01*
X20239Y71168D01*
X21000Y73005D01*
Y74995D01*
X20239Y76832D01*
X18832Y78239D01*
X16995Y79000D01*
D02*
G37*
G36*
X75995Y24000D02*
X74005D01*
X72168Y23239D01*
X70761Y21832D01*
X70000Y19994D01*
Y18005D01*
X70761Y16168D01*
X71929Y15000D01*
X70761Y13832D01*
X70000Y11995D01*
Y10005D01*
X70761Y8168D01*
X72168Y6761D01*
X74005Y6000D01*
X75995D01*
X77832Y6761D01*
X79239Y8168D01*
X80000Y10005D01*
Y11995D01*
X79239Y13832D01*
X78071Y15000D01*
X79239Y16168D01*
X80000Y18005D01*
Y19994D01*
X79239Y21832D01*
X77832Y23239D01*
X75995Y24000D01*
D02*
G37*
G36*
X390995Y5000D02*
X389005D01*
X387168Y4239D01*
X385761Y2832D01*
X385000Y995D01*
Y-995D01*
X385761Y-2832D01*
X386929Y-4000D01*
X385761Y-5168D01*
X385000Y-7005D01*
Y-8995D01*
X385761Y-10832D01*
X387168Y-12239D01*
X389005Y-13000D01*
X390995D01*
X392832Y-12239D01*
X394239Y-10832D01*
X395000Y-8995D01*
Y-7005D01*
X394239Y-5168D01*
X393071Y-4000D01*
X394239Y-2832D01*
X395000Y-995D01*
Y995D01*
X394239Y2832D01*
X392832Y4239D01*
X390995Y5000D01*
D02*
G37*
G36*
X341995Y-28000D02*
X340005D01*
X338168Y-28761D01*
X336761Y-30168D01*
X336000Y-32006D01*
Y-33995D01*
X336761Y-35832D01*
X338168Y-37239D01*
X340005Y-38000D01*
X341995D01*
X343832Y-37239D01*
X345239Y-35832D01*
X346000Y-33995D01*
Y-32006D01*
X345239Y-30168D01*
X343832Y-28761D01*
X341995Y-28000D01*
D02*
G37*
G36*
X376777Y-21500D02*
X373223D01*
X369789Y-22420D01*
X366711Y-24197D01*
X364197Y-26711D01*
X362420Y-29789D01*
X361500Y-33223D01*
Y-36777D01*
X362420Y-40211D01*
X364197Y-43289D01*
X366711Y-45803D01*
X369789Y-47580D01*
X373223Y-48500D01*
X376777D01*
X380211Y-47580D01*
X383289Y-45803D01*
X385803Y-43289D01*
X387580Y-40211D01*
X388500Y-36777D01*
Y-33223D01*
X387580Y-29789D01*
X385803Y-26711D01*
X383289Y-24197D01*
X380211Y-22420D01*
X376777Y-21500D01*
D02*
G37*
%LPD*%
G36*
X374000Y22000D02*
X337024D01*
Y-11000D01*
X328899D01*
X328646Y-9730D01*
X329832Y-9239D01*
X331239Y-7832D01*
X332000Y-5995D01*
Y-4005D01*
X331239Y-2168D01*
X329832Y-761D01*
X327995Y0D01*
X326005D01*
X324168Y-761D01*
X322761Y-2168D01*
X322000Y-4005D01*
Y-5995D01*
X322761Y-7832D01*
X324168Y-9239D01*
X325354Y-9730D01*
X325101Y-11000D01*
X250750D01*
X249667Y41000D01*
X248730D01*
X247988Y42270D01*
X248500Y43506D01*
Y45495D01*
X247739Y47332D01*
X246332Y48739D01*
X244495Y49500D01*
X242505D01*
X240668Y48739D01*
X239261Y47332D01*
X239260Y47329D01*
X224220D01*
X222944Y47075D01*
X221862Y46352D01*
X200510Y25000D01*
X157500D01*
Y38296D01*
X14000D01*
Y62000D01*
X157500D01*
Y100000D01*
X252000D01*
Y73848D01*
X285000D01*
Y100000D01*
X324328D01*
X325000Y98995D01*
Y97005D01*
X325761Y95168D01*
X327168Y93761D01*
X329005Y93000D01*
X330995D01*
X332832Y93761D01*
X334239Y95168D01*
X335000Y97005D01*
Y98995D01*
X335672Y100000D01*
X374000D01*
Y22000D01*
D02*
G37*
%LPC*%
G36*
X176995Y85000D02*
X175005D01*
X173168Y84239D01*
X172330Y83401D01*
X171500Y82968D01*
X170670Y83401D01*
X169832Y84239D01*
X167995Y85000D01*
X166005D01*
X164168Y84239D01*
X162761Y82832D01*
X162000Y80995D01*
Y79005D01*
X162761Y77168D01*
X164168Y75761D01*
X166005Y75000D01*
X167995D01*
X169832Y75761D01*
X170670Y76599D01*
X171500Y77032D01*
X172330Y76599D01*
X173168Y75761D01*
X175005Y75000D01*
X176995D01*
X178832Y75761D01*
X180239Y77168D01*
X181000Y79005D01*
Y80995D01*
X180239Y82832D01*
X178832Y84239D01*
X176995Y85000D01*
D02*
G37*
G36*
X331995Y43000D02*
X330005D01*
X328168Y42239D01*
X327330Y41401D01*
X326500Y40968D01*
X325670Y41401D01*
X324832Y42239D01*
X322995Y43000D01*
X321005D01*
X319168Y42239D01*
X317761Y40832D01*
X317000Y38995D01*
Y37005D01*
X317761Y35168D01*
X319168Y33761D01*
X321005Y33000D01*
X322995D01*
X324832Y33761D01*
X325670Y34599D01*
X326500Y35032D01*
X327330Y34599D01*
X328168Y33761D01*
X330005Y33000D01*
X331995D01*
X333832Y33761D01*
X335239Y35168D01*
X336000Y37005D01*
Y38995D01*
X335239Y40832D01*
X333832Y42239D01*
X331995Y43000D01*
D02*
G37*
G36*
X258995Y40000D02*
X257005D01*
X255168Y39239D01*
X253761Y37832D01*
X253000Y35995D01*
Y34005D01*
X253761Y32168D01*
X254429Y31500D01*
X253761Y30832D01*
X253000Y28995D01*
Y27005D01*
X253761Y25168D01*
X255168Y23761D01*
X257005Y23000D01*
X258995D01*
X260832Y23761D01*
X262239Y25168D01*
X263000Y27005D01*
Y28995D01*
X262239Y30832D01*
X261571Y31500D01*
X262239Y32168D01*
X263000Y34005D01*
Y35995D01*
X262239Y37832D01*
X260832Y39239D01*
X258995Y40000D01*
D02*
G37*
G36*
X290995Y18000D02*
X289005D01*
X287168Y17239D01*
X285761Y15832D01*
X285000Y13995D01*
Y12005D01*
X285761Y10168D01*
X286929Y9000D01*
X285761Y7832D01*
X285000Y5995D01*
Y4005D01*
X285761Y2168D01*
X287168Y761D01*
X289005Y0D01*
X290995D01*
X292832Y761D01*
X294239Y2168D01*
X295000Y4005D01*
Y5995D01*
X294239Y7832D01*
X293071Y9000D01*
X294239Y10168D01*
X295000Y12005D01*
Y13995D01*
X294239Y15832D01*
X292832Y17239D01*
X290995Y18000D01*
D02*
G37*
%LPD*%
D12*
X24998Y122498D02*
X27498Y119999D01*
Y115001D01*
X24998Y112502D01*
X22499D01*
X20000Y115001D01*
Y117500D01*
Y115001D01*
X17501Y112502D01*
X15002D01*
X12502Y115001D01*
Y119999D01*
X15002Y122498D01*
D24*
X342250Y137750D02*
D03*
X329750D02*
D03*
X317250D02*
D03*
X304750D02*
D03*
X292250D02*
D03*
X279750D02*
D03*
X267250D02*
D03*
D27*
X242995Y43995D02*
X243500Y44500D01*
X224220Y43995D02*
X242995D01*
X192000Y11775D02*
X224220Y43995D01*
X192000Y5000D02*
Y11775D01*
X317250Y135250D02*
Y137750D01*
X253000Y125000D02*
X307000D01*
X317250Y135250D01*
X244000Y116000D02*
X253000Y125000D01*
X231000Y116000D02*
X244000D01*
D29*
X117300Y88000D02*
D03*
X130000Y100700D02*
D03*
X142700Y88000D02*
D03*
D30*
X375000Y-35000D02*
D03*
X195000Y135000D02*
D03*
X55000D02*
D03*
D31*
X330000Y98000D02*
D03*
X243500Y44500D02*
D03*
X326000Y71000D02*
D03*
X258000Y28000D02*
D03*
X290000Y5000D02*
D03*
Y13000D02*
D03*
X322000Y38000D02*
D03*
X270000Y108000D02*
D03*
X167000Y80000D02*
D03*
X176000Y52000D02*
D03*
Y80000D02*
D03*
X95000Y30000D02*
D03*
X333000Y67000D02*
D03*
X366500Y48500D02*
D03*
Y37500D02*
D03*
X355500Y48500D02*
D03*
Y37500D02*
D03*
X75000Y19000D02*
D03*
Y11000D02*
D03*
X36000Y74000D02*
D03*
X16000D02*
D03*
X19000Y45000D02*
D03*
X33000D02*
D03*
X43000Y12000D02*
D03*
Y20000D02*
D03*
X167000Y52000D02*
D03*
X231000Y116000D02*
D03*
X327000Y-5000D02*
D03*
X362000Y-8000D02*
D03*
Y0D02*
D03*
X390000Y-8000D02*
D03*
Y0D02*
D03*
X341000Y-33000D02*
D03*
X262000Y9000D02*
D03*
Y16000D02*
D03*
X198000Y-54000D02*
D03*
X187000D02*
D03*
X198000Y-25000D02*
D03*
X187000D02*
D03*
X331000Y38000D02*
D03*
X333000Y76000D02*
D03*
X278000Y108000D02*
D03*
X265000Y90000D02*
D03*
Y82000D02*
D03*
X258000Y35000D02*
D03*
X229000Y30000D02*
D03*
Y38000D02*
D03*
X192000Y5000D02*
D03*
D32*
X329750Y137750D02*
Y148750D01*
Y127250D02*
Y137750D01*
M02*
