M48
;Layer_Color=9474304
;FILE_FORMAT=4:4
METRIC,LZ
;TYPE=PLATED
T1F00S00C0.2000
T2F00S00C0.3000
T3F00S00C0.6000
T4F00S00C0.8000
;TYPE=NON_PLATED
T5F00S00C2.2000
%
T01
X0026Y00072
Y00083
X00335Y00083
Y00072
T02
X00208Y-000315
X002205
X00233
X00246Y-0003025
Y-00022562
Y-00014875
Y-00007188
Y000005
X00283Y0001275
Y00019
X00285Y0003275
X002935
X0030975Y000095
X003235Y0002275
X00343014Y00025014
X0035825Y0004175
X003475Y0006
X00335
X003225
X003225Y000935
X0033525
X0034775
X0036975Y0007975
X002985Y0007375
X00275Y000625
X002625
X0025
Y000935
X0026275
X0027525
X00306Y00105
X0021Y000835
Y00077
X0020225
Y000835
X00183Y00093
X00158Y00095
X00165Y0012
X001775
X0019Y001175
X0019Y0006225
X001775
X0016475
T03
X0026725Y0013775
X0027975
X0029225
X0030475
X0031725
X0032975
X0034225
T04
X001173Y00088
X001427
X0013Y001007
T05
X00055Y00135
X00195
X00375Y-00035
M30
