G04*
G04 #@! TF.GenerationSoftware,Altium Limited,Altium Designer,23.3.1 (30)*
G04*
G04 Layer_Physical_Order=4*
G04 Layer_Color=16711680*
%FSLAX44Y44*%
%MOMM*%
G71*
G04*
G04 #@! TF.SameCoordinates,0A325C66-3388-4B77-B3D2-BE92810A0E17*
G04*
G04*
G04 #@! TF.FilePolarity,Positive*
G04*
G01*
G75*
%ADD12C,0.2000*%
G04:AMPARAMS|DCode=13|XSize=0.4mm|YSize=0.6mm|CornerRadius=0.1mm|HoleSize=0mm|Usage=FLASHONLY|Rotation=0.000|XOffset=0mm|YOffset=0mm|HoleType=Round|Shape=RoundedRectangle|*
%AMROUNDEDRECTD13*
21,1,0.4000,0.4000,0,0,0.0*
21,1,0.2000,0.6000,0,0,0.0*
1,1,0.2000,0.1000,-0.2000*
1,1,0.2000,-0.1000,-0.2000*
1,1,0.2000,-0.1000,0.2000*
1,1,0.2000,0.1000,0.2000*
%
%ADD13ROUNDEDRECTD13*%
G04:AMPARAMS|DCode=16|XSize=0.4mm|YSize=0.6mm|CornerRadius=0.1mm|HoleSize=0mm|Usage=FLASHONLY|Rotation=270.000|XOffset=0mm|YOffset=0mm|HoleType=Round|Shape=RoundedRectangle|*
%AMROUNDEDRECTD16*
21,1,0.4000,0.4000,0,0,270.0*
21,1,0.2000,0.6000,0,0,270.0*
1,1,0.2000,-0.2000,-0.1000*
1,1,0.2000,-0.2000,0.1000*
1,1,0.2000,0.2000,0.1000*
1,1,0.2000,0.2000,-0.1000*
%
%ADD16ROUNDEDRECTD16*%
%ADD24C,1.0668*%
%ADD27C,0.2540*%
%ADD28C,0.5000*%
%ADD29C,1.5000*%
%ADD30C,2.2000*%
%ADD31C,0.6000*%
%ADD32C,0.6000*%
%ADD33R,2.0500X1.1000*%
%ADD34R,1.6000X0.6500*%
G04:AMPARAMS|DCode=35|XSize=1.45mm|YSize=0.3mm|CornerRadius=0.0495mm|HoleSize=0mm|Usage=FLASHONLY|Rotation=90.000|XOffset=0mm|YOffset=0mm|HoleType=Round|Shape=RoundedRectangle|*
%AMROUNDEDRECTD35*
21,1,1.4500,0.2010,0,0,90.0*
21,1,1.3510,0.3000,0,0,90.0*
1,1,0.0990,0.1005,0.6755*
1,1,0.0990,0.1005,-0.6755*
1,1,0.0990,-0.1005,-0.6755*
1,1,0.0990,-0.1005,0.6755*
%
%ADD35ROUNDEDRECTD35*%
%ADD36C,1.0000*%
%ADD37C,0.3000*%
G36*
X397451Y148410D02*
X397000Y148039D01*
X344704D01*
X344442Y147987D01*
X344176Y147970D01*
X344056Y147910D01*
X343924Y147884D01*
X343702Y147736D01*
X343463Y147618D01*
X343374Y147517D01*
X343262Y147442D01*
X343114Y147220D01*
X342938Y147020D01*
X342895Y146892D01*
X342820Y146780D01*
X342768Y146519D01*
X342682Y146266D01*
X342617Y145770D01*
X341290Y145425D01*
X335358Y151357D01*
X334276Y152080D01*
X333000Y152334D01*
X263000D01*
X261724Y152080D01*
X260643Y151357D01*
X241642Y132358D01*
X240920Y131276D01*
X240666Y130000D01*
Y112708D01*
X239493Y112222D01*
X236000Y115715D01*
Y116995D01*
X235239Y118832D01*
X233832Y120239D01*
X231995Y121000D01*
X230005D01*
X228168Y120239D01*
X226761Y118832D01*
X226000Y116995D01*
Y115005D01*
X226761Y113168D01*
X228168Y111761D01*
X230005Y111000D01*
X231285D01*
X235630Y106655D01*
X235451Y105755D01*
Y92245D01*
X235645Y91271D01*
X236196Y90446D01*
X237022Y89895D01*
X237995Y89701D01*
X240005D01*
X240979Y89895D01*
X241500Y90243D01*
X242022Y89895D01*
X242995Y89701D01*
X245005D01*
X245666Y89159D01*
Y82381D01*
X236642Y73358D01*
X235920Y72276D01*
X235666Y71000D01*
Y69039D01*
X224000D01*
X223220Y68884D01*
X222558Y68442D01*
X222116Y67780D01*
X221961Y67000D01*
Y24000D01*
X222116Y23220D01*
X222558Y22558D01*
X223220Y22116D01*
X224000Y21961D01*
X243000D01*
X243780Y22116D01*
X244442Y22558D01*
X244884Y23220D01*
X245039Y24000D01*
Y29175D01*
X245229Y29414D01*
X246264Y30088D01*
X247000Y29941D01*
Y35000D01*
X248000D01*
Y36000D01*
X252059D01*
Y37000D01*
X251826Y38170D01*
X251163Y39163D01*
X250170Y39826D01*
X249000Y40059D01*
X247926D01*
X247400Y41329D01*
X247739Y41668D01*
X248500Y43506D01*
Y44000D01*
Y45495D01*
X247739Y47332D01*
X247429Y47642D01*
X247549Y48245D01*
Y61755D01*
X247355Y62729D01*
X246804Y63554D01*
X245979Y64105D01*
X245038Y64292D01*
X245039Y64299D01*
Y67000D01*
X244884Y67780D01*
X244442Y68442D01*
X243780Y68884D01*
X243459Y68948D01*
X243014Y70039D01*
X243017Y70302D01*
X250266Y77551D01*
X251355Y77443D01*
X251706Y77194D01*
X255666Y73234D01*
Y64841D01*
X255005Y64299D01*
X252995D01*
X252022Y64105D01*
X251196Y63554D01*
X250645Y62729D01*
X250451Y61755D01*
Y48245D01*
X250645Y47271D01*
X250666Y47240D01*
Y44000D01*
Y43000D01*
X250920Y41724D01*
X251642Y40642D01*
X253643Y38642D01*
X254724Y37920D01*
X256000Y37666D01*
X263000D01*
X264276Y37920D01*
X265357Y38642D01*
X290357Y63643D01*
X291080Y64724D01*
X291334Y66000D01*
Y119619D01*
X302481Y130765D01*
X303785Y130416D01*
X305716D01*
X307581Y130916D01*
X309253Y131881D01*
X310173Y132801D01*
X311000Y133106D01*
X311828Y132801D01*
X312747Y131881D01*
X314419Y130916D01*
X315977Y130498D01*
X315961Y130416D01*
Y109223D01*
X316037Y108840D01*
X316111Y108455D01*
X316115Y108449D01*
X316116Y108442D01*
X316333Y108117D01*
X316548Y107791D01*
X316554Y107787D01*
X316558Y107781D01*
X316883Y107564D01*
X317207Y107344D01*
X317214Y107343D01*
X317220Y107339D01*
X317603Y107263D01*
X317986Y107184D01*
X332961Y107080D01*
Y93096D01*
X333035Y92724D01*
X333102Y92349D01*
X333112Y92333D01*
X333116Y92315D01*
X333327Y92000D01*
X333533Y91679D01*
X333548Y91669D01*
X333558Y91654D01*
X333874Y91443D01*
X334187Y91226D01*
X334204Y91222D01*
X334220Y91212D01*
X334592Y91138D01*
X334964Y91057D01*
X396058Y89977D01*
X396067Y89979D01*
X396076Y89977D01*
X396181Y89997D01*
X396991Y89550D01*
X397355Y89206D01*
X397451Y89036D01*
Y-57451D01*
X167549D01*
X167549Y-5000D01*
X167527Y-4893D01*
X167540Y-4785D01*
X167467Y-3925D01*
X167377Y-3615D01*
X167332Y-3296D01*
X166763Y-1672D01*
X166545Y-1303D01*
X166348Y-924D01*
X165273Y420D01*
X164945Y696D01*
X164634Y989D01*
X163175Y1901D01*
X162873Y2016D01*
X162591Y2171D01*
X161767Y2431D01*
X161381Y2473D01*
X161000Y2549D01*
X62039Y2549D01*
Y10941D01*
X63000D01*
X64170Y11174D01*
X65163Y11837D01*
X65826Y12830D01*
X66059Y14000D01*
Y15000D01*
X62000D01*
Y17000D01*
X66059D01*
Y18000D01*
X65826Y19171D01*
X65163Y20163D01*
X64170Y20826D01*
X63000Y21059D01*
X62039D01*
Y29250D01*
X62500D01*
Y38750D01*
Y48250D01*
Y58750D01*
X55834D01*
Y63119D01*
X59656Y66941D01*
X61000D01*
X62171Y67174D01*
X63163Y67837D01*
X63826Y68829D01*
X63853Y68963D01*
X65147D01*
X65174Y68829D01*
X65837Y67837D01*
X66830Y67174D01*
X68000Y66941D01*
X69344D01*
X74166Y62119D01*
Y58750D01*
X67500D01*
Y48250D01*
Y45000D01*
X77500D01*
X87500D01*
Y48250D01*
Y58750D01*
X80834D01*
Y63500D01*
X80580Y64776D01*
X79858Y65858D01*
X73059Y72656D01*
Y74000D01*
X72826Y75170D01*
X72163Y76163D01*
X71171Y76826D01*
X70000Y77059D01*
X68000D01*
X66830Y76826D01*
X65837Y76163D01*
X65174Y75170D01*
X65147Y75037D01*
X63853D01*
X63826Y75170D01*
X63163Y76163D01*
X62171Y76826D01*
X61000Y77059D01*
X59000D01*
X57829Y76826D01*
X56837Y76163D01*
X56174Y75170D01*
X55941Y74000D01*
Y72656D01*
X50142Y66858D01*
X49420Y65776D01*
X49166Y64500D01*
Y58750D01*
X42500D01*
X42039Y59829D01*
Y60000D01*
X41884Y60780D01*
X41442Y61442D01*
X40780Y61884D01*
X40000Y62039D01*
X31683D01*
X31442Y61991D01*
X31197Y61980D01*
X30240Y62762D01*
X30205Y62900D01*
X30826Y63829D01*
X31059Y65000D01*
Y65000D01*
X26000D01*
X20941D01*
Y65000D01*
X21174Y63829D01*
X21795Y62900D01*
X21760Y62762D01*
X20803Y61980D01*
X20558Y61991D01*
X20317Y62039D01*
X9000D01*
X8220Y61884D01*
X7558Y61442D01*
X7116Y60780D01*
X6961Y60000D01*
Y40000D01*
X7116Y39220D01*
X7558Y38558D01*
X8220Y38116D01*
X9000Y37961D01*
X34961D01*
Y2727D01*
X33691Y2549D01*
X2549D01*
Y92500D01*
X42000D01*
Y127977D01*
X43270Y128317D01*
X44197Y126711D01*
X46711Y124197D01*
X49789Y122420D01*
X53223Y121500D01*
X56777D01*
X60211Y122420D01*
X63289Y124197D01*
X65803Y126711D01*
X67580Y129789D01*
X68500Y133223D01*
Y136777D01*
X67580Y140211D01*
X65803Y143289D01*
X63289Y145803D01*
X60211Y147580D01*
X56777Y148500D01*
X53223D01*
X49789Y147580D01*
X46711Y145803D01*
X44197Y143289D01*
X43270Y141683D01*
X42000Y142023D01*
Y157451D01*
X397451D01*
Y148410D01*
D02*
G37*
G36*
X397000Y92906D02*
X396094Y92016D01*
X335000Y93096D01*
Y109105D01*
X318000Y109223D01*
Y130416D01*
X318216D01*
X320081Y130916D01*
X321753Y131881D01*
X322673Y132801D01*
X323500Y133106D01*
X324328Y132801D01*
X325247Y131881D01*
X326919Y130916D01*
X328784Y130416D01*
X329000D01*
Y137750D01*
X330500D01*
Y130416D01*
X330715D01*
X332581Y130916D01*
X334253Y131881D01*
X335173Y132801D01*
X336000Y133106D01*
X336828Y132801D01*
X337747Y131881D01*
X339419Y130916D01*
X341284Y130416D01*
X343215D01*
X345081Y130916D01*
X346753Y131881D01*
X348119Y133247D01*
X349084Y134919D01*
X349584Y136784D01*
Y138715D01*
X349084Y140581D01*
X348119Y142253D01*
X346753Y143619D01*
X345081Y144584D01*
X344537Y144730D01*
X344704Y146000D01*
X397000D01*
Y92906D01*
D02*
G37*
G36*
X260168Y139657D02*
X259916Y138715D01*
Y138500D01*
X267250D01*
Y137000D01*
X259916D01*
Y136784D01*
X260416Y134919D01*
X261381Y133247D01*
X262747Y131881D01*
X264419Y130916D01*
X265985Y130496D01*
X266553Y129268D01*
X251642Y114358D01*
X250920Y113276D01*
X250666Y112000D01*
Y108841D01*
X250005Y108299D01*
X247995D01*
X247334Y108841D01*
Y128619D01*
X259030Y140315D01*
X260168Y139657D01*
D02*
G37*
G36*
X290985Y130496D02*
X291553Y129268D01*
X285643Y123357D01*
X284920Y122276D01*
X284666Y121000D01*
Y95586D01*
X284000Y95039D01*
Y95039D01*
X279847D01*
X279059Y96000D01*
D01*
X274000D01*
X268941D01*
D01*
X268153Y95039D01*
X262549D01*
Y103584D01*
X266838Y107872D01*
X266951Y108043D01*
X289739Y130830D01*
X290985Y130496D01*
D02*
G37*
G36*
X284000Y76000D02*
X262007D01*
X261358Y76973D01*
X260000Y78330D01*
Y89701D01*
X260005D01*
X260979Y89895D01*
X261804Y90446D01*
X262355Y91271D01*
X262549Y92245D01*
Y93000D01*
X269745D01*
X269938Y92758D01*
X269837Y91163D01*
X269174Y90170D01*
X268941Y89000D01*
D01*
X274000D01*
X279059D01*
X278826Y90170D01*
X278163Y91163D01*
X278062Y92758D01*
X278255Y93000D01*
X284000D01*
Y76000D01*
D02*
G37*
G36*
X243000Y64299D02*
X242995D01*
X242022Y64105D01*
X241500Y63757D01*
X240979Y64105D01*
X240005Y64299D01*
X240000D01*
Y55000D01*
X239000D01*
Y54000D01*
X235451D01*
Y48245D01*
X235645Y47271D01*
X236196Y46446D01*
X237022Y45895D01*
X237327Y45834D01*
X238500Y45494D01*
Y43506D01*
X239261Y41668D01*
X239600Y41329D01*
X239074Y40059D01*
X238000D01*
X236829Y39826D01*
X235837Y39163D01*
X235174Y38170D01*
X234941Y37000D01*
Y36000D01*
X239000D01*
Y35000D01*
X240000D01*
Y29941D01*
X241171Y30174D01*
X241730Y30548D01*
X243000Y29978D01*
Y24000D01*
X224000D01*
Y67000D01*
X243000D01*
Y64299D01*
D02*
G37*
G36*
X40000Y50000D02*
X42500D01*
Y45000D01*
X52500D01*
Y43000D01*
X42500D01*
Y40000D01*
X9000D01*
Y60000D01*
X20317D01*
X21086Y58730D01*
X20941Y58000D01*
X26000D01*
X31059D01*
X30914Y58730D01*
X31683Y60000D01*
X40000D01*
Y50000D01*
D02*
G37*
G36*
X284666Y73414D02*
Y67381D01*
X261619Y44334D01*
X258331D01*
X258296Y44431D01*
X259191Y45701D01*
X260005D01*
X260979Y45895D01*
X261804Y46446D01*
X262355Y47271D01*
X262549Y48245D01*
Y61755D01*
X262355Y62729D01*
X262334Y62760D01*
Y73961D01*
X284000D01*
X284666Y73414D01*
D02*
G37*
G36*
X42500Y35500D02*
X52500D01*
Y34500D01*
X53500D01*
Y29250D01*
X60000D01*
Y20860D01*
X59830Y20826D01*
X58837Y20163D01*
X58174Y19171D01*
X58147Y19037D01*
X56853D01*
X56826Y19171D01*
X56163Y20163D01*
X55170Y20826D01*
X54000Y21059D01*
D01*
Y16000D01*
Y10941D01*
X55170Y11174D01*
X56163Y11837D01*
X56826Y12830D01*
X56853Y12963D01*
X58147D01*
X58174Y12830D01*
X58837Y11837D01*
X59830Y11174D01*
X60000Y11140D01*
Y2549D01*
X37000Y2549D01*
Y37961D01*
X42500D01*
Y35500D01*
D02*
G37*
%LPC*%
G36*
X196777Y148500D02*
X193223D01*
X189789Y147580D01*
X186711Y145803D01*
X184197Y143289D01*
X182420Y140211D01*
X181500Y136777D01*
Y133223D01*
X182420Y129789D01*
X184197Y126711D01*
X186711Y124197D01*
X189789Y122420D01*
X193223Y121500D01*
X196777D01*
X200211Y122420D01*
X203289Y124197D01*
X205803Y126711D01*
X207580Y129789D01*
X208500Y133223D01*
Y136777D01*
X207580Y140211D01*
X205803Y143289D01*
X203289Y145803D01*
X200211Y147580D01*
X196777Y148500D01*
D02*
G37*
G36*
X131251Y110200D02*
X128749D01*
X126333Y109553D01*
X124167Y108302D01*
X123813Y107948D01*
X130000Y101761D01*
X136187Y107948D01*
X135833Y108302D01*
X133667Y109553D01*
X131251Y110200D01*
D02*
G37*
G36*
X122752Y106887D02*
X122398Y106533D01*
X121147Y104367D01*
X120500Y101951D01*
Y99449D01*
X120834Y98203D01*
X119797Y97166D01*
X118551Y97500D01*
X116049D01*
X113633Y96853D01*
X111467Y95602D01*
X111113Y95248D01*
X117830Y88530D01*
X124548Y81813D01*
X124902Y82167D01*
X126153Y84333D01*
X126800Y86749D01*
Y89251D01*
X126466Y90497D01*
X127503Y91534D01*
X128749Y91200D01*
X131251D01*
X132497Y91534D01*
X133534Y90497D01*
X133200Y89251D01*
Y86749D01*
X133847Y84333D01*
X135098Y82167D01*
X136867Y80398D01*
X139033Y79147D01*
X141449Y78500D01*
X143951D01*
X146367Y79147D01*
X148533Y80398D01*
X150302Y82167D01*
X151553Y84333D01*
X152200Y86749D01*
Y89251D01*
X151553Y91667D01*
X150302Y93833D01*
X148533Y95602D01*
X146367Y96853D01*
X143951Y97500D01*
X141449D01*
X140203Y97166D01*
X139166Y98203D01*
X139500Y99449D01*
Y101951D01*
X138853Y104367D01*
X137602Y106533D01*
X137248Y106887D01*
X130530Y100170D01*
X130000Y100700D01*
X129470Y100170D01*
X122752Y106887D01*
D02*
G37*
G36*
X110052Y94187D02*
X109698Y93833D01*
X108447Y91667D01*
X107800Y89251D01*
Y86749D01*
X108447Y84333D01*
X109698Y82167D01*
X110052Y81813D01*
X116239Y88000D01*
X110052Y94187D01*
D02*
G37*
G36*
X117300Y86939D02*
X111113Y80752D01*
X111467Y80398D01*
X113633Y79147D01*
X116049Y78500D01*
X118551D01*
X120967Y79147D01*
X123133Y80398D01*
X123487Y80752D01*
X117300Y86939D01*
D02*
G37*
G36*
X393250Y80000D02*
X382000D01*
Y73500D01*
X393250D01*
Y80000D01*
D02*
G37*
G36*
X362250D02*
X351000D01*
Y73500D01*
X362250D01*
Y80000D01*
D02*
G37*
G36*
X380000D02*
X368750D01*
Y73500D01*
X380000D01*
Y80000D01*
D02*
G37*
G36*
X173000Y75059D02*
X172000D01*
Y72000D01*
X176059D01*
Y72000D01*
X175826Y73170D01*
X175163Y74163D01*
X174170Y74826D01*
X173000Y75059D01*
D02*
G37*
G36*
X170000D02*
X169000D01*
X167829Y74826D01*
X166837Y74163D01*
X166174Y73170D01*
X165941Y72000D01*
Y72000D01*
X170000D01*
Y75059D01*
D02*
G37*
G36*
X28000Y70059D02*
X27000D01*
Y67000D01*
X31059D01*
X30826Y68170D01*
X30163Y69163D01*
X29170Y69826D01*
X28000Y70059D01*
D02*
G37*
G36*
X25000D02*
X24000D01*
X22829Y69826D01*
X21837Y69163D01*
X21174Y68170D01*
X20941Y67000D01*
X25000D01*
Y70059D01*
D02*
G37*
G36*
X176059Y70000D02*
X171000D01*
X165941D01*
X166174Y68829D01*
X166837Y67837D01*
Y67837D01*
X167829Y67174D01*
X167963Y67147D01*
Y65853D01*
X167829Y65826D01*
X166837Y65163D01*
X166595Y65402D01*
X166595Y65403D01*
X166345Y65569D01*
X166114Y65759D01*
X166017Y65789D01*
X165933Y65845D01*
X165639Y65903D01*
X165353Y65990D01*
X165252Y65980D01*
X165153Y66000D01*
X161000D01*
X160220Y65845D01*
X159558Y65403D01*
X159116Y64741D01*
X158961Y63961D01*
Y46039D01*
X159116Y45259D01*
X159558Y44597D01*
X160220Y44155D01*
X161000Y44000D01*
X183000D01*
X183780Y44155D01*
X184442Y44597D01*
X184884Y45259D01*
X185039Y46039D01*
Y63961D01*
X184884Y64741D01*
X184442Y65403D01*
X183780Y65845D01*
X183000Y66000D01*
X176847D01*
X176748Y65980D01*
X176647Y65990D01*
X176361Y65903D01*
X176067Y65845D01*
X175983Y65789D01*
X175886Y65759D01*
X175655Y65569D01*
X175405Y65403D01*
X175405Y65402D01*
X175163Y65163D01*
X174170Y65826D01*
X174037Y65853D01*
Y67147D01*
X174170Y67174D01*
X175163Y67837D01*
Y67837D01*
D01*
X175826Y68829D01*
X176059Y70000D01*
D02*
G37*
G36*
X393250Y71500D02*
X382000D01*
Y65000D01*
X393250D01*
Y71500D01*
D02*
G37*
G36*
X380000D02*
X368750D01*
Y65000D01*
X380000D01*
Y71500D01*
D02*
G37*
G36*
X362250D02*
X351000D01*
Y65000D01*
X362250D01*
Y71500D01*
D02*
G37*
G36*
X337000Y82039D02*
X316000D01*
X315220Y81884D01*
X314558Y81442D01*
X314116Y80780D01*
X313961Y80000D01*
Y55039D01*
X314116Y54259D01*
X314558Y53597D01*
X315220Y53155D01*
X316000Y53000D01*
X320175D01*
X320451Y53055D01*
X320731Y53077D01*
X320838Y53132D01*
X320955Y53155D01*
X321189Y53312D01*
X321440Y53440D01*
X321468Y53462D01*
X321796Y53402D01*
X322005Y52320D01*
X321944Y52235D01*
X321837Y52163D01*
X321548Y51730D01*
D01*
X321174Y51171D01*
X320941Y50000D01*
X326000D01*
X331059D01*
X330826Y51171D01*
X330718Y51332D01*
X330452Y51730D01*
D01*
X330163Y52163D01*
X330056Y52235D01*
X329995Y52320D01*
X330204Y53402D01*
X330532Y53462D01*
X330560Y53440D01*
X330811Y53312D01*
X331045Y53155D01*
X331162Y53132D01*
X331269Y53077D01*
X331549Y53055D01*
X331825Y53000D01*
X337000D01*
X337780Y53155D01*
X338442Y53597D01*
X338884Y54259D01*
X339039Y55039D01*
Y65000D01*
X349000D01*
Y72500D01*
Y80000D01*
X339039D01*
X338884Y80780D01*
X338442Y81442D01*
X337780Y81884D01*
X337000Y82039D01*
D02*
G37*
G36*
X367495Y53500D02*
X365505D01*
X363668Y52739D01*
X362261Y51332D01*
X361673Y49913D01*
X360327D01*
X359739Y51332D01*
X358332Y52739D01*
X356495Y53500D01*
X354506D01*
X352668Y52739D01*
X351261Y51332D01*
X350500Y49495D01*
Y47505D01*
X351261Y45668D01*
X352668Y44261D01*
X354087Y43673D01*
Y42327D01*
X352668Y41739D01*
X351261Y40332D01*
X350500Y38495D01*
Y36505D01*
X351261Y34668D01*
X352668Y33261D01*
X354506Y32500D01*
X356495D01*
X358332Y33261D01*
X359739Y34668D01*
X360327Y36087D01*
X361673D01*
X362261Y34668D01*
X363668Y33261D01*
X365505Y32500D01*
X367495D01*
X369332Y33261D01*
X370739Y34668D01*
X371500Y36505D01*
Y38495D01*
X370739Y40332D01*
X369332Y41739D01*
X367913Y42327D01*
Y43673D01*
X369332Y44261D01*
X370739Y45668D01*
X371500Y47505D01*
Y49495D01*
X370739Y51332D01*
X369332Y52739D01*
X367495Y53500D01*
D02*
G37*
G36*
X331059Y48000D02*
X327000D01*
Y44941D01*
X328000D01*
X329170Y45174D01*
X330163Y45837D01*
X330826Y46830D01*
X331059Y48000D01*
Y48000D01*
D02*
G37*
G36*
X325000D02*
X320941D01*
Y48000D01*
X321174Y46830D01*
X321837Y45837D01*
X322830Y45174D01*
X324000Y44941D01*
X325000D01*
Y48000D01*
D02*
G37*
G36*
X252059Y34000D02*
X249000D01*
Y29941D01*
X250170Y30174D01*
X251163Y30837D01*
X251826Y31830D01*
X252059Y33000D01*
Y34000D01*
D02*
G37*
G36*
X87500Y43000D02*
X77500D01*
X67500D01*
Y38750D01*
Y29250D01*
X87500D01*
Y30931D01*
X89022D01*
X90000Y29953D01*
Y29005D01*
X90761Y27168D01*
X92168Y25761D01*
X94005Y25000D01*
X95995D01*
X97832Y25761D01*
X99239Y27168D01*
X100000Y29005D01*
Y30995D01*
X99239Y32832D01*
X97832Y34239D01*
X95995Y35000D01*
X95047D01*
X93023Y37023D01*
X91866Y37797D01*
X90500Y38069D01*
X87500D01*
Y43000D01*
D02*
G37*
G36*
X281000Y14059D02*
D01*
Y10000D01*
X284059D01*
Y11000D01*
X283826Y12170D01*
X283163Y13163D01*
X282171Y13826D01*
X281000Y14059D01*
D02*
G37*
G36*
X382000Y13059D02*
Y9000D01*
X385059D01*
Y10000D01*
X384826Y11171D01*
X384163Y12163D01*
X383171Y12826D01*
X382000Y13059D01*
D02*
G37*
G36*
X284059Y8000D02*
X281000D01*
Y3941D01*
X282171Y4174D01*
X283163Y4837D01*
X283826Y5829D01*
X284059Y7000D01*
Y8000D01*
D02*
G37*
G36*
X272961Y23039D02*
X255000D01*
X254220Y22884D01*
X253558Y22442D01*
X253116Y21780D01*
X252961Y21000D01*
Y-1000D01*
X253116Y-1780D01*
X253558Y-2442D01*
X254220Y-2884D01*
X255000Y-3039D01*
X272961D01*
X273741Y-2884D01*
X274403Y-2442D01*
X274845Y-1780D01*
X275000Y-1000D01*
Y3153D01*
X274980Y3252D01*
X274990Y3353D01*
X274903Y3639D01*
X274845Y3933D01*
X274789Y4017D01*
X274759Y4114D01*
X274569Y4345D01*
X274403Y4595D01*
X274403Y4595D01*
X274163Y4837D01*
X274826Y5829D01*
X274853Y5963D01*
X276147D01*
X276174Y5829D01*
X276837Y4837D01*
X276837D01*
D01*
X277829Y4174D01*
X279000Y3941D01*
D01*
Y9000D01*
Y14059D01*
X277829Y13826D01*
X276837Y13163D01*
X276837D01*
X276174Y12170D01*
X276147Y12037D01*
X274853D01*
X274826Y12170D01*
X274163Y13163D01*
X274403Y13405D01*
X274403Y13405D01*
X274569Y13655D01*
X274759Y13886D01*
X274789Y13983D01*
X274845Y14067D01*
X274903Y14361D01*
X274990Y14647D01*
X274980Y14748D01*
X275000Y14847D01*
Y21000D01*
X274845Y21780D01*
X274403Y22442D01*
X273741Y22884D01*
X272961Y23039D01*
D02*
G37*
G36*
X385059Y7000D02*
X382000D01*
Y2941D01*
X383171Y3174D01*
X384163Y3837D01*
X384826Y4830D01*
X385059Y6000D01*
Y7000D01*
D02*
G37*
G36*
X375000Y21039D02*
X355000D01*
X354220Y20884D01*
X353558Y20442D01*
X353116Y19780D01*
X352961Y19000D01*
Y-1000D01*
X353116Y-1780D01*
X353558Y-2442D01*
X354220Y-2884D01*
X355000Y-3039D01*
X357968D01*
X358929Y-4000D01*
X357761Y-5168D01*
X357000Y-7005D01*
Y-8995D01*
X357761Y-10832D01*
X359168Y-12239D01*
X361006Y-13000D01*
X362995D01*
X364832Y-12239D01*
X366239Y-10832D01*
X367000Y-8995D01*
Y-7005D01*
X366239Y-5168D01*
X365071Y-4000D01*
X366032Y-3039D01*
X375000D01*
X375780Y-2884D01*
X376442Y-2442D01*
X376884Y-1780D01*
X377039Y-1000D01*
Y2317D01*
X376991Y2558D01*
X376980Y2803D01*
D01*
X377762Y3760D01*
X377900Y3795D01*
X378829Y3174D01*
X380000Y2941D01*
Y8000D01*
Y13059D01*
X378829Y12826D01*
X377900Y12205D01*
D01*
D01*
X377762Y12240D01*
X376980Y13197D01*
X376991Y13442D01*
X377039Y13683D01*
Y19000D01*
X376884Y19780D01*
X376442Y20442D01*
X375780Y20884D01*
X375000Y21039D01*
D02*
G37*
G36*
X192995Y10000D02*
X191005D01*
X189168Y9239D01*
X187761Y7832D01*
X187000Y5995D01*
Y4005D01*
X187761Y2168D01*
X189168Y761D01*
X191005Y0D01*
X192995D01*
X194832Y761D01*
X196239Y2168D01*
X197000Y4005D01*
Y5995D01*
X196239Y7832D01*
X194832Y9239D01*
X192995Y10000D01*
D02*
G37*
G36*
X327995Y0D02*
X326005D01*
X324168Y-761D01*
X322761Y-2168D01*
X322000Y-4005D01*
Y-5995D01*
X322761Y-7832D01*
X324168Y-9239D01*
X326005Y-10000D01*
X327995D01*
X329832Y-9239D01*
X331239Y-7832D01*
X332000Y-5995D01*
Y-4005D01*
X331239Y-2168D01*
X329832Y-761D01*
X327995Y0D01*
D02*
G37*
G36*
X204000Y-15961D02*
X181000D01*
X180220Y-16116D01*
X179558Y-16558D01*
X179116Y-17220D01*
X178961Y-18000D01*
Y-38000D01*
X179116Y-38780D01*
X179558Y-39442D01*
X180220Y-39884D01*
X181000Y-40039D01*
X186317D01*
X186558Y-39991D01*
X186803Y-39980D01*
D01*
D01*
X187760Y-40762D01*
X187795Y-40900D01*
X187174Y-41830D01*
X186941Y-43000D01*
D01*
X192000D01*
X197059D01*
X196826Y-41830D01*
X196205Y-40900D01*
X196240Y-40762D01*
X197197Y-39980D01*
X197442Y-39991D01*
X197683Y-40039D01*
X204000D01*
X204780Y-39884D01*
X205442Y-39442D01*
X205884Y-38780D01*
X206039Y-38000D01*
Y-18000D01*
X205884Y-17220D01*
X205442Y-16558D01*
X204780Y-16116D01*
X204000Y-15961D01*
D02*
G37*
G36*
X197059Y-45000D02*
X193000D01*
Y-48059D01*
X194000D01*
X195170Y-47826D01*
X196163Y-47163D01*
X196826Y-46171D01*
X197059Y-45000D01*
D01*
D02*
G37*
G36*
X191000D02*
X186941D01*
X187174Y-46171D01*
X187837Y-47163D01*
X188829Y-47826D01*
X190000Y-48059D01*
X191000D01*
Y-45000D01*
D02*
G37*
G36*
X376777Y-21500D02*
X373223D01*
X369789Y-22420D01*
X366711Y-24197D01*
X364197Y-26711D01*
X362420Y-29789D01*
X361500Y-33223D01*
Y-36777D01*
X362420Y-40211D01*
X364197Y-43289D01*
X366711Y-45803D01*
X369789Y-47580D01*
X373223Y-48500D01*
X376777D01*
X380211Y-47580D01*
X383289Y-45803D01*
X385803Y-43289D01*
X387580Y-40211D01*
X388500Y-36777D01*
Y-33223D01*
X387580Y-29789D01*
X385803Y-26711D01*
X383289Y-24197D01*
X380211Y-22420D01*
X376777Y-21500D01*
D02*
G37*
%LPD*%
G36*
X183000Y46039D02*
X161000D01*
Y63961D01*
X165153D01*
X165941Y63000D01*
X171000D01*
X176059D01*
X176847Y63961D01*
X183000D01*
Y46039D01*
D02*
G37*
%LPC*%
G36*
X176059Y61000D02*
X172000D01*
Y57941D01*
X173000D01*
X174170Y58174D01*
X175163Y58837D01*
X175826Y59830D01*
X176059Y61000D01*
Y61000D01*
D02*
G37*
G36*
X170000D02*
X165941D01*
Y61000D01*
X166174Y59830D01*
X166837Y58837D01*
X167829Y58174D01*
X169000Y57941D01*
X170000D01*
Y61000D01*
D02*
G37*
%LPD*%
G36*
X337000Y55039D02*
X331825D01*
X331586Y55229D01*
X330912Y56264D01*
X331059Y57000D01*
Y57000D01*
X326000D01*
X320941D01*
Y57000D01*
X321088Y56264D01*
X320414Y55229D01*
X320175Y55039D01*
X316000D01*
Y80000D01*
X337000D01*
Y55039D01*
D02*
G37*
%LPC*%
G36*
X328000Y62059D02*
X327000D01*
Y59000D01*
X331059D01*
X330826Y60170D01*
X330163Y61163D01*
X329170Y61826D01*
X328000Y62059D01*
D02*
G37*
G36*
X325000D02*
X324000D01*
X322830Y61826D01*
X321837Y61163D01*
X321174Y60170D01*
X320941Y59000D01*
X325000D01*
Y62059D01*
D02*
G37*
%LPD*%
G36*
X272961Y14847D02*
X272000Y14059D01*
Y9000D01*
Y3941D01*
X272961Y3153D01*
Y-1000D01*
X255000D01*
Y21000D01*
X272961D01*
Y14847D01*
D02*
G37*
%LPC*%
G36*
X270000Y14059D02*
X270000D01*
X268829Y13826D01*
X267837Y13163D01*
X267174Y12170D01*
X266941Y11000D01*
Y10000D01*
X270000D01*
Y14059D01*
D02*
G37*
G36*
Y8000D02*
X266941D01*
Y7000D01*
X267174Y5829D01*
X267837Y4837D01*
X268829Y4174D01*
X270000Y3941D01*
X270000D01*
Y8000D01*
D02*
G37*
%LPD*%
G36*
X375000Y13683D02*
X373730Y12914D01*
X373000Y13059D01*
Y8000D01*
Y2941D01*
X373730Y3086D01*
X375000Y2317D01*
Y-1000D01*
X355000D01*
Y19000D01*
X375000D01*
Y13683D01*
D02*
G37*
%LPC*%
G36*
X371000Y13059D02*
X369829Y12826D01*
X368837Y12163D01*
X368174Y11171D01*
X367941Y10000D01*
Y9000D01*
X371000D01*
Y13059D01*
D02*
G37*
G36*
Y7000D02*
X367941D01*
Y6000D01*
X368174Y4830D01*
X368837Y3837D01*
X369829Y3174D01*
X371000Y2941D01*
Y7000D01*
D02*
G37*
%LPD*%
G36*
X204000Y-38000D02*
X197683D01*
X196914Y-36730D01*
X197059Y-36000D01*
Y-36000D01*
X192000D01*
X186941D01*
Y-36000D01*
X187086Y-36730D01*
X186317Y-38000D01*
X181000D01*
Y-18000D01*
X204000D01*
Y-38000D01*
D02*
G37*
%LPC*%
G36*
X194000Y-30941D02*
X193000D01*
Y-34000D01*
X197059D01*
X196826Y-32829D01*
X196163Y-31837D01*
X195170Y-31174D01*
X194000Y-30941D01*
D02*
G37*
G36*
X191000D02*
X190000D01*
X188829Y-31174D01*
X187837Y-31837D01*
X187174Y-32829D01*
X186941Y-34000D01*
X191000D01*
Y-30941D01*
D02*
G37*
G36*
X393250Y113000D02*
X382000D01*
Y106500D01*
X393250D01*
Y113000D01*
D02*
G37*
G36*
X362250D02*
X351000D01*
Y106500D01*
X362250D01*
Y113000D01*
D02*
G37*
G36*
X380000D02*
X368750D01*
Y106500D01*
X380000D01*
Y113000D01*
D02*
G37*
G36*
X349000D02*
X337750D01*
Y106500D01*
X349000D01*
Y113000D01*
D02*
G37*
G36*
X393250Y104500D02*
X382000D01*
Y98000D01*
X393250D01*
Y104500D01*
D02*
G37*
G36*
X380000D02*
X368750D01*
Y98000D01*
X380000D01*
Y104500D01*
D02*
G37*
G36*
X362250D02*
X351000D01*
Y98000D01*
X362250D01*
Y104500D01*
D02*
G37*
G36*
X349000D02*
X337750D01*
Y98000D01*
X349000D01*
Y104500D01*
D02*
G37*
G36*
X276000Y101059D02*
X275000D01*
Y98000D01*
X279059D01*
X278826Y99171D01*
X278163Y100163D01*
X277171Y100826D01*
X276000Y101059D01*
D02*
G37*
G36*
X273000D02*
X272000D01*
X270830Y100826D01*
X269837Y100163D01*
X269174Y99171D01*
X268941Y98000D01*
X273000D01*
Y101059D01*
D02*
G37*
G36*
X279059Y87000D02*
X275000D01*
Y83941D01*
X276000D01*
X277171Y84174D01*
X278163Y84837D01*
X278826Y85829D01*
X279059Y87000D01*
D01*
D02*
G37*
G36*
X273000D02*
X268941D01*
X269174Y85829D01*
X269837Y84837D01*
X270830Y84174D01*
X272000Y83941D01*
X273000D01*
Y87000D01*
D02*
G37*
G36*
X238000Y64299D02*
X237995D01*
X237022Y64105D01*
X236196Y63554D01*
X235645Y62729D01*
X235451Y61755D01*
Y56000D01*
X238000D01*
Y64299D01*
D02*
G37*
G36*
X238000Y34000D02*
X234941D01*
Y33000D01*
X235174Y31830D01*
X235837Y30837D01*
X236829Y30174D01*
X238000Y29941D01*
Y34000D01*
D02*
G37*
G36*
X31059Y56000D02*
X27000D01*
Y52941D01*
X28000D01*
X29170Y53174D01*
X30163Y53837D01*
X30826Y54830D01*
X31059Y56000D01*
Y56000D01*
D02*
G37*
G36*
X25000D02*
X20941D01*
Y56000D01*
X21174Y54830D01*
X21837Y53837D01*
X22829Y53174D01*
X24000Y52941D01*
X25000D01*
Y56000D01*
D02*
G37*
G36*
X51500Y33500D02*
X42500D01*
Y29250D01*
X51500D01*
Y33500D01*
D02*
G37*
G36*
X52000Y21059D02*
X50830Y20826D01*
X49837Y20163D01*
X49174Y19171D01*
X48941Y18000D01*
Y17000D01*
X52000D01*
Y21059D01*
D02*
G37*
G36*
Y15000D02*
X48941D01*
Y14000D01*
X49174Y12830D01*
X49837Y11837D01*
X50830Y11174D01*
X52000Y10941D01*
D01*
Y15000D01*
D02*
G37*
%LPD*%
D12*
X12502Y100001D02*
X27498D01*
X20000Y107498D01*
Y97502D01*
D13*
X381000Y8000D02*
D03*
X372000D02*
D03*
X280000Y9000D02*
D03*
X271000D02*
D03*
X62000Y16000D02*
D03*
X53000D02*
D03*
X69000Y72000D02*
D03*
X60000D02*
D03*
X239000Y35000D02*
D03*
X248000D02*
D03*
D16*
X192000Y-35000D02*
D03*
Y-44000D02*
D03*
X326000Y58000D02*
D03*
Y49000D02*
D03*
X274000Y97000D02*
D03*
Y88000D02*
D03*
X171000Y71000D02*
D03*
Y62000D02*
D03*
X26000Y66000D02*
D03*
Y57000D02*
D03*
D24*
X342250Y137750D02*
D03*
X329750D02*
D03*
X317250D02*
D03*
X304750D02*
D03*
X292250D02*
D03*
X279750D02*
D03*
X267250D02*
D03*
D27*
X249000Y46807D02*
Y55000D01*
Y42194D02*
X249020Y42214D01*
X249000Y40059D02*
Y42194D01*
X249020Y42214D02*
Y46786D01*
X243500Y44500D02*
X244000Y45000D01*
X249000Y46807D02*
X249020Y46786D01*
X248000Y35000D02*
Y39059D01*
X249000Y40059D01*
X244000Y45000D02*
Y55000D01*
X263000Y41000D02*
X288000Y66000D01*
Y121000D01*
X304750Y137750D01*
X291943D02*
X292250D01*
X264480Y110287D02*
X291943Y137750D01*
X264480Y110230D02*
Y110287D01*
X259000Y104750D02*
X264480Y110230D01*
X259000Y99000D02*
Y104750D01*
X77500Y53500D02*
Y63500D01*
X69000Y72000D02*
X77500Y63500D01*
X52500Y64500D02*
X60000Y72000D01*
X52500Y53500D02*
Y64500D01*
X231000Y116000D02*
X239000Y108000D01*
Y99000D02*
Y108000D01*
X342250Y136434D02*
Y139750D01*
X263000Y149000D02*
X333000D01*
X342250Y139750D01*
X244000Y130000D02*
X263000Y149000D01*
X244000Y99000D02*
Y130000D01*
X239000Y55000D02*
X239000Y55000D01*
X239000Y55000D02*
Y71000D01*
X249000Y81000D01*
Y99000D01*
X256000Y41000D02*
X263000D01*
X254000Y43000D02*
X256000Y41000D01*
X254000Y43000D02*
Y55000D01*
Y112000D02*
X279750Y137750D01*
X254000Y99000D02*
Y112000D01*
Y79615D02*
Y99000D01*
Y79615D02*
X259000Y74615D01*
Y55000D02*
Y74615D01*
D28*
X65000Y27000D02*
Y42000D01*
X67000Y44000D01*
X77500D01*
X41500Y34500D02*
X52500D01*
Y26500D02*
Y34500D01*
D29*
X117300Y88000D02*
D03*
X130000Y100700D02*
D03*
X142700Y88000D02*
D03*
D30*
X375000Y-35000D02*
D03*
X195000Y135000D02*
D03*
X55000D02*
D03*
D31*
X330000Y98000D02*
D03*
X243500Y44500D02*
D03*
X326000Y71000D02*
D03*
X258000Y28000D02*
D03*
X290000Y5000D02*
D03*
Y13000D02*
D03*
X322000Y38000D02*
D03*
X270000Y108000D02*
D03*
X167000Y80000D02*
D03*
X176000Y52000D02*
D03*
Y80000D02*
D03*
X95000Y30000D02*
D03*
X333000Y67000D02*
D03*
X366500Y48500D02*
D03*
Y37500D02*
D03*
X355500Y48500D02*
D03*
Y37500D02*
D03*
X75000Y19000D02*
D03*
Y11000D02*
D03*
X36000Y74000D02*
D03*
X16000D02*
D03*
X19000Y45000D02*
D03*
X33000D02*
D03*
X43000Y12000D02*
D03*
Y20000D02*
D03*
X167000Y52000D02*
D03*
X231000Y116000D02*
D03*
X327000Y-5000D02*
D03*
X362000Y-8000D02*
D03*
Y0D02*
D03*
X390000Y-8000D02*
D03*
Y0D02*
D03*
X341000Y-33000D02*
D03*
X262000Y9000D02*
D03*
Y16000D02*
D03*
X198000Y-54000D02*
D03*
X187000D02*
D03*
X198000Y-25000D02*
D03*
X187000D02*
D03*
X331000Y38000D02*
D03*
X333000Y76000D02*
D03*
X278000Y108000D02*
D03*
X265000Y90000D02*
D03*
Y82000D02*
D03*
X258000Y35000D02*
D03*
X229000Y30000D02*
D03*
Y38000D02*
D03*
X192000Y5000D02*
D03*
D32*
X40000Y44000D02*
X52500D01*
D33*
X381000Y72500D02*
D03*
Y105500D02*
D03*
X350000Y72500D02*
D03*
Y105500D02*
D03*
D34*
X77500Y34500D02*
D03*
Y44000D02*
D03*
Y53500D02*
D03*
X52500D02*
D03*
Y44000D02*
D03*
Y34500D02*
D03*
D35*
X259000Y55000D02*
D03*
X254000D02*
D03*
X249000D02*
D03*
X244000D02*
D03*
X239000D02*
D03*
Y99000D02*
D03*
X244000D02*
D03*
X249000D02*
D03*
X254000D02*
D03*
X259000D02*
D03*
D36*
X329750Y127250D02*
Y137750D01*
D37*
X90500Y34500D02*
X95000Y30000D01*
X77500Y34500D02*
X90500D01*
M02*
