G04*
G04 #@! TF.GenerationSoftware,Altium Limited,Altium Designer,23.3.1 (30)*
G04*
G04 Layer_Color=8421504*
%FSLAX44Y44*%
%MOMM*%
G71*
G04*
G04 #@! TF.SameCoordinates,958C5144-9DDC-4948-B6D7-F64729F80DFD*
G04*
G04*
G04 #@! TF.FilePolarity,Positive*
G04*
G01*
G75*
G04:AMPARAMS|DCode=14|XSize=0.4mm|YSize=0.6mm|CornerRadius=0.1mm|HoleSize=0mm|Usage=FLASHONLY|Rotation=0.000|XOffset=0mm|YOffset=0mm|HoleType=Round|Shape=RoundedRectangle|*
%AMROUNDEDRECTD14*
21,1,0.4000,0.4000,0,0,0.0*
21,1,0.2000,0.6000,0,0,0.0*
1,1,0.2000,0.1000,-0.2000*
1,1,0.2000,-0.1000,-0.2000*
1,1,0.2000,-0.1000,0.2000*
1,1,0.2000,0.1000,0.2000*
%
%ADD14ROUNDEDRECTD14*%
G04:AMPARAMS|DCode=15|XSize=0.4mm|YSize=0.6mm|CornerRadius=0.1mm|HoleSize=0mm|Usage=FLASHONLY|Rotation=90.000|XOffset=0mm|YOffset=0mm|HoleType=Round|Shape=RoundedRectangle|*
%AMROUNDEDRECTD15*
21,1,0.4000,0.4000,0,0,90.0*
21,1,0.2000,0.6000,0,0,90.0*
1,1,0.2000,0.2000,0.1000*
1,1,0.2000,0.2000,-0.1000*
1,1,0.2000,-0.2000,-0.1000*
1,1,0.2000,-0.2000,0.1000*
%
%ADD15ROUNDEDRECTD15*%
%ADD16R,1.6000X0.6500*%
%ADD17O,0.9000X0.2000*%
%ADD18R,1.4500X1.7400*%
%ADD19R,0.9000X0.6000*%
D14*
X234750Y21500D02*
D03*
X225750D02*
D03*
Y128250D02*
D03*
X216750D02*
D03*
X216500Y115000D02*
D03*
X207500D02*
D03*
X329000Y-2000D02*
D03*
X338000D02*
D03*
X329000Y14000D02*
D03*
X338000D02*
D03*
X329000Y31000D02*
D03*
X338000D02*
D03*
X263000Y-30000D02*
D03*
X254000D02*
D03*
X263000Y-14000D02*
D03*
X254000D02*
D03*
X263000Y2000D02*
D03*
X254000D02*
D03*
X216000Y9750D02*
D03*
X207000D02*
D03*
X315500Y122750D02*
D03*
X306500D02*
D03*
X216500Y100000D02*
D03*
X207500D02*
D03*
D15*
X288750Y-750D02*
D03*
Y-9750D02*
D03*
X233000Y-47000D02*
D03*
Y-38000D02*
D03*
X217000Y-47000D02*
D03*
Y-38000D02*
D03*
X201000Y-47000D02*
D03*
Y-38000D02*
D03*
X277760Y112488D02*
D03*
Y103488D02*
D03*
X262442Y112565D02*
D03*
Y103565D02*
D03*
X247584Y112488D02*
D03*
Y103488D02*
D03*
X190000Y101000D02*
D03*
Y110000D02*
D03*
X176250D02*
D03*
Y101000D02*
D03*
X350000Y41000D02*
D03*
Y50000D02*
D03*
X335000Y41000D02*
D03*
Y50000D02*
D03*
X320000Y41000D02*
D03*
Y50000D02*
D03*
X335000Y111500D02*
D03*
Y102500D02*
D03*
X320000Y111500D02*
D03*
Y102500D02*
D03*
X307500Y91500D02*
D03*
Y82500D02*
D03*
X295000Y90000D02*
D03*
Y99000D02*
D03*
X292500Y77500D02*
D03*
Y68500D02*
D03*
X305000Y61000D02*
D03*
Y70000D02*
D03*
X220250Y80000D02*
D03*
Y89000D02*
D03*
X207500Y69000D02*
D03*
Y60000D02*
D03*
X232500Y89000D02*
D03*
Y80000D02*
D03*
X247500Y43500D02*
D03*
Y52500D02*
D03*
X262500Y43500D02*
D03*
Y52500D02*
D03*
X277500Y43500D02*
D03*
Y52500D02*
D03*
X192500Y46000D02*
D03*
Y55000D02*
D03*
X362500Y77500D02*
D03*
Y68500D02*
D03*
X350000Y111500D02*
D03*
Y102500D02*
D03*
X177500Y46000D02*
D03*
Y55000D02*
D03*
X162500Y46000D02*
D03*
Y55000D02*
D03*
X232500Y60000D02*
D03*
Y69000D02*
D03*
X377500Y68500D02*
D03*
Y77500D02*
D03*
D16*
X207750Y-21500D02*
D03*
Y-12000D02*
D03*
Y-2500D02*
D03*
X232750D02*
D03*
Y-12000D02*
D03*
Y-21500D02*
D03*
D17*
X320000Y85000D02*
D03*
Y80000D02*
D03*
Y75000D02*
D03*
Y70000D02*
D03*
X350000D02*
D03*
Y75000D02*
D03*
Y80000D02*
D03*
Y85000D02*
D03*
X245000Y85000D02*
D03*
Y80000D02*
D03*
Y75000D02*
D03*
Y70000D02*
D03*
X275000D02*
D03*
Y75000D02*
D03*
Y80000D02*
D03*
Y85000D02*
D03*
D18*
X335000Y77500D02*
D03*
X260000Y77500D02*
D03*
D19*
X192000Y70500D02*
D03*
Y80000D02*
D03*
Y89500D02*
D03*
X168000D02*
D03*
Y70500D02*
D03*
M02*
