G04*
G04 #@! TF.GenerationSoftware,Altium Limited,Altium Designer,23.3.1 (30)*
G04*
G04 Layer_Physical_Order=1*
G04 Layer_Color=255*
%FSLAX44Y44*%
%MOMM*%
G71*
G04*
G04 #@! TF.SameCoordinates,0A325C66-3388-4B77-B3D2-BE92810A0E17*
G04*
G04*
G04 #@! TF.FilePolarity,Positive*
G04*
G01*
G75*
%ADD12C,0.2000*%
G04:AMPARAMS|DCode=13|XSize=0.4mm|YSize=0.6mm|CornerRadius=0.1mm|HoleSize=0mm|Usage=FLASHONLY|Rotation=0.000|XOffset=0mm|YOffset=0mm|HoleType=Round|Shape=RoundedRectangle|*
%AMROUNDEDRECTD13*
21,1,0.4000,0.4000,0,0,0.0*
21,1,0.2000,0.6000,0,0,0.0*
1,1,0.2000,0.1000,-0.2000*
1,1,0.2000,-0.1000,-0.2000*
1,1,0.2000,-0.1000,0.2000*
1,1,0.2000,0.1000,0.2000*
%
%ADD13ROUNDEDRECTD13*%
%ADD14O,0.7000X2.5000*%
%ADD15R,2.2900X1.8000*%
G04:AMPARAMS|DCode=16|XSize=0.4mm|YSize=0.6mm|CornerRadius=0.1mm|HoleSize=0mm|Usage=FLASHONLY|Rotation=270.000|XOffset=0mm|YOffset=0mm|HoleType=Round|Shape=RoundedRectangle|*
%AMROUNDEDRECTD16*
21,1,0.4000,0.4000,0,0,270.0*
21,1,0.2000,0.6000,0,0,270.0*
1,1,0.2000,-0.2000,-0.1000*
1,1,0.2000,-0.2000,0.1000*
1,1,0.2000,0.2000,0.1000*
1,1,0.2000,0.2000,-0.1000*
%
%ADD16ROUNDEDRECTD16*%
%ADD17O,2.5000X0.7000*%
%ADD24C,1.0668*%
%ADD27C,0.2540*%
%ADD28C,0.5000*%
%ADD29C,1.5000*%
%ADD30C,2.2000*%
%ADD31C,0.6000*%
G36*
X397451Y-57451D02*
X167549D01*
X167549Y-5000D01*
X167527Y-4893D01*
X167540Y-4785D01*
X167467Y-3925D01*
X167377Y-3615D01*
X167332Y-3296D01*
X166763Y-1672D01*
X166545Y-1303D01*
X166348Y-924D01*
X165273Y420D01*
X164945Y696D01*
X164634Y989D01*
X163175Y1901D01*
X162873Y2016D01*
X162591Y2171D01*
X161767Y2431D01*
X161381Y2473D01*
X161000Y2549D01*
X2549Y2549D01*
Y92500D01*
X42000D01*
Y127977D01*
X43270Y128317D01*
X44197Y126711D01*
X46711Y124197D01*
X49789Y122420D01*
X53223Y121500D01*
X56777D01*
X60211Y122420D01*
X63289Y124197D01*
X65803Y126711D01*
X67580Y129789D01*
X68500Y133223D01*
Y136777D01*
X67580Y140211D01*
X65803Y143289D01*
X63289Y145803D01*
X60211Y147580D01*
X56777Y148500D01*
X53223D01*
X49789Y147580D01*
X46711Y145803D01*
X44197Y143289D01*
X43270Y141683D01*
X42000Y142023D01*
Y157451D01*
X397451D01*
Y-57451D01*
D02*
G37*
%LPC*%
G36*
X343215Y145084D02*
X341284D01*
X339419Y144584D01*
X337747Y143619D01*
X336828Y142699D01*
X336000Y142394D01*
X335173Y142699D01*
X334253Y143619D01*
X332581Y144584D01*
X330715Y145084D01*
X328784D01*
X326919Y144584D01*
X325247Y143619D01*
X324328Y142699D01*
X323500Y142394D01*
X322673Y142699D01*
X321753Y143619D01*
X320081Y144584D01*
X318216Y145084D01*
X316285D01*
X314419Y144584D01*
X312747Y143619D01*
X311828Y142699D01*
X311000Y142394D01*
X310173Y142699D01*
X309253Y143619D01*
X307581Y144584D01*
X305716Y145084D01*
X303785D01*
X301919Y144584D01*
X300247Y143619D01*
X299328Y142699D01*
X298500Y142394D01*
X297673Y142699D01*
X296753Y143619D01*
X295081Y144584D01*
X293216Y145084D01*
X291285D01*
X289419Y144584D01*
X287747Y143619D01*
X286828Y142699D01*
X286000Y142394D01*
X285173Y142699D01*
X284253Y143619D01*
X282581Y144584D01*
X280716Y145084D01*
X278785D01*
X276919Y144584D01*
X275247Y143619D01*
X274328Y142699D01*
X273500Y142394D01*
X272673Y142699D01*
X271753Y143619D01*
X270081Y144584D01*
X268216Y145084D01*
X268000D01*
Y137750D01*
Y130416D01*
X268216D01*
X270081Y130916D01*
X271753Y131881D01*
X272673Y132801D01*
X273500Y133106D01*
X274328Y132801D01*
X275247Y131881D01*
X276919Y130916D01*
X278785Y130416D01*
X280716D01*
X282581Y130916D01*
X284253Y131881D01*
X285173Y132801D01*
X286000Y133106D01*
X286828Y132801D01*
X287747Y131881D01*
X289419Y130916D01*
X291285Y130416D01*
X293216D01*
X295081Y130916D01*
X296753Y131881D01*
X297673Y132801D01*
X298500Y133106D01*
X299328Y132801D01*
X300247Y131881D01*
X301919Y130916D01*
X303785Y130416D01*
X305716D01*
X307581Y130916D01*
X309253Y131881D01*
X310173Y132801D01*
X311000Y133106D01*
X311828Y132801D01*
X312747Y131881D01*
X314419Y130916D01*
X316285Y130416D01*
X318216D01*
X320081Y130916D01*
X321753Y131881D01*
X322673Y132801D01*
X323500Y133106D01*
X324328Y132801D01*
X325247Y131881D01*
X326919Y130916D01*
X328784Y130416D01*
X330715D01*
X332581Y130916D01*
X334253Y131881D01*
X335173Y132801D01*
X336000Y133106D01*
X336828Y132801D01*
X337747Y131881D01*
X339419Y130916D01*
X341284Y130416D01*
X343215D01*
X345081Y130916D01*
X346753Y131881D01*
X348119Y133247D01*
X349084Y134919D01*
X349584Y136784D01*
Y138715D01*
X349084Y140581D01*
X348119Y142253D01*
X346753Y143619D01*
X345081Y144584D01*
X343215Y145084D01*
D02*
G37*
G36*
X266500D02*
X266285D01*
X264419Y144584D01*
X262747Y143619D01*
X261381Y142253D01*
X260416Y140581D01*
X259916Y138715D01*
Y138500D01*
X266500D01*
Y145084D01*
D02*
G37*
G36*
Y137000D02*
X259916D01*
Y136784D01*
X260416Y134919D01*
X261381Y133247D01*
X262747Y131881D01*
X264419Y130916D01*
X266285Y130416D01*
X266500D01*
Y137000D01*
D02*
G37*
G36*
X196777Y148500D02*
X193223D01*
X189789Y147580D01*
X186711Y145803D01*
X184197Y143289D01*
X182420Y140211D01*
X181500Y136777D01*
Y133223D01*
X182420Y129789D01*
X184197Y126711D01*
X186711Y124197D01*
X189789Y122420D01*
X193223Y121500D01*
X196777D01*
X200211Y122420D01*
X203289Y124197D01*
X205803Y126711D01*
X207580Y129789D01*
X208500Y133223D01*
Y136777D01*
X207580Y140211D01*
X205803Y143289D01*
X203289Y145803D01*
X200211Y147580D01*
X196777Y148500D01*
D02*
G37*
G36*
X231995Y121000D02*
X230005D01*
X228168Y120239D01*
X226761Y118832D01*
X226000Y116995D01*
Y115005D01*
X226761Y113168D01*
X228168Y111761D01*
X230005Y111000D01*
X231995D01*
X233832Y111761D01*
X235239Y113168D01*
X236000Y115005D01*
Y116995D01*
X235239Y118832D01*
X233832Y120239D01*
X231995Y121000D01*
D02*
G37*
G36*
X131251Y110200D02*
X128749D01*
X126333Y109553D01*
X124167Y108302D01*
X123813Y107948D01*
X130000Y101761D01*
X136187Y107948D01*
X135833Y108302D01*
X133667Y109553D01*
X131251Y110200D01*
D02*
G37*
G36*
X206500Y104658D02*
X188500D01*
X186354Y104231D01*
X184535Y103015D01*
X183319Y101196D01*
X182892Y99050D01*
X183319Y96904D01*
X184535Y95085D01*
X186354Y93869D01*
X188500Y93442D01*
X206500D01*
X208646Y93869D01*
X210465Y95085D01*
X211681Y96904D01*
X212108Y99050D01*
X211681Y101196D01*
X210465Y103015D01*
X208646Y104231D01*
X206500Y104658D01*
D02*
G37*
G36*
X375000Y123039D02*
X349000D01*
X348220Y122884D01*
X347558Y122442D01*
X347116Y121780D01*
X346961Y121000D01*
Y103222D01*
X346163D01*
X344992Y102989D01*
X344000Y102326D01*
X343337Y101333D01*
X343104Y100163D01*
Y99163D01*
X347163D01*
Y97163D01*
X343104D01*
Y96163D01*
X343337Y94992D01*
X344000Y94000D01*
X344992Y93337D01*
X346163Y93104D01*
X346961D01*
Y90134D01*
X345691Y89227D01*
X345150Y89334D01*
X321000D01*
X319724Y89080D01*
X318643Y88357D01*
X307619Y77334D01*
X284039D01*
Y94000D01*
X283884Y94780D01*
X283442Y95442D01*
X282780Y95884D01*
X282000Y96039D01*
X279059D01*
Y98000D01*
X278826Y99171D01*
X278163Y100163D01*
X277171Y100826D01*
X276000Y101059D01*
X275000D01*
Y97000D01*
X273000D01*
Y101059D01*
X272000D01*
X270830Y100826D01*
X269837Y100163D01*
X269174Y99171D01*
X268941Y98000D01*
Y96039D01*
X261514D01*
X260762Y97309D01*
X261108Y99050D01*
X260681Y101196D01*
X259465Y103015D01*
X257646Y104231D01*
X255500Y104658D01*
X237500D01*
X235354Y104231D01*
X233535Y103015D01*
X232319Y101196D01*
X231892Y99050D01*
X232319Y96904D01*
X233535Y95085D01*
X235354Y93869D01*
X237500Y93442D01*
X238961D01*
Y91958D01*
X237500D01*
X235354Y91531D01*
X233535Y90315D01*
X232319Y88496D01*
X231892Y86350D01*
X232319Y84204D01*
X233535Y82385D01*
X235354Y81169D01*
X237500Y80742D01*
X238961D01*
Y79258D01*
X237500D01*
X235354Y78831D01*
X233535Y77615D01*
X232319Y75796D01*
X231892Y73650D01*
X232305Y71574D01*
X232311Y71352D01*
X231661Y70304D01*
X227261D01*
X211960Y85605D01*
X212108Y86350D01*
X211681Y88496D01*
X210465Y90315D01*
X208646Y91531D01*
X206500Y91958D01*
X188500D01*
X186354Y91531D01*
X184535Y90315D01*
X184113Y89684D01*
X152084D01*
X151553Y91667D01*
X150302Y93833D01*
X148533Y95602D01*
X146367Y96853D01*
X143951Y97500D01*
X141449D01*
X140203Y97166D01*
X139166Y98203D01*
X139500Y99449D01*
Y101951D01*
X138853Y104367D01*
X137602Y106533D01*
X137248Y106887D01*
X130530Y100170D01*
X130000Y100700D01*
X129470Y100170D01*
X122752Y106887D01*
X122398Y106533D01*
X121147Y104367D01*
X120500Y101951D01*
Y99449D01*
X120834Y98203D01*
X119797Y97166D01*
X118551Y97500D01*
X116049D01*
X113633Y96853D01*
X111467Y95602D01*
X111113Y95248D01*
X117830Y88530D01*
X124548Y81813D01*
X124902Y82167D01*
X126153Y84333D01*
X126800Y86749D01*
Y89251D01*
X126466Y90497D01*
X127503Y91534D01*
X128749Y91200D01*
X131251D01*
X132497Y91534D01*
X133534Y90497D01*
X133200Y89251D01*
Y86749D01*
X133847Y84333D01*
X135098Y82167D01*
X136867Y80398D01*
X139033Y79147D01*
X141449Y78500D01*
X143951D01*
X146367Y79147D01*
X148533Y80398D01*
X150302Y82167D01*
X150792Y83016D01*
X184113D01*
X184535Y82385D01*
X186354Y81169D01*
X188500Y80742D01*
X206500D01*
X206674Y80777D01*
X206906Y80472D01*
X206711Y79888D01*
X206232Y79258D01*
X198500D01*
Y73650D01*
X197500D01*
Y72650D01*
X183091D01*
X183319Y71504D01*
X184118Y70309D01*
X183439Y69039D01*
X176847D01*
X176059Y70000D01*
X171000D01*
X165941D01*
X165153Y69039D01*
X163000D01*
X162220Y68884D01*
X161558Y68442D01*
X161116Y67780D01*
X160961Y67000D01*
Y48000D01*
X161116Y47220D01*
X161558Y46558D01*
X162220Y46116D01*
X163000Y45961D01*
X218857D01*
X219961Y45000D01*
Y25000D01*
X220116Y24220D01*
X220558Y23558D01*
X221220Y23116D01*
X222000Y22961D01*
X244000D01*
X244780Y23116D01*
X245442Y23558D01*
X245884Y24220D01*
X246039Y25000D01*
Y29153D01*
X247000Y29941D01*
Y35000D01*
X248000D01*
Y36000D01*
X252059D01*
Y37000D01*
X251826Y38170D01*
X251163Y39163D01*
X250170Y39826D01*
X249000Y40059D01*
X247926D01*
X247400Y41329D01*
X247739Y41668D01*
X248500Y43506D01*
Y44666D01*
X272619D01*
X300643Y16643D01*
X322000Y-4715D01*
Y-5995D01*
X322761Y-7832D01*
X324168Y-9239D01*
X326005Y-10000D01*
X327995D01*
X329832Y-9239D01*
X330737Y-8334D01*
X332283D01*
X332837Y-9163D01*
X333730Y-9759D01*
X333850Y-9923D01*
X334109Y-11176D01*
X332119Y-13166D01*
X308717D01*
X308163Y-12337D01*
X307171Y-11674D01*
X306000Y-11441D01*
X304000D01*
X302829Y-11674D01*
X301837Y-12337D01*
X301174Y-13329D01*
X301147Y-13463D01*
X299853D01*
X299826Y-13329D01*
X299163Y-12337D01*
X298171Y-11674D01*
X297000Y-11441D01*
X295000D01*
X293829Y-11674D01*
X292837Y-12337D01*
X292183Y-13316D01*
X280887D01*
X280465Y-12685D01*
X278646Y-11469D01*
X276500Y-11042D01*
X258500D01*
X256354Y-11469D01*
X254535Y-12685D01*
X253319Y-14504D01*
X252892Y-16650D01*
X253239Y-18396D01*
X252489Y-19666D01*
X235381D01*
X232985Y-17270D01*
X233108Y-16650D01*
X232681Y-14504D01*
X231465Y-12685D01*
X229646Y-11469D01*
X227500Y-11042D01*
X209500D01*
X207354Y-11469D01*
X205535Y-12685D01*
X205113Y-13316D01*
X196483D01*
X196163Y-12837D01*
X195170Y-12174D01*
X195037Y-12147D01*
Y-10853D01*
X195170Y-10826D01*
X196163Y-10163D01*
X196826Y-9171D01*
X197059Y-8000D01*
Y-6000D01*
X196826Y-4830D01*
X196163Y-3837D01*
X195334Y-3283D01*
Y1263D01*
X196239Y2168D01*
X197000Y4005D01*
Y5995D01*
X196239Y7832D01*
X194832Y9239D01*
X192995Y10000D01*
X191005D01*
X189168Y9239D01*
X187761Y7832D01*
X187000Y5995D01*
Y4005D01*
X187761Y2168D01*
X188666Y1263D01*
Y-3283D01*
X187837Y-3837D01*
X187174Y-4830D01*
X186941Y-6000D01*
Y-8000D01*
X187174Y-9171D01*
X187837Y-10163D01*
X188829Y-10826D01*
X188963Y-10853D01*
Y-12147D01*
X188829Y-12174D01*
X187837Y-12837D01*
X187174Y-13829D01*
X186941Y-15000D01*
Y-15961D01*
X183000D01*
X182220Y-16116D01*
X181558Y-16558D01*
X181116Y-17220D01*
X180961Y-18000D01*
Y-40000D01*
X181116Y-40780D01*
X181558Y-41442D01*
X182220Y-41884D01*
X183000Y-42039D01*
X186153D01*
X186941Y-43000D01*
Y-43000D01*
X192000D01*
X197059D01*
Y-43000D01*
X197847Y-42039D01*
X202000D01*
X202667Y-41906D01*
X202857Y-41929D01*
X204001Y-42596D01*
X204319Y-44196D01*
X205535Y-46015D01*
X207354Y-47231D01*
X209500Y-47658D01*
X227500D01*
X229646Y-47231D01*
X231465Y-46015D01*
X232681Y-44196D01*
X233108Y-42050D01*
X232681Y-39904D01*
X231465Y-38085D01*
X229646Y-36869D01*
X227500Y-36442D01*
X209500D01*
X207354Y-36869D01*
X205535Y-38085D01*
X205309Y-38422D01*
X204039Y-38037D01*
Y-33938D01*
X206467D01*
X207354Y-34531D01*
X209500Y-34958D01*
X227500D01*
X229646Y-34531D01*
X231465Y-33315D01*
X232681Y-31496D01*
X233108Y-29350D01*
X232715Y-27373D01*
X233108Y-26744D01*
X233570Y-26249D01*
X234000Y-26334D01*
X252489D01*
X253239Y-27604D01*
X252892Y-29350D01*
X253319Y-31496D01*
X254535Y-33315D01*
X256354Y-34531D01*
X258500Y-34958D01*
X276500D01*
X278646Y-34531D01*
X279347Y-34062D01*
X289642Y-44358D01*
X290724Y-45080D01*
X292000Y-45334D01*
X293093D01*
X293829Y-45826D01*
X295000Y-46059D01*
X299000D01*
X300170Y-45826D01*
X300907Y-45334D01*
X309093D01*
X309830Y-45826D01*
X311000Y-46059D01*
X315000D01*
X316171Y-45826D01*
X316907Y-45334D01*
X325093D01*
X325830Y-45826D01*
X327000Y-46059D01*
X331000D01*
X332170Y-45826D01*
X333163Y-45163D01*
X333826Y-44170D01*
X334059Y-43000D01*
Y-41000D01*
X333826Y-39829D01*
X333163Y-38837D01*
X332170Y-38174D01*
X332037Y-38147D01*
Y-36853D01*
X332170Y-36826D01*
X333163Y-36163D01*
X333826Y-35171D01*
X334059Y-34000D01*
D01*
X329000D01*
X323941D01*
X324174Y-35171D01*
X324837Y-36163D01*
X325568Y-36651D01*
X325662Y-37713D01*
X325595Y-38074D01*
X324908Y-38666D01*
X316907D01*
X316171Y-38174D01*
X316037Y-38147D01*
Y-36853D01*
X316171Y-36826D01*
X317163Y-36163D01*
X317826Y-35171D01*
X318059Y-34000D01*
Y-32000D01*
X317826Y-30830D01*
X317163Y-29837D01*
X316171Y-29174D01*
X315000Y-28941D01*
X311000D01*
X309830Y-29174D01*
X309093Y-29666D01*
X300907D01*
X300170Y-29174D01*
X299000Y-28941D01*
X297656D01*
X289969Y-21254D01*
X290495Y-19984D01*
X292383D01*
X292837Y-20663D01*
X293829Y-21326D01*
X295000Y-21559D01*
X297000D01*
X298171Y-21326D01*
X299163Y-20663D01*
X299826Y-19670D01*
X299853Y-19537D01*
X301147D01*
X301174Y-19670D01*
X301837Y-20663D01*
X302829Y-21326D01*
X304000Y-21559D01*
X306000D01*
X307171Y-21326D01*
X308163Y-20663D01*
X308717Y-19834D01*
X333500D01*
X334776Y-19580D01*
X335858Y-18858D01*
X344656Y-10059D01*
X346000D01*
X347170Y-9826D01*
X348163Y-9163D01*
X348826Y-8170D01*
X349059Y-7000D01*
Y-5656D01*
X351787Y-2928D01*
X352961Y-3414D01*
Y-13000D01*
X353116Y-13780D01*
X353558Y-14442D01*
X354220Y-14884D01*
X355000Y-15039D01*
X377000D01*
X377780Y-14884D01*
X378442Y-14442D01*
X378884Y-13780D01*
X379039Y-13000D01*
Y-10847D01*
X380000Y-10059D01*
Y-5000D01*
Y59D01*
X379039Y847D01*
Y3092D01*
X380021Y3898D01*
X380050Y3892D01*
X382196Y4319D01*
X384015Y5535D01*
X385231Y7354D01*
X385658Y9500D01*
Y27500D01*
X385231Y29646D01*
X384015Y31465D01*
X382196Y32681D01*
X380050Y33108D01*
X377904Y32681D01*
X376085Y31465D01*
X374869Y29646D01*
X374442Y27500D01*
Y13039D01*
X372958D01*
Y27500D01*
X372531Y29646D01*
X371807Y30730D01*
X372485Y32000D01*
X374450D01*
Y54000D01*
X372485D01*
X371807Y55270D01*
X372531Y56354D01*
X372958Y58500D01*
Y76500D01*
X372531Y78646D01*
X371938Y79533D01*
Y82961D01*
X375000D01*
X375446Y83049D01*
X376424Y82496D01*
X376716Y82214D01*
Y80887D01*
X376085Y80465D01*
X374869Y78646D01*
X374442Y76500D01*
Y58500D01*
X374869Y56354D01*
X376085Y54535D01*
X377904Y53319D01*
X380050Y52892D01*
X382196Y53319D01*
X384015Y54535D01*
X385231Y56354D01*
X385658Y58500D01*
Y76500D01*
X385231Y78646D01*
X384015Y80465D01*
X383384Y80887D01*
Y90168D01*
X383826Y90829D01*
X384059Y92000D01*
Y96000D01*
X383826Y97170D01*
X383334Y97907D01*
Y106093D01*
X383826Y106830D01*
X384059Y108000D01*
Y112000D01*
X383826Y113170D01*
X383163Y114163D01*
X382170Y114826D01*
X381000Y115059D01*
X379000D01*
X378264Y114912D01*
X377229Y115586D01*
X377039Y115825D01*
Y121000D01*
X376884Y121780D01*
X376442Y122442D01*
X375780Y122884D01*
X375000Y123039D01*
D02*
G37*
G36*
X110052Y94187D02*
X109698Y93833D01*
X108447Y91667D01*
X107800Y89251D01*
Y86749D01*
X108447Y84333D01*
X109698Y82167D01*
X110052Y81813D01*
X116239Y88000D01*
X110052Y94187D01*
D02*
G37*
G36*
X117300Y86939D02*
X111113Y80752D01*
X111467Y80398D01*
X113633Y79147D01*
X116049Y78500D01*
X118551D01*
X120967Y79147D01*
X123133Y80398D01*
X123487Y80752D01*
X117300Y86939D01*
D02*
G37*
G36*
X196500Y79258D02*
X188500D01*
X186354Y78831D01*
X184535Y77615D01*
X183319Y75796D01*
X183091Y74650D01*
X196500D01*
Y79258D01*
D02*
G37*
G36*
X173000Y75059D02*
X172000D01*
Y72000D01*
X176059D01*
Y72000D01*
X175826Y73170D01*
X175163Y74163D01*
X174170Y74826D01*
X173000Y75059D01*
D02*
G37*
G36*
X170000D02*
X169000D01*
X167829Y74826D01*
X166837Y74163D01*
X166174Y73170D01*
X165941Y72000D01*
Y72000D01*
X170000D01*
Y75059D01*
D02*
G37*
G36*
X33995Y50000D02*
X32005D01*
X30168Y49239D01*
X28761Y47832D01*
X28000Y45995D01*
Y44005D01*
X28761Y42168D01*
X30168Y40761D01*
X32005Y40000D01*
X33995D01*
X35832Y40761D01*
X37239Y42168D01*
X38000Y44005D01*
Y45995D01*
X37239Y47832D01*
X35832Y49239D01*
X33995Y50000D01*
D02*
G37*
G36*
X19994D02*
X18005D01*
X16168Y49239D01*
X14761Y47832D01*
X14000Y45995D01*
Y44005D01*
X14761Y42168D01*
X16168Y40761D01*
X18005Y40000D01*
X19994D01*
X21832Y40761D01*
X23239Y42168D01*
X24000Y44005D01*
Y45995D01*
X23239Y47832D01*
X21832Y49239D01*
X19994Y50000D01*
D02*
G37*
G36*
X252059Y34000D02*
X249000D01*
Y29941D01*
X250170Y30174D01*
X251163Y30837D01*
X251826Y31830D01*
X252059Y33000D01*
Y34000D01*
D02*
G37*
G36*
X95995Y35000D02*
X94005D01*
X92168Y34239D01*
X90761Y32832D01*
X90000Y30995D01*
Y29005D01*
X90761Y27168D01*
X92168Y25761D01*
X94005Y25000D01*
X95995D01*
X97832Y25761D01*
X99239Y27168D01*
X100000Y29005D01*
Y30995D01*
X99239Y32832D01*
X97832Y34239D01*
X95995Y35000D01*
D02*
G37*
G36*
X281000Y14059D02*
D01*
Y10000D01*
X284059D01*
Y11000D01*
X283826Y12170D01*
X283163Y13163D01*
X282171Y13826D01*
X281000Y14059D01*
D02*
G37*
G36*
X43995Y25000D02*
X42005D01*
X40168Y24239D01*
X38761Y22832D01*
X38000Y20995D01*
Y19005D01*
X38761Y17168D01*
X39929Y16000D01*
X38761Y14832D01*
X38000Y12995D01*
Y11005D01*
X38761Y9168D01*
X40168Y7761D01*
X42005Y7000D01*
X43995D01*
X45832Y7761D01*
X47239Y9168D01*
X48000Y11005D01*
Y12995D01*
X47239Y14832D01*
X46071Y16000D01*
X47239Y17168D01*
X48000Y19005D01*
Y20995D01*
X47239Y22832D01*
X45832Y24239D01*
X43995Y25000D01*
D02*
G37*
G36*
X382000Y59D02*
Y-4000D01*
X385059D01*
Y-3000D01*
X384826Y-1830D01*
X384163Y-837D01*
X383171Y-174D01*
X382000Y59D01*
D02*
G37*
G36*
X251000Y24039D02*
X250220Y23884D01*
X249558Y23442D01*
X249116Y22780D01*
X248961Y22000D01*
Y-7000D01*
X249116Y-7780D01*
X249558Y-8442D01*
X250220Y-8884D01*
X251000Y-9039D01*
X252512D01*
X252773Y-8987D01*
X253039Y-8970D01*
X253160Y-8910D01*
X253292Y-8884D01*
X253514Y-8736D01*
X253752Y-8619D01*
X253934Y-8455D01*
X253954Y-8442D01*
X255166Y-8404D01*
X255451Y-8528D01*
X256354Y-9131D01*
X258500Y-9558D01*
X276500D01*
X278646Y-9131D01*
X279549Y-8528D01*
X279834Y-8404D01*
X281046Y-8442D01*
X281066Y-8455D01*
X281248Y-8619D01*
X281486Y-8736D01*
X281708Y-8884D01*
X281840Y-8910D01*
X281961Y-8970D01*
X282227Y-8987D01*
X282488Y-9039D01*
X284000D01*
X284780Y-8884D01*
X285442Y-8442D01*
X285884Y-7780D01*
X286039Y-7000D01*
Y-1000D01*
Y4000D01*
X285884Y4780D01*
X285442Y5442D01*
X284780Y5884D01*
X284059Y7000D01*
Y8000D01*
X280000D01*
Y9000D01*
X279000D01*
Y14059D01*
X278264Y13912D01*
X277229Y14586D01*
X277039Y14825D01*
Y22000D01*
X276884Y22780D01*
X276442Y23442D01*
X275780Y23884D01*
X275000Y24039D01*
X251000Y24039D01*
D02*
G37*
G36*
X227500Y1658D02*
X209500D01*
X207354Y1231D01*
X205535Y15D01*
X204319Y-1804D01*
X203892Y-3950D01*
X204319Y-6096D01*
X205535Y-7915D01*
X207354Y-9131D01*
X209500Y-9558D01*
X227500D01*
X229646Y-9131D01*
X231465Y-7915D01*
X232681Y-6096D01*
X233108Y-3950D01*
X232681Y-1804D01*
X231465Y15D01*
X229646Y1231D01*
X227500Y1658D01*
D02*
G37*
G36*
X385059Y-6000D02*
X382000D01*
Y-10059D01*
X383171Y-9826D01*
X384163Y-9163D01*
X384826Y-8170D01*
X385059Y-7000D01*
Y-6000D01*
D02*
G37*
G36*
X331000Y-28941D02*
X330000D01*
Y-32000D01*
X334059D01*
X333826Y-30830D01*
X333163Y-29837D01*
X332170Y-29174D01*
X331000Y-28941D01*
D02*
G37*
G36*
X328000D02*
X327000D01*
X325830Y-29174D01*
X324837Y-29837D01*
X324174Y-30830D01*
X323941Y-32000D01*
D01*
X328000D01*
Y-28941D01*
D02*
G37*
G36*
X276500Y-36442D02*
X258500D01*
X256354Y-36869D01*
X254535Y-38085D01*
X253319Y-39904D01*
X252892Y-42050D01*
X253319Y-44196D01*
X254535Y-46015D01*
X256354Y-47231D01*
X258500Y-47658D01*
X276500D01*
X278646Y-47231D01*
X280465Y-46015D01*
X281681Y-44196D01*
X282108Y-42050D01*
X281681Y-39904D01*
X280465Y-38085D01*
X278646Y-36869D01*
X276500Y-36442D01*
D02*
G37*
G36*
X197059Y-45000D02*
X193000D01*
Y-48059D01*
X194000D01*
X195170Y-47826D01*
X196163Y-47163D01*
X196826Y-46171D01*
X197059Y-45000D01*
D02*
G37*
G36*
X191000D02*
X186941D01*
X187174Y-46171D01*
X187837Y-47163D01*
X188829Y-47826D01*
X190000Y-48059D01*
X191000D01*
Y-45000D01*
D02*
G37*
G36*
X376777Y-21500D02*
X373223D01*
X369789Y-22420D01*
X366711Y-24197D01*
X364197Y-26711D01*
X362420Y-29789D01*
X361500Y-33223D01*
Y-36777D01*
X362420Y-40211D01*
X364197Y-43289D01*
X366711Y-45803D01*
X369789Y-47580D01*
X373223Y-48500D01*
X376777D01*
X380211Y-47580D01*
X383289Y-45803D01*
X385803Y-43289D01*
X387580Y-40211D01*
X388500Y-36777D01*
Y-33223D01*
X387580Y-29789D01*
X385803Y-26711D01*
X383289Y-24197D01*
X380211Y-22420D01*
X376777Y-21500D01*
D02*
G37*
%LPD*%
G36*
X375000Y115022D02*
X373730Y114452D01*
X373171Y114826D01*
X372000Y115059D01*
Y110000D01*
Y104941D01*
X373171Y105174D01*
X373730Y105548D01*
X375000Y104978D01*
Y99022D01*
X373730Y98452D01*
X373171Y98826D01*
X372000Y99059D01*
Y94000D01*
Y88941D01*
X373171Y89174D01*
X373730Y89548D01*
X375000Y88978D01*
Y85000D01*
X350865D01*
X349000Y86865D01*
Y93271D01*
X349333Y93337D01*
X350326Y94000D01*
X350989Y94992D01*
X351016Y95126D01*
X352310D01*
X352337Y94992D01*
X353000Y94000D01*
X353992Y93337D01*
X355163Y93104D01*
Y98163D01*
Y103222D01*
X353992Y102989D01*
X353000Y102326D01*
X352337Y101333D01*
X352310Y101200D01*
X351016D01*
X350989Y101333D01*
X350326Y102326D01*
X349333Y102989D01*
X349000Y103055D01*
Y121000D01*
X375000D01*
Y115022D01*
D02*
G37*
G36*
X282000Y77334D02*
X278907D01*
X278171Y77826D01*
X277000Y78059D01*
X273000D01*
X271829Y77826D01*
X271093Y77334D01*
X268907D01*
X268171Y77826D01*
X267000Y78059D01*
X263000D01*
X261829Y77826D01*
X260837Y77163D01*
X259669Y77311D01*
X259465Y77615D01*
X257646Y78831D01*
X255500Y79258D01*
X241000D01*
Y80742D01*
X245500D01*
Y86350D01*
Y91958D01*
X241000D01*
Y93442D01*
X255500D01*
X257646Y93869D01*
X257842Y94000D01*
X269728D01*
X269837Y93837D01*
X270830Y93174D01*
X270963Y93147D01*
Y91853D01*
X270830Y91826D01*
X269837Y91163D01*
X269174Y90170D01*
X268941Y89000D01*
Y89000D01*
X274000D01*
X279059D01*
Y89000D01*
X278826Y90170D01*
X278163Y91163D01*
X277171Y91826D01*
X277037Y91853D01*
Y93147D01*
X277171Y93174D01*
X278163Y93837D01*
X278272Y94000D01*
X282000D01*
Y77334D01*
D02*
G37*
G36*
X222000Y66135D02*
Y48000D01*
X163000D01*
Y67000D01*
X166745D01*
X166938Y66758D01*
X166837Y65163D01*
X166174Y64170D01*
X165941Y63000D01*
X171000D01*
X176059D01*
X175826Y64170D01*
X175163Y65163D01*
X175062Y66758D01*
X175255Y67000D01*
X185369D01*
X185754Y65730D01*
X184535Y64915D01*
X183319Y63096D01*
X183091Y61950D01*
X197500D01*
X211909D01*
X211681Y63096D01*
X210465Y64915D01*
X209246Y65730D01*
X209631Y67000D01*
X221135D01*
X222000Y66135D01*
D02*
G37*
G36*
X315961Y74586D02*
Y54000D01*
X316116Y53220D01*
X316558Y52558D01*
X317220Y52116D01*
X318000Y51961D01*
X320175D01*
X320414Y51771D01*
X321088Y50736D01*
X320941Y50000D01*
X326000D01*
X331059D01*
X330912Y50736D01*
X331586Y51771D01*
X331825Y51961D01*
X347550D01*
Y32000D01*
X349515D01*
X350193Y30730D01*
X349469Y29646D01*
X349042Y27500D01*
Y9500D01*
X349469Y7354D01*
X350685Y5535D01*
X350697Y5412D01*
X345344Y59D01*
X344000D01*
X342830Y-174D01*
X341837Y-837D01*
X341174Y-1830D01*
X341147Y-1963D01*
X339853D01*
X339826Y-1830D01*
X339163Y-837D01*
X338171Y-174D01*
X337000Y59D01*
X335000D01*
X333829Y-174D01*
X332837Y-837D01*
X332283Y-1666D01*
X330737D01*
X329832Y-761D01*
X327995Y0D01*
X326715D01*
X305357Y21358D01*
X276357Y50357D01*
X275276Y51080D01*
X274000Y51334D01*
X247000D01*
X245724Y51080D01*
X244643Y50358D01*
X243785Y49500D01*
X242505D01*
X240668Y48739D01*
X239261Y47332D01*
X239091Y46922D01*
X238500Y47039D01*
X225143D01*
X224039Y48000D01*
Y62856D01*
X225309Y63749D01*
X225880Y63636D01*
X231269D01*
X232174Y62366D01*
X231892Y60950D01*
X232319Y58804D01*
X233535Y56985D01*
X235354Y55769D01*
X237500Y55342D01*
X255500D01*
X257646Y55769D01*
X259465Y56985D01*
X260681Y58804D01*
X260964Y60225D01*
X261141Y60420D01*
X262245Y61066D01*
X262329Y61075D01*
X263000Y60941D01*
X267000D01*
X268171Y61174D01*
X268907Y61666D01*
X271093D01*
X271829Y61174D01*
X273000Y60941D01*
X277000D01*
X278171Y61174D01*
X279163Y61837D01*
X279826Y62829D01*
X280059Y64000D01*
Y66000D01*
X279826Y67171D01*
X279163Y68163D01*
X278432Y68651D01*
X278337Y69713D01*
X278405Y70074D01*
X279092Y70666D01*
X309000D01*
X310276Y70920D01*
X311357Y71642D01*
X314788Y75072D01*
X315961Y74586D01*
D02*
G37*
G36*
X349000Y77435D02*
Y54000D01*
X331022D01*
X330452Y55270D01*
X330826Y55830D01*
X331059Y57000D01*
Y57000D01*
X326000D01*
X320941D01*
Y57000D01*
X321174Y55830D01*
X321548Y55270D01*
X320978Y54000D01*
X318000D01*
Y78285D01*
X322381Y82666D01*
X343769D01*
X349000Y77435D01*
D02*
G37*
G36*
X238500Y43506D02*
X239261Y41668D01*
X239600Y41329D01*
X239074Y40059D01*
X238000D01*
X236829Y39826D01*
X235837Y39163D01*
X235174Y38170D01*
X234941Y37000D01*
Y36000D01*
X239000D01*
Y35000D01*
X240000D01*
Y29941D01*
X241171Y30174D01*
X242163Y30837D01*
X243758Y30938D01*
X244000Y30745D01*
Y25000D01*
X222000D01*
Y45000D01*
X238500D01*
Y43506D01*
D02*
G37*
G36*
X374442Y9500D02*
X374869Y7354D01*
X376085Y5535D01*
X377000Y4923D01*
Y-745D01*
X376758Y-938D01*
X375163Y-837D01*
X374170Y-174D01*
X373000Y59D01*
Y-5000D01*
Y-10059D01*
X374170Y-9826D01*
X375163Y-9163D01*
X376758Y-9062D01*
X377000Y-9255D01*
Y-13000D01*
X355000D01*
Y285D01*
X356524Y1809D01*
X356524Y1809D01*
X357007Y2292D01*
X357730Y3374D01*
X357984Y4650D01*
Y5113D01*
X358615Y5535D01*
X359831Y7354D01*
X360258Y9500D01*
Y11000D01*
X374442D01*
Y9500D01*
D02*
G37*
G36*
X187174Y-18171D02*
X187837Y-19163D01*
X188829Y-19826D01*
X190000Y-20059D01*
X194000D01*
X194376Y-19984D01*
X202000D01*
Y-40000D01*
X196255D01*
X196062Y-39758D01*
X196163Y-38163D01*
X196826Y-37171D01*
X197059Y-36000D01*
X192000D01*
X186941D01*
X187174Y-37171D01*
X187837Y-38163D01*
X187938Y-39758D01*
X187745Y-40000D01*
X183000D01*
Y-18000D01*
X187140D01*
X187174Y-18171D01*
D02*
G37*
%LPC*%
G36*
X370000Y115059D02*
X368829Y114826D01*
X367837Y114163D01*
X367174Y113170D01*
X366941Y112000D01*
Y111000D01*
X370000D01*
Y115059D01*
D02*
G37*
G36*
Y109000D02*
X366941D01*
Y108000D01*
X367174Y106830D01*
X367837Y105837D01*
X368829Y105174D01*
X370000Y104941D01*
Y109000D01*
D02*
G37*
G36*
X357163Y103222D02*
Y99163D01*
X360222D01*
Y100163D01*
X359989Y101333D01*
X359326Y102326D01*
X358333Y102989D01*
X357163Y103222D01*
D02*
G37*
G36*
X370000Y99059D02*
X368829Y98826D01*
X367837Y98163D01*
X367174Y97170D01*
X366941Y96000D01*
Y95000D01*
X370000D01*
Y99059D01*
D02*
G37*
G36*
X360222Y97163D02*
X357163D01*
Y93104D01*
X358333Y93337D01*
X359326Y94000D01*
X359989Y94992D01*
X360222Y96163D01*
Y97163D01*
D02*
G37*
G36*
X370000Y93000D02*
X366941D01*
Y92000D01*
X367174Y90829D01*
X367837Y89837D01*
X368829Y89174D01*
X370000Y88941D01*
Y93000D01*
D02*
G37*
G36*
X255500Y91958D02*
X247500D01*
Y87350D01*
X260909D01*
X260681Y88496D01*
X259465Y90315D01*
X257646Y91531D01*
X255500Y91958D01*
D02*
G37*
G36*
X279059Y87000D02*
X275000D01*
Y83941D01*
X276000D01*
X277171Y84174D01*
X278163Y84837D01*
X278826Y85829D01*
X279059Y87000D01*
D02*
G37*
G36*
X273000D02*
X268941D01*
X269174Y85829D01*
X269837Y84837D01*
X270830Y84174D01*
X272000Y83941D01*
X273000D01*
Y87000D01*
D02*
G37*
G36*
X260909Y85350D02*
X247500D01*
Y80742D01*
X255500D01*
X257646Y81169D01*
X259465Y82385D01*
X260681Y84204D01*
X260909Y85350D01*
D02*
G37*
G36*
X176059Y61000D02*
X172000D01*
Y57941D01*
X173000D01*
X174170Y58174D01*
X175163Y58837D01*
X175826Y59830D01*
X176059Y61000D01*
Y61000D01*
D02*
G37*
G36*
X170000D02*
X165941D01*
Y61000D01*
X166174Y59830D01*
X166837Y58837D01*
X167829Y58174D01*
X169000Y57941D01*
X170000D01*
Y61000D01*
D02*
G37*
G36*
X211909Y59950D02*
X198500D01*
Y55342D01*
X206500D01*
X208646Y55769D01*
X210465Y56985D01*
X211681Y58804D01*
X211909Y59950D01*
D02*
G37*
G36*
X196500D02*
X183091D01*
X183319Y58804D01*
X184535Y56985D01*
X186354Y55769D01*
X188500Y55342D01*
X196500D01*
Y59950D01*
D02*
G37*
G36*
X331059Y48000D02*
X327000D01*
Y44941D01*
X328000D01*
X329170Y45174D01*
X330163Y45837D01*
X330826Y46830D01*
X331059Y48000D01*
Y48000D01*
D02*
G37*
G36*
X325000D02*
X320941D01*
Y48000D01*
X321174Y46830D01*
X321837Y45837D01*
X322830Y45174D01*
X324000Y44941D01*
X325000D01*
Y48000D01*
D02*
G37*
G36*
X341950Y33108D02*
X339804Y32681D01*
X337985Y31465D01*
X336769Y29646D01*
X336342Y27500D01*
Y9500D01*
X336769Y7354D01*
X337985Y5535D01*
X339804Y4319D01*
X341950Y3892D01*
X344096Y4319D01*
X345915Y5535D01*
X347131Y7354D01*
X347558Y9500D01*
Y27500D01*
X347131Y29646D01*
X345915Y31465D01*
X344096Y32681D01*
X341950Y33108D01*
D02*
G37*
G36*
X328000Y62059D02*
X327000D01*
Y59000D01*
X331059D01*
X330826Y60170D01*
X330163Y61163D01*
X329170Y61826D01*
X328000Y62059D01*
D02*
G37*
G36*
X325000D02*
X324000D01*
X322830Y61826D01*
X321837Y61163D01*
X321174Y60170D01*
X320941Y59000D01*
X325000D01*
Y62059D01*
D02*
G37*
G36*
X238000Y34000D02*
X234941D01*
Y33000D01*
X235174Y31830D01*
X235837Y30837D01*
X236829Y30174D01*
X238000Y29941D01*
Y34000D01*
D02*
G37*
G36*
X371000Y59D02*
X369829Y-174D01*
X368837Y-837D01*
X368174Y-1830D01*
X367941Y-3000D01*
Y-4000D01*
X371000D01*
Y59D01*
D02*
G37*
G36*
Y-6000D02*
X367941D01*
Y-7000D01*
X368174Y-8170D01*
X368837Y-9163D01*
X369829Y-9826D01*
X371000Y-10059D01*
Y-6000D01*
D02*
G37*
G36*
X194000Y-30941D02*
X193000D01*
Y-34000D01*
X197059D01*
Y-34000D01*
X196826Y-32829D01*
X196163Y-31837D01*
X195170Y-31174D01*
X194000Y-30941D01*
D02*
G37*
G36*
X191000D02*
X190000D01*
X188829Y-31174D01*
X187837Y-31837D01*
X187174Y-32829D01*
X186941Y-34000D01*
Y-34000D01*
X191000D01*
Y-30941D01*
D02*
G37*
%LPD*%
G36*
X275000Y22000D02*
Y14022D01*
X273730Y13452D01*
X273171Y13826D01*
X272000Y14059D01*
Y9000D01*
Y3941D01*
X273171Y4174D01*
X273730Y4548D01*
X275000Y4000D01*
Y4000D01*
X278705D01*
X279000Y3941D01*
X281000D01*
X281295Y4000D01*
X284000D01*
Y-7000D01*
X282488D01*
X281754Y-5730D01*
X281909Y-4950D01*
X267500D01*
X253091D01*
X253246Y-5730D01*
X252512Y-7000D01*
X251000D01*
Y22000D01*
X275000Y22000D01*
D02*
G37*
%LPC*%
G36*
X270000Y14059D02*
X270000D01*
X268829Y13826D01*
X267837Y13163D01*
X267174Y12170D01*
X266941Y11000D01*
Y10000D01*
X270000D01*
Y14059D01*
D02*
G37*
G36*
Y8000D02*
X266941D01*
Y7000D01*
X267174Y5829D01*
X267837Y4837D01*
X268829Y4174D01*
X270000Y3941D01*
X270000D01*
Y8000D01*
D02*
G37*
G36*
X276500Y1658D02*
X268500D01*
Y-2950D01*
X281909D01*
X281681Y-1804D01*
X280465Y15D01*
X278646Y1231D01*
X276500Y1658D01*
D02*
G37*
G36*
X266500D02*
X258500D01*
X256354Y1231D01*
X254535Y15D01*
X253319Y-1804D01*
X253091Y-2950D01*
X266500D01*
Y1658D01*
D02*
G37*
%LPD*%
D12*
X12502Y149999D02*
Y145001D01*
Y147500D01*
X27498D01*
X24998Y149999D01*
D13*
X239000Y35000D02*
D03*
X248000D02*
D03*
X380000Y110000D02*
D03*
X371000D02*
D03*
Y94000D02*
D03*
X380000D02*
D03*
X347163Y98163D02*
D03*
X356163D02*
D03*
X280000Y9000D02*
D03*
X271000D02*
D03*
X345000Y-5000D02*
D03*
X336000D02*
D03*
X381000D02*
D03*
X372000D02*
D03*
X305000Y-16500D02*
D03*
X296000D02*
D03*
D14*
X380050Y67500D02*
D03*
X367350D02*
D03*
X354650D02*
D03*
X341950D02*
D03*
X380050Y18500D02*
D03*
X367350D02*
D03*
X354650D02*
D03*
X341950D02*
D03*
D15*
X361000Y43000D02*
D03*
D16*
X274000Y97000D02*
D03*
Y88000D02*
D03*
X326000Y58000D02*
D03*
Y49000D02*
D03*
X329000Y-33000D02*
D03*
Y-42000D02*
D03*
X313000Y-33000D02*
D03*
Y-42000D02*
D03*
X192000Y-16000D02*
D03*
Y-7000D02*
D03*
Y-44000D02*
D03*
Y-35000D02*
D03*
X171000Y71000D02*
D03*
Y62000D02*
D03*
X275000Y65000D02*
D03*
Y74000D02*
D03*
X265000D02*
D03*
Y65000D02*
D03*
X297000Y-42000D02*
D03*
Y-33000D02*
D03*
D17*
X218500Y-3950D02*
D03*
Y-16650D02*
D03*
Y-29350D02*
D03*
Y-42050D02*
D03*
X267500Y-3950D02*
D03*
Y-16650D02*
D03*
Y-29350D02*
D03*
Y-42050D02*
D03*
X246500Y60950D02*
D03*
Y73650D02*
D03*
Y86350D02*
D03*
Y99050D02*
D03*
X197500Y60950D02*
D03*
Y73650D02*
D03*
Y86350D02*
D03*
Y99050D02*
D03*
D24*
X342250Y137750D02*
D03*
X329750D02*
D03*
X317250D02*
D03*
X304750D02*
D03*
X292250D02*
D03*
X279750D02*
D03*
X267250D02*
D03*
D27*
X330000Y98000D02*
X330163Y98163D01*
X347163D01*
X321000Y86000D02*
X345150D01*
X354650Y76500D01*
X243500Y44500D02*
X247000Y48000D01*
X274000D01*
X303000Y19000D01*
X327000Y-5000D01*
X380000Y94000D02*
Y110000D01*
X380050Y67500D02*
Y91950D01*
X294000Y74000D02*
X309000D01*
X321000Y86000D01*
X354650Y67500D02*
Y76500D01*
X275000Y74000D02*
X294000D01*
X354650Y4650D02*
Y18500D01*
X354167Y4167D02*
X354650Y4650D01*
X354167Y4167D02*
Y4167D01*
X345000Y-5000D02*
X354167Y4167D01*
X265000Y74000D02*
X275000D01*
X144350Y86350D02*
X206500D01*
X264270Y65730D02*
X265000Y65000D01*
X259234Y65730D02*
X264270D01*
X257994Y66970D02*
X259234Y65730D01*
X225880Y66970D02*
X257994D01*
X206500Y86350D02*
X225880Y66970D01*
X265000Y65000D02*
X275000D01*
X264825Y73825D02*
X265000Y74000D01*
X246675Y73825D02*
X264825D01*
X246500Y73650D02*
X246675Y73825D01*
X142700Y88000D02*
X144350Y86350D01*
X327000Y-5000D02*
X336000D01*
X297000Y-33000D02*
X313000D01*
Y-42000D02*
X329000D01*
X329000Y-42000D01*
X297000Y-42000D02*
X313000D01*
X341000Y-33000D02*
X341000Y-33000D01*
X329000Y-33000D02*
X341000D01*
X267500Y-29350D02*
X279350D01*
X292000Y-42000D01*
X297000D01*
X218500Y-16650D02*
X227650D01*
X234000Y-23000D02*
X287000D01*
X227650Y-16650D02*
X234000Y-23000D01*
X287000D02*
X297000Y-33000D01*
X267500Y-16650D02*
X295850D01*
X192000Y-7000D02*
Y5000D01*
X333500Y-16500D02*
X345000Y-5000D01*
X305000Y-16500D02*
X333500D01*
X192000Y-16000D02*
X192650Y-16650D01*
X218500D01*
X295850D02*
X296000Y-16500D01*
D28*
X367350Y67500D02*
Y85350D01*
X200350Y-29350D02*
X218500D01*
D29*
X117300Y88000D02*
D03*
X130000Y100700D02*
D03*
X142700Y88000D02*
D03*
D30*
X375000Y-35000D02*
D03*
X195000Y135000D02*
D03*
X55000D02*
D03*
D31*
X330000Y98000D02*
D03*
X243500Y44500D02*
D03*
X326000Y71000D02*
D03*
X258000Y28000D02*
D03*
X290000Y5000D02*
D03*
Y13000D02*
D03*
X322000Y38000D02*
D03*
X270000Y108000D02*
D03*
X167000Y80000D02*
D03*
X176000Y52000D02*
D03*
Y80000D02*
D03*
X95000Y30000D02*
D03*
X333000Y67000D02*
D03*
X366500Y48500D02*
D03*
Y37500D02*
D03*
X355500Y48500D02*
D03*
Y37500D02*
D03*
X75000Y19000D02*
D03*
Y11000D02*
D03*
X36000Y74000D02*
D03*
X16000D02*
D03*
X19000Y45000D02*
D03*
X33000D02*
D03*
X43000Y12000D02*
D03*
Y20000D02*
D03*
X167000Y52000D02*
D03*
X231000Y116000D02*
D03*
X327000Y-5000D02*
D03*
X362000Y-8000D02*
D03*
Y0D02*
D03*
X390000Y-8000D02*
D03*
Y0D02*
D03*
X341000Y-33000D02*
D03*
X262000Y9000D02*
D03*
Y16000D02*
D03*
X198000Y-54000D02*
D03*
X187000D02*
D03*
X198000Y-25000D02*
D03*
X187000D02*
D03*
X331000Y38000D02*
D03*
X333000Y76000D02*
D03*
X278000Y108000D02*
D03*
X265000Y90000D02*
D03*
Y82000D02*
D03*
X258000Y35000D02*
D03*
X229000Y30000D02*
D03*
Y38000D02*
D03*
X192000Y5000D02*
D03*
M02*
