G04*
G04 #@! TF.GenerationSoftware,Altium Limited,Altium Designer,23.3.1 (30)*
G04*
G04 Layer_Physical_Order=2*
G04 Layer_Color=36540*
%FSLAX44Y44*%
%MOMM*%
G71*
G04*
G04 #@! TF.SameCoordinates,958C5144-9DDC-4948-B6D7-F64729F80DFD*
G04*
G04*
G04 #@! TF.FilePolarity,Positive*
G04*
G01*
G75*
%ADD11C,0.2500*%
%ADD13C,0.2000*%
%ADD26C,1.1000*%
%ADD29C,0.5000*%
%ADD30C,0.2540*%
%ADD31C,1.5000*%
%ADD32C,2.2000*%
%ADD33C,0.6000*%
G36*
X397451Y122007D02*
X396889Y121673D01*
X396181Y121534D01*
X368358Y149358D01*
X367276Y150080D01*
X366000Y150334D01*
X301000D01*
X299724Y150080D01*
X298643Y149358D01*
X294261Y144976D01*
X293237Y145250D01*
X291263D01*
X289355Y144739D01*
X287645Y143751D01*
X286863Y142970D01*
X286000Y142493D01*
X285137Y142970D01*
X284355Y143751D01*
X282645Y144739D01*
X280737Y145250D01*
X278763D01*
X276855Y144739D01*
X275145Y143751D01*
X274363Y142970D01*
X273500Y142493D01*
X272637Y142970D01*
X271855Y143751D01*
X270145Y144739D01*
X268237Y145250D01*
X268000D01*
Y137750D01*
Y130250D01*
X268237D01*
X270145Y130761D01*
X271855Y131749D01*
X272637Y132530D01*
X273500Y133007D01*
X274363Y132530D01*
X275145Y131749D01*
X276855Y130761D01*
X278763Y130250D01*
X280737D01*
X280972Y130313D01*
X294643Y116642D01*
X295724Y115920D01*
X297000Y115666D01*
X364619D01*
X378666Y101619D01*
Y60886D01*
X363535Y45755D01*
X362255D01*
X362029Y45662D01*
X361309Y46738D01*
X361739Y47168D01*
X362500Y49005D01*
Y50995D01*
X361739Y52832D01*
X360332Y54239D01*
X358495Y55000D01*
X356505D01*
X354668Y54239D01*
X353261Y52832D01*
X352500Y50995D01*
Y49005D01*
X353261Y47168D01*
X354668Y45761D01*
X356505Y45000D01*
X358495D01*
X358721Y45094D01*
X359441Y44017D01*
X359011Y43588D01*
X358250Y41750D01*
Y40470D01*
X355114Y37334D01*
X327437D01*
X324414Y40357D01*
X323332Y41080D01*
X322057Y41334D01*
X311000D01*
X309724Y41080D01*
X308643Y40357D01*
X304369Y36084D01*
X291987D01*
X290832Y37239D01*
X288995Y38000D01*
X287005D01*
X285168Y37239D01*
X283761Y35832D01*
X283000Y33995D01*
Y32005D01*
X283761Y30168D01*
X285168Y28761D01*
X287005Y28000D01*
X288995D01*
X290832Y28761D01*
X291487Y29416D01*
X305750D01*
X307026Y29670D01*
X308107Y30392D01*
X312381Y34666D01*
X316185D01*
X316831Y33396D01*
X316250Y31995D01*
Y30005D01*
X317011Y28168D01*
X318418Y26761D01*
X320255Y26000D01*
X322245D01*
X322981Y26305D01*
X324183D01*
X324709Y25035D01*
X324261Y24588D01*
X323500Y22750D01*
Y20761D01*
X324261Y18923D01*
X325668Y17517D01*
X327505Y16755D01*
X329495D01*
X331332Y17517D01*
X332739Y18923D01*
X333500Y20761D01*
Y22750D01*
X332739Y24588D01*
X332291Y25035D01*
X332817Y26305D01*
X350980D01*
X356642Y20642D01*
X357724Y19920D01*
X359000Y19666D01*
X368000D01*
X369276Y19920D01*
X370358Y20642D01*
X396181Y46466D01*
X396889Y46327D01*
X397451Y45993D01*
Y-57451D01*
X167549D01*
X167549Y-5000D01*
X167527Y-4893D01*
X167540Y-4785D01*
X167467Y-3925D01*
X167377Y-3615D01*
X167332Y-3296D01*
X166763Y-1672D01*
X166545Y-1303D01*
X166348Y-924D01*
X165273Y420D01*
X164945Y696D01*
X164634Y989D01*
X163175Y1901D01*
X162873Y2016D01*
X162591Y2171D01*
X161767Y2431D01*
X161381Y2473D01*
X161000Y2549D01*
X2549Y2549D01*
Y92500D01*
X42000D01*
Y127977D01*
X43270Y128317D01*
X44197Y126711D01*
X46711Y124197D01*
X49789Y122420D01*
X53223Y121500D01*
X56777D01*
X60211Y122420D01*
X63289Y124197D01*
X65803Y126711D01*
X67580Y129789D01*
X68500Y133223D01*
Y136777D01*
X67580Y140211D01*
X65803Y143289D01*
X63289Y145803D01*
X60211Y147580D01*
X56777Y148500D01*
X53223D01*
X49789Y147580D01*
X46711Y145803D01*
X44197Y143289D01*
X43270Y141683D01*
X42000Y142023D01*
Y157451D01*
X397451D01*
Y122007D01*
D02*
G37*
G36*
X390295Y117990D02*
X390198Y117284D01*
X388854Y116832D01*
X374343Y131343D01*
X373268Y132061D01*
X372000Y132314D01*
X349096D01*
X348505Y133584D01*
X349239Y134855D01*
X349750Y136763D01*
Y138737D01*
X349239Y140645D01*
X348251Y142355D01*
X348114Y142493D01*
X348600Y143666D01*
X364619D01*
X390295Y117990D01*
D02*
G37*
G36*
X299363Y132530D02*
X300145Y131749D01*
X301855Y130761D01*
X303763Y130250D01*
X305737D01*
X307178Y130636D01*
X311157Y126657D01*
X312232Y125939D01*
X313500Y125686D01*
X370628D01*
X384686Y111627D01*
Y106825D01*
X383416Y106299D01*
X368358Y121357D01*
X367276Y122080D01*
X366000Y122334D01*
X298381D01*
X291735Y128980D01*
X292261Y130250D01*
X293237D01*
X295145Y130761D01*
X296855Y131749D01*
X297637Y132530D01*
X298500Y133007D01*
X299363Y132530D01*
D02*
G37*
%LPC*%
G36*
X266500Y145250D02*
X266263D01*
X264355Y144739D01*
X262645Y143751D01*
X261248Y142355D01*
X260261Y140645D01*
X259750Y138737D01*
Y138500D01*
X266500D01*
Y145250D01*
D02*
G37*
G36*
Y137000D02*
X259750D01*
Y136763D01*
X260261Y134855D01*
X261248Y133145D01*
X262645Y131749D01*
X264355Y130761D01*
X266263Y130250D01*
X266500D01*
Y137000D01*
D02*
G37*
G36*
X196777Y148500D02*
X193223D01*
X189789Y147580D01*
X186711Y145803D01*
X184197Y143289D01*
X182420Y140211D01*
X181500Y136777D01*
Y133223D01*
X182420Y129789D01*
X184197Y126711D01*
X186711Y124197D01*
X187995Y123456D01*
X187902Y122043D01*
X187168Y121739D01*
X185761Y120332D01*
X185000Y118495D01*
Y116505D01*
X185761Y114668D01*
X187168Y113261D01*
X189005Y112500D01*
X190995D01*
X192832Y113261D01*
X194239Y114668D01*
X195000Y116505D01*
Y118495D01*
X194281Y120230D01*
X194468Y120758D01*
X194867Y121500D01*
X196777D01*
X200211Y122420D01*
X202280Y123615D01*
X203500Y122853D01*
Y121505D01*
X204261Y119668D01*
X205668Y118261D01*
X207505Y117500D01*
X209495D01*
X211332Y118261D01*
X212739Y119668D01*
X213500Y121505D01*
Y123495D01*
X212739Y125332D01*
X211332Y126739D01*
X209495Y127500D01*
X207725D01*
X206830Y128490D01*
X207580Y129789D01*
X208500Y133223D01*
Y136777D01*
X207580Y140211D01*
X205803Y143289D01*
X203289Y145803D01*
X200211Y147580D01*
X196777Y148500D01*
D02*
G37*
G36*
X178495Y125000D02*
X176505D01*
X174668Y124239D01*
X173261Y122832D01*
X172500Y120995D01*
Y119005D01*
X173261Y117168D01*
X174668Y115761D01*
X176505Y115000D01*
X178495D01*
X180332Y115761D01*
X181739Y117168D01*
X182500Y119005D01*
Y120995D01*
X181739Y122832D01*
X180332Y124239D01*
X178495Y125000D01*
D02*
G37*
G36*
X208495Y112500D02*
X206505D01*
X204668Y111739D01*
X203261Y110332D01*
X202500Y108495D01*
Y106505D01*
X203261Y104668D01*
X204668Y103261D01*
X206505Y102500D01*
X208495D01*
X210332Y103261D01*
X211739Y104668D01*
X212500Y106505D01*
Y108495D01*
X211739Y110332D01*
X210332Y111739D01*
X208495Y112500D01*
D02*
G37*
G36*
X131251Y110200D02*
X128749D01*
X126333Y109553D01*
X124167Y108302D01*
X123813Y107948D01*
X130000Y101761D01*
X136187Y107948D01*
X135833Y108302D01*
X133667Y109553D01*
X131251Y110200D01*
D02*
G37*
G36*
X358495Y107500D02*
X356505D01*
X354668Y106739D01*
X353261Y105332D01*
X352500Y103495D01*
Y101505D01*
X353261Y99668D01*
X354668Y98261D01*
X356505Y97500D01*
X358495D01*
X360332Y98261D01*
X361739Y99668D01*
X362500Y101505D01*
Y103495D01*
X361739Y105332D01*
X360332Y106739D01*
X358495Y107500D01*
D02*
G37*
G36*
X343495D02*
X341506D01*
X339668Y106739D01*
X338261Y105332D01*
X337500Y103495D01*
Y101505D01*
X338261Y99668D01*
X339668Y98261D01*
X341506Y97500D01*
X343495D01*
X345332Y98261D01*
X346739Y99668D01*
X347500Y101505D01*
Y103495D01*
X346739Y105332D01*
X345332Y106739D01*
X343495Y107500D01*
D02*
G37*
G36*
X328495D02*
X326505D01*
X324668Y106739D01*
X323261Y105332D01*
X322500Y103495D01*
Y101505D01*
X323261Y99668D01*
X324668Y98261D01*
X326505Y97500D01*
X328495D01*
X330332Y98261D01*
X331739Y99668D01*
X332500Y101505D01*
Y103495D01*
X331739Y105332D01*
X330332Y106739D01*
X328495Y107500D01*
D02*
G37*
G36*
X313495D02*
X311505D01*
X309668Y106739D01*
X308261Y105332D01*
X307500Y103495D01*
Y101505D01*
X308261Y99668D01*
X309668Y98261D01*
X311505Y97500D01*
X313495D01*
X315332Y98261D01*
X316739Y99668D01*
X317500Y101505D01*
Y103495D01*
X316739Y105332D01*
X315332Y106739D01*
X313495Y107500D01*
D02*
G37*
G36*
X285995D02*
X284006D01*
X282168Y106739D01*
X280761Y105332D01*
X280000Y103495D01*
Y101505D01*
X280761Y99668D01*
X282168Y98261D01*
X284006Y97500D01*
X285995D01*
X287832Y98261D01*
X289239Y99668D01*
X290000Y101505D01*
Y103495D01*
X289239Y105332D01*
X287832Y106739D01*
X285995Y107500D01*
D02*
G37*
G36*
X270995D02*
X269006D01*
X267168Y106739D01*
X265761Y105332D01*
X265000Y103495D01*
Y101505D01*
X265761Y99668D01*
X267168Y98261D01*
X269006Y97500D01*
X270995D01*
X272832Y98261D01*
X274239Y99668D01*
X275000Y101505D01*
Y103495D01*
X274239Y105332D01*
X272832Y106739D01*
X270995Y107500D01*
D02*
G37*
G36*
X255995D02*
X254005D01*
X252168Y106739D01*
X250761Y105332D01*
X250000Y103495D01*
Y101505D01*
X250761Y99668D01*
X252168Y98261D01*
X254005Y97500D01*
X255995D01*
X257832Y98261D01*
X259239Y99668D01*
X260000Y101505D01*
Y103495D01*
X259239Y105332D01*
X257832Y106739D01*
X255995Y107500D01*
D02*
G37*
G36*
X240995D02*
X239005D01*
X237168Y106739D01*
X235761Y105332D01*
X235000Y103495D01*
Y101505D01*
X235761Y99668D01*
X237168Y98261D01*
X239005Y97500D01*
X240995D01*
X242832Y98261D01*
X244239Y99668D01*
X245000Y101505D01*
Y103495D01*
X244239Y105332D01*
X242832Y106739D01*
X240995Y107500D01*
D02*
G37*
G36*
X122752Y106887D02*
X122398Y106533D01*
X121147Y104367D01*
X120500Y101951D01*
Y99449D01*
X120834Y98203D01*
X119797Y97166D01*
X118551Y97500D01*
X116049D01*
X113633Y96853D01*
X111467Y95602D01*
X111113Y95248D01*
X117830Y88530D01*
X124548Y81813D01*
X124902Y82167D01*
X126153Y84333D01*
X126800Y86749D01*
Y89251D01*
X126466Y90497D01*
X127503Y91534D01*
X128749Y91200D01*
X131251D01*
X132497Y91534D01*
X133534Y90497D01*
X133200Y89251D01*
Y86749D01*
X133847Y84333D01*
X135098Y82167D01*
X136867Y80398D01*
X139033Y79147D01*
X141449Y78500D01*
X143951D01*
X146367Y79147D01*
X148533Y80398D01*
X150302Y82167D01*
X151553Y84333D01*
X152200Y86749D01*
Y89251D01*
X151553Y91667D01*
X150302Y93833D01*
X148533Y95602D01*
X146367Y96853D01*
X143951Y97500D01*
X141449D01*
X140203Y97166D01*
X139166Y98203D01*
X139500Y99449D01*
Y101951D01*
X138853Y104367D01*
X137602Y106533D01*
X137248Y106887D01*
X130530Y100170D01*
X130000Y100700D01*
X129470Y100170D01*
X122752Y106887D01*
D02*
G37*
G36*
X160995Y100000D02*
X159005D01*
X157168Y99239D01*
X155761Y97832D01*
X155000Y95995D01*
Y94005D01*
X155761Y92168D01*
X157168Y90761D01*
X159005Y90000D01*
X160995D01*
X162832Y90761D01*
X164239Y92168D01*
X165000Y94005D01*
Y95995D01*
X164239Y97832D01*
X162832Y99239D01*
X160995Y100000D01*
D02*
G37*
G36*
X210995Y90250D02*
X209005D01*
X207168Y89489D01*
X206125Y88446D01*
X205082Y89489D01*
X203245Y90250D01*
X201255D01*
X199418Y89489D01*
X198011Y88082D01*
X197250Y86245D01*
Y84255D01*
X198011Y82418D01*
X199304Y81125D01*
X198011Y79832D01*
X197250Y77995D01*
Y76005D01*
X198011Y74168D01*
X199418Y72761D01*
X201255Y72000D01*
X203245D01*
X205082Y72761D01*
X206125Y73804D01*
X207168Y72761D01*
X209005Y72000D01*
X210995D01*
X212832Y72761D01*
X214239Y74168D01*
X215000Y76005D01*
Y77995D01*
X214239Y79832D01*
X212946Y81125D01*
X214239Y82418D01*
X215000Y84255D01*
Y86245D01*
X214239Y88082D01*
X212832Y89489D01*
X210995Y90250D01*
D02*
G37*
G36*
X110052Y94187D02*
X109698Y93833D01*
X108447Y91667D01*
X107800Y89251D01*
Y86749D01*
X108447Y84333D01*
X109698Y82167D01*
X110052Y81813D01*
X116239Y88000D01*
X110052Y94187D01*
D02*
G37*
G36*
X117300Y86939D02*
X111113Y80752D01*
X111467Y80398D01*
X113633Y79147D01*
X116049Y78500D01*
X118551D01*
X120967Y79147D01*
X123133Y80398D01*
X123487Y80752D01*
X117300Y86939D01*
D02*
G37*
G36*
X370745Y84750D02*
X368755D01*
X366918Y83989D01*
X365511Y82582D01*
X364750Y80745D01*
Y78755D01*
X365511Y76918D01*
X366918Y75511D01*
X368755Y74750D01*
X370745D01*
X372582Y75511D01*
X373989Y76918D01*
X374750Y78755D01*
Y80745D01*
X373989Y82582D01*
X372582Y83989D01*
X370745Y84750D01*
D02*
G37*
G36*
X299495Y78750D02*
X297505D01*
X295668Y77989D01*
X294261Y76582D01*
X293500Y74745D01*
Y72755D01*
X294261Y70918D01*
X295668Y69511D01*
X297505Y68750D01*
X299495D01*
X301332Y69511D01*
X302739Y70918D01*
X303500Y72755D01*
Y74745D01*
X302739Y76582D01*
X301332Y77989D01*
X299495Y78750D01*
D02*
G37*
G36*
X180995Y75000D02*
X179005D01*
X177168Y74239D01*
X175761Y72832D01*
X175000Y70995D01*
Y69005D01*
X175761Y67168D01*
X177168Y65761D01*
X179005Y65000D01*
X180995D01*
X182832Y65761D01*
X184239Y67168D01*
X185000Y69005D01*
Y70995D01*
X184239Y72832D01*
X182832Y74239D01*
X180995Y75000D01*
D02*
G37*
G36*
X200995Y60000D02*
X199005D01*
X197168Y59239D01*
X195761Y57832D01*
X195000Y55995D01*
Y54005D01*
X195761Y52168D01*
X197168Y50761D01*
X199005Y50000D01*
X200995D01*
X202832Y50761D01*
X204239Y52168D01*
X205000Y54005D01*
Y55995D01*
X204239Y57832D01*
X202832Y59239D01*
X200995Y60000D01*
D02*
G37*
G36*
X185995D02*
X184005D01*
X182168Y59239D01*
X180761Y57832D01*
X180000Y55995D01*
Y54005D01*
X180761Y52168D01*
X182168Y50761D01*
X184005Y50000D01*
X185995D01*
X187832Y50761D01*
X189239Y52168D01*
X190000Y54005D01*
Y55995D01*
X189239Y57832D01*
X187832Y59239D01*
X185995Y60000D01*
D02*
G37*
G36*
X170995D02*
X169005D01*
X167168Y59239D01*
X165761Y57832D01*
X165000Y55995D01*
Y54005D01*
X165761Y52168D01*
X167168Y50761D01*
X169005Y50000D01*
X170995D01*
X172832Y50761D01*
X174239Y52168D01*
X175000Y54005D01*
Y55995D01*
X174239Y57832D01*
X172832Y59239D01*
X170995Y60000D01*
D02*
G37*
G36*
X155995D02*
X154005D01*
X152168Y59239D01*
X150761Y57832D01*
X150000Y55995D01*
Y54005D01*
X150761Y52168D01*
X152168Y50761D01*
X154005Y50000D01*
X155995D01*
X157832Y50761D01*
X159239Y52168D01*
X160000Y54005D01*
Y55995D01*
X159239Y57832D01*
X157832Y59239D01*
X155995Y60000D01*
D02*
G37*
G36*
X285995Y57500D02*
X284005D01*
X282168Y56739D01*
X280761Y55332D01*
X280000Y53495D01*
Y51505D01*
X280761Y49668D01*
X282168Y48261D01*
X284005Y47500D01*
X285995D01*
X287832Y48261D01*
X289239Y49668D01*
X290000Y51505D01*
Y53495D01*
X289239Y55332D01*
X287832Y56739D01*
X285995Y57500D01*
D02*
G37*
G36*
X270995D02*
X269006D01*
X267168Y56739D01*
X265761Y55332D01*
X265000Y53495D01*
Y51505D01*
X265761Y49668D01*
X267168Y48261D01*
X269006Y47500D01*
X270995D01*
X272832Y48261D01*
X274239Y49668D01*
X275000Y51505D01*
Y53495D01*
X274239Y55332D01*
X272832Y56739D01*
X270995Y57500D01*
D02*
G37*
G36*
X255995D02*
X254005D01*
X252168Y56739D01*
X250761Y55332D01*
X250000Y53495D01*
Y51505D01*
X250761Y49668D01*
X252168Y48261D01*
X254005Y47500D01*
X255995D01*
X257832Y48261D01*
X259239Y49668D01*
X260000Y51505D01*
Y53495D01*
X259239Y55332D01*
X257832Y56739D01*
X255995Y57500D01*
D02*
G37*
G36*
X240995D02*
X239005D01*
X237168Y56739D01*
X235761Y55332D01*
X235000Y53495D01*
Y51505D01*
X235761Y49668D01*
X237168Y48261D01*
X239005Y47500D01*
X240995D01*
X242832Y48261D01*
X244239Y49668D01*
X245000Y51505D01*
Y53495D01*
X244239Y55332D01*
X242832Y56739D01*
X240995Y57500D01*
D02*
G37*
G36*
X313495Y55520D02*
X311505D01*
X309668Y54759D01*
X308261Y53352D01*
X307500Y51515D01*
Y49525D01*
X308261Y47688D01*
X309668Y46281D01*
X311505Y45520D01*
X313495D01*
X315332Y46281D01*
X316739Y47688D01*
X317500Y49525D01*
Y51515D01*
X316739Y53352D01*
X315332Y54759D01*
X313495Y55520D01*
D02*
G37*
G36*
X343495Y55000D02*
X341505D01*
X339668Y54239D01*
X338261Y52832D01*
X337500Y50995D01*
Y49005D01*
X338261Y47168D01*
X339668Y45761D01*
X341505Y45000D01*
X343495D01*
X345332Y45761D01*
X346739Y47168D01*
X347500Y49005D01*
Y50995D01*
X346739Y52832D01*
X345332Y54239D01*
X343495Y55000D01*
D02*
G37*
G36*
X328495D02*
X326505D01*
X324668Y54239D01*
X323261Y52832D01*
X322500Y50995D01*
Y49005D01*
X323261Y47168D01*
X324668Y45761D01*
X326505Y45000D01*
X328495D01*
X330332Y45761D01*
X331739Y47168D01*
X332500Y49005D01*
Y50995D01*
X331739Y52832D01*
X330332Y54239D01*
X328495Y55000D01*
D02*
G37*
G36*
X241745Y26500D02*
X239755D01*
X237918Y25739D01*
X236511Y24332D01*
X235750Y22495D01*
Y20505D01*
X236511Y18668D01*
X237918Y17261D01*
X239755Y16500D01*
X241745D01*
X243582Y17261D01*
X244989Y18668D01*
X245750Y20505D01*
Y22495D01*
X244989Y24332D01*
X243582Y25739D01*
X241745Y26500D01*
D02*
G37*
G36*
X310745Y14500D02*
X308755D01*
X306918Y13739D01*
X305511Y12332D01*
X304750Y10495D01*
Y8505D01*
X305511Y6668D01*
X306918Y5261D01*
X308755Y4500D01*
X310745D01*
X312582Y5261D01*
X313989Y6668D01*
X314750Y8505D01*
Y10495D01*
X313989Y12332D01*
X312582Y13739D01*
X310745Y14500D01*
D02*
G37*
G36*
X247995Y12000D02*
X246005D01*
X244168Y11239D01*
X242761Y9832D01*
X242000Y7995D01*
Y6005D01*
X242761Y4168D01*
X244168Y2761D01*
X246005Y2000D01*
X247995D01*
X249832Y2761D01*
X251239Y4168D01*
X252000Y6005D01*
Y7995D01*
X251239Y9832D01*
X249832Y11239D01*
X247995Y12000D01*
D02*
G37*
G36*
X283995Y24000D02*
X282005D01*
X280168Y23239D01*
X278761Y21832D01*
X278000Y19994D01*
Y18005D01*
X278412Y17011D01*
Y14739D01*
X278000Y13745D01*
Y11755D01*
X278761Y9918D01*
X280168Y8511D01*
X282005Y7750D01*
X283579D01*
X283750Y7495D01*
Y5505D01*
X284511Y3668D01*
X285918Y2261D01*
X287755Y1500D01*
X289745D01*
X291582Y2261D01*
X292989Y3668D01*
X293750Y5505D01*
Y7495D01*
X292989Y9332D01*
X291582Y10739D01*
X289745Y11500D01*
X288171D01*
X288000Y11755D01*
Y13745D01*
X287588Y14739D01*
Y17011D01*
X288000Y18005D01*
Y19994D01*
X287239Y21832D01*
X285832Y23239D01*
X283995Y24000D01*
D02*
G37*
G36*
X329995Y11000D02*
X328005D01*
X326168Y10239D01*
X324761Y8832D01*
X324000Y6995D01*
Y5005D01*
X324761Y3168D01*
X326168Y1761D01*
X328005Y1000D01*
X329995D01*
X331832Y1761D01*
X333239Y3168D01*
X334000Y5005D01*
Y6995D01*
X333239Y8832D01*
X331832Y10239D01*
X329995Y11000D01*
D02*
G37*
G36*
X254995Y-1000D02*
X253005D01*
X251168Y-1761D01*
X249761Y-3168D01*
X249000Y-5005D01*
Y-6995D01*
X249761Y-8832D01*
X251168Y-10239D01*
X253005Y-11000D01*
X254995D01*
X256832Y-10239D01*
X258239Y-8832D01*
X259000Y-6995D01*
Y-5005D01*
X258239Y-3168D01*
X256832Y-1761D01*
X254995Y-1000D01*
D02*
G37*
G36*
X329995Y-6000D02*
X328005D01*
X326168Y-6761D01*
X324761Y-8168D01*
X324000Y-10005D01*
Y-11995D01*
X324761Y-13832D01*
X326168Y-15239D01*
X328005Y-16000D01*
X329995D01*
X331832Y-15239D01*
X333239Y-13832D01*
X334000Y-11995D01*
Y-10005D01*
X333239Y-8168D01*
X331832Y-6761D01*
X329995Y-6000D01*
D02*
G37*
G36*
X254995Y-17000D02*
X253005D01*
X251168Y-17761D01*
X249761Y-19168D01*
X249000Y-21005D01*
Y-22995D01*
X249761Y-24832D01*
X251168Y-26239D01*
X253005Y-27000D01*
X254995D01*
X256832Y-26239D01*
X258239Y-24832D01*
X259000Y-22995D01*
Y-21005D01*
X258239Y-19168D01*
X256832Y-17761D01*
X254995Y-17000D01*
D02*
G37*
G36*
Y-33000D02*
X253005D01*
X251168Y-33761D01*
X249761Y-35168D01*
X249000Y-37005D01*
Y-38995D01*
X249761Y-40832D01*
X251168Y-42239D01*
X253005Y-43000D01*
X254995D01*
X256832Y-42239D01*
X258239Y-40832D01*
X259000Y-38995D01*
Y-37005D01*
X258239Y-35168D01*
X256832Y-33761D01*
X254995Y-33000D01*
D02*
G37*
G36*
X241995D02*
X240005D01*
X238168Y-33761D01*
X236761Y-35168D01*
X236000Y-37005D01*
Y-38995D01*
X236761Y-40832D01*
X238168Y-42239D01*
X240005Y-43000D01*
X241995D01*
X243832Y-42239D01*
X245239Y-40832D01*
X246000Y-38995D01*
Y-37005D01*
X245239Y-35168D01*
X243832Y-33761D01*
X241995Y-33000D01*
D02*
G37*
G36*
X225995D02*
X224005D01*
X222168Y-33761D01*
X220761Y-35168D01*
X220000Y-37005D01*
Y-38995D01*
X220761Y-40832D01*
X222168Y-42239D01*
X224005Y-43000D01*
X225995D01*
X227832Y-42239D01*
X229239Y-40832D01*
X230000Y-38995D01*
Y-37005D01*
X229239Y-35168D01*
X227832Y-33761D01*
X225995Y-33000D01*
D02*
G37*
G36*
X209995D02*
X208005D01*
X206168Y-33761D01*
X204761Y-35168D01*
X204000Y-37005D01*
Y-38995D01*
X204761Y-40832D01*
X206168Y-42239D01*
X208005Y-43000D01*
X209995D01*
X211832Y-42239D01*
X213239Y-40832D01*
X214000Y-38995D01*
Y-37005D01*
X213239Y-35168D01*
X211832Y-33761D01*
X209995Y-33000D01*
D02*
G37*
G36*
X193995D02*
X192005D01*
X190168Y-33761D01*
X188761Y-35168D01*
X188000Y-37005D01*
Y-38995D01*
X188761Y-40832D01*
X190168Y-42239D01*
X192005Y-43000D01*
X193995D01*
X195832Y-42239D01*
X197239Y-40832D01*
X198000Y-38995D01*
Y-37005D01*
X197239Y-35168D01*
X195832Y-33761D01*
X193995Y-33000D01*
D02*
G37*
G36*
X376777Y-21500D02*
X373223D01*
X369789Y-22420D01*
X366711Y-24197D01*
X364197Y-26711D01*
X362420Y-29789D01*
X361500Y-33223D01*
Y-36777D01*
X362420Y-40211D01*
X364197Y-43289D01*
X366711Y-45803D01*
X369789Y-47580D01*
X373223Y-48500D01*
X376777D01*
X380211Y-47580D01*
X383289Y-45803D01*
X385803Y-43289D01*
X387580Y-40211D01*
X388500Y-36777D01*
Y-33223D01*
X387580Y-29789D01*
X385803Y-26711D01*
X383289Y-24197D01*
X380211Y-22420D01*
X376777Y-21500D01*
D02*
G37*
%LPD*%
D11*
X364000Y31000D02*
X388000Y55000D01*
Y113000D01*
X372000Y129000D02*
X388000Y113000D01*
X313500Y129000D02*
X372000D01*
X304750Y137750D02*
X313500Y129000D01*
D13*
X12502Y127502D02*
Y137498D01*
X22499Y127502D01*
X24998D01*
X27498Y130001D01*
Y134999D01*
X24998Y137498D01*
D26*
X267250Y137750D02*
D03*
X279750D02*
D03*
X292250D02*
D03*
X304750D02*
D03*
X317250D02*
D03*
X329750D02*
D03*
X342250D02*
D03*
D29*
X283000Y12750D02*
Y19000D01*
X267125Y137875D02*
X267125D01*
X253125D02*
X267125D01*
X266875Y138125D02*
Y148125D01*
X267125Y126375D02*
Y136375D01*
D30*
X321250Y29639D02*
X340429D01*
X345974D01*
X352361D01*
X326056Y34000D02*
X356495D01*
X288000Y33000D02*
X288250Y32750D01*
X305750D01*
X279750Y136250D02*
Y137750D01*
X359000Y23000D02*
X368000D01*
X394000Y49000D02*
Y119000D01*
X368000Y23000D02*
X394000Y49000D01*
X352361Y29639D02*
X359000Y23000D01*
X305750Y32750D02*
X311000Y38000D01*
X322057D01*
X326056Y34000D01*
X321250Y29639D02*
Y31000D01*
X292000Y138000D02*
X301000Y147000D01*
X366000D01*
X394000Y119000D01*
X356495Y34000D02*
X363250Y40755D01*
X279750Y136250D02*
X297000Y119000D01*
X366000D01*
X382000Y103000D01*
Y59505D02*
Y103000D01*
X363250Y40755D02*
X382000Y59505D01*
X267125Y137875D02*
X267250Y137750D01*
X267000Y138000D02*
X267125Y137875D01*
D31*
X142700Y88000D02*
D03*
X130000Y100700D02*
D03*
X117300Y88000D02*
D03*
D32*
X375000Y-35000D02*
D03*
X195000Y135000D02*
D03*
X55000D02*
D03*
D33*
X218000Y21500D02*
D03*
X240750D02*
D03*
X312500Y50520D02*
D03*
X327500Y50000D02*
D03*
X327691Y40171D02*
D03*
X338000Y6000D02*
D03*
X260250Y28000D02*
D03*
X341500Y22750D02*
D03*
X298500Y73750D02*
D03*
X288750Y6500D02*
D03*
Y-17750D02*
D03*
X238750Y31750D02*
D03*
X294750Y108250D02*
D03*
X288000Y33000D02*
D03*
X342500Y40000D02*
D03*
X321250Y31000D02*
D03*
X328500Y21755D02*
D03*
X285000Y45000D02*
D03*
Y52500D02*
D03*
X270000Y45000D02*
D03*
X270000Y52500D02*
D03*
X364000Y31000D02*
D03*
X342500Y112500D02*
D03*
X376094Y61406D02*
D03*
X362500Y60000D02*
D03*
X270000Y102500D02*
D03*
Y115000D02*
D03*
X285000D02*
D03*
X338000Y-11000D02*
D03*
X329000D02*
D03*
Y6000D02*
D03*
X271000Y0D02*
D03*
X263000Y-6000D02*
D03*
Y-22000D02*
D03*
Y-38000D02*
D03*
X241000D02*
D03*
Y-47000D02*
D03*
X193000Y-38000D02*
D03*
X225000D02*
D03*
X209000D02*
D03*
Y-47000D02*
D03*
X225000D02*
D03*
X193000D02*
D03*
X285000Y102500D02*
D03*
X304500Y110000D02*
D03*
X240000Y115000D02*
D03*
X255000D02*
D03*
Y102500D02*
D03*
X240000D02*
D03*
X327500D02*
D03*
X232750Y128750D02*
D03*
X225000Y115000D02*
D03*
Y100000D02*
D03*
X207500Y107500D02*
D03*
X208500Y122500D02*
D03*
X160000Y95000D02*
D03*
X180000Y82500D02*
D03*
Y70000D02*
D03*
X327500Y112500D02*
D03*
X365000Y110000D02*
D03*
X312500Y102500D02*
D03*
X342500D02*
D03*
X357500D02*
D03*
X342500Y50000D02*
D03*
X357500D02*
D03*
X363250Y40755D02*
D03*
X283000Y19000D02*
D03*
X255000Y45000D02*
D03*
X240000Y42500D02*
D03*
X255000Y52500D02*
D03*
X240000D02*
D03*
X305000Y52750D02*
D03*
X292500Y60000D02*
D03*
X232500Y52500D02*
D03*
X207500D02*
D03*
X155000Y42500D02*
D03*
X185000D02*
D03*
X170000D02*
D03*
X200000D02*
D03*
Y55000D02*
D03*
X254000Y-38000D02*
D03*
X247000Y7000D02*
D03*
X254000Y-22000D02*
D03*
Y-6000D02*
D03*
X309750Y9500D02*
D03*
X283000Y12750D02*
D03*
X369750Y79750D02*
D03*
X210000Y77000D02*
D03*
X202250D02*
D03*
X210000Y85250D02*
D03*
X202250D02*
D03*
X170000Y55000D02*
D03*
X185000D02*
D03*
X155000D02*
D03*
X190000Y117500D02*
D03*
X177500Y120000D02*
D03*
M02*
