G04*
G04 #@! TF.GenerationSoftware,Altium Limited,Altium Designer,23.3.1 (30)*
G04*
G04 Layer_Color=16711935*
%FSLAX44Y44*%
%MOMM*%
G71*
G04*
G04 #@! TF.SameCoordinates,0A325C66-3388-4B77-B3D2-BE92810A0E17*
G04*
G04*
G04 #@! TF.FilePolarity,Negative*
G04*
G01*
G75*
G04:AMPARAMS|DCode=18|XSize=0.5mm|YSize=0.7mm|CornerRadius=0.15mm|HoleSize=0mm|Usage=FLASHONLY|Rotation=0.000|XOffset=0mm|YOffset=0mm|HoleType=Round|Shape=RoundedRectangle|*
%AMROUNDEDRECTD18*
21,1,0.5000,0.4000,0,0,0.0*
21,1,0.2000,0.7000,0,0,0.0*
1,1,0.3000,0.1000,-0.2000*
1,1,0.3000,-0.1000,-0.2000*
1,1,0.3000,-0.1000,0.2000*
1,1,0.3000,0.1000,0.2000*
%
%ADD18ROUNDEDRECTD18*%
G04:AMPARAMS|DCode=21|XSize=0.5mm|YSize=0.7mm|CornerRadius=0.15mm|HoleSize=0mm|Usage=FLASHONLY|Rotation=270.000|XOffset=0mm|YOffset=0mm|HoleType=Round|Shape=RoundedRectangle|*
%AMROUNDEDRECTD21*
21,1,0.5000,0.4000,0,0,270.0*
21,1,0.2000,0.7000,0,0,270.0*
1,1,0.3000,-0.2000,-0.1000*
1,1,0.3000,-0.2000,0.1000*
1,1,0.3000,0.2000,0.1000*
1,1,0.3000,0.2000,-0.1000*
%
%ADD21ROUNDEDRECTD21*%
%ADD23C,1.6000*%
%ADD24C,1.0668*%
%ADD25C,2.3000*%
%ADD26C,0.7000*%
%ADD33R,2.0500X1.1000*%
G04:AMPARAMS|DCode=35|XSize=1.45mm|YSize=0.3mm|CornerRadius=0.0495mm|HoleSize=0mm|Usage=FLASHONLY|Rotation=90.000|XOffset=0mm|YOffset=0mm|HoleType=Round|Shape=RoundedRectangle|*
%AMROUNDEDRECTD35*
21,1,1.4500,0.2010,0,0,90.0*
21,1,1.3510,0.3000,0,0,90.0*
1,1,0.0990,0.1005,0.6755*
1,1,0.0990,0.1005,-0.6755*
1,1,0.0990,-0.1005,-0.6755*
1,1,0.0990,-0.1005,0.6755*
%
%ADD35ROUNDEDRECTD35*%
%ADD38R,1.7000X0.7500*%
D18*
X381000Y8000D02*
D03*
X372000D02*
D03*
X280000Y9000D02*
D03*
X271000D02*
D03*
X62000Y16000D02*
D03*
X53000D02*
D03*
X69000Y72000D02*
D03*
X60000D02*
D03*
X239000Y35000D02*
D03*
X248000D02*
D03*
D21*
X192000Y-35000D02*
D03*
Y-44000D02*
D03*
X326000Y58000D02*
D03*
Y49000D02*
D03*
X274000Y97000D02*
D03*
Y88000D02*
D03*
X171000Y71000D02*
D03*
Y62000D02*
D03*
X26000Y66000D02*
D03*
Y57000D02*
D03*
D23*
X117300Y88000D02*
D03*
X130000Y100700D02*
D03*
X142700Y88000D02*
D03*
D24*
X342250Y137750D02*
D03*
X329750D02*
D03*
X317250D02*
D03*
X304750D02*
D03*
X292250D02*
D03*
X279750D02*
D03*
X267250D02*
D03*
D25*
X375000Y-35000D02*
D03*
X195000Y135000D02*
D03*
X55000D02*
D03*
D26*
X366500Y48500D02*
D03*
Y37500D02*
D03*
X355500Y48500D02*
D03*
Y37500D02*
D03*
D33*
X381000Y72500D02*
D03*
Y105500D02*
D03*
X350000Y72500D02*
D03*
Y105500D02*
D03*
D35*
X259000Y55000D02*
D03*
X254000D02*
D03*
X249000D02*
D03*
X244000D02*
D03*
X239000D02*
D03*
Y99000D02*
D03*
X244000D02*
D03*
X249000D02*
D03*
X254000D02*
D03*
X259000D02*
D03*
D38*
X77500Y34500D02*
D03*
Y44000D02*
D03*
Y53500D02*
D03*
X52500D02*
D03*
Y44000D02*
D03*
Y34500D02*
D03*
M02*
