G04*
G04 #@! TF.GenerationSoftware,Altium Limited,Altium Designer,23.3.1 (30)*
G04*
G04 Layer_Color=65535*
%FSLAX44Y44*%
%MOMM*%
G71*
G04*
G04 #@! TF.SameCoordinates,0A325C66-3388-4B77-B3D2-BE92810A0E17*
G04*
G04*
G04 #@! TF.FilePolarity,Positive*
G04*
G01*
G75*
%ADD10C,0.1500*%
%ADD11C,0.2500*%
%ADD12C,0.2000*%
G36*
X220378Y38301D02*
X220461Y38291D01*
X220563Y38282D01*
X220665Y38273D01*
X220785Y38245D01*
X221035Y38190D01*
X221312Y38107D01*
X221451Y38051D01*
X221580Y37986D01*
X221709Y37903D01*
X221839Y37820D01*
X221848Y37811D01*
X221867Y37801D01*
X221904Y37774D01*
X221950Y37727D01*
X221996Y37681D01*
X222061Y37617D01*
X222126Y37543D01*
X222199Y37469D01*
X222274Y37376D01*
X222348Y37265D01*
X222431Y37154D01*
X222505Y37034D01*
X222569Y36895D01*
X222643Y36757D01*
X222699Y36609D01*
X222754Y36442D01*
X221922Y36248D01*
Y36257D01*
X221913Y36276D01*
X221894Y36313D01*
X221876Y36359D01*
X221857Y36415D01*
X221830Y36488D01*
X221756Y36637D01*
X221663Y36803D01*
X221552Y36969D01*
X221414Y37127D01*
X221266Y37265D01*
X221247Y37284D01*
X221192Y37321D01*
X221099Y37367D01*
X220979Y37432D01*
X220822Y37487D01*
X220646Y37543D01*
X220434Y37580D01*
X220203Y37589D01*
X220128D01*
X220082Y37580D01*
X220018D01*
X219944Y37570D01*
X219768Y37543D01*
X219574Y37506D01*
X219370Y37441D01*
X219158Y37348D01*
X218964Y37228D01*
X218954D01*
X218945Y37210D01*
X218880Y37164D01*
X218797Y37090D01*
X218695Y36979D01*
X218575Y36840D01*
X218464Y36683D01*
X218363Y36488D01*
X218270Y36276D01*
Y36267D01*
X218261Y36248D01*
X218252Y36220D01*
X218242Y36174D01*
X218224Y36119D01*
X218205Y36054D01*
X218178Y35897D01*
X218141Y35712D01*
X218104Y35508D01*
X218085Y35287D01*
X218076Y35046D01*
Y35037D01*
Y35009D01*
Y34963D01*
Y34908D01*
X218085Y34843D01*
Y34760D01*
X218095Y34667D01*
X218104Y34565D01*
X218132Y34344D01*
X218178Y34103D01*
X218233Y33863D01*
X218307Y33622D01*
Y33613D01*
X218316Y33595D01*
X218335Y33567D01*
X218353Y33521D01*
X218409Y33410D01*
X218492Y33280D01*
X218594Y33132D01*
X218723Y32975D01*
X218871Y32836D01*
X219047Y32707D01*
X219056D01*
X219074Y32698D01*
X219102Y32679D01*
X219139Y32661D01*
X219186Y32642D01*
X219241Y32615D01*
X219370Y32559D01*
X219537Y32504D01*
X219722Y32457D01*
X219925Y32420D01*
X220138Y32411D01*
X220203D01*
X220258Y32420D01*
X220323D01*
X220387Y32430D01*
X220554Y32467D01*
X220748Y32513D01*
X220942Y32587D01*
X221145Y32689D01*
X221247Y32744D01*
X221340Y32818D01*
X221349Y32827D01*
X221358Y32836D01*
X221386Y32864D01*
X221423Y32892D01*
X221460Y32938D01*
X221506Y32994D01*
X221562Y33049D01*
X221608Y33123D01*
X221663Y33206D01*
X221728Y33299D01*
X221784Y33391D01*
X221839Y33502D01*
X221885Y33622D01*
X221931Y33752D01*
X221978Y33891D01*
X222015Y34039D01*
X222865Y33826D01*
Y33817D01*
X222856Y33780D01*
X222838Y33724D01*
X222810Y33650D01*
X222782Y33567D01*
X222745Y33465D01*
X222699Y33354D01*
X222643Y33234D01*
X222514Y32975D01*
X222348Y32716D01*
X222246Y32587D01*
X222144Y32457D01*
X222033Y32346D01*
X221904Y32236D01*
X221894Y32226D01*
X221876Y32208D01*
X221830Y32189D01*
X221784Y32152D01*
X221709Y32106D01*
X221635Y32060D01*
X221534Y32014D01*
X221432Y31967D01*
X221312Y31912D01*
X221182Y31866D01*
X221044Y31820D01*
X220896Y31773D01*
X220739Y31736D01*
X220572Y31718D01*
X220397Y31699D01*
X220212Y31690D01*
X220110D01*
X220036Y31699D01*
X219953D01*
X219851Y31709D01*
X219740Y31727D01*
X219611Y31746D01*
X219343Y31792D01*
X219065Y31866D01*
X218788Y31967D01*
X218659Y32032D01*
X218529Y32106D01*
X218520Y32115D01*
X218501Y32125D01*
X218464Y32152D01*
X218427Y32189D01*
X218372Y32226D01*
X218307Y32282D01*
X218233Y32346D01*
X218159Y32420D01*
X218085Y32504D01*
X218002Y32587D01*
X217836Y32800D01*
X217678Y33049D01*
X217540Y33327D01*
Y33336D01*
X217521Y33363D01*
X217512Y33410D01*
X217484Y33465D01*
X217466Y33539D01*
X217438Y33632D01*
X217401Y33733D01*
X217373Y33844D01*
X217346Y33965D01*
X217309Y34103D01*
X217262Y34390D01*
X217225Y34713D01*
X217207Y35046D01*
Y35055D01*
Y35092D01*
Y35148D01*
X217216Y35213D01*
Y35305D01*
X217225Y35398D01*
X217235Y35518D01*
X217253Y35638D01*
X217299Y35906D01*
X217364Y36202D01*
X217456Y36498D01*
X217586Y36784D01*
X217595Y36794D01*
X217605Y36821D01*
X217623Y36858D01*
X217660Y36905D01*
X217697Y36969D01*
X217743Y37043D01*
X217863Y37210D01*
X218020Y37395D01*
X218205Y37580D01*
X218418Y37764D01*
X218668Y37922D01*
X218677Y37931D01*
X218705Y37940D01*
X218742Y37959D01*
X218788Y37986D01*
X218862Y38014D01*
X218936Y38042D01*
X219028Y38079D01*
X219130Y38116D01*
X219241Y38153D01*
X219361Y38190D01*
X219620Y38245D01*
X219916Y38291D01*
X220221Y38310D01*
X220313D01*
X220378Y38301D01*
D02*
G37*
G36*
X225805Y38217D02*
X225879Y38208D01*
X225963Y38199D01*
X226055Y38190D01*
X226147Y38162D01*
X226369Y38107D01*
X226591Y38023D01*
X226702Y37968D01*
X226813Y37903D01*
X226915Y37820D01*
X227017Y37737D01*
X227026Y37727D01*
X227035Y37718D01*
X227063Y37690D01*
X227100Y37654D01*
X227137Y37598D01*
X227183Y37543D01*
X227275Y37404D01*
X227368Y37228D01*
X227451Y37025D01*
X227516Y36794D01*
X227525Y36674D01*
X227534Y36544D01*
Y36535D01*
Y36525D01*
Y36470D01*
X227525Y36387D01*
X227507Y36285D01*
X227479Y36156D01*
X227432Y36026D01*
X227377Y35897D01*
X227294Y35767D01*
X227285Y35749D01*
X227248Y35712D01*
X227192Y35656D01*
X227118Y35582D01*
X227017Y35499D01*
X226896Y35416D01*
X226758Y35333D01*
X226591Y35259D01*
X226600D01*
X226619Y35250D01*
X226647Y35240D01*
X226684Y35222D01*
X226795Y35176D01*
X226924Y35111D01*
X227063Y35018D01*
X227211Y34917D01*
X227349Y34787D01*
X227479Y34639D01*
Y34630D01*
X227488Y34621D01*
X227525Y34565D01*
X227581Y34473D01*
X227636Y34353D01*
X227691Y34205D01*
X227747Y34029D01*
X227784Y33835D01*
X227793Y33622D01*
Y33613D01*
Y33585D01*
Y33539D01*
X227784Y33484D01*
X227775Y33419D01*
X227765Y33336D01*
X227747Y33243D01*
X227719Y33142D01*
X227654Y32929D01*
X227608Y32809D01*
X227544Y32698D01*
X227479Y32578D01*
X227405Y32467D01*
X227312Y32356D01*
X227211Y32245D01*
X227201Y32236D01*
X227183Y32217D01*
X227155Y32189D01*
X227109Y32162D01*
X227044Y32115D01*
X226980Y32069D01*
X226896Y32023D01*
X226804Y31967D01*
X226702Y31912D01*
X226582Y31866D01*
X226453Y31820D01*
X226323Y31773D01*
X226175Y31746D01*
X226018Y31718D01*
X225861Y31699D01*
X225685Y31690D01*
X225593D01*
X225528Y31699D01*
X225445Y31709D01*
X225352Y31718D01*
X225251Y31736D01*
X225140Y31764D01*
X224890Y31829D01*
X224761Y31875D01*
X224640Y31921D01*
X224511Y31986D01*
X224382Y32060D01*
X224261Y32143D01*
X224150Y32245D01*
X224141Y32254D01*
X224123Y32273D01*
X224095Y32300D01*
X224058Y32346D01*
X224021Y32402D01*
X223965Y32467D01*
X223919Y32541D01*
X223864Y32633D01*
X223808Y32726D01*
X223762Y32836D01*
X223670Y33068D01*
X223633Y33206D01*
X223605Y33345D01*
X223586Y33493D01*
X223577Y33641D01*
Y33650D01*
Y33669D01*
Y33706D01*
X223586Y33743D01*
Y33798D01*
X223596Y33863D01*
X223614Y34011D01*
X223651Y34177D01*
X223707Y34344D01*
X223790Y34519D01*
X223892Y34686D01*
Y34695D01*
X223910Y34704D01*
X223947Y34750D01*
X224021Y34824D01*
X224123Y34917D01*
X224252Y35009D01*
X224409Y35111D01*
X224585Y35194D01*
X224797Y35259D01*
X224788D01*
X224779Y35268D01*
X224751Y35277D01*
X224714Y35296D01*
X224631Y35333D01*
X224520Y35388D01*
X224400Y35462D01*
X224280Y35555D01*
X224169Y35656D01*
X224067Y35767D01*
X224058Y35786D01*
X224030Y35823D01*
X223993Y35897D01*
X223956Y35989D01*
X223910Y36109D01*
X223873Y36248D01*
X223845Y36405D01*
X223836Y36572D01*
Y36581D01*
Y36600D01*
Y36637D01*
X223845Y36692D01*
X223855Y36747D01*
X223864Y36821D01*
X223901Y36979D01*
X223956Y37164D01*
X224049Y37358D01*
X224104Y37459D01*
X224169Y37561D01*
X224252Y37654D01*
X224335Y37746D01*
X224345Y37755D01*
X224363Y37764D01*
X224391Y37792D01*
X224428Y37820D01*
X224474Y37857D01*
X224539Y37894D01*
X224613Y37940D01*
X224687Y37986D01*
X224779Y38033D01*
X224881Y38079D01*
X224992Y38116D01*
X225112Y38153D01*
X225371Y38208D01*
X225519Y38217D01*
X225667Y38227D01*
X225750D01*
X225805Y38217D01*
D02*
G37*
G36*
X308405Y-50699D02*
X308488Y-50709D01*
X308590Y-50718D01*
X308692Y-50727D01*
X308812Y-50755D01*
X309061Y-50810D01*
X309339Y-50894D01*
X309477Y-50949D01*
X309607Y-51014D01*
X309736Y-51097D01*
X309866Y-51180D01*
X309875Y-51189D01*
X309893Y-51199D01*
X309930Y-51226D01*
X309977Y-51273D01*
X310023Y-51319D01*
X310088Y-51384D01*
X310152Y-51458D01*
X310226Y-51531D01*
X310300Y-51624D01*
X310374Y-51735D01*
X310457Y-51846D01*
X310531Y-51966D01*
X310596Y-52105D01*
X310670Y-52243D01*
X310726Y-52391D01*
X310781Y-52558D01*
X309949Y-52752D01*
Y-52743D01*
X309940Y-52724D01*
X309921Y-52687D01*
X309903Y-52641D01*
X309884Y-52585D01*
X309856Y-52512D01*
X309783Y-52364D01*
X309690Y-52197D01*
X309579Y-52031D01*
X309440Y-51873D01*
X309293Y-51735D01*
X309274Y-51716D01*
X309219Y-51679D01*
X309126Y-51633D01*
X309006Y-51568D01*
X308849Y-51513D01*
X308673Y-51458D01*
X308460Y-51420D01*
X308229Y-51411D01*
X308155D01*
X308109Y-51420D01*
X308044D01*
X307970Y-51430D01*
X307795Y-51458D01*
X307601Y-51494D01*
X307397Y-51559D01*
X307185Y-51652D01*
X306990Y-51772D01*
X306981D01*
X306972Y-51790D01*
X306907Y-51837D01*
X306824Y-51911D01*
X306722Y-52021D01*
X306602Y-52160D01*
X306491Y-52317D01*
X306389Y-52512D01*
X306297Y-52724D01*
Y-52733D01*
X306288Y-52752D01*
X306278Y-52780D01*
X306269Y-52826D01*
X306251Y-52881D01*
X306232Y-52946D01*
X306204Y-53103D01*
X306168Y-53288D01*
X306131Y-53492D01*
X306112Y-53713D01*
X306103Y-53954D01*
Y-53963D01*
Y-53991D01*
Y-54037D01*
Y-54092D01*
X306112Y-54157D01*
Y-54240D01*
X306121Y-54333D01*
X306131Y-54434D01*
X306158Y-54656D01*
X306204Y-54897D01*
X306260Y-55137D01*
X306334Y-55378D01*
Y-55387D01*
X306343Y-55405D01*
X306362Y-55433D01*
X306380Y-55479D01*
X306436Y-55590D01*
X306519Y-55720D01*
X306621Y-55868D01*
X306750Y-56025D01*
X306898Y-56164D01*
X307074Y-56293D01*
X307083D01*
X307101Y-56302D01*
X307129Y-56321D01*
X307166Y-56339D01*
X307212Y-56358D01*
X307268Y-56385D01*
X307397Y-56441D01*
X307564Y-56496D01*
X307749Y-56543D01*
X307952Y-56579D01*
X308165Y-56589D01*
X308229D01*
X308285Y-56579D01*
X308349D01*
X308414Y-56570D01*
X308581Y-56533D01*
X308775Y-56487D01*
X308969Y-56413D01*
X309172Y-56311D01*
X309274Y-56256D01*
X309366Y-56182D01*
X309376Y-56173D01*
X309385Y-56164D01*
X309413Y-56136D01*
X309450Y-56108D01*
X309487Y-56062D01*
X309533Y-56006D01*
X309588Y-55951D01*
X309635Y-55877D01*
X309690Y-55794D01*
X309755Y-55701D01*
X309810Y-55609D01*
X309866Y-55498D01*
X309912Y-55378D01*
X309958Y-55248D01*
X310004Y-55110D01*
X310041Y-54962D01*
X310892Y-55174D01*
Y-55183D01*
X310883Y-55220D01*
X310864Y-55276D01*
X310837Y-55350D01*
X310809Y-55433D01*
X310772Y-55535D01*
X310726Y-55646D01*
X310670Y-55766D01*
X310541Y-56025D01*
X310374Y-56284D01*
X310273Y-56413D01*
X310171Y-56543D01*
X310060Y-56653D01*
X309930Y-56764D01*
X309921Y-56774D01*
X309903Y-56792D01*
X309856Y-56811D01*
X309810Y-56848D01*
X309736Y-56894D01*
X309662Y-56940D01*
X309561Y-56986D01*
X309459Y-57033D01*
X309339Y-57088D01*
X309209Y-57134D01*
X309071Y-57181D01*
X308923Y-57227D01*
X308766Y-57264D01*
X308599Y-57282D01*
X308423Y-57301D01*
X308239Y-57310D01*
X308137D01*
X308063Y-57301D01*
X307980D01*
X307878Y-57291D01*
X307767Y-57273D01*
X307638Y-57254D01*
X307369Y-57208D01*
X307092Y-57134D01*
X306815Y-57033D01*
X306685Y-56968D01*
X306556Y-56894D01*
X306547Y-56885D01*
X306528Y-56875D01*
X306491Y-56848D01*
X306454Y-56811D01*
X306399Y-56774D01*
X306334Y-56718D01*
X306260Y-56653D01*
X306186Y-56579D01*
X306112Y-56496D01*
X306029Y-56413D01*
X305862Y-56200D01*
X305705Y-55951D01*
X305567Y-55673D01*
Y-55664D01*
X305548Y-55637D01*
X305539Y-55590D01*
X305511Y-55535D01*
X305493Y-55461D01*
X305465Y-55368D01*
X305428Y-55267D01*
X305400Y-55156D01*
X305372Y-55036D01*
X305335Y-54897D01*
X305289Y-54610D01*
X305252Y-54287D01*
X305234Y-53954D01*
Y-53945D01*
Y-53907D01*
Y-53852D01*
X305243Y-53787D01*
Y-53695D01*
X305252Y-53602D01*
X305261Y-53482D01*
X305280Y-53362D01*
X305326Y-53094D01*
X305391Y-52798D01*
X305483Y-52502D01*
X305613Y-52216D01*
X305622Y-52206D01*
X305631Y-52179D01*
X305650Y-52142D01*
X305687Y-52095D01*
X305724Y-52031D01*
X305770Y-51957D01*
X305890Y-51790D01*
X306047Y-51605D01*
X306232Y-51420D01*
X306445Y-51236D01*
X306695Y-51078D01*
X306704Y-51069D01*
X306731Y-51060D01*
X306768Y-51041D01*
X306815Y-51014D01*
X306889Y-50986D01*
X306963Y-50958D01*
X307055Y-50921D01*
X307157Y-50884D01*
X307268Y-50847D01*
X307388Y-50810D01*
X307647Y-50755D01*
X307943Y-50709D01*
X308248Y-50690D01*
X308340D01*
X308405Y-50699D01*
D02*
G37*
G36*
X313888Y-50782D02*
X313962Y-50792D01*
X314054Y-50801D01*
X314156Y-50820D01*
X314257Y-50838D01*
X314498Y-50903D01*
X314738Y-50995D01*
X314858Y-51051D01*
X314979Y-51115D01*
X315089Y-51199D01*
X315191Y-51291D01*
X315201Y-51300D01*
X315219Y-51309D01*
X315237Y-51347D01*
X315274Y-51384D01*
X315321Y-51430D01*
X315367Y-51494D01*
X315413Y-51559D01*
X315469Y-51642D01*
X315561Y-51818D01*
X315653Y-52040D01*
X315690Y-52151D01*
X315709Y-52280D01*
X315728Y-52410D01*
X315737Y-52548D01*
Y-52567D01*
Y-52613D01*
X315728Y-52687D01*
X315718Y-52789D01*
X315700Y-52900D01*
X315663Y-53029D01*
X315626Y-53168D01*
X315570Y-53307D01*
X315561Y-53325D01*
X315543Y-53371D01*
X315506Y-53445D01*
X315450Y-53547D01*
X315376Y-53658D01*
X315284Y-53797D01*
X315173Y-53935D01*
X315043Y-54092D01*
X315025Y-54111D01*
X314979Y-54166D01*
X314932Y-54213D01*
X314886Y-54259D01*
X314831Y-54314D01*
X314757Y-54388D01*
X314683Y-54462D01*
X314590Y-54545D01*
X314498Y-54638D01*
X314387Y-54740D01*
X314267Y-54841D01*
X314137Y-54962D01*
X313989Y-55082D01*
X313841Y-55211D01*
X313832Y-55220D01*
X313814Y-55239D01*
X313777Y-55267D01*
X313730Y-55304D01*
X313675Y-55359D01*
X313610Y-55415D01*
X313462Y-55535D01*
X313305Y-55673D01*
X313157Y-55812D01*
X313028Y-55932D01*
X312972Y-55979D01*
X312926Y-56025D01*
X312917Y-56034D01*
X312889Y-56062D01*
X312852Y-56099D01*
X312806Y-56154D01*
X312760Y-56219D01*
X312704Y-56284D01*
X312593Y-56441D01*
X315746D01*
Y-57199D01*
X311502D01*
Y-57190D01*
Y-57153D01*
Y-57097D01*
X311511Y-57023D01*
X311521Y-56940D01*
X311539Y-56848D01*
X311558Y-56755D01*
X311595Y-56653D01*
Y-56644D01*
X311604Y-56635D01*
X311622Y-56579D01*
X311659Y-56496D01*
X311715Y-56385D01*
X311789Y-56256D01*
X311881Y-56108D01*
X311983Y-55960D01*
X312112Y-55803D01*
Y-55794D01*
X312131Y-55784D01*
X312177Y-55729D01*
X312260Y-55646D01*
X312381Y-55525D01*
X312519Y-55387D01*
X312695Y-55220D01*
X312908Y-55036D01*
X313139Y-54841D01*
X313148Y-54832D01*
X313185Y-54804D01*
X313240Y-54758D01*
X313305Y-54703D01*
X313388Y-54629D01*
X313490Y-54545D01*
X313592Y-54453D01*
X313712Y-54351D01*
X313943Y-54129D01*
X314174Y-53907D01*
X314285Y-53797D01*
X314387Y-53686D01*
X314479Y-53584D01*
X314553Y-53482D01*
Y-53473D01*
X314572Y-53464D01*
X314590Y-53436D01*
X314609Y-53399D01*
X314674Y-53297D01*
X314747Y-53177D01*
X314812Y-53029D01*
X314877Y-52872D01*
X314914Y-52696D01*
X314932Y-52530D01*
Y-52521D01*
Y-52512D01*
X314923Y-52456D01*
X314914Y-52364D01*
X314886Y-52262D01*
X314849Y-52132D01*
X314784Y-52003D01*
X314701Y-51873D01*
X314590Y-51744D01*
X314572Y-51726D01*
X314526Y-51689D01*
X314461Y-51642D01*
X314359Y-51578D01*
X314230Y-51522D01*
X314082Y-51467D01*
X313906Y-51430D01*
X313712Y-51420D01*
X313656D01*
X313619Y-51430D01*
X313508Y-51439D01*
X313379Y-51467D01*
X313240Y-51504D01*
X313083Y-51568D01*
X312935Y-51652D01*
X312797Y-51763D01*
X312778Y-51781D01*
X312741Y-51827D01*
X312686Y-51901D01*
X312630Y-52012D01*
X312565Y-52142D01*
X312510Y-52308D01*
X312473Y-52493D01*
X312454Y-52706D01*
X311650Y-52622D01*
Y-52613D01*
X311659Y-52585D01*
Y-52539D01*
X311669Y-52474D01*
X311687Y-52400D01*
X311706Y-52317D01*
X311733Y-52216D01*
X311761Y-52114D01*
X311835Y-51892D01*
X311946Y-51670D01*
X312011Y-51559D01*
X312094Y-51448D01*
X312177Y-51347D01*
X312270Y-51254D01*
X312279Y-51245D01*
X312297Y-51236D01*
X312325Y-51208D01*
X312371Y-51180D01*
X312427Y-51143D01*
X312491Y-51106D01*
X312565Y-51060D01*
X312658Y-51014D01*
X312760Y-50967D01*
X312871Y-50921D01*
X312991Y-50884D01*
X313120Y-50847D01*
X313259Y-50820D01*
X313407Y-50792D01*
X313564Y-50782D01*
X313730Y-50773D01*
X313823D01*
X313888Y-50782D01*
D02*
G37*
G36*
X318862D02*
X318982Y-50801D01*
X319121Y-50829D01*
X319268Y-50866D01*
X319426Y-50912D01*
X319574Y-50986D01*
X319583D01*
X319592Y-50995D01*
X319638Y-51023D01*
X319712Y-51069D01*
X319805Y-51134D01*
X319907Y-51226D01*
X320017Y-51328D01*
X320119Y-51448D01*
X320221Y-51587D01*
X320230Y-51605D01*
X320267Y-51652D01*
X320304Y-51735D01*
X320369Y-51855D01*
X320424Y-51994D01*
X320498Y-52151D01*
X320563Y-52336D01*
X320618Y-52539D01*
Y-52548D01*
X320628Y-52567D01*
X320637Y-52595D01*
X320646Y-52641D01*
X320655Y-52696D01*
X320665Y-52761D01*
X320683Y-52844D01*
X320692Y-52937D01*
X320711Y-53039D01*
X320720Y-53149D01*
X320729Y-53279D01*
X320748Y-53408D01*
X320757Y-53556D01*
Y-53704D01*
X320766Y-53871D01*
Y-54046D01*
Y-54056D01*
Y-54092D01*
Y-54157D01*
Y-54231D01*
X320757Y-54333D01*
Y-54444D01*
X320748Y-54564D01*
X320739Y-54693D01*
X320711Y-54989D01*
X320665Y-55294D01*
X320609Y-55590D01*
X320572Y-55729D01*
X320526Y-55868D01*
Y-55877D01*
X320517Y-55895D01*
X320498Y-55932D01*
X320480Y-55979D01*
X320461Y-56043D01*
X320424Y-56108D01*
X320350Y-56265D01*
X320258Y-56432D01*
X320138Y-56617D01*
X319999Y-56783D01*
X319832Y-56940D01*
X319823D01*
X319814Y-56959D01*
X319786Y-56977D01*
X319749Y-56996D01*
X319703Y-57023D01*
X319657Y-57060D01*
X319518Y-57125D01*
X319352Y-57190D01*
X319158Y-57254D01*
X318926Y-57291D01*
X318677Y-57310D01*
X318584D01*
X318520Y-57301D01*
X318446Y-57291D01*
X318353Y-57273D01*
X318251Y-57254D01*
X318141Y-57227D01*
X318030Y-57190D01*
X317909Y-57153D01*
X317789Y-57097D01*
X317669Y-57033D01*
X317549Y-56959D01*
X317429Y-56866D01*
X317318Y-56764D01*
X317216Y-56653D01*
X317207Y-56644D01*
X317188Y-56617D01*
X317160Y-56570D01*
X317114Y-56496D01*
X317068Y-56413D01*
X317022Y-56302D01*
X316957Y-56173D01*
X316902Y-56025D01*
X316846Y-55858D01*
X316791Y-55664D01*
X316735Y-55452D01*
X316689Y-55211D01*
X316643Y-54952D01*
X316615Y-54675D01*
X316597Y-54370D01*
X316587Y-54046D01*
Y-54037D01*
Y-54000D01*
Y-53935D01*
Y-53861D01*
X316597Y-53760D01*
Y-53649D01*
X316606Y-53528D01*
X316615Y-53390D01*
X316643Y-53103D01*
X316689Y-52798D01*
X316744Y-52493D01*
X316782Y-52354D01*
X316818Y-52216D01*
Y-52206D01*
X316828Y-52188D01*
X316846Y-52151D01*
X316865Y-52105D01*
X316883Y-52040D01*
X316920Y-51975D01*
X316994Y-51818D01*
X317087Y-51652D01*
X317207Y-51476D01*
X317345Y-51300D01*
X317512Y-51152D01*
X317521D01*
X317530Y-51134D01*
X317558Y-51115D01*
X317595Y-51097D01*
X317641Y-51060D01*
X317697Y-51032D01*
X317836Y-50958D01*
X318002Y-50894D01*
X318196Y-50829D01*
X318427Y-50792D01*
X318677Y-50773D01*
X318760D01*
X318862Y-50782D01*
D02*
G37*
G36*
X276183Y58789D02*
X276257Y58780D01*
X276341Y58771D01*
X276442Y58752D01*
X276544Y58734D01*
X276784Y58678D01*
X277034Y58586D01*
X277163Y58531D01*
X277284Y58457D01*
X277413Y58383D01*
X277533Y58290D01*
X277542Y58281D01*
X277570Y58262D01*
X277607Y58225D01*
X277653Y58179D01*
X277709Y58115D01*
X277783Y58040D01*
X277848Y57948D01*
X277922Y57846D01*
X277995Y57735D01*
X278060Y57606D01*
X278125Y57467D01*
X278190Y57319D01*
X278236Y57162D01*
X278273Y56986D01*
X278301Y56802D01*
X278310Y56607D01*
Y56524D01*
X278301Y56459D01*
X278291Y56386D01*
X278282Y56302D01*
X278273Y56201D01*
X278245Y56099D01*
X278190Y55868D01*
X278106Y55637D01*
X278051Y55517D01*
X277986Y55396D01*
X277912Y55285D01*
X277829Y55174D01*
X277820Y55165D01*
X277811Y55147D01*
X277774Y55128D01*
X277737Y55091D01*
X277690Y55045D01*
X277635Y54999D01*
X277561Y54943D01*
X277478Y54897D01*
X277395Y54841D01*
X277293Y54786D01*
X277071Y54684D01*
X276812Y54601D01*
X276673Y54573D01*
X276525Y54555D01*
X276461Y55378D01*
X276470D01*
X276488D01*
X276516Y55387D01*
X276562Y55396D01*
X276664Y55424D01*
X276803Y55461D01*
X276942Y55517D01*
X277099Y55590D01*
X277237Y55683D01*
X277367Y55794D01*
X277376Y55812D01*
X277413Y55849D01*
X277459Y55923D01*
X277515Y56025D01*
X277570Y56136D01*
X277616Y56275D01*
X277653Y56432D01*
X277663Y56607D01*
Y56663D01*
X277653Y56700D01*
X277644Y56811D01*
X277607Y56940D01*
X277561Y57098D01*
X277487Y57255D01*
X277376Y57421D01*
X277311Y57495D01*
X277237Y57569D01*
X277228Y57578D01*
X277219Y57587D01*
X277191Y57606D01*
X277163Y57634D01*
X277062Y57698D01*
X276932Y57772D01*
X276775Y57837D01*
X276581Y57902D01*
X276350Y57948D01*
X276230Y57967D01*
X276100D01*
X276091D01*
X276072D01*
X276035D01*
X275989Y57957D01*
X275934D01*
X275869Y57948D01*
X275721Y57920D01*
X275545Y57874D01*
X275370Y57809D01*
X275203Y57717D01*
X275046Y57587D01*
X275037D01*
X275028Y57569D01*
X274981Y57523D01*
X274917Y57440D01*
X274843Y57329D01*
X274778Y57181D01*
X274713Y57014D01*
X274667Y56820D01*
X274649Y56709D01*
Y56533D01*
X274658Y56459D01*
X274667Y56367D01*
X274695Y56256D01*
X274723Y56145D01*
X274769Y56025D01*
X274824Y55905D01*
X274834Y55896D01*
X274852Y55859D01*
X274898Y55803D01*
X274944Y55729D01*
X275009Y55655D01*
X275092Y55581D01*
X275176Y55498D01*
X275277Y55433D01*
X275176Y54694D01*
X271884Y55313D01*
Y58494D01*
X272633D01*
Y55932D01*
X274362Y55590D01*
X274353Y55600D01*
X274343Y55618D01*
X274325Y55646D01*
X274297Y55692D01*
X274270Y55748D01*
X274233Y55812D01*
X274159Y55960D01*
X274085Y56145D01*
X274020Y56349D01*
X273974Y56571D01*
X273955Y56681D01*
Y56885D01*
X273964Y56940D01*
X273974Y57014D01*
X273983Y57098D01*
X274001Y57190D01*
X274029Y57292D01*
X274094Y57513D01*
X274140Y57634D01*
X274205Y57754D01*
X274270Y57874D01*
X274343Y57994D01*
X274436Y58105D01*
X274538Y58216D01*
X274547Y58225D01*
X274565Y58244D01*
X274593Y58272D01*
X274639Y58309D01*
X274704Y58355D01*
X274769Y58401D01*
X274852Y58457D01*
X274944Y58512D01*
X275046Y58558D01*
X275157Y58614D01*
X275287Y58660D01*
X275416Y58706D01*
X275555Y58743D01*
X275712Y58771D01*
X275869Y58789D01*
X276035Y58799D01*
X276045D01*
X276072D01*
X276119D01*
X276183Y58789D01*
D02*
G37*
G36*
X278199Y51754D02*
X273197D01*
X273206Y51744D01*
X273243Y51698D01*
X273299Y51643D01*
X273363Y51550D01*
X273447Y51448D01*
X273539Y51319D01*
X273641Y51171D01*
X273743Y51005D01*
Y50995D01*
X273752Y50986D01*
X273789Y50931D01*
X273835Y50838D01*
X273890Y50727D01*
X273955Y50598D01*
X274020Y50459D01*
X274085Y50320D01*
X274140Y50182D01*
X273382D01*
Y50191D01*
X273363Y50209D01*
X273354Y50247D01*
X273326Y50293D01*
X273299Y50348D01*
X273262Y50413D01*
X273169Y50570D01*
X273068Y50755D01*
X272938Y50940D01*
X272790Y51134D01*
X272633Y51328D01*
X272624Y51337D01*
X272615Y51347D01*
X272587Y51374D01*
X272559Y51411D01*
X272467Y51495D01*
X272356Y51606D01*
X272226Y51716D01*
X272078Y51837D01*
X271930Y51938D01*
X271773Y52031D01*
Y52539D01*
X278199D01*
Y51754D01*
D02*
G37*
G36*
X276220Y48850D02*
X276276Y48832D01*
X276350Y48804D01*
X276433Y48776D01*
X276535Y48740D01*
X276646Y48693D01*
X276766Y48638D01*
X277025Y48508D01*
X277284Y48342D01*
X277413Y48240D01*
X277542Y48138D01*
X277653Y48028D01*
X277764Y47898D01*
X277774Y47889D01*
X277792Y47870D01*
X277811Y47824D01*
X277848Y47778D01*
X277894Y47704D01*
X277940Y47630D01*
X277986Y47528D01*
X278032Y47427D01*
X278088Y47306D01*
X278134Y47177D01*
X278180Y47038D01*
X278227Y46890D01*
X278264Y46733D01*
X278282Y46567D01*
X278301Y46391D01*
X278310Y46206D01*
Y46104D01*
X278301Y46031D01*
Y45947D01*
X278291Y45846D01*
X278273Y45735D01*
X278254Y45605D01*
X278208Y45337D01*
X278134Y45060D01*
X278032Y44782D01*
X277968Y44653D01*
X277894Y44524D01*
X277885Y44514D01*
X277875Y44496D01*
X277848Y44459D01*
X277811Y44422D01*
X277774Y44366D01*
X277718Y44302D01*
X277653Y44228D01*
X277579Y44154D01*
X277496Y44080D01*
X277413Y43997D01*
X277200Y43830D01*
X276951Y43673D01*
X276673Y43534D01*
X276664D01*
X276636Y43516D01*
X276590Y43506D01*
X276535Y43479D01*
X276461Y43460D01*
X276368Y43432D01*
X276267Y43396D01*
X276156Y43368D01*
X276035Y43340D01*
X275897Y43303D01*
X275610Y43257D01*
X275287Y43220D01*
X274954Y43201D01*
X274944D01*
X274907D01*
X274852D01*
X274787Y43211D01*
X274695D01*
X274602Y43220D01*
X274482Y43229D01*
X274362Y43248D01*
X274094Y43294D01*
X273798Y43358D01*
X273502Y43451D01*
X273216Y43580D01*
X273206Y43590D01*
X273179Y43599D01*
X273142Y43617D01*
X273095Y43654D01*
X273031Y43691D01*
X272957Y43738D01*
X272790Y43858D01*
X272605Y44015D01*
X272420Y44200D01*
X272236Y44412D01*
X272078Y44662D01*
X272069Y44671D01*
X272060Y44699D01*
X272041Y44736D01*
X272014Y44782D01*
X271986Y44856D01*
X271958Y44930D01*
X271921Y45023D01*
X271884Y45124D01*
X271847Y45235D01*
X271810Y45356D01*
X271755Y45614D01*
X271709Y45910D01*
X271690Y46215D01*
Y46308D01*
X271699Y46373D01*
X271709Y46456D01*
X271718Y46557D01*
X271727Y46659D01*
X271755Y46779D01*
X271810Y47029D01*
X271893Y47306D01*
X271949Y47445D01*
X272014Y47575D01*
X272097Y47704D01*
X272180Y47833D01*
X272189Y47843D01*
X272199Y47861D01*
X272226Y47898D01*
X272272Y47944D01*
X272319Y47991D01*
X272383Y48055D01*
X272457Y48120D01*
X272531Y48194D01*
X272624Y48268D01*
X272735Y48342D01*
X272846Y48425D01*
X272966Y48499D01*
X273105Y48564D01*
X273243Y48638D01*
X273391Y48693D01*
X273558Y48749D01*
X273752Y47917D01*
X273743D01*
X273724Y47907D01*
X273687Y47889D01*
X273641Y47870D01*
X273585Y47852D01*
X273511Y47824D01*
X273363Y47750D01*
X273197Y47658D01*
X273031Y47547D01*
X272873Y47408D01*
X272735Y47260D01*
X272716Y47242D01*
X272679Y47186D01*
X272633Y47094D01*
X272568Y46974D01*
X272513Y46816D01*
X272457Y46641D01*
X272420Y46428D01*
X272411Y46197D01*
Y46123D01*
X272420Y46077D01*
Y46012D01*
X272430Y45938D01*
X272457Y45762D01*
X272494Y45568D01*
X272559Y45365D01*
X272652Y45152D01*
X272772Y44958D01*
Y44949D01*
X272790Y44939D01*
X272836Y44875D01*
X272910Y44792D01*
X273021Y44690D01*
X273160Y44570D01*
X273317Y44459D01*
X273511Y44357D01*
X273724Y44265D01*
X273733D01*
X273752Y44255D01*
X273780Y44246D01*
X273826Y44237D01*
X273881Y44218D01*
X273946Y44200D01*
X274103Y44172D01*
X274288Y44135D01*
X274491Y44098D01*
X274713Y44080D01*
X274954Y44070D01*
X274963D01*
X274991D01*
X275037D01*
X275092D01*
X275157Y44080D01*
X275240D01*
X275333Y44089D01*
X275434Y44098D01*
X275656Y44126D01*
X275897Y44172D01*
X276137Y44228D01*
X276378Y44302D01*
X276387D01*
X276405Y44311D01*
X276433Y44329D01*
X276479Y44348D01*
X276590Y44403D01*
X276720Y44486D01*
X276868Y44588D01*
X277025Y44718D01*
X277163Y44865D01*
X277293Y45041D01*
Y45051D01*
X277302Y45069D01*
X277321Y45097D01*
X277339Y45134D01*
X277358Y45180D01*
X277385Y45235D01*
X277441Y45365D01*
X277496Y45531D01*
X277542Y45716D01*
X277579Y45919D01*
X277589Y46132D01*
Y46197D01*
X277579Y46252D01*
Y46317D01*
X277570Y46382D01*
X277533Y46548D01*
X277487Y46742D01*
X277413Y46937D01*
X277311Y47140D01*
X277256Y47242D01*
X277182Y47334D01*
X277173Y47343D01*
X277163Y47353D01*
X277136Y47380D01*
X277108Y47417D01*
X277062Y47454D01*
X277006Y47501D01*
X276951Y47556D01*
X276877Y47602D01*
X276794Y47658D01*
X276701Y47722D01*
X276609Y47778D01*
X276498Y47833D01*
X276378Y47880D01*
X276248Y47926D01*
X276109Y47972D01*
X275961Y48009D01*
X276174Y48860D01*
X276183D01*
X276220Y48850D01*
D02*
G37*
G36*
X394183Y115302D02*
X394257Y115293D01*
X394341Y115284D01*
X394442Y115265D01*
X394544Y115247D01*
X394784Y115191D01*
X395034Y115099D01*
X395163Y115043D01*
X395284Y114970D01*
X395413Y114895D01*
X395533Y114803D01*
X395542Y114794D01*
X395570Y114775D01*
X395607Y114738D01*
X395653Y114692D01*
X395709Y114627D01*
X395783Y114553D01*
X395848Y114461D01*
X395922Y114359D01*
X395996Y114248D01*
X396060Y114119D01*
X396125Y113980D01*
X396190Y113832D01*
X396236Y113675D01*
X396273Y113499D01*
X396301Y113315D01*
X396310Y113120D01*
Y113037D01*
X396301Y112972D01*
X396291Y112899D01*
X396282Y112815D01*
X396273Y112714D01*
X396245Y112612D01*
X396190Y112381D01*
X396106Y112150D01*
X396051Y112029D01*
X395986Y111909D01*
X395912Y111798D01*
X395829Y111687D01*
X395820Y111678D01*
X395811Y111660D01*
X395774Y111641D01*
X395737Y111604D01*
X395690Y111558D01*
X395635Y111512D01*
X395561Y111456D01*
X395478Y111410D01*
X395395Y111355D01*
X395293Y111299D01*
X395071Y111197D01*
X394812Y111114D01*
X394673Y111086D01*
X394525Y111068D01*
X394461Y111891D01*
X394470D01*
X394488D01*
X394516Y111900D01*
X394562Y111909D01*
X394664Y111937D01*
X394803Y111974D01*
X394942Y112029D01*
X395099Y112103D01*
X395237Y112196D01*
X395367Y112307D01*
X395376Y112325D01*
X395413Y112362D01*
X395459Y112436D01*
X395515Y112538D01*
X395570Y112649D01*
X395616Y112788D01*
X395653Y112945D01*
X395663Y113120D01*
Y113176D01*
X395653Y113213D01*
X395644Y113324D01*
X395607Y113453D01*
X395561Y113610D01*
X395487Y113768D01*
X395376Y113934D01*
X395311Y114008D01*
X395237Y114082D01*
X395228Y114091D01*
X395219Y114100D01*
X395191Y114119D01*
X395163Y114147D01*
X395062Y114211D01*
X394932Y114285D01*
X394775Y114350D01*
X394581Y114415D01*
X394350Y114461D01*
X394230Y114480D01*
X394100D01*
X394091D01*
X394072D01*
X394035D01*
X393989Y114470D01*
X393934D01*
X393869Y114461D01*
X393721Y114433D01*
X393545Y114387D01*
X393370Y114322D01*
X393203Y114230D01*
X393046Y114100D01*
X393037D01*
X393028Y114082D01*
X392981Y114036D01*
X392917Y113953D01*
X392843Y113841D01*
X392778Y113694D01*
X392713Y113527D01*
X392667Y113333D01*
X392649Y113222D01*
Y113046D01*
X392658Y112972D01*
X392667Y112880D01*
X392695Y112769D01*
X392723Y112658D01*
X392769Y112538D01*
X392824Y112418D01*
X392834Y112409D01*
X392852Y112372D01*
X392898Y112316D01*
X392944Y112242D01*
X393009Y112168D01*
X393092Y112094D01*
X393176Y112011D01*
X393277Y111946D01*
X393176Y111207D01*
X389884Y111826D01*
Y115007D01*
X390633D01*
Y112445D01*
X392362Y112103D01*
X392353Y112113D01*
X392343Y112131D01*
X392325Y112159D01*
X392297Y112205D01*
X392270Y112261D01*
X392233Y112325D01*
X392159Y112473D01*
X392085Y112658D01*
X392020Y112861D01*
X391974Y113083D01*
X391955Y113194D01*
Y113398D01*
X391964Y113453D01*
X391974Y113527D01*
X391983Y113610D01*
X392001Y113703D01*
X392029Y113805D01*
X392094Y114026D01*
X392140Y114147D01*
X392205Y114267D01*
X392270Y114387D01*
X392343Y114507D01*
X392436Y114618D01*
X392538Y114729D01*
X392547Y114738D01*
X392565Y114757D01*
X392593Y114785D01*
X392639Y114822D01*
X392704Y114868D01*
X392769Y114914D01*
X392852Y114970D01*
X392944Y115025D01*
X393046Y115071D01*
X393157Y115127D01*
X393287Y115173D01*
X393416Y115219D01*
X393555Y115256D01*
X393712Y115284D01*
X393869Y115302D01*
X394035Y115312D01*
X394045D01*
X394072D01*
X394119D01*
X394183Y115302D01*
D02*
G37*
G36*
X394220Y110337D02*
X394276Y110319D01*
X394350Y110291D01*
X394433Y110264D01*
X394535Y110226D01*
X394646Y110180D01*
X394766Y110125D01*
X395025Y109995D01*
X395284Y109829D01*
X395413Y109727D01*
X395542Y109626D01*
X395653Y109515D01*
X395764Y109385D01*
X395774Y109376D01*
X395792Y109357D01*
X395811Y109311D01*
X395848Y109265D01*
X395894Y109191D01*
X395940Y109117D01*
X395986Y109015D01*
X396032Y108914D01*
X396088Y108793D01*
X396134Y108664D01*
X396180Y108525D01*
X396227Y108377D01*
X396264Y108220D01*
X396282Y108054D01*
X396301Y107878D01*
X396310Y107693D01*
Y107591D01*
X396301Y107517D01*
Y107434D01*
X396291Y107333D01*
X396273Y107222D01*
X396254Y107092D01*
X396208Y106824D01*
X396134Y106547D01*
X396032Y106269D01*
X395968Y106140D01*
X395894Y106011D01*
X395885Y106001D01*
X395875Y105983D01*
X395848Y105946D01*
X395811Y105909D01*
X395774Y105853D01*
X395718Y105789D01*
X395653Y105715D01*
X395579Y105641D01*
X395496Y105567D01*
X395413Y105484D01*
X395200Y105317D01*
X394951Y105160D01*
X394673Y105021D01*
X394664D01*
X394636Y105003D01*
X394590Y104993D01*
X394535Y104966D01*
X394461Y104947D01*
X394368Y104920D01*
X394267Y104882D01*
X394156Y104855D01*
X394035Y104827D01*
X393897Y104790D01*
X393610Y104744D01*
X393287Y104707D01*
X392954Y104688D01*
X392944D01*
X392907D01*
X392852D01*
X392787Y104698D01*
X392695D01*
X392602Y104707D01*
X392482Y104716D01*
X392362Y104735D01*
X392094Y104781D01*
X391798Y104846D01*
X391502Y104938D01*
X391216Y105068D01*
X391206Y105077D01*
X391179Y105086D01*
X391142Y105104D01*
X391095Y105141D01*
X391031Y105178D01*
X390957Y105225D01*
X390790Y105345D01*
X390605Y105502D01*
X390420Y105687D01*
X390235Y105900D01*
X390078Y106149D01*
X390069Y106158D01*
X390060Y106186D01*
X390041Y106223D01*
X390014Y106269D01*
X389986Y106343D01*
X389958Y106417D01*
X389921Y106510D01*
X389884Y106611D01*
X389847Y106722D01*
X389810Y106843D01*
X389755Y107101D01*
X389709Y107397D01*
X389690Y107703D01*
Y107795D01*
X389699Y107860D01*
X389709Y107943D01*
X389718Y108045D01*
X389727Y108146D01*
X389755Y108266D01*
X389810Y108516D01*
X389893Y108793D01*
X389949Y108932D01*
X390014Y109062D01*
X390097Y109191D01*
X390180Y109320D01*
X390189Y109330D01*
X390199Y109348D01*
X390226Y109385D01*
X390272Y109431D01*
X390319Y109478D01*
X390383Y109542D01*
X390457Y109607D01*
X390531Y109681D01*
X390624Y109755D01*
X390735Y109829D01*
X390846Y109912D01*
X390966Y109986D01*
X391105Y110051D01*
X391243Y110125D01*
X391391Y110180D01*
X391558Y110236D01*
X391752Y109404D01*
X391743D01*
X391724Y109394D01*
X391687Y109376D01*
X391641Y109357D01*
X391585Y109339D01*
X391511Y109311D01*
X391363Y109237D01*
X391197Y109145D01*
X391031Y109034D01*
X390873Y108895D01*
X390735Y108747D01*
X390716Y108729D01*
X390679Y108673D01*
X390633Y108581D01*
X390568Y108461D01*
X390513Y108303D01*
X390457Y108128D01*
X390420Y107915D01*
X390411Y107684D01*
Y107610D01*
X390420Y107564D01*
Y107499D01*
X390430Y107425D01*
X390457Y107249D01*
X390494Y107055D01*
X390559Y106852D01*
X390652Y106639D01*
X390772Y106445D01*
Y106436D01*
X390790Y106427D01*
X390836Y106362D01*
X390910Y106279D01*
X391021Y106177D01*
X391160Y106057D01*
X391317Y105946D01*
X391511Y105844D01*
X391724Y105752D01*
X391733D01*
X391752Y105742D01*
X391780Y105733D01*
X391826Y105724D01*
X391881Y105705D01*
X391946Y105687D01*
X392103Y105659D01*
X392288Y105622D01*
X392491Y105585D01*
X392713Y105567D01*
X392954Y105557D01*
X392963D01*
X392991D01*
X393037D01*
X393092D01*
X393157Y105567D01*
X393240D01*
X393333Y105576D01*
X393434Y105585D01*
X393656Y105613D01*
X393897Y105659D01*
X394137Y105715D01*
X394378Y105789D01*
X394387D01*
X394405Y105798D01*
X394433Y105816D01*
X394479Y105835D01*
X394590Y105890D01*
X394720Y105974D01*
X394868Y106075D01*
X395025Y106205D01*
X395163Y106353D01*
X395293Y106528D01*
Y106538D01*
X395302Y106556D01*
X395321Y106584D01*
X395339Y106621D01*
X395358Y106667D01*
X395385Y106722D01*
X395441Y106852D01*
X395496Y107018D01*
X395542Y107203D01*
X395579Y107407D01*
X395589Y107619D01*
Y107684D01*
X395579Y107739D01*
Y107804D01*
X395570Y107869D01*
X395533Y108035D01*
X395487Y108230D01*
X395413Y108424D01*
X395311Y108627D01*
X395256Y108729D01*
X395182Y108821D01*
X395173Y108830D01*
X395163Y108840D01*
X395136Y108867D01*
X395108Y108904D01*
X395062Y108941D01*
X395006Y108988D01*
X394951Y109043D01*
X394877Y109089D01*
X394794Y109145D01*
X394701Y109209D01*
X394609Y109265D01*
X394498Y109320D01*
X394378Y109367D01*
X394248Y109413D01*
X394109Y109459D01*
X393961Y109496D01*
X394174Y110347D01*
X394183D01*
X394220Y110337D01*
D02*
G37*
G36*
X314164Y59393D02*
X315699D01*
Y58607D01*
X314164D01*
Y55824D01*
X313443D01*
X309301Y58755D01*
Y59393D01*
X313443D01*
Y60262D01*
X314164D01*
Y59393D01*
D02*
G37*
G36*
X315699Y53291D02*
X310697D01*
X310706Y53281D01*
X310743Y53235D01*
X310799Y53179D01*
X310863Y53087D01*
X310947Y52985D01*
X311039Y52856D01*
X311141Y52708D01*
X311243Y52542D01*
Y52532D01*
X311252Y52523D01*
X311289Y52468D01*
X311335Y52375D01*
X311390Y52264D01*
X311455Y52135D01*
X311520Y51996D01*
X311585Y51857D01*
X311640Y51719D01*
X310882D01*
Y51728D01*
X310863Y51747D01*
X310854Y51783D01*
X310827Y51830D01*
X310799Y51885D01*
X310762Y51950D01*
X310669Y52107D01*
X310568Y52292D01*
X310438Y52477D01*
X310290Y52671D01*
X310133Y52865D01*
X310124Y52874D01*
X310115Y52884D01*
X310087Y52911D01*
X310059Y52948D01*
X309967Y53032D01*
X309856Y53143D01*
X309726Y53253D01*
X309578Y53374D01*
X309431Y53475D01*
X309273Y53568D01*
Y54076D01*
X315699D01*
Y53291D01*
D02*
G37*
G36*
X313720Y50387D02*
X313776Y50369D01*
X313850Y50341D01*
X313933Y50313D01*
X314035Y50276D01*
X314146Y50230D01*
X314266Y50175D01*
X314525Y50045D01*
X314784Y49879D01*
X314913Y49777D01*
X315043Y49675D01*
X315154Y49564D01*
X315264Y49435D01*
X315274Y49426D01*
X315292Y49407D01*
X315311Y49361D01*
X315348Y49315D01*
X315394Y49241D01*
X315440Y49167D01*
X315486Y49065D01*
X315533Y48964D01*
X315588Y48843D01*
X315634Y48714D01*
X315681Y48575D01*
X315727Y48427D01*
X315764Y48270D01*
X315782Y48104D01*
X315801Y47928D01*
X315810Y47743D01*
Y47641D01*
X315801Y47568D01*
Y47484D01*
X315791Y47383D01*
X315773Y47272D01*
X315755Y47142D01*
X315708Y46874D01*
X315634Y46597D01*
X315533Y46319D01*
X315468Y46190D01*
X315394Y46060D01*
X315385Y46051D01*
X315375Y46033D01*
X315348Y45996D01*
X315311Y45959D01*
X315274Y45903D01*
X315218Y45838D01*
X315154Y45765D01*
X315079Y45691D01*
X314996Y45617D01*
X314913Y45533D01*
X314701Y45367D01*
X314451Y45210D01*
X314174Y45071D01*
X314164D01*
X314137Y45053D01*
X314090Y45043D01*
X314035Y45016D01*
X313961Y44997D01*
X313868Y44970D01*
X313767Y44932D01*
X313656Y44905D01*
X313535Y44877D01*
X313397Y44840D01*
X313110Y44794D01*
X312787Y44757D01*
X312454Y44738D01*
X312444D01*
X312408D01*
X312352D01*
X312287Y44748D01*
X312195D01*
X312102Y44757D01*
X311982Y44766D01*
X311862Y44784D01*
X311594Y44831D01*
X311298Y44896D01*
X311002Y44988D01*
X310716Y45117D01*
X310706Y45127D01*
X310679Y45136D01*
X310642Y45154D01*
X310595Y45191D01*
X310531Y45228D01*
X310457Y45275D01*
X310290Y45395D01*
X310105Y45552D01*
X309921Y45737D01*
X309736Y45950D01*
X309578Y46199D01*
X309569Y46208D01*
X309560Y46236D01*
X309541Y46273D01*
X309514Y46319D01*
X309486Y46393D01*
X309458Y46467D01*
X309421Y46560D01*
X309384Y46661D01*
X309347Y46772D01*
X309310Y46892D01*
X309255Y47151D01*
X309209Y47447D01*
X309190Y47752D01*
Y47845D01*
X309199Y47910D01*
X309209Y47993D01*
X309218Y48095D01*
X309227Y48196D01*
X309255Y48316D01*
X309310Y48566D01*
X309394Y48843D01*
X309449Y48982D01*
X309514Y49111D01*
X309597Y49241D01*
X309680Y49370D01*
X309689Y49380D01*
X309699Y49398D01*
X309726Y49435D01*
X309773Y49481D01*
X309819Y49528D01*
X309883Y49592D01*
X309958Y49657D01*
X310031Y49731D01*
X310124Y49805D01*
X310235Y49879D01*
X310346Y49962D01*
X310466Y50036D01*
X310605Y50101D01*
X310743Y50175D01*
X310891Y50230D01*
X311058Y50286D01*
X311252Y49454D01*
X311243D01*
X311224Y49444D01*
X311187Y49426D01*
X311141Y49407D01*
X311085Y49389D01*
X311012Y49361D01*
X310863Y49287D01*
X310697Y49195D01*
X310531Y49084D01*
X310373Y48945D01*
X310235Y48797D01*
X310216Y48779D01*
X310179Y48723D01*
X310133Y48631D01*
X310068Y48510D01*
X310013Y48353D01*
X309958Y48178D01*
X309921Y47965D01*
X309911Y47734D01*
Y47660D01*
X309921Y47614D01*
Y47549D01*
X309930Y47475D01*
X309958Y47299D01*
X309995Y47105D01*
X310059Y46902D01*
X310152Y46689D01*
X310272Y46495D01*
Y46486D01*
X310290Y46476D01*
X310336Y46412D01*
X310410Y46329D01*
X310522Y46227D01*
X310660Y46107D01*
X310817Y45996D01*
X311012Y45894D01*
X311224Y45802D01*
X311233D01*
X311252Y45792D01*
X311280Y45783D01*
X311326Y45774D01*
X311381Y45755D01*
X311446Y45737D01*
X311603Y45709D01*
X311788Y45672D01*
X311992Y45635D01*
X312213Y45617D01*
X312454Y45607D01*
X312463D01*
X312491D01*
X312537D01*
X312593D01*
X312657Y45617D01*
X312740D01*
X312833Y45626D01*
X312935Y45635D01*
X313156Y45663D01*
X313397Y45709D01*
X313637Y45765D01*
X313878Y45838D01*
X313887D01*
X313905Y45848D01*
X313933Y45866D01*
X313979Y45885D01*
X314090Y45940D01*
X314220Y46024D01*
X314368Y46125D01*
X314525Y46255D01*
X314664Y46403D01*
X314793Y46578D01*
Y46587D01*
X314802Y46606D01*
X314821Y46634D01*
X314839Y46671D01*
X314858Y46717D01*
X314885Y46772D01*
X314941Y46902D01*
X314996Y47068D01*
X315043Y47253D01*
X315079Y47456D01*
X315089Y47669D01*
Y47734D01*
X315079Y47789D01*
Y47854D01*
X315070Y47919D01*
X315033Y48085D01*
X314987Y48279D01*
X314913Y48474D01*
X314811Y48677D01*
X314756Y48779D01*
X314682Y48871D01*
X314673Y48880D01*
X314664Y48890D01*
X314636Y48917D01*
X314608Y48954D01*
X314562Y48991D01*
X314506Y49037D01*
X314451Y49093D01*
X314377Y49139D01*
X314294Y49195D01*
X314201Y49259D01*
X314109Y49315D01*
X313998Y49370D01*
X313878Y49417D01*
X313748Y49463D01*
X313610Y49509D01*
X313462Y49546D01*
X313674Y50397D01*
X313683D01*
X313720Y50387D01*
D02*
G37*
G36*
X375383Y-14199D02*
X375466Y-14209D01*
X375568Y-14218D01*
X375669Y-14227D01*
X375790Y-14255D01*
X376039Y-14310D01*
X376317Y-14394D01*
X376455Y-14449D01*
X376585Y-14514D01*
X376714Y-14597D01*
X376844Y-14680D01*
X376853Y-14689D01*
X376871Y-14699D01*
X376908Y-14726D01*
X376954Y-14772D01*
X377001Y-14819D01*
X377066Y-14884D01*
X377130Y-14957D01*
X377204Y-15031D01*
X377278Y-15124D01*
X377352Y-15235D01*
X377435Y-15346D01*
X377509Y-15466D01*
X377574Y-15605D01*
X377648Y-15743D01*
X377703Y-15891D01*
X377759Y-16058D01*
X376927Y-16252D01*
Y-16243D01*
X376917Y-16224D01*
X376899Y-16187D01*
X376881Y-16141D01*
X376862Y-16085D01*
X376834Y-16011D01*
X376760Y-15863D01*
X376668Y-15697D01*
X376557Y-15531D01*
X376418Y-15374D01*
X376270Y-15235D01*
X376252Y-15216D01*
X376196Y-15179D01*
X376104Y-15133D01*
X375984Y-15068D01*
X375827Y-15013D01*
X375651Y-14957D01*
X375438Y-14921D01*
X375207Y-14911D01*
X375133D01*
X375087Y-14921D01*
X375022D01*
X374948Y-14930D01*
X374773Y-14957D01*
X374578Y-14994D01*
X374375Y-15059D01*
X374162Y-15152D01*
X373968Y-15272D01*
X373959D01*
X373950Y-15290D01*
X373885Y-15337D01*
X373802Y-15410D01*
X373700Y-15521D01*
X373580Y-15660D01*
X373469Y-15817D01*
X373367Y-16011D01*
X373275Y-16224D01*
Y-16233D01*
X373265Y-16252D01*
X373256Y-16280D01*
X373247Y-16326D01*
X373228Y-16381D01*
X373210Y-16446D01*
X373182Y-16603D01*
X373145Y-16788D01*
X373108Y-16991D01*
X373090Y-17213D01*
X373081Y-17454D01*
Y-17463D01*
Y-17491D01*
Y-17537D01*
Y-17592D01*
X373090Y-17657D01*
Y-17740D01*
X373099Y-17833D01*
X373108Y-17934D01*
X373136Y-18156D01*
X373182Y-18397D01*
X373238Y-18637D01*
X373312Y-18878D01*
Y-18887D01*
X373321Y-18905D01*
X373340Y-18933D01*
X373358Y-18979D01*
X373414Y-19090D01*
X373497Y-19220D01*
X373598Y-19368D01*
X373728Y-19525D01*
X373876Y-19663D01*
X374051Y-19793D01*
X374061D01*
X374079Y-19802D01*
X374107Y-19821D01*
X374144Y-19839D01*
X374190Y-19858D01*
X374246Y-19885D01*
X374375Y-19941D01*
X374541Y-19996D01*
X374726Y-20043D01*
X374930Y-20080D01*
X375142Y-20089D01*
X375207D01*
X375263Y-20080D01*
X375327D01*
X375392Y-20070D01*
X375558Y-20033D01*
X375753Y-19987D01*
X375947Y-19913D01*
X376150Y-19811D01*
X376252Y-19756D01*
X376344Y-19682D01*
X376354Y-19673D01*
X376363Y-19663D01*
X376390Y-19636D01*
X376427Y-19608D01*
X376465Y-19562D01*
X376511Y-19506D01*
X376566Y-19451D01*
X376612Y-19377D01*
X376668Y-19294D01*
X376733Y-19201D01*
X376788Y-19109D01*
X376844Y-18998D01*
X376890Y-18878D01*
X376936Y-18748D01*
X376982Y-18609D01*
X377019Y-18462D01*
X377870Y-18674D01*
Y-18683D01*
X377861Y-18720D01*
X377842Y-18776D01*
X377814Y-18850D01*
X377787Y-18933D01*
X377750Y-19035D01*
X377703Y-19146D01*
X377648Y-19266D01*
X377519Y-19525D01*
X377352Y-19784D01*
X377250Y-19913D01*
X377149Y-20043D01*
X377038Y-20154D01*
X376908Y-20264D01*
X376899Y-20274D01*
X376881Y-20292D01*
X376834Y-20311D01*
X376788Y-20348D01*
X376714Y-20394D01*
X376640Y-20440D01*
X376539Y-20486D01*
X376437Y-20533D01*
X376317Y-20588D01*
X376187Y-20634D01*
X376048Y-20680D01*
X375900Y-20727D01*
X375743Y-20764D01*
X375577Y-20782D01*
X375401Y-20801D01*
X375216Y-20810D01*
X375115D01*
X375041Y-20801D01*
X374958D01*
X374856Y-20791D01*
X374745Y-20773D01*
X374615Y-20754D01*
X374347Y-20708D01*
X374070Y-20634D01*
X373792Y-20533D01*
X373663Y-20468D01*
X373534Y-20394D01*
X373524Y-20385D01*
X373506Y-20375D01*
X373469Y-20348D01*
X373432Y-20311D01*
X373377Y-20274D01*
X373312Y-20218D01*
X373238Y-20154D01*
X373164Y-20080D01*
X373090Y-19996D01*
X373007Y-19913D01*
X372840Y-19700D01*
X372683Y-19451D01*
X372544Y-19173D01*
Y-19164D01*
X372526Y-19137D01*
X372517Y-19090D01*
X372489Y-19035D01*
X372470Y-18961D01*
X372443Y-18868D01*
X372406Y-18767D01*
X372378Y-18656D01*
X372350Y-18535D01*
X372313Y-18397D01*
X372267Y-18110D01*
X372230Y-17787D01*
X372211Y-17454D01*
Y-17444D01*
Y-17407D01*
Y-17352D01*
X372221Y-17287D01*
Y-17195D01*
X372230Y-17102D01*
X372239Y-16982D01*
X372258Y-16862D01*
X372304Y-16594D01*
X372369Y-16298D01*
X372461Y-16002D01*
X372591Y-15716D01*
X372600Y-15706D01*
X372609Y-15679D01*
X372628Y-15642D01*
X372665Y-15595D01*
X372701Y-15531D01*
X372748Y-15457D01*
X372868Y-15290D01*
X373025Y-15105D01*
X373210Y-14921D01*
X373423Y-14736D01*
X373672Y-14578D01*
X373682Y-14569D01*
X373709Y-14560D01*
X373746Y-14541D01*
X373792Y-14514D01*
X373867Y-14486D01*
X373941Y-14458D01*
X374033Y-14421D01*
X374135Y-14384D01*
X374246Y-14347D01*
X374366Y-14310D01*
X374625Y-14255D01*
X374921Y-14209D01*
X375226Y-14190D01*
X375318D01*
X375383Y-14199D01*
D02*
G37*
G36*
X382789Y-15004D02*
X382779Y-15013D01*
X382761Y-15031D01*
X382724Y-15068D01*
X382687Y-15124D01*
X382631Y-15189D01*
X382557Y-15263D01*
X382483Y-15355D01*
X382400Y-15466D01*
X382317Y-15577D01*
X382215Y-15706D01*
X382114Y-15854D01*
X382012Y-16002D01*
X381901Y-16169D01*
X381790Y-16344D01*
X381679Y-16538D01*
X381568Y-16733D01*
X381559Y-16742D01*
X381540Y-16779D01*
X381513Y-16834D01*
X381466Y-16918D01*
X381420Y-17019D01*
X381365Y-17130D01*
X381300Y-17260D01*
X381235Y-17407D01*
X381161Y-17574D01*
X381078Y-17740D01*
X381004Y-17925D01*
X380930Y-18119D01*
X380782Y-18517D01*
X380644Y-18942D01*
Y-18951D01*
X380634Y-18979D01*
X380625Y-19025D01*
X380606Y-19081D01*
X380588Y-19155D01*
X380569Y-19247D01*
X380542Y-19349D01*
X380523Y-19460D01*
X380496Y-19590D01*
X380468Y-19728D01*
X380422Y-20024D01*
X380375Y-20348D01*
X380348Y-20699D01*
X379543D01*
Y-20690D01*
Y-20662D01*
Y-20625D01*
X379552Y-20570D01*
Y-20496D01*
X379562Y-20403D01*
X379571Y-20301D01*
X379580Y-20190D01*
X379599Y-20061D01*
X379617Y-19932D01*
X379645Y-19774D01*
X379673Y-19617D01*
X379701Y-19451D01*
X379737Y-19266D01*
X379830Y-18887D01*
Y-18878D01*
X379839Y-18841D01*
X379858Y-18785D01*
X379885Y-18702D01*
X379913Y-18609D01*
X379950Y-18499D01*
X379987Y-18369D01*
X380042Y-18230D01*
X380098Y-18073D01*
X380154Y-17916D01*
X380292Y-17565D01*
X380459Y-17195D01*
X380644Y-16825D01*
X380653Y-16816D01*
X380671Y-16779D01*
X380699Y-16733D01*
X380736Y-16659D01*
X380782Y-16575D01*
X380847Y-16474D01*
X380912Y-16363D01*
X380986Y-16243D01*
X381161Y-15975D01*
X381346Y-15697D01*
X381559Y-15410D01*
X381781Y-15142D01*
X378647D01*
Y-14384D01*
X382789D01*
Y-15004D01*
D02*
G37*
G36*
X298878Y-769D02*
X298961D01*
X299156Y-778D01*
X299359Y-806D01*
X299581Y-833D01*
X299784Y-880D01*
X299886Y-907D01*
X299969Y-935D01*
X299978D01*
X299988Y-944D01*
X300043Y-972D01*
X300126Y-1009D01*
X300228Y-1074D01*
X300339Y-1157D01*
X300459Y-1268D01*
X300570Y-1397D01*
X300681Y-1545D01*
Y-1555D01*
X300690Y-1564D01*
X300727Y-1619D01*
X300764Y-1712D01*
X300820Y-1832D01*
X300866Y-1971D01*
X300912Y-2137D01*
X300940Y-2313D01*
X300949Y-2507D01*
Y-2516D01*
Y-2535D01*
Y-2571D01*
X300940Y-2618D01*
Y-2682D01*
X300931Y-2747D01*
X300894Y-2904D01*
X300838Y-3089D01*
X300764Y-3284D01*
X300653Y-3478D01*
X300579Y-3570D01*
X300505Y-3663D01*
X300496Y-3672D01*
X300487Y-3681D01*
X300459Y-3709D01*
X300422Y-3737D01*
X300376Y-3774D01*
X300320Y-3810D01*
X300247Y-3857D01*
X300173Y-3912D01*
X300080Y-3958D01*
X299978Y-4005D01*
X299867Y-4060D01*
X299747Y-4106D01*
X299608Y-4143D01*
X299470Y-4189D01*
X299313Y-4217D01*
X299146Y-4245D01*
X299165Y-4254D01*
X299202Y-4273D01*
X299257Y-4310D01*
X299331Y-4347D01*
X299498Y-4448D01*
X299581Y-4513D01*
X299655Y-4569D01*
X299673Y-4587D01*
X299720Y-4633D01*
X299793Y-4707D01*
X299886Y-4800D01*
X299988Y-4929D01*
X300108Y-5068D01*
X300228Y-5234D01*
X300357Y-5419D01*
X301458Y-7157D01*
X300404D01*
X299562Y-5826D01*
Y-5817D01*
X299544Y-5798D01*
X299525Y-5770D01*
X299498Y-5734D01*
X299433Y-5632D01*
X299350Y-5502D01*
X299248Y-5364D01*
X299146Y-5216D01*
X299045Y-5077D01*
X298952Y-4948D01*
X298943Y-4938D01*
X298915Y-4901D01*
X298869Y-4846D01*
X298804Y-4781D01*
X298666Y-4643D01*
X298591Y-4578D01*
X298518Y-4522D01*
X298508Y-4513D01*
X298490Y-4504D01*
X298453Y-4485D01*
X298397Y-4458D01*
X298342Y-4430D01*
X298277Y-4402D01*
X298129Y-4356D01*
X298120D01*
X298102Y-4347D01*
X298064D01*
X298018Y-4338D01*
X297954Y-4328D01*
X297880D01*
X297778Y-4319D01*
X296687D01*
Y-7157D01*
X295836D01*
Y-759D01*
X298804D01*
X298878Y-769D01*
D02*
G37*
G36*
X304176Y-741D02*
X304250Y-750D01*
X304333Y-759D01*
X304426Y-769D01*
X304518Y-796D01*
X304740Y-852D01*
X304962Y-935D01*
X305073Y-991D01*
X305184Y-1055D01*
X305285Y-1138D01*
X305387Y-1222D01*
X305396Y-1231D01*
X305406Y-1240D01*
X305433Y-1268D01*
X305470Y-1305D01*
X305507Y-1360D01*
X305553Y-1416D01*
X305646Y-1555D01*
X305738Y-1730D01*
X305822Y-1934D01*
X305886Y-2165D01*
X305896Y-2285D01*
X305905Y-2414D01*
Y-2424D01*
Y-2433D01*
Y-2488D01*
X305896Y-2571D01*
X305877Y-2673D01*
X305849Y-2803D01*
X305803Y-2932D01*
X305748Y-3062D01*
X305664Y-3191D01*
X305655Y-3210D01*
X305618Y-3246D01*
X305563Y-3302D01*
X305489Y-3376D01*
X305387Y-3459D01*
X305267Y-3542D01*
X305128Y-3625D01*
X304962Y-3699D01*
X304971D01*
X304989Y-3709D01*
X305017Y-3718D01*
X305054Y-3737D01*
X305165Y-3783D01*
X305295Y-3847D01*
X305433Y-3940D01*
X305581Y-4042D01*
X305720Y-4171D01*
X305849Y-4319D01*
Y-4328D01*
X305859Y-4338D01*
X305896Y-4393D01*
X305951Y-4485D01*
X306007Y-4606D01*
X306062Y-4753D01*
X306117Y-4929D01*
X306154Y-5123D01*
X306164Y-5336D01*
Y-5345D01*
Y-5373D01*
Y-5419D01*
X306154Y-5475D01*
X306145Y-5539D01*
X306136Y-5623D01*
X306117Y-5715D01*
X306090Y-5817D01*
X306025Y-6029D01*
X305979Y-6150D01*
X305914Y-6260D01*
X305849Y-6381D01*
X305775Y-6492D01*
X305683Y-6603D01*
X305581Y-6714D01*
X305572Y-6723D01*
X305553Y-6741D01*
X305526Y-6769D01*
X305480Y-6797D01*
X305415Y-6843D01*
X305350Y-6889D01*
X305267Y-6935D01*
X305174Y-6991D01*
X305073Y-7046D01*
X304953Y-7093D01*
X304823Y-7139D01*
X304694Y-7185D01*
X304546Y-7213D01*
X304389Y-7241D01*
X304231Y-7259D01*
X304056Y-7268D01*
X303963D01*
X303899Y-7259D01*
X303815Y-7250D01*
X303723Y-7241D01*
X303621Y-7222D01*
X303510Y-7194D01*
X303261Y-7130D01*
X303131Y-7083D01*
X303011Y-7037D01*
X302882Y-6973D01*
X302752Y-6898D01*
X302632Y-6815D01*
X302521Y-6714D01*
X302512Y-6704D01*
X302493Y-6686D01*
X302465Y-6658D01*
X302428Y-6612D01*
X302391Y-6556D01*
X302336Y-6492D01*
X302290Y-6418D01*
X302234Y-6325D01*
X302179Y-6233D01*
X302133Y-6122D01*
X302040Y-5891D01*
X302003Y-5752D01*
X301975Y-5613D01*
X301957Y-5465D01*
X301948Y-5318D01*
Y-5308D01*
Y-5290D01*
Y-5253D01*
X301957Y-5216D01*
Y-5160D01*
X301966Y-5096D01*
X301985Y-4948D01*
X302022Y-4781D01*
X302077Y-4615D01*
X302160Y-4439D01*
X302262Y-4273D01*
Y-4263D01*
X302281Y-4254D01*
X302318Y-4208D01*
X302391Y-4134D01*
X302493Y-4042D01*
X302623Y-3949D01*
X302780Y-3847D01*
X302955Y-3764D01*
X303168Y-3699D01*
X303159D01*
X303150Y-3690D01*
X303122Y-3681D01*
X303085Y-3663D01*
X303002Y-3625D01*
X302891Y-3570D01*
X302771Y-3496D01*
X302650Y-3404D01*
X302539Y-3302D01*
X302438Y-3191D01*
X302428Y-3173D01*
X302401Y-3135D01*
X302364Y-3062D01*
X302327Y-2969D01*
X302281Y-2849D01*
X302243Y-2710D01*
X302216Y-2553D01*
X302207Y-2387D01*
Y-2377D01*
Y-2359D01*
Y-2322D01*
X302216Y-2266D01*
X302225Y-2211D01*
X302234Y-2137D01*
X302271Y-1980D01*
X302327Y-1795D01*
X302419Y-1601D01*
X302475Y-1499D01*
X302539Y-1397D01*
X302623Y-1305D01*
X302706Y-1212D01*
X302715Y-1203D01*
X302734Y-1194D01*
X302761Y-1166D01*
X302798Y-1138D01*
X302845Y-1102D01*
X302909Y-1064D01*
X302983Y-1018D01*
X303057Y-972D01*
X303150Y-926D01*
X303251Y-880D01*
X303362Y-843D01*
X303482Y-806D01*
X303741Y-750D01*
X303889Y-741D01*
X304037Y-732D01*
X304120D01*
X304176Y-741D01*
D02*
G37*
G36*
X190513Y25150D02*
X190531Y25131D01*
X190568Y25094D01*
X190624Y25057D01*
X190688Y25002D01*
X190763Y24928D01*
X190855Y24854D01*
X190966Y24771D01*
X191077Y24688D01*
X191206Y24586D01*
X191354Y24484D01*
X191502Y24382D01*
X191669Y24272D01*
X191844Y24160D01*
X192038Y24050D01*
X192233Y23939D01*
X192242Y23929D01*
X192279Y23911D01*
X192334Y23883D01*
X192418Y23837D01*
X192519Y23791D01*
X192630Y23735D01*
X192760Y23670D01*
X192908Y23606D01*
X193074Y23532D01*
X193240Y23449D01*
X193425Y23375D01*
X193619Y23301D01*
X194017Y23153D01*
X194442Y23014D01*
X194452D01*
X194479Y23005D01*
X194526Y22996D01*
X194581Y22977D01*
X194655Y22959D01*
X194747Y22940D01*
X194849Y22912D01*
X194960Y22894D01*
X195089Y22866D01*
X195228Y22838D01*
X195524Y22792D01*
X195848Y22746D01*
X196199Y22718D01*
Y21914D01*
X196190D01*
X196162D01*
X196125D01*
X196070Y21923D01*
X195996D01*
X195903Y21932D01*
X195801Y21942D01*
X195690Y21951D01*
X195561Y21969D01*
X195431Y21988D01*
X195274Y22016D01*
X195117Y22043D01*
X194951Y22071D01*
X194766Y22108D01*
X194387Y22201D01*
X194377D01*
X194341Y22210D01*
X194285Y22228D01*
X194202Y22256D01*
X194109Y22284D01*
X193999Y22321D01*
X193869Y22358D01*
X193730Y22413D01*
X193573Y22469D01*
X193416Y22524D01*
X193065Y22663D01*
X192695Y22829D01*
X192325Y23014D01*
X192316Y23023D01*
X192279Y23042D01*
X192233Y23070D01*
X192159Y23107D01*
X192075Y23153D01*
X191974Y23217D01*
X191863Y23282D01*
X191742Y23356D01*
X191474Y23532D01*
X191197Y23717D01*
X190910Y23929D01*
X190642Y24151D01*
Y21017D01*
X189884D01*
Y25159D01*
X190504D01*
X190513Y25150D01*
D02*
G37*
G36*
X196199Y19408D02*
X194868Y18567D01*
X194858D01*
X194840Y18549D01*
X194812Y18530D01*
X194775Y18502D01*
X194673Y18438D01*
X194544Y18354D01*
X194405Y18253D01*
X194257Y18151D01*
X194119Y18049D01*
X193989Y17957D01*
X193980Y17947D01*
X193943Y17920D01*
X193888Y17874D01*
X193823Y17809D01*
X193684Y17670D01*
X193619Y17596D01*
X193564Y17522D01*
X193555Y17513D01*
X193545Y17494D01*
X193527Y17457D01*
X193499Y17402D01*
X193472Y17347D01*
X193444Y17282D01*
X193398Y17134D01*
Y17125D01*
X193388Y17106D01*
Y17069D01*
X193379Y17023D01*
X193370Y16958D01*
Y16884D01*
X193361Y16782D01*
Y15692D01*
X196199D01*
Y14841D01*
X189801D01*
Y17809D01*
X189810Y17883D01*
Y17966D01*
X189820Y18160D01*
X189847Y18363D01*
X189875Y18585D01*
X189921Y18789D01*
X189949Y18891D01*
X189977Y18974D01*
Y18983D01*
X189986Y18992D01*
X190014Y19048D01*
X190051Y19131D01*
X190115Y19233D01*
X190198Y19344D01*
X190310Y19464D01*
X190439Y19575D01*
X190587Y19686D01*
X190596D01*
X190605Y19695D01*
X190661Y19732D01*
X190753Y19769D01*
X190874Y19824D01*
X191012Y19871D01*
X191179Y19917D01*
X191354Y19944D01*
X191548Y19954D01*
X191558D01*
X191576D01*
X191613D01*
X191659Y19944D01*
X191724D01*
X191789Y19935D01*
X191946Y19898D01*
X192131Y19843D01*
X192325Y19769D01*
X192519Y19658D01*
X192612Y19584D01*
X192704Y19510D01*
X192713Y19501D01*
X192723Y19491D01*
X192750Y19464D01*
X192778Y19427D01*
X192815Y19381D01*
X192852Y19325D01*
X192898Y19251D01*
X192954Y19177D01*
X193000Y19085D01*
X193046Y18983D01*
X193102Y18872D01*
X193148Y18752D01*
X193185Y18613D01*
X193231Y18475D01*
X193259Y18317D01*
X193287Y18151D01*
X193296Y18169D01*
X193314Y18206D01*
X193351Y18262D01*
X193388Y18336D01*
X193490Y18502D01*
X193555Y18585D01*
X193610Y18659D01*
X193629Y18678D01*
X193675Y18724D01*
X193749Y18798D01*
X193841Y18891D01*
X193971Y18992D01*
X194109Y19112D01*
X194276Y19233D01*
X194461Y19362D01*
X196199Y20462D01*
Y19408D01*
D02*
G37*
G36*
X295356Y-50741D02*
X295421D01*
X295495Y-50750D01*
X295671Y-50787D01*
X295865Y-50833D01*
X296068Y-50907D01*
X296271Y-51018D01*
X296373Y-51083D01*
X296466Y-51157D01*
X296475Y-51166D01*
X296484Y-51175D01*
X296512Y-51203D01*
X296540Y-51231D01*
X296586Y-51277D01*
X296623Y-51333D01*
X296724Y-51462D01*
X296826Y-51628D01*
X296919Y-51832D01*
X297002Y-52063D01*
X297057Y-52322D01*
X296271Y-52387D01*
Y-52377D01*
X296262Y-52368D01*
X296253Y-52313D01*
X296225Y-52229D01*
X296188Y-52128D01*
X296151Y-52017D01*
X296096Y-51906D01*
X296031Y-51804D01*
X295966Y-51721D01*
X295948Y-51702D01*
X295911Y-51666D01*
X295846Y-51610D01*
X295754Y-51545D01*
X295634Y-51490D01*
X295504Y-51434D01*
X295347Y-51397D01*
X295180Y-51379D01*
X295116D01*
X295042Y-51388D01*
X294959Y-51407D01*
X294848Y-51434D01*
X294737Y-51471D01*
X294626Y-51518D01*
X294515Y-51592D01*
X294496Y-51601D01*
X294450Y-51638D01*
X294385Y-51702D01*
X294302Y-51795D01*
X294210Y-51906D01*
X294108Y-52035D01*
X294016Y-52202D01*
X293923Y-52387D01*
Y-52396D01*
X293914Y-52414D01*
X293905Y-52442D01*
X293886Y-52479D01*
X293877Y-52535D01*
X293858Y-52599D01*
X293840Y-52673D01*
X293821Y-52766D01*
X293794Y-52867D01*
X293775Y-52978D01*
X293757Y-53099D01*
X293747Y-53228D01*
X293729Y-53376D01*
X293720Y-53524D01*
X293710Y-53690D01*
Y-53857D01*
X293720Y-53847D01*
X293757Y-53792D01*
X293821Y-53718D01*
X293905Y-53625D01*
X293997Y-53515D01*
X294117Y-53413D01*
X294247Y-53311D01*
X294395Y-53219D01*
X294404D01*
X294413Y-53210D01*
X294469Y-53182D01*
X294552Y-53154D01*
X294663Y-53108D01*
X294792Y-53071D01*
X294940Y-53043D01*
X295097Y-53015D01*
X295264Y-53006D01*
X295338D01*
X295393Y-53015D01*
X295467Y-53025D01*
X295541Y-53034D01*
X295634Y-53052D01*
X295726Y-53080D01*
X295939Y-53145D01*
X296050Y-53191D01*
X296161Y-53256D01*
X296271Y-53320D01*
X296392Y-53394D01*
X296503Y-53487D01*
X296604Y-53589D01*
X296614Y-53598D01*
X296632Y-53616D01*
X296660Y-53644D01*
X296688Y-53690D01*
X296734Y-53755D01*
X296780Y-53820D01*
X296826Y-53903D01*
X296882Y-53995D01*
X296937Y-54097D01*
X296983Y-54208D01*
X297030Y-54338D01*
X297076Y-54467D01*
X297104Y-54606D01*
X297131Y-54763D01*
X297150Y-54920D01*
X297159Y-55086D01*
Y-55096D01*
Y-55114D01*
Y-55142D01*
Y-55188D01*
X297150Y-55244D01*
Y-55299D01*
X297122Y-55447D01*
X297094Y-55623D01*
X297048Y-55807D01*
X296983Y-56011D01*
X296891Y-56205D01*
Y-56214D01*
X296882Y-56224D01*
X296863Y-56251D01*
X296845Y-56288D01*
X296789Y-56381D01*
X296706Y-56501D01*
X296604Y-56630D01*
X296484Y-56760D01*
X296336Y-56889D01*
X296179Y-57000D01*
X296170D01*
X296161Y-57009D01*
X296133Y-57028D01*
X296096Y-57037D01*
X296003Y-57083D01*
X295883Y-57130D01*
X295726Y-57185D01*
X295550Y-57222D01*
X295356Y-57259D01*
X295144Y-57268D01*
X295097D01*
X295051Y-57259D01*
X294977D01*
X294894Y-57250D01*
X294801Y-57231D01*
X294690Y-57204D01*
X294580Y-57176D01*
X294450Y-57139D01*
X294321Y-57093D01*
X294191Y-57037D01*
X294053Y-56963D01*
X293923Y-56880D01*
X293794Y-56788D01*
X293664Y-56677D01*
X293544Y-56547D01*
X293535Y-56538D01*
X293516Y-56510D01*
X293489Y-56473D01*
X293452Y-56409D01*
X293396Y-56325D01*
X293350Y-56233D01*
X293294Y-56113D01*
X293239Y-55983D01*
X293174Y-55826D01*
X293119Y-55650D01*
X293072Y-55456D01*
X293026Y-55244D01*
X292980Y-55003D01*
X292952Y-54744D01*
X292934Y-54467D01*
X292925Y-54171D01*
Y-54162D01*
Y-54152D01*
Y-54125D01*
Y-54088D01*
X292934Y-53995D01*
Y-53866D01*
X292943Y-53718D01*
X292962Y-53542D01*
X292980Y-53348D01*
X293008Y-53135D01*
X293045Y-52923D01*
X293091Y-52692D01*
X293146Y-52470D01*
X293211Y-52248D01*
X293294Y-52035D01*
X293387Y-51832D01*
X293489Y-51638D01*
X293609Y-51471D01*
X293618Y-51462D01*
X293636Y-51444D01*
X293673Y-51407D01*
X293720Y-51351D01*
X293775Y-51296D01*
X293849Y-51240D01*
X293942Y-51166D01*
X294034Y-51101D01*
X294145Y-51037D01*
X294265Y-50963D01*
X294404Y-50907D01*
X294543Y-50843D01*
X294700Y-50796D01*
X294866Y-50759D01*
X295042Y-50741D01*
X295227Y-50732D01*
X295301D01*
X295356Y-50741D01*
D02*
G37*
G36*
X289883Y-50769D02*
X289966D01*
X290160Y-50778D01*
X290364Y-50806D01*
X290585Y-50833D01*
X290789Y-50880D01*
X290891Y-50907D01*
X290974Y-50935D01*
X290983D01*
X290992Y-50944D01*
X291048Y-50972D01*
X291131Y-51009D01*
X291233Y-51074D01*
X291344Y-51157D01*
X291464Y-51268D01*
X291575Y-51397D01*
X291686Y-51545D01*
Y-51554D01*
X291695Y-51564D01*
X291732Y-51619D01*
X291769Y-51712D01*
X291824Y-51832D01*
X291871Y-51971D01*
X291917Y-52137D01*
X291945Y-52313D01*
X291954Y-52507D01*
Y-52516D01*
Y-52535D01*
Y-52572D01*
X291945Y-52618D01*
Y-52682D01*
X291935Y-52747D01*
X291898Y-52904D01*
X291843Y-53089D01*
X291769Y-53284D01*
X291658Y-53478D01*
X291584Y-53570D01*
X291510Y-53663D01*
X291501Y-53672D01*
X291492Y-53681D01*
X291464Y-53709D01*
X291427Y-53737D01*
X291381Y-53773D01*
X291325Y-53811D01*
X291251Y-53857D01*
X291177Y-53912D01*
X291085Y-53958D01*
X290983Y-54005D01*
X290872Y-54060D01*
X290752Y-54106D01*
X290613Y-54143D01*
X290474Y-54190D01*
X290317Y-54217D01*
X290151Y-54245D01*
X290169Y-54254D01*
X290206Y-54273D01*
X290262Y-54310D01*
X290336Y-54347D01*
X290502Y-54448D01*
X290585Y-54513D01*
X290659Y-54569D01*
X290678Y-54587D01*
X290724Y-54633D01*
X290798Y-54707D01*
X290891Y-54800D01*
X290992Y-54929D01*
X291112Y-55068D01*
X291233Y-55234D01*
X291362Y-55419D01*
X292462Y-57157D01*
X291408D01*
X290567Y-55826D01*
Y-55817D01*
X290548Y-55798D01*
X290530Y-55771D01*
X290502Y-55733D01*
X290438Y-55632D01*
X290354Y-55502D01*
X290253Y-55364D01*
X290151Y-55216D01*
X290049Y-55077D01*
X289957Y-54948D01*
X289947Y-54938D01*
X289920Y-54901D01*
X289874Y-54846D01*
X289809Y-54781D01*
X289670Y-54643D01*
X289596Y-54578D01*
X289522Y-54522D01*
X289513Y-54513D01*
X289494Y-54504D01*
X289457Y-54485D01*
X289402Y-54458D01*
X289347Y-54430D01*
X289282Y-54402D01*
X289134Y-54356D01*
X289125D01*
X289106Y-54347D01*
X289069D01*
X289023Y-54338D01*
X288958Y-54328D01*
X288884D01*
X288783Y-54319D01*
X287692D01*
Y-57157D01*
X286841D01*
Y-50759D01*
X289809D01*
X289883Y-50769D01*
D02*
G37*
G36*
X339877Y-51578D02*
X337316D01*
X336974Y-53307D01*
X336983Y-53297D01*
X337002Y-53288D01*
X337029Y-53270D01*
X337076Y-53242D01*
X337131Y-53214D01*
X337196Y-53177D01*
X337344Y-53103D01*
X337529Y-53029D01*
X337732Y-52965D01*
X337954Y-52918D01*
X338065Y-52900D01*
X338268D01*
X338324Y-52909D01*
X338398Y-52918D01*
X338481Y-52927D01*
X338573Y-52946D01*
X338675Y-52974D01*
X338897Y-53039D01*
X339017Y-53085D01*
X339137Y-53149D01*
X339258Y-53214D01*
X339378Y-53288D01*
X339489Y-53380D01*
X339600Y-53482D01*
X339609Y-53492D01*
X339627Y-53510D01*
X339655Y-53538D01*
X339692Y-53584D01*
X339738Y-53649D01*
X339785Y-53713D01*
X339840Y-53797D01*
X339896Y-53889D01*
X339942Y-53991D01*
X339997Y-54102D01*
X340043Y-54231D01*
X340090Y-54361D01*
X340127Y-54499D01*
X340154Y-54656D01*
X340173Y-54814D01*
X340182Y-54980D01*
Y-54989D01*
Y-55017D01*
Y-55063D01*
X340173Y-55128D01*
X340164Y-55202D01*
X340154Y-55285D01*
X340136Y-55387D01*
X340117Y-55489D01*
X340062Y-55729D01*
X339969Y-55979D01*
X339914Y-56108D01*
X339840Y-56228D01*
X339766Y-56358D01*
X339674Y-56478D01*
X339664Y-56487D01*
X339646Y-56515D01*
X339609Y-56552D01*
X339563Y-56598D01*
X339498Y-56653D01*
X339424Y-56727D01*
X339332Y-56792D01*
X339230Y-56866D01*
X339119Y-56940D01*
X338989Y-57005D01*
X338851Y-57070D01*
X338703Y-57134D01*
X338546Y-57181D01*
X338370Y-57217D01*
X338185Y-57245D01*
X337991Y-57254D01*
X337908D01*
X337843Y-57245D01*
X337769Y-57236D01*
X337686Y-57227D01*
X337584Y-57217D01*
X337482Y-57190D01*
X337251Y-57134D01*
X337020Y-57051D01*
X336900Y-56996D01*
X336780Y-56931D01*
X336669Y-56857D01*
X336558Y-56774D01*
X336549Y-56764D01*
X336530Y-56755D01*
X336512Y-56718D01*
X336475Y-56681D01*
X336428Y-56635D01*
X336382Y-56579D01*
X336327Y-56506D01*
X336281Y-56422D01*
X336225Y-56339D01*
X336170Y-56237D01*
X336068Y-56016D01*
X335985Y-55757D01*
X335957Y-55618D01*
X335938Y-55470D01*
X336761Y-55405D01*
Y-55415D01*
Y-55433D01*
X336771Y-55461D01*
X336780Y-55507D01*
X336808Y-55609D01*
X336844Y-55747D01*
X336900Y-55886D01*
X336974Y-56043D01*
X337066Y-56182D01*
X337177Y-56311D01*
X337196Y-56321D01*
X337233Y-56358D01*
X337307Y-56404D01*
X337408Y-56459D01*
X337519Y-56515D01*
X337658Y-56561D01*
X337815Y-56598D01*
X337991Y-56607D01*
X338046D01*
X338083Y-56598D01*
X338194Y-56589D01*
X338324Y-56552D01*
X338481Y-56506D01*
X338638Y-56432D01*
X338805Y-56321D01*
X338879Y-56256D01*
X338952Y-56182D01*
X338962Y-56173D01*
X338971Y-56164D01*
X338989Y-56136D01*
X339017Y-56108D01*
X339082Y-56006D01*
X339156Y-55877D01*
X339221Y-55720D01*
X339285Y-55525D01*
X339332Y-55294D01*
X339350Y-55174D01*
Y-55045D01*
Y-55036D01*
Y-55017D01*
Y-54980D01*
X339341Y-54934D01*
Y-54878D01*
X339332Y-54814D01*
X339304Y-54666D01*
X339258Y-54490D01*
X339193Y-54314D01*
X339100Y-54148D01*
X338971Y-53991D01*
Y-53981D01*
X338952Y-53972D01*
X338906Y-53926D01*
X338823Y-53861D01*
X338712Y-53787D01*
X338564Y-53723D01*
X338398Y-53658D01*
X338204Y-53612D01*
X338093Y-53593D01*
X337917D01*
X337843Y-53602D01*
X337751Y-53612D01*
X337640Y-53639D01*
X337529Y-53667D01*
X337408Y-53713D01*
X337288Y-53769D01*
X337279Y-53778D01*
X337242Y-53797D01*
X337187Y-53843D01*
X337113Y-53889D01*
X337039Y-53954D01*
X336965Y-54037D01*
X336881Y-54120D01*
X336817Y-54222D01*
X336077Y-54120D01*
X336697Y-50829D01*
X339877D01*
Y-51578D01*
D02*
G37*
G36*
X332860Y-50755D02*
X332943D01*
X333137Y-50764D01*
X333340Y-50792D01*
X333562Y-50820D01*
X333766Y-50866D01*
X333867Y-50894D01*
X333951Y-50921D01*
X333960D01*
X333969Y-50931D01*
X334025Y-50958D01*
X334108Y-50995D01*
X334210Y-51060D01*
X334320Y-51143D01*
X334441Y-51254D01*
X334552Y-51384D01*
X334663Y-51531D01*
Y-51541D01*
X334672Y-51550D01*
X334709Y-51605D01*
X334746Y-51698D01*
X334801Y-51818D01*
X334847Y-51957D01*
X334894Y-52123D01*
X334921Y-52299D01*
X334931Y-52493D01*
Y-52502D01*
Y-52521D01*
Y-52558D01*
X334921Y-52604D01*
Y-52669D01*
X334912Y-52733D01*
X334875Y-52891D01*
X334820Y-53075D01*
X334746Y-53270D01*
X334635Y-53464D01*
X334561Y-53556D01*
X334487Y-53649D01*
X334478Y-53658D01*
X334468Y-53667D01*
X334441Y-53695D01*
X334404Y-53723D01*
X334357Y-53760D01*
X334302Y-53797D01*
X334228Y-53843D01*
X334154Y-53898D01*
X334062Y-53945D01*
X333960Y-53991D01*
X333849Y-54046D01*
X333729Y-54092D01*
X333590Y-54129D01*
X333451Y-54176D01*
X333294Y-54203D01*
X333128Y-54231D01*
X333146Y-54240D01*
X333183Y-54259D01*
X333239Y-54296D01*
X333313Y-54333D01*
X333479Y-54434D01*
X333562Y-54499D01*
X333636Y-54555D01*
X333655Y-54573D01*
X333701Y-54619D01*
X333775Y-54693D01*
X333867Y-54786D01*
X333969Y-54915D01*
X334089Y-55054D01*
X334210Y-55220D01*
X334339Y-55405D01*
X335439Y-57144D01*
X334385D01*
X333544Y-55812D01*
Y-55803D01*
X333525Y-55784D01*
X333507Y-55757D01*
X333479Y-55720D01*
X333414Y-55618D01*
X333331Y-55489D01*
X333229Y-55350D01*
X333128Y-55202D01*
X333026Y-55063D01*
X332934Y-54934D01*
X332924Y-54925D01*
X332897Y-54888D01*
X332850Y-54832D01*
X332786Y-54767D01*
X332647Y-54629D01*
X332573Y-54564D01*
X332499Y-54509D01*
X332490Y-54499D01*
X332471Y-54490D01*
X332434Y-54472D01*
X332379Y-54444D01*
X332323Y-54416D01*
X332259Y-54388D01*
X332111Y-54342D01*
X332102D01*
X332083Y-54333D01*
X332046D01*
X332000Y-54324D01*
X331935Y-54314D01*
X331861D01*
X331759Y-54305D01*
X330668D01*
Y-57144D01*
X329818D01*
Y-50746D01*
X332786D01*
X332860Y-50755D01*
D02*
G37*
G36*
X348162Y-14241D02*
X348282Y-14259D01*
X348430Y-14287D01*
X348596Y-14333D01*
X348763Y-14389D01*
X348929Y-14463D01*
X348939D01*
X348948Y-14472D01*
X349003Y-14500D01*
X349087Y-14555D01*
X349179Y-14620D01*
X349290Y-14712D01*
X349401Y-14814D01*
X349512Y-14934D01*
X349604Y-15073D01*
X349614Y-15092D01*
X349641Y-15138D01*
X349678Y-15221D01*
X349725Y-15323D01*
X349771Y-15443D01*
X349808Y-15582D01*
X349835Y-15739D01*
X349845Y-15896D01*
Y-15914D01*
Y-15970D01*
X349835Y-16044D01*
X349817Y-16145D01*
X349789Y-16266D01*
X349743Y-16395D01*
X349688Y-16525D01*
X349614Y-16654D01*
X349604Y-16673D01*
X349577Y-16710D01*
X349521Y-16774D01*
X349447Y-16848D01*
X349355Y-16931D01*
X349244Y-17024D01*
X349114Y-17107D01*
X348957Y-17190D01*
X348966D01*
X348985Y-17199D01*
X349013Y-17209D01*
X349050Y-17218D01*
X349151Y-17255D01*
X349281Y-17311D01*
X349429Y-17384D01*
X349577Y-17477D01*
X349715Y-17597D01*
X349845Y-17736D01*
X349854Y-17754D01*
X349891Y-17810D01*
X349946Y-17902D01*
X350002Y-18022D01*
X350057Y-18170D01*
X350113Y-18346D01*
X350150Y-18549D01*
X350159Y-18771D01*
Y-18780D01*
Y-18808D01*
Y-18855D01*
X350150Y-18910D01*
X350140Y-18984D01*
X350122Y-19067D01*
X350104Y-19160D01*
X350085Y-19261D01*
X350011Y-19483D01*
X349956Y-19603D01*
X349900Y-19714D01*
X349826Y-19835D01*
X349743Y-19955D01*
X349650Y-20075D01*
X349540Y-20186D01*
X349530Y-20195D01*
X349512Y-20214D01*
X349475Y-20241D01*
X349429Y-20278D01*
X349373Y-20324D01*
X349299Y-20371D01*
X349216Y-20426D01*
X349114Y-20473D01*
X349013Y-20528D01*
X348892Y-20583D01*
X348772Y-20630D01*
X348633Y-20676D01*
X348486Y-20713D01*
X348328Y-20741D01*
X348171Y-20759D01*
X347996Y-20768D01*
X347912D01*
X347857Y-20759D01*
X347783Y-20750D01*
X347700Y-20741D01*
X347607Y-20722D01*
X347506Y-20704D01*
X347284Y-20648D01*
X347052Y-20556D01*
X346932Y-20500D01*
X346821Y-20436D01*
X346710Y-20352D01*
X346600Y-20269D01*
X346590Y-20260D01*
X346572Y-20241D01*
X346544Y-20214D01*
X346516Y-20177D01*
X346470Y-20130D01*
X346424Y-20066D01*
X346368Y-20001D01*
X346313Y-19918D01*
X346257Y-19825D01*
X346202Y-19733D01*
X346100Y-19511D01*
X346017Y-19252D01*
X345989Y-19113D01*
X345971Y-18965D01*
X346757Y-18864D01*
Y-18873D01*
X346766Y-18892D01*
X346775Y-18928D01*
X346784Y-18975D01*
X346794Y-19030D01*
X346812Y-19095D01*
X346858Y-19233D01*
X346923Y-19400D01*
X347006Y-19557D01*
X347099Y-19705D01*
X347210Y-19835D01*
X347228Y-19844D01*
X347265Y-19881D01*
X347339Y-19927D01*
X347432Y-19973D01*
X347542Y-20029D01*
X347681Y-20075D01*
X347838Y-20112D01*
X348005Y-20121D01*
X348060D01*
X348097Y-20112D01*
X348199Y-20103D01*
X348328Y-20075D01*
X348476Y-20029D01*
X348633Y-19964D01*
X348791Y-19871D01*
X348939Y-19742D01*
X348957Y-19724D01*
X349003Y-19668D01*
X349059Y-19585D01*
X349133Y-19474D01*
X349207Y-19335D01*
X349262Y-19178D01*
X349308Y-18993D01*
X349327Y-18790D01*
Y-18780D01*
Y-18762D01*
Y-18734D01*
X349318Y-18697D01*
X349308Y-18596D01*
X349281Y-18475D01*
X349244Y-18327D01*
X349179Y-18180D01*
X349087Y-18032D01*
X348966Y-17893D01*
X348948Y-17874D01*
X348902Y-17838D01*
X348828Y-17782D01*
X348726Y-17717D01*
X348596Y-17652D01*
X348439Y-17597D01*
X348264Y-17560D01*
X348069Y-17542D01*
X347986D01*
X347922Y-17551D01*
X347838Y-17560D01*
X347746Y-17579D01*
X347635Y-17597D01*
X347515Y-17625D01*
X347607Y-16931D01*
X347654D01*
X347691Y-16941D01*
X347811D01*
X347912Y-16922D01*
X348033Y-16904D01*
X348171Y-16876D01*
X348328Y-16830D01*
X348476Y-16765D01*
X348633Y-16682D01*
X348643D01*
X348652Y-16673D01*
X348698Y-16636D01*
X348763Y-16571D01*
X348837Y-16488D01*
X348911Y-16367D01*
X348976Y-16229D01*
X349022Y-16071D01*
X349040Y-15979D01*
Y-15877D01*
Y-15868D01*
Y-15859D01*
Y-15803D01*
X349022Y-15730D01*
X349003Y-15628D01*
X348966Y-15517D01*
X348920Y-15397D01*
X348846Y-15276D01*
X348745Y-15165D01*
X348735Y-15156D01*
X348689Y-15119D01*
X348624Y-15073D01*
X348541Y-15017D01*
X348430Y-14971D01*
X348301Y-14925D01*
X348153Y-14888D01*
X347986Y-14879D01*
X347912D01*
X347829Y-14897D01*
X347718Y-14916D01*
X347598Y-14953D01*
X347478Y-14999D01*
X347348Y-15073D01*
X347228Y-15165D01*
X347219Y-15175D01*
X347182Y-15221D01*
X347127Y-15286D01*
X347062Y-15378D01*
X346997Y-15498D01*
X346932Y-15646D01*
X346877Y-15822D01*
X346840Y-16025D01*
X346054Y-15887D01*
Y-15877D01*
X346063Y-15850D01*
X346073Y-15813D01*
X346082Y-15757D01*
X346100Y-15692D01*
X346128Y-15618D01*
X346183Y-15443D01*
X346276Y-15239D01*
X346387Y-15036D01*
X346525Y-14842D01*
X346701Y-14666D01*
X346710Y-14657D01*
X346729Y-14648D01*
X346757Y-14629D01*
X346794Y-14602D01*
X346840Y-14564D01*
X346905Y-14527D01*
X346969Y-14490D01*
X347052Y-14444D01*
X347237Y-14370D01*
X347450Y-14296D01*
X347700Y-14250D01*
X347829Y-14232D01*
X348060D01*
X348162Y-14241D01*
D02*
G37*
G36*
X342883Y-14269D02*
X342966D01*
X343160Y-14278D01*
X343363Y-14306D01*
X343585Y-14333D01*
X343789Y-14380D01*
X343890Y-14407D01*
X343974Y-14435D01*
X343983D01*
X343992Y-14444D01*
X344048Y-14472D01*
X344131Y-14509D01*
X344233Y-14574D01*
X344344Y-14657D01*
X344464Y-14768D01*
X344575Y-14897D01*
X344686Y-15045D01*
Y-15055D01*
X344695Y-15064D01*
X344732Y-15119D01*
X344769Y-15212D01*
X344824Y-15332D01*
X344871Y-15471D01*
X344917Y-15637D01*
X344944Y-15813D01*
X344954Y-16007D01*
Y-16016D01*
Y-16035D01*
Y-16071D01*
X344944Y-16118D01*
Y-16183D01*
X344935Y-16247D01*
X344898Y-16404D01*
X344843Y-16589D01*
X344769Y-16783D01*
X344658Y-16978D01*
X344584Y-17070D01*
X344510Y-17162D01*
X344501Y-17172D01*
X344492Y-17181D01*
X344464Y-17209D01*
X344427Y-17236D01*
X344380Y-17273D01*
X344325Y-17311D01*
X344251Y-17357D01*
X344177Y-17412D01*
X344085Y-17458D01*
X343983Y-17505D01*
X343872Y-17560D01*
X343752Y-17606D01*
X343613Y-17643D01*
X343475Y-17689D01*
X343317Y-17717D01*
X343151Y-17745D01*
X343169Y-17754D01*
X343206Y-17773D01*
X343262Y-17810D01*
X343336Y-17847D01*
X343502Y-17948D01*
X343585Y-18013D01*
X343659Y-18069D01*
X343678Y-18087D01*
X343724Y-18133D01*
X343798Y-18207D01*
X343890Y-18300D01*
X343992Y-18429D01*
X344112Y-18568D01*
X344233Y-18734D01*
X344362Y-18919D01*
X345462Y-20657D01*
X344408D01*
X343567Y-19326D01*
Y-19317D01*
X343548Y-19298D01*
X343530Y-19270D01*
X343502Y-19233D01*
X343438Y-19132D01*
X343354Y-19002D01*
X343253Y-18864D01*
X343151Y-18716D01*
X343049Y-18577D01*
X342957Y-18448D01*
X342948Y-18438D01*
X342920Y-18401D01*
X342873Y-18346D01*
X342809Y-18281D01*
X342670Y-18143D01*
X342596Y-18078D01*
X342522Y-18022D01*
X342513Y-18013D01*
X342494Y-18004D01*
X342458Y-17985D01*
X342402Y-17958D01*
X342346Y-17930D01*
X342282Y-17902D01*
X342134Y-17856D01*
X342125D01*
X342106Y-17847D01*
X342069D01*
X342023Y-17838D01*
X341958Y-17828D01*
X341884D01*
X341782Y-17819D01*
X340691D01*
Y-20657D01*
X339841D01*
Y-14259D01*
X342809D01*
X342883Y-14269D01*
D02*
G37*
G36*
X242847Y14556D02*
Y14547D01*
Y14510D01*
Y14464D01*
Y14399D01*
X242838Y14316D01*
Y14223D01*
X242829Y14112D01*
X242820Y14001D01*
X242792Y13752D01*
X242755Y13493D01*
X242700Y13243D01*
X242663Y13123D01*
X242626Y13012D01*
Y13003D01*
X242616Y12984D01*
X242598Y12957D01*
X242579Y12920D01*
X242524Y12818D01*
X242441Y12689D01*
X242330Y12541D01*
X242200Y12393D01*
X242034Y12236D01*
X241830Y12097D01*
X241821D01*
X241803Y12078D01*
X241775Y12069D01*
X241729Y12041D01*
X241673Y12014D01*
X241599Y11986D01*
X241525Y11958D01*
X241433Y11921D01*
X241331Y11884D01*
X241220Y11856D01*
X241100Y11829D01*
X240961Y11801D01*
X240823Y11782D01*
X240675Y11764D01*
X240342Y11746D01*
X240259D01*
X240194Y11755D01*
X240120D01*
X240028Y11764D01*
X239926Y11773D01*
X239824Y11782D01*
X239593Y11819D01*
X239343Y11875D01*
X239103Y11949D01*
X238872Y12051D01*
X238863D01*
X238844Y12069D01*
X238816Y12088D01*
X238779Y12106D01*
X238678Y12180D01*
X238557Y12282D01*
X238419Y12411D01*
X238289Y12559D01*
X238160Y12744D01*
X238058Y12947D01*
Y12957D01*
X238049Y12975D01*
X238040Y13012D01*
X238021Y13058D01*
X238003Y13114D01*
X237984Y13188D01*
X237957Y13271D01*
X237938Y13373D01*
X237920Y13484D01*
X237892Y13604D01*
X237873Y13733D01*
X237855Y13872D01*
X237836Y14029D01*
X237827Y14196D01*
X237818Y14371D01*
Y14556D01*
Y18254D01*
X238668D01*
Y14556D01*
Y14547D01*
Y14519D01*
Y14473D01*
Y14418D01*
X238678Y14353D01*
Y14270D01*
X238687Y14094D01*
X238705Y13891D01*
X238733Y13687D01*
X238770Y13493D01*
X238789Y13410D01*
X238816Y13326D01*
X238826Y13308D01*
X238844Y13262D01*
X238890Y13197D01*
X238946Y13105D01*
X239011Y13012D01*
X239103Y12910D01*
X239214Y12809D01*
X239343Y12726D01*
X239362Y12716D01*
X239408Y12689D01*
X239491Y12661D01*
X239602Y12624D01*
X239732Y12578D01*
X239898Y12550D01*
X240074Y12522D01*
X240268Y12513D01*
X240360D01*
X240416Y12522D01*
X240499D01*
X240582Y12531D01*
X240786Y12568D01*
X241008Y12615D01*
X241220Y12689D01*
X241424Y12790D01*
X241516Y12855D01*
X241599Y12929D01*
X241609Y12938D01*
X241618Y12947D01*
X241636Y12975D01*
X241664Y13012D01*
X241692Y13068D01*
X241729Y13123D01*
X241766Y13206D01*
X241803Y13290D01*
X241840Y13391D01*
X241867Y13512D01*
X241904Y13650D01*
X241932Y13798D01*
X241960Y13965D01*
X241978Y14140D01*
X241997Y14344D01*
Y14556D01*
Y18254D01*
X242847D01*
Y14556D01*
D02*
G37*
G36*
X247877Y17422D02*
X245316D01*
X244974Y15693D01*
X244983Y15703D01*
X245002Y15712D01*
X245029Y15730D01*
X245076Y15758D01*
X245131Y15786D01*
X245196Y15823D01*
X245344Y15897D01*
X245529Y15971D01*
X245732Y16035D01*
X245954Y16082D01*
X246065Y16100D01*
X246268D01*
X246324Y16091D01*
X246398Y16082D01*
X246481Y16072D01*
X246573Y16054D01*
X246675Y16026D01*
X246897Y15962D01*
X247017Y15915D01*
X247137Y15851D01*
X247258Y15786D01*
X247378Y15712D01*
X247489Y15619D01*
X247600Y15518D01*
X247609Y15509D01*
X247627Y15490D01*
X247655Y15462D01*
X247692Y15416D01*
X247738Y15351D01*
X247785Y15287D01*
X247840Y15203D01*
X247896Y15111D01*
X247942Y15009D01*
X247997Y14898D01*
X248043Y14769D01*
X248090Y14639D01*
X248127Y14501D01*
X248154Y14344D01*
X248173Y14186D01*
X248182Y14020D01*
Y14011D01*
Y13983D01*
Y13937D01*
X248173Y13872D01*
X248164Y13798D01*
X248154Y13715D01*
X248136Y13613D01*
X248117Y13512D01*
X248062Y13271D01*
X247969Y13021D01*
X247914Y12892D01*
X247840Y12772D01*
X247766Y12642D01*
X247674Y12522D01*
X247664Y12513D01*
X247646Y12485D01*
X247609Y12448D01*
X247563Y12402D01*
X247498Y12347D01*
X247424Y12272D01*
X247332Y12208D01*
X247230Y12134D01*
X247119Y12060D01*
X246989Y11995D01*
X246851Y11931D01*
X246703Y11866D01*
X246546Y11819D01*
X246370Y11782D01*
X246185Y11755D01*
X245991Y11746D01*
X245908D01*
X245843Y11755D01*
X245769Y11764D01*
X245686Y11773D01*
X245584Y11782D01*
X245482Y11810D01*
X245251Y11866D01*
X245020Y11949D01*
X244900Y12004D01*
X244780Y12069D01*
X244669Y12143D01*
X244558Y12226D01*
X244549Y12236D01*
X244530Y12245D01*
X244512Y12282D01*
X244475Y12319D01*
X244428Y12365D01*
X244382Y12421D01*
X244327Y12494D01*
X244280Y12578D01*
X244225Y12661D01*
X244170Y12763D01*
X244068Y12984D01*
X243985Y13243D01*
X243957Y13382D01*
X243938Y13530D01*
X244761Y13595D01*
Y13585D01*
Y13567D01*
X244771Y13539D01*
X244780Y13493D01*
X244807Y13391D01*
X244844Y13253D01*
X244900Y13114D01*
X244974Y12957D01*
X245066Y12818D01*
X245177Y12689D01*
X245196Y12679D01*
X245233Y12642D01*
X245307Y12596D01*
X245408Y12541D01*
X245519Y12485D01*
X245658Y12439D01*
X245815Y12402D01*
X245991Y12393D01*
X246046D01*
X246083Y12402D01*
X246194Y12411D01*
X246324Y12448D01*
X246481Y12494D01*
X246638Y12568D01*
X246805Y12679D01*
X246879Y12744D01*
X246952Y12818D01*
X246962Y12827D01*
X246971Y12837D01*
X246989Y12864D01*
X247017Y12892D01*
X247082Y12994D01*
X247156Y13123D01*
X247221Y13280D01*
X247285Y13475D01*
X247332Y13706D01*
X247350Y13826D01*
Y13955D01*
Y13965D01*
Y13983D01*
Y14020D01*
X247341Y14066D01*
Y14122D01*
X247332Y14186D01*
X247304Y14334D01*
X247258Y14510D01*
X247193Y14686D01*
X247100Y14852D01*
X246971Y15009D01*
Y15019D01*
X246952Y15028D01*
X246906Y15074D01*
X246823Y15139D01*
X246712Y15213D01*
X246564Y15277D01*
X246398Y15342D01*
X246204Y15388D01*
X246093Y15407D01*
X245917D01*
X245843Y15398D01*
X245751Y15388D01*
X245640Y15361D01*
X245529Y15333D01*
X245408Y15287D01*
X245288Y15231D01*
X245279Y15222D01*
X245242Y15203D01*
X245187Y15157D01*
X245113Y15111D01*
X245039Y15046D01*
X244965Y14963D01*
X244881Y14880D01*
X244817Y14778D01*
X244077Y14880D01*
X244697Y18171D01*
X247877D01*
Y17422D01*
D02*
G37*
G36*
X274015Y26301D02*
X274098Y26291D01*
X274200Y26282D01*
X274302Y26273D01*
X274422Y26245D01*
X274672Y26190D01*
X274949Y26107D01*
X275088Y26051D01*
X275217Y25986D01*
X275347Y25903D01*
X275476Y25820D01*
X275485Y25811D01*
X275504Y25801D01*
X275541Y25774D01*
X275587Y25728D01*
X275633Y25681D01*
X275698Y25617D01*
X275763Y25543D01*
X275837Y25469D01*
X275910Y25376D01*
X275984Y25265D01*
X276068Y25154D01*
X276142Y25034D01*
X276206Y24895D01*
X276280Y24757D01*
X276336Y24609D01*
X276391Y24442D01*
X275559Y24248D01*
Y24257D01*
X275550Y24276D01*
X275531Y24313D01*
X275513Y24359D01*
X275494Y24415D01*
X275467Y24488D01*
X275393Y24636D01*
X275300Y24803D01*
X275189Y24969D01*
X275051Y25127D01*
X274903Y25265D01*
X274884Y25284D01*
X274829Y25321D01*
X274736Y25367D01*
X274616Y25432D01*
X274459Y25487D01*
X274283Y25543D01*
X274071Y25580D01*
X273839Y25589D01*
X273766D01*
X273719Y25580D01*
X273654D01*
X273581Y25570D01*
X273405Y25543D01*
X273211Y25506D01*
X273007Y25441D01*
X272795Y25348D01*
X272600Y25228D01*
X272591D01*
X272582Y25210D01*
X272517Y25164D01*
X272434Y25089D01*
X272332Y24979D01*
X272212Y24840D01*
X272101Y24683D01*
X272000Y24488D01*
X271907Y24276D01*
Y24267D01*
X271898Y24248D01*
X271889Y24220D01*
X271879Y24174D01*
X271861Y24119D01*
X271842Y24054D01*
X271815Y23897D01*
X271778Y23712D01*
X271741Y23509D01*
X271722Y23287D01*
X271713Y23046D01*
Y23037D01*
Y23009D01*
Y22963D01*
Y22908D01*
X271722Y22843D01*
Y22760D01*
X271731Y22667D01*
X271741Y22566D01*
X271768Y22344D01*
X271815Y22103D01*
X271870Y21863D01*
X271944Y21622D01*
Y21613D01*
X271953Y21595D01*
X271972Y21567D01*
X271990Y21521D01*
X272046Y21410D01*
X272129Y21280D01*
X272231Y21132D01*
X272360Y20975D01*
X272508Y20837D01*
X272684Y20707D01*
X272693D01*
X272712Y20698D01*
X272739Y20679D01*
X272776Y20661D01*
X272822Y20642D01*
X272878Y20615D01*
X273007Y20559D01*
X273174Y20504D01*
X273359Y20457D01*
X273562Y20420D01*
X273775Y20411D01*
X273839D01*
X273895Y20420D01*
X273960D01*
X274024Y20430D01*
X274191Y20467D01*
X274385Y20513D01*
X274579Y20587D01*
X274783Y20689D01*
X274884Y20744D01*
X274977Y20818D01*
X274986Y20827D01*
X274995Y20837D01*
X275023Y20864D01*
X275060Y20892D01*
X275097Y20938D01*
X275143Y20994D01*
X275199Y21049D01*
X275245Y21123D01*
X275300Y21206D01*
X275365Y21299D01*
X275420Y21391D01*
X275476Y21502D01*
X275522Y21622D01*
X275568Y21752D01*
X275615Y21890D01*
X275652Y22039D01*
X276502Y21826D01*
Y21817D01*
X276493Y21780D01*
X276474Y21724D01*
X276447Y21650D01*
X276419Y21567D01*
X276382Y21465D01*
X276336Y21354D01*
X276280Y21234D01*
X276151Y20975D01*
X275984Y20716D01*
X275883Y20587D01*
X275781Y20457D01*
X275670Y20347D01*
X275541Y20236D01*
X275531Y20226D01*
X275513Y20208D01*
X275467Y20189D01*
X275420Y20152D01*
X275347Y20106D01*
X275273Y20060D01*
X275171Y20014D01*
X275069Y19967D01*
X274949Y19912D01*
X274820Y19866D01*
X274681Y19820D01*
X274533Y19773D01*
X274376Y19736D01*
X274209Y19718D01*
X274034Y19699D01*
X273849Y19690D01*
X273747D01*
X273673Y19699D01*
X273590D01*
X273488Y19709D01*
X273377Y19727D01*
X273248Y19746D01*
X272980Y19792D01*
X272702Y19866D01*
X272425Y19967D01*
X272295Y20032D01*
X272166Y20106D01*
X272157Y20115D01*
X272138Y20125D01*
X272101Y20152D01*
X272064Y20189D01*
X272009Y20226D01*
X271944Y20282D01*
X271870Y20347D01*
X271796Y20420D01*
X271722Y20504D01*
X271639Y20587D01*
X271473Y20800D01*
X271315Y21049D01*
X271177Y21327D01*
Y21336D01*
X271158Y21363D01*
X271149Y21410D01*
X271121Y21465D01*
X271103Y21539D01*
X271075Y21632D01*
X271038Y21733D01*
X271010Y21844D01*
X270983Y21964D01*
X270946Y22103D01*
X270899Y22390D01*
X270862Y22713D01*
X270844Y23046D01*
Y23056D01*
Y23093D01*
Y23148D01*
X270853Y23213D01*
Y23305D01*
X270862Y23398D01*
X270872Y23518D01*
X270890Y23638D01*
X270936Y23906D01*
X271001Y24202D01*
X271094Y24498D01*
X271223Y24784D01*
X271232Y24794D01*
X271241Y24821D01*
X271260Y24858D01*
X271297Y24905D01*
X271334Y24969D01*
X271380Y25043D01*
X271500Y25210D01*
X271658Y25395D01*
X271842Y25580D01*
X272055Y25764D01*
X272305Y25922D01*
X272314Y25931D01*
X272342Y25940D01*
X272379Y25959D01*
X272425Y25986D01*
X272499Y26014D01*
X272573Y26042D01*
X272665Y26079D01*
X272767Y26116D01*
X272878Y26153D01*
X272998Y26190D01*
X273257Y26245D01*
X273553Y26291D01*
X273858Y26310D01*
X273950D01*
X274015Y26301D01*
D02*
G37*
G36*
X285156Y19801D02*
X284370D01*
Y24803D01*
X284361Y24794D01*
X284315Y24757D01*
X284259Y24701D01*
X284167Y24636D01*
X284065Y24553D01*
X283936Y24461D01*
X283788Y24359D01*
X283621Y24257D01*
X283612D01*
X283603Y24248D01*
X283547Y24211D01*
X283455Y24165D01*
X283344Y24109D01*
X283214Y24045D01*
X283076Y23980D01*
X282937Y23915D01*
X282798Y23860D01*
Y24618D01*
X282808D01*
X282826Y24636D01*
X282863Y24646D01*
X282909Y24674D01*
X282965Y24701D01*
X283030Y24738D01*
X283187Y24831D01*
X283372Y24932D01*
X283557Y25062D01*
X283751Y25210D01*
X283945Y25367D01*
X283954Y25376D01*
X283963Y25385D01*
X283991Y25413D01*
X284028Y25441D01*
X284111Y25533D01*
X284222Y25644D01*
X284333Y25774D01*
X284453Y25922D01*
X284555Y26070D01*
X284648Y26227D01*
X285156D01*
Y19801D01*
D02*
G37*
G36*
X279498Y26218D02*
X279572Y26208D01*
X279664Y26199D01*
X279766Y26181D01*
X279868Y26162D01*
X280108Y26097D01*
X280348Y26005D01*
X280469Y25949D01*
X280589Y25885D01*
X280700Y25801D01*
X280801Y25709D01*
X280811Y25700D01*
X280829Y25691D01*
X280848Y25654D01*
X280885Y25617D01*
X280931Y25570D01*
X280977Y25506D01*
X281023Y25441D01*
X281079Y25358D01*
X281171Y25182D01*
X281264Y24960D01*
X281301Y24849D01*
X281319Y24720D01*
X281338Y24590D01*
X281347Y24452D01*
Y24433D01*
Y24387D01*
X281338Y24313D01*
X281328Y24211D01*
X281310Y24100D01*
X281273Y23971D01*
X281236Y23832D01*
X281180Y23693D01*
X281171Y23675D01*
X281153Y23629D01*
X281116Y23555D01*
X281060Y23453D01*
X280986Y23342D01*
X280894Y23203D01*
X280783Y23065D01*
X280653Y22908D01*
X280635Y22889D01*
X280589Y22834D01*
X280543Y22787D01*
X280496Y22741D01*
X280441Y22686D01*
X280367Y22612D01*
X280293Y22538D01*
X280200Y22455D01*
X280108Y22362D01*
X279997Y22260D01*
X279877Y22159D01*
X279747Y22039D01*
X279599Y21918D01*
X279452Y21789D01*
X279442Y21780D01*
X279424Y21761D01*
X279387Y21733D01*
X279341Y21696D01*
X279285Y21641D01*
X279220Y21585D01*
X279072Y21465D01*
X278915Y21327D01*
X278767Y21188D01*
X278638Y21068D01*
X278582Y21021D01*
X278536Y20975D01*
X278527Y20966D01*
X278499Y20938D01*
X278462Y20901D01*
X278416Y20846D01*
X278370Y20781D01*
X278314Y20716D01*
X278203Y20559D01*
X281356D01*
Y19801D01*
X277112D01*
Y19810D01*
Y19847D01*
Y19903D01*
X277122Y19977D01*
X277131Y20060D01*
X277149Y20152D01*
X277168Y20245D01*
X277205Y20347D01*
Y20356D01*
X277214Y20365D01*
X277233Y20420D01*
X277270Y20504D01*
X277325Y20615D01*
X277399Y20744D01*
X277491Y20892D01*
X277593Y21040D01*
X277723Y21197D01*
Y21206D01*
X277741Y21216D01*
X277787Y21271D01*
X277871Y21354D01*
X277991Y21474D01*
X278129Y21613D01*
X278305Y21780D01*
X278518Y21964D01*
X278749Y22159D01*
X278758Y22168D01*
X278795Y22196D01*
X278851Y22242D01*
X278915Y22297D01*
X278999Y22371D01*
X279100Y22455D01*
X279202Y22547D01*
X279322Y22649D01*
X279553Y22871D01*
X279784Y23093D01*
X279895Y23203D01*
X279997Y23314D01*
X280089Y23416D01*
X280163Y23518D01*
Y23527D01*
X280182Y23536D01*
X280200Y23564D01*
X280219Y23601D01*
X280284Y23703D01*
X280358Y23823D01*
X280422Y23971D01*
X280487Y24128D01*
X280524Y24304D01*
X280543Y24470D01*
Y24479D01*
Y24488D01*
X280533Y24544D01*
X280524Y24636D01*
X280496Y24738D01*
X280459Y24868D01*
X280395Y24997D01*
X280311Y25127D01*
X280200Y25256D01*
X280182Y25274D01*
X280136Y25311D01*
X280071Y25358D01*
X279969Y25422D01*
X279840Y25478D01*
X279692Y25533D01*
X279516Y25570D01*
X279322Y25580D01*
X279267D01*
X279230Y25570D01*
X279119Y25561D01*
X278989Y25533D01*
X278851Y25496D01*
X278693Y25432D01*
X278545Y25348D01*
X278407Y25237D01*
X278388Y25219D01*
X278351Y25173D01*
X278296Y25099D01*
X278240Y24988D01*
X278176Y24858D01*
X278120Y24692D01*
X278083Y24507D01*
X278065Y24294D01*
X277260Y24378D01*
Y24387D01*
X277270Y24415D01*
Y24461D01*
X277279Y24525D01*
X277297Y24599D01*
X277316Y24683D01*
X277344Y24784D01*
X277371Y24886D01*
X277445Y25108D01*
X277556Y25330D01*
X277621Y25441D01*
X277704Y25552D01*
X277787Y25654D01*
X277880Y25746D01*
X277889Y25755D01*
X277908Y25764D01*
X277935Y25792D01*
X277981Y25820D01*
X278037Y25857D01*
X278102Y25894D01*
X278176Y25940D01*
X278268Y25986D01*
X278370Y26033D01*
X278481Y26079D01*
X278601Y26116D01*
X278730Y26153D01*
X278869Y26181D01*
X279017Y26208D01*
X279174Y26218D01*
X279341Y26227D01*
X279433D01*
X279498Y26218D01*
D02*
G37*
G36*
X206391Y-49699D02*
X206474Y-49709D01*
X206576Y-49718D01*
X206678Y-49727D01*
X206798Y-49755D01*
X207048Y-49810D01*
X207325Y-49893D01*
X207464Y-49949D01*
X207593Y-50014D01*
X207722Y-50097D01*
X207852Y-50180D01*
X207861Y-50189D01*
X207880Y-50199D01*
X207917Y-50226D01*
X207963Y-50272D01*
X208009Y-50319D01*
X208074Y-50384D01*
X208139Y-50458D01*
X208213Y-50531D01*
X208286Y-50624D01*
X208360Y-50735D01*
X208444Y-50846D01*
X208518Y-50966D01*
X208582Y-51105D01*
X208656Y-51243D01*
X208712Y-51391D01*
X208767Y-51558D01*
X207935Y-51752D01*
Y-51743D01*
X207926Y-51724D01*
X207907Y-51687D01*
X207889Y-51641D01*
X207870Y-51585D01*
X207843Y-51512D01*
X207769Y-51364D01*
X207676Y-51197D01*
X207565Y-51031D01*
X207427Y-50873D01*
X207279Y-50735D01*
X207260Y-50716D01*
X207205Y-50679D01*
X207112Y-50633D01*
X206992Y-50568D01*
X206835Y-50513D01*
X206659Y-50458D01*
X206447Y-50420D01*
X206215Y-50411D01*
X206141D01*
X206095Y-50420D01*
X206031D01*
X205956Y-50430D01*
X205781Y-50458D01*
X205587Y-50494D01*
X205383Y-50559D01*
X205171Y-50652D01*
X204977Y-50772D01*
X204967D01*
X204958Y-50790D01*
X204893Y-50837D01*
X204810Y-50911D01*
X204708Y-51021D01*
X204588Y-51160D01*
X204477Y-51317D01*
X204375Y-51512D01*
X204283Y-51724D01*
Y-51733D01*
X204274Y-51752D01*
X204265Y-51780D01*
X204255Y-51826D01*
X204237Y-51881D01*
X204218Y-51946D01*
X204191Y-52103D01*
X204154Y-52288D01*
X204117Y-52491D01*
X204098Y-52713D01*
X204089Y-52954D01*
Y-52963D01*
Y-52991D01*
Y-53037D01*
Y-53092D01*
X204098Y-53157D01*
Y-53240D01*
X204107Y-53333D01*
X204117Y-53435D01*
X204144Y-53656D01*
X204191Y-53897D01*
X204246Y-54137D01*
X204320Y-54378D01*
Y-54387D01*
X204329Y-54405D01*
X204348Y-54433D01*
X204366Y-54479D01*
X204422Y-54590D01*
X204505Y-54720D01*
X204607Y-54868D01*
X204736Y-55025D01*
X204884Y-55163D01*
X205060Y-55293D01*
X205069D01*
X205087Y-55302D01*
X205115Y-55321D01*
X205152Y-55339D01*
X205198Y-55358D01*
X205254Y-55385D01*
X205383Y-55441D01*
X205550Y-55496D01*
X205735Y-55542D01*
X205938Y-55580D01*
X206151Y-55589D01*
X206215D01*
X206271Y-55580D01*
X206336D01*
X206400Y-55570D01*
X206567Y-55533D01*
X206761Y-55487D01*
X206955Y-55413D01*
X207159Y-55311D01*
X207260Y-55256D01*
X207353Y-55182D01*
X207362Y-55173D01*
X207371Y-55163D01*
X207399Y-55136D01*
X207436Y-55108D01*
X207473Y-55062D01*
X207519Y-55006D01*
X207575Y-54951D01*
X207621Y-54877D01*
X207676Y-54794D01*
X207741Y-54701D01*
X207796Y-54609D01*
X207852Y-54498D01*
X207898Y-54378D01*
X207944Y-54248D01*
X207991Y-54110D01*
X208027Y-53962D01*
X208878Y-54174D01*
Y-54183D01*
X208869Y-54220D01*
X208850Y-54276D01*
X208823Y-54350D01*
X208795Y-54433D01*
X208758Y-54535D01*
X208712Y-54646D01*
X208656Y-54766D01*
X208527Y-55025D01*
X208360Y-55284D01*
X208259Y-55413D01*
X208157Y-55542D01*
X208046Y-55654D01*
X207917Y-55764D01*
X207907Y-55774D01*
X207889Y-55792D01*
X207843Y-55811D01*
X207796Y-55848D01*
X207722Y-55894D01*
X207649Y-55940D01*
X207547Y-55986D01*
X207445Y-56033D01*
X207325Y-56088D01*
X207195Y-56134D01*
X207057Y-56181D01*
X206909Y-56227D01*
X206752Y-56264D01*
X206585Y-56282D01*
X206410Y-56301D01*
X206225Y-56310D01*
X206123D01*
X206049Y-56301D01*
X205966D01*
X205864Y-56291D01*
X205753Y-56273D01*
X205624Y-56254D01*
X205356Y-56208D01*
X205078Y-56134D01*
X204801Y-56033D01*
X204671Y-55968D01*
X204542Y-55894D01*
X204533Y-55885D01*
X204514Y-55875D01*
X204477Y-55848D01*
X204440Y-55811D01*
X204385Y-55774D01*
X204320Y-55718D01*
X204246Y-55654D01*
X204172Y-55580D01*
X204098Y-55496D01*
X204015Y-55413D01*
X203848Y-55200D01*
X203691Y-54951D01*
X203553Y-54673D01*
Y-54664D01*
X203534Y-54637D01*
X203525Y-54590D01*
X203497Y-54535D01*
X203479Y-54461D01*
X203451Y-54368D01*
X203414Y-54267D01*
X203386Y-54156D01*
X203358Y-54036D01*
X203321Y-53897D01*
X203275Y-53610D01*
X203238Y-53287D01*
X203220Y-52954D01*
Y-52944D01*
Y-52908D01*
Y-52852D01*
X203229Y-52787D01*
Y-52695D01*
X203238Y-52602D01*
X203248Y-52482D01*
X203266Y-52362D01*
X203312Y-52094D01*
X203377Y-51798D01*
X203470Y-51502D01*
X203599Y-51216D01*
X203608Y-51206D01*
X203617Y-51179D01*
X203636Y-51142D01*
X203673Y-51095D01*
X203710Y-51031D01*
X203756Y-50957D01*
X203876Y-50790D01*
X204034Y-50605D01*
X204218Y-50420D01*
X204431Y-50236D01*
X204681Y-50078D01*
X204690Y-50069D01*
X204718Y-50060D01*
X204755Y-50041D01*
X204801Y-50014D01*
X204875Y-49986D01*
X204949Y-49958D01*
X205041Y-49921D01*
X205143Y-49884D01*
X205254Y-49847D01*
X205374Y-49810D01*
X205633Y-49755D01*
X205929Y-49709D01*
X206234Y-49690D01*
X206326D01*
X206391Y-49699D01*
D02*
G37*
G36*
X212558Y-56199D02*
X211772D01*
Y-51197D01*
X211763Y-51206D01*
X211716Y-51243D01*
X211661Y-51299D01*
X211569Y-51364D01*
X211467Y-51447D01*
X211338Y-51539D01*
X211189Y-51641D01*
X211023Y-51743D01*
X211014D01*
X211005Y-51752D01*
X210949Y-51789D01*
X210857Y-51835D01*
X210746Y-51891D01*
X210616Y-51955D01*
X210478Y-52020D01*
X210339Y-52085D01*
X210200Y-52140D01*
Y-51382D01*
X210210D01*
X210228Y-51364D01*
X210265Y-51354D01*
X210311Y-51326D01*
X210367Y-51299D01*
X210431Y-51262D01*
X210589Y-51169D01*
X210774Y-51068D01*
X210958Y-50938D01*
X211153Y-50790D01*
X211347Y-50633D01*
X211356Y-50624D01*
X211365Y-50615D01*
X211393Y-50587D01*
X211430Y-50559D01*
X211513Y-50467D01*
X211624Y-50356D01*
X211735Y-50226D01*
X211855Y-50078D01*
X211957Y-49931D01*
X212049Y-49773D01*
X212558D01*
Y-56199D01*
D02*
G37*
G36*
X216792Y-49783D02*
X216866Y-49792D01*
X216950Y-49801D01*
X217042Y-49810D01*
X217134Y-49838D01*
X217356Y-49893D01*
X217578Y-49977D01*
X217689Y-50032D01*
X217800Y-50097D01*
X217902Y-50180D01*
X218004Y-50263D01*
X218013Y-50272D01*
X218022Y-50282D01*
X218050Y-50310D01*
X218087Y-50346D01*
X218124Y-50402D01*
X218170Y-50458D01*
X218262Y-50596D01*
X218355Y-50772D01*
X218438Y-50975D01*
X218503Y-51206D01*
X218512Y-51326D01*
X218521Y-51456D01*
Y-51465D01*
Y-51474D01*
Y-51530D01*
X218512Y-51613D01*
X218494Y-51715D01*
X218466Y-51844D01*
X218420Y-51974D01*
X218364Y-52103D01*
X218281Y-52233D01*
X218272Y-52251D01*
X218235Y-52288D01*
X218179Y-52344D01*
X218105Y-52417D01*
X218004Y-52501D01*
X217883Y-52584D01*
X217745Y-52667D01*
X217578Y-52741D01*
X217588D01*
X217606Y-52750D01*
X217634Y-52760D01*
X217671Y-52778D01*
X217782Y-52824D01*
X217911Y-52889D01*
X218050Y-52982D01*
X218198Y-53083D01*
X218336Y-53213D01*
X218466Y-53361D01*
Y-53370D01*
X218475Y-53379D01*
X218512Y-53435D01*
X218568Y-53527D01*
X218623Y-53647D01*
X218678Y-53795D01*
X218734Y-53971D01*
X218771Y-54165D01*
X218780Y-54378D01*
Y-54387D01*
Y-54415D01*
Y-54461D01*
X218771Y-54516D01*
X218762Y-54581D01*
X218752Y-54664D01*
X218734Y-54757D01*
X218706Y-54858D01*
X218641Y-55071D01*
X218595Y-55191D01*
X218531Y-55302D01*
X218466Y-55422D01*
X218392Y-55533D01*
X218299Y-55644D01*
X218198Y-55755D01*
X218188Y-55764D01*
X218170Y-55783D01*
X218142Y-55811D01*
X218096Y-55838D01*
X218031Y-55885D01*
X217967Y-55931D01*
X217883Y-55977D01*
X217791Y-56033D01*
X217689Y-56088D01*
X217569Y-56134D01*
X217440Y-56181D01*
X217310Y-56227D01*
X217162Y-56254D01*
X217005Y-56282D01*
X216848Y-56301D01*
X216672Y-56310D01*
X216580D01*
X216515Y-56301D01*
X216432Y-56291D01*
X216339Y-56282D01*
X216238Y-56264D01*
X216127Y-56236D01*
X215877Y-56171D01*
X215748Y-56125D01*
X215627Y-56079D01*
X215498Y-56014D01*
X215369Y-55940D01*
X215248Y-55857D01*
X215137Y-55755D01*
X215128Y-55746D01*
X215110Y-55727D01*
X215082Y-55700D01*
X215045Y-55654D01*
X215008Y-55598D01*
X214953Y-55533D01*
X214906Y-55459D01*
X214851Y-55367D01*
X214795Y-55274D01*
X214749Y-55163D01*
X214657Y-54932D01*
X214620Y-54794D01*
X214592Y-54655D01*
X214573Y-54507D01*
X214564Y-54359D01*
Y-54350D01*
Y-54331D01*
Y-54294D01*
X214573Y-54257D01*
Y-54202D01*
X214583Y-54137D01*
X214601Y-53989D01*
X214638Y-53823D01*
X214694Y-53656D01*
X214777Y-53481D01*
X214879Y-53314D01*
Y-53305D01*
X214897Y-53296D01*
X214934Y-53250D01*
X215008Y-53176D01*
X215110Y-53083D01*
X215239Y-52991D01*
X215396Y-52889D01*
X215572Y-52806D01*
X215785Y-52741D01*
X215775D01*
X215766Y-52732D01*
X215738Y-52723D01*
X215701Y-52704D01*
X215618Y-52667D01*
X215507Y-52612D01*
X215387Y-52538D01*
X215267Y-52445D01*
X215156Y-52344D01*
X215054Y-52233D01*
X215045Y-52214D01*
X215017Y-52177D01*
X214980Y-52103D01*
X214943Y-52011D01*
X214897Y-51891D01*
X214860Y-51752D01*
X214832Y-51595D01*
X214823Y-51428D01*
Y-51419D01*
Y-51400D01*
Y-51364D01*
X214832Y-51308D01*
X214842Y-51253D01*
X214851Y-51179D01*
X214888Y-51021D01*
X214943Y-50837D01*
X215036Y-50642D01*
X215091Y-50541D01*
X215156Y-50439D01*
X215239Y-50346D01*
X215322Y-50254D01*
X215332Y-50245D01*
X215350Y-50236D01*
X215378Y-50208D01*
X215415Y-50180D01*
X215461Y-50143D01*
X215526Y-50106D01*
X215600Y-50060D01*
X215674Y-50014D01*
X215766Y-49967D01*
X215868Y-49921D01*
X215979Y-49884D01*
X216099Y-49847D01*
X216358Y-49792D01*
X216506Y-49783D01*
X216654Y-49773D01*
X216737D01*
X216792Y-49783D01*
D02*
G37*
G36*
X395609Y47276D02*
X397144D01*
Y46490D01*
X395609D01*
Y43707D01*
X394888D01*
X390746Y46638D01*
Y47276D01*
X394888D01*
Y48145D01*
X395609D01*
Y47276D01*
D02*
G37*
G36*
X394684Y42875D02*
X394777D01*
X394888Y42866D01*
X394999Y42857D01*
X395248Y42829D01*
X395507Y42792D01*
X395757Y42737D01*
X395877Y42699D01*
X395988Y42663D01*
X395997D01*
X396016Y42653D01*
X396043Y42635D01*
X396080Y42616D01*
X396182Y42561D01*
X396311Y42478D01*
X396459Y42367D01*
X396607Y42237D01*
X396764Y42071D01*
X396903Y41867D01*
Y41858D01*
X396922Y41840D01*
X396931Y41812D01*
X396959Y41766D01*
X396986Y41710D01*
X397014Y41636D01*
X397042Y41562D01*
X397079Y41470D01*
X397116Y41368D01*
X397144Y41257D01*
X397171Y41137D01*
X397199Y40998D01*
X397217Y40860D01*
X397236Y40712D01*
X397254Y40379D01*
Y40296D01*
X397245Y40231D01*
Y40157D01*
X397236Y40065D01*
X397227Y39963D01*
X397217Y39861D01*
X397180Y39630D01*
X397125Y39380D01*
X397051Y39140D01*
X396949Y38909D01*
Y38900D01*
X396931Y38881D01*
X396912Y38853D01*
X396894Y38816D01*
X396820Y38715D01*
X396718Y38594D01*
X396589Y38456D01*
X396441Y38326D01*
X396256Y38197D01*
X396053Y38095D01*
X396043D01*
X396025Y38086D01*
X395988Y38077D01*
X395942Y38058D01*
X395886Y38040D01*
X395812Y38021D01*
X395729Y37994D01*
X395627Y37975D01*
X395516Y37957D01*
X395396Y37929D01*
X395267Y37910D01*
X395128Y37892D01*
X394971Y37873D01*
X394804Y37864D01*
X394629Y37855D01*
X394444D01*
X390746D01*
Y38705D01*
X394444D01*
X394453D01*
X394481D01*
X394527D01*
X394582D01*
X394647Y38715D01*
X394730D01*
X394906Y38724D01*
X395109Y38742D01*
X395313Y38770D01*
X395507Y38807D01*
X395590Y38826D01*
X395673Y38853D01*
X395692Y38863D01*
X395738Y38881D01*
X395803Y38927D01*
X395895Y38983D01*
X395988Y39048D01*
X396090Y39140D01*
X396191Y39251D01*
X396274Y39380D01*
X396284Y39399D01*
X396311Y39445D01*
X396339Y39528D01*
X396376Y39639D01*
X396422Y39769D01*
X396450Y39935D01*
X396478Y40111D01*
X396487Y40305D01*
Y40397D01*
X396478Y40453D01*
Y40536D01*
X396469Y40619D01*
X396432Y40823D01*
X396385Y41045D01*
X396311Y41257D01*
X396210Y41461D01*
X396145Y41553D01*
X396071Y41636D01*
X396062Y41645D01*
X396053Y41655D01*
X396025Y41673D01*
X395988Y41701D01*
X395932Y41729D01*
X395877Y41766D01*
X395794Y41803D01*
X395710Y41840D01*
X395609Y41877D01*
X395489Y41904D01*
X395350Y41941D01*
X395202Y41969D01*
X395036Y41997D01*
X394860Y42015D01*
X394656Y42034D01*
X394444D01*
X390746D01*
Y42884D01*
X394444D01*
X394453D01*
X394490D01*
X394536D01*
X394601D01*
X394684Y42875D01*
D02*
G37*
G36*
X221903Y115542D02*
Y115533D01*
Y115496D01*
Y115450D01*
Y115385D01*
X221894Y115302D01*
Y115210D01*
X221884Y115099D01*
X221875Y114988D01*
X221847Y114738D01*
X221810Y114479D01*
X221755Y114229D01*
X221718Y114109D01*
X221681Y113998D01*
Y113989D01*
X221672Y113971D01*
X221653Y113943D01*
X221635Y113906D01*
X221579Y113804D01*
X221496Y113675D01*
X221385Y113527D01*
X221256Y113379D01*
X221089Y113222D01*
X220886Y113083D01*
X220877D01*
X220858Y113064D01*
X220830Y113055D01*
X220784Y113027D01*
X220729Y113000D01*
X220655Y112972D01*
X220581Y112944D01*
X220488Y112907D01*
X220387Y112870D01*
X220276Y112843D01*
X220156Y112815D01*
X220017Y112787D01*
X219878Y112769D01*
X219730Y112750D01*
X219397Y112732D01*
X219314D01*
X219249Y112741D01*
X219175D01*
X219083Y112750D01*
X218981Y112759D01*
X218880Y112769D01*
X218648Y112806D01*
X218399Y112861D01*
X218158Y112935D01*
X217927Y113037D01*
X217918D01*
X217900Y113055D01*
X217872Y113074D01*
X217835Y113092D01*
X217733Y113166D01*
X217613Y113268D01*
X217474Y113397D01*
X217345Y113545D01*
X217215Y113730D01*
X217114Y113934D01*
Y113943D01*
X217104Y113961D01*
X217095Y113998D01*
X217077Y114045D01*
X217058Y114100D01*
X217040Y114174D01*
X217012Y114257D01*
X216994Y114359D01*
X216975Y114470D01*
X216947Y114590D01*
X216929Y114719D01*
X216910Y114858D01*
X216892Y115015D01*
X216882Y115182D01*
X216873Y115357D01*
Y115542D01*
Y119241D01*
X217724D01*
Y115542D01*
Y115533D01*
Y115505D01*
Y115459D01*
Y115404D01*
X217733Y115339D01*
Y115256D01*
X217742Y115080D01*
X217761Y114877D01*
X217789Y114673D01*
X217826Y114479D01*
X217844Y114396D01*
X217872Y114313D01*
X217881Y114294D01*
X217900Y114248D01*
X217946Y114183D01*
X218001Y114091D01*
X218066Y113998D01*
X218158Y113897D01*
X218269Y113795D01*
X218399Y113712D01*
X218417Y113702D01*
X218463Y113675D01*
X218547Y113647D01*
X218658Y113610D01*
X218787Y113564D01*
X218954Y113536D01*
X219129Y113508D01*
X219323Y113499D01*
X219416D01*
X219471Y113508D01*
X219555D01*
X219638Y113518D01*
X219841Y113554D01*
X220063Y113601D01*
X220276Y113675D01*
X220479Y113776D01*
X220571Y113841D01*
X220655Y113915D01*
X220664Y113924D01*
X220673Y113934D01*
X220692Y113961D01*
X220720Y113998D01*
X220747Y114054D01*
X220784Y114109D01*
X220821Y114192D01*
X220858Y114276D01*
X220895Y114377D01*
X220923Y114498D01*
X220960Y114636D01*
X220988Y114784D01*
X221015Y114951D01*
X221034Y115126D01*
X221052Y115330D01*
Y115542D01*
Y119241D01*
X221903D01*
Y115542D01*
D02*
G37*
G36*
X225268Y119259D02*
X225342Y119250D01*
X225435Y119241D01*
X225536Y119222D01*
X225638Y119204D01*
X225879Y119139D01*
X226119Y119046D01*
X226239Y118991D01*
X226359Y118926D01*
X226470Y118843D01*
X226572Y118751D01*
X226581Y118741D01*
X226600Y118732D01*
X226618Y118695D01*
X226655Y118658D01*
X226701Y118612D01*
X226748Y118547D01*
X226794Y118482D01*
X226849Y118399D01*
X226942Y118224D01*
X227034Y118002D01*
X227071Y117891D01*
X227090Y117761D01*
X227108Y117632D01*
X227117Y117493D01*
Y117475D01*
Y117428D01*
X227108Y117354D01*
X227099Y117253D01*
X227080Y117142D01*
X227043Y117012D01*
X227006Y116874D01*
X226951Y116735D01*
X226942Y116716D01*
X226923Y116670D01*
X226886Y116596D01*
X226831Y116495D01*
X226757Y116384D01*
X226664Y116245D01*
X226553Y116106D01*
X226424Y115949D01*
X226406Y115931D01*
X226359Y115875D01*
X226313Y115829D01*
X226267Y115783D01*
X226211Y115727D01*
X226137Y115653D01*
X226063Y115579D01*
X225971Y115496D01*
X225879Y115404D01*
X225768Y115302D01*
X225647Y115200D01*
X225518Y115080D01*
X225370Y114960D01*
X225222Y114830D01*
X225213Y114821D01*
X225194Y114803D01*
X225157Y114775D01*
X225111Y114738D01*
X225056Y114683D01*
X224991Y114627D01*
X224843Y114507D01*
X224686Y114368D01*
X224538Y114229D01*
X224408Y114109D01*
X224353Y114063D01*
X224307Y114017D01*
X224298Y114008D01*
X224270Y113980D01*
X224233Y113943D01*
X224187Y113887D01*
X224140Y113823D01*
X224085Y113758D01*
X223974Y113601D01*
X227127D01*
Y112843D01*
X222883D01*
Y112852D01*
Y112889D01*
Y112944D01*
X222892Y113018D01*
X222901Y113102D01*
X222920Y113194D01*
X222938Y113286D01*
X222975Y113388D01*
Y113397D01*
X222985Y113407D01*
X223003Y113462D01*
X223040Y113545D01*
X223096Y113656D01*
X223170Y113786D01*
X223262Y113934D01*
X223364Y114081D01*
X223493Y114239D01*
Y114248D01*
X223512Y114257D01*
X223558Y114313D01*
X223641Y114396D01*
X223761Y114516D01*
X223900Y114655D01*
X224076Y114821D01*
X224288Y115006D01*
X224519Y115200D01*
X224529Y115210D01*
X224566Y115237D01*
X224621Y115283D01*
X224686Y115339D01*
X224769Y115413D01*
X224871Y115496D01*
X224972Y115589D01*
X225093Y115690D01*
X225324Y115912D01*
X225555Y116134D01*
X225666Y116245D01*
X225768Y116356D01*
X225860Y116458D01*
X225934Y116559D01*
Y116569D01*
X225952Y116578D01*
X225971Y116606D01*
X225989Y116643D01*
X226054Y116744D01*
X226128Y116865D01*
X226193Y117012D01*
X226258Y117170D01*
X226295Y117345D01*
X226313Y117512D01*
Y117521D01*
Y117530D01*
X226304Y117586D01*
X226295Y117678D01*
X226267Y117780D01*
X226230Y117909D01*
X226165Y118039D01*
X226082Y118168D01*
X225971Y118298D01*
X225952Y118316D01*
X225906Y118353D01*
X225842Y118399D01*
X225740Y118464D01*
X225610Y118519D01*
X225462Y118575D01*
X225287Y118612D01*
X225093Y118621D01*
X225037D01*
X225000Y118612D01*
X224889Y118603D01*
X224760Y118575D01*
X224621Y118538D01*
X224464Y118473D01*
X224316Y118390D01*
X224177Y118279D01*
X224159Y118260D01*
X224122Y118214D01*
X224066Y118140D01*
X224011Y118029D01*
X223946Y117900D01*
X223891Y117733D01*
X223854Y117549D01*
X223835Y117336D01*
X223031Y117419D01*
Y117428D01*
X223040Y117456D01*
Y117502D01*
X223049Y117567D01*
X223068Y117641D01*
X223086Y117724D01*
X223114Y117826D01*
X223142Y117928D01*
X223216Y118150D01*
X223327Y118371D01*
X223391Y118482D01*
X223475Y118593D01*
X223558Y118695D01*
X223650Y118787D01*
X223660Y118797D01*
X223678Y118806D01*
X223706Y118834D01*
X223752Y118862D01*
X223808Y118898D01*
X223872Y118935D01*
X223946Y118982D01*
X224039Y119028D01*
X224140Y119074D01*
X224251Y119120D01*
X224371Y119157D01*
X224501Y119194D01*
X224640Y119222D01*
X224788Y119250D01*
X224945Y119259D01*
X225111Y119268D01*
X225204D01*
X225268Y119259D01*
D02*
G37*
G36*
X396213Y93883D02*
X396204D01*
X396167D01*
X396111D01*
X396037Y93892D01*
X395954Y93901D01*
X395862Y93920D01*
X395769Y93938D01*
X395667Y93975D01*
X395658D01*
X395649Y93985D01*
X395593Y94003D01*
X395510Y94040D01*
X395399Y94096D01*
X395270Y94170D01*
X395122Y94262D01*
X394974Y94364D01*
X394817Y94493D01*
X394808D01*
X394798Y94512D01*
X394743Y94558D01*
X394660Y94641D01*
X394539Y94761D01*
X394401Y94900D01*
X394234Y95076D01*
X394049Y95288D01*
X393855Y95519D01*
X393846Y95529D01*
X393818Y95566D01*
X393772Y95621D01*
X393717Y95686D01*
X393643Y95769D01*
X393559Y95871D01*
X393467Y95972D01*
X393365Y96093D01*
X393143Y96324D01*
X392921Y96555D01*
X392810Y96666D01*
X392700Y96768D01*
X392598Y96860D01*
X392496Y96934D01*
X392487D01*
X392478Y96952D01*
X392450Y96971D01*
X392413Y96989D01*
X392311Y97054D01*
X392191Y97128D01*
X392043Y97193D01*
X391886Y97258D01*
X391710Y97295D01*
X391544Y97313D01*
X391535D01*
X391525D01*
X391470Y97304D01*
X391377Y97295D01*
X391276Y97267D01*
X391146Y97230D01*
X391017Y97165D01*
X390887Y97082D01*
X390758Y96971D01*
X390739Y96952D01*
X390702Y96906D01*
X390656Y96841D01*
X390592Y96740D01*
X390536Y96610D01*
X390480Y96462D01*
X390444Y96287D01*
X390434Y96093D01*
Y96037D01*
X390444Y96000D01*
X390453Y95889D01*
X390480Y95760D01*
X390518Y95621D01*
X390582Y95464D01*
X390666Y95316D01*
X390776Y95177D01*
X390795Y95159D01*
X390841Y95122D01*
X390915Y95066D01*
X391026Y95011D01*
X391156Y94946D01*
X391322Y94891D01*
X391507Y94854D01*
X391720Y94835D01*
X391636Y94031D01*
X391627D01*
X391599Y94040D01*
X391553D01*
X391488Y94049D01*
X391414Y94068D01*
X391331Y94086D01*
X391229Y94114D01*
X391128Y94142D01*
X390906Y94216D01*
X390684Y94327D01*
X390573Y94391D01*
X390462Y94475D01*
X390360Y94558D01*
X390268Y94650D01*
X390259Y94660D01*
X390249Y94678D01*
X390222Y94706D01*
X390194Y94752D01*
X390157Y94808D01*
X390120Y94872D01*
X390074Y94946D01*
X390028Y95039D01*
X389981Y95140D01*
X389935Y95251D01*
X389898Y95372D01*
X389861Y95501D01*
X389833Y95640D01*
X389806Y95787D01*
X389796Y95945D01*
X389787Y96111D01*
Y96204D01*
X389796Y96268D01*
X389806Y96342D01*
X389815Y96435D01*
X389833Y96536D01*
X389852Y96638D01*
X389917Y96878D01*
X390009Y97119D01*
X390065Y97239D01*
X390129Y97359D01*
X390212Y97470D01*
X390305Y97572D01*
X390314Y97581D01*
X390323Y97600D01*
X390360Y97618D01*
X390397Y97655D01*
X390444Y97701D01*
X390508Y97748D01*
X390573Y97794D01*
X390656Y97849D01*
X390832Y97942D01*
X391054Y98034D01*
X391165Y98071D01*
X391294Y98090D01*
X391424Y98108D01*
X391562Y98117D01*
X391581D01*
X391627D01*
X391701Y98108D01*
X391803Y98099D01*
X391914Y98080D01*
X392043Y98043D01*
X392182Y98006D01*
X392320Y97951D01*
X392339Y97942D01*
X392385Y97923D01*
X392459Y97886D01*
X392561Y97831D01*
X392672Y97757D01*
X392810Y97664D01*
X392949Y97553D01*
X393106Y97424D01*
X393125Y97406D01*
X393180Y97359D01*
X393227Y97313D01*
X393273Y97267D01*
X393328Y97211D01*
X393402Y97137D01*
X393476Y97063D01*
X393559Y96971D01*
X393652Y96878D01*
X393754Y96768D01*
X393855Y96647D01*
X393975Y96518D01*
X394096Y96370D01*
X394225Y96222D01*
X394234Y96213D01*
X394253Y96194D01*
X394281Y96157D01*
X394318Y96111D01*
X394373Y96056D01*
X394428Y95991D01*
X394549Y95843D01*
X394687Y95686D01*
X394826Y95538D01*
X394946Y95408D01*
X394992Y95353D01*
X395039Y95307D01*
X395048Y95297D01*
X395076Y95270D01*
X395113Y95233D01*
X395168Y95187D01*
X395233Y95140D01*
X395298Y95085D01*
X395455Y94974D01*
Y98127D01*
X396213D01*
Y93883D01*
D02*
G37*
G36*
Y92441D02*
X394882Y91599D01*
X394872D01*
X394854Y91581D01*
X394826Y91562D01*
X394789Y91535D01*
X394687Y91470D01*
X394558Y91387D01*
X394419Y91285D01*
X394271Y91183D01*
X394133Y91081D01*
X394003Y90989D01*
X393994Y90980D01*
X393957Y90952D01*
X393901Y90906D01*
X393837Y90841D01*
X393698Y90702D01*
X393633Y90628D01*
X393578Y90555D01*
X393569Y90545D01*
X393559Y90527D01*
X393541Y90490D01*
X393513Y90434D01*
X393485Y90379D01*
X393458Y90314D01*
X393411Y90166D01*
Y90157D01*
X393402Y90139D01*
Y90101D01*
X393393Y90055D01*
X393384Y89991D01*
Y89917D01*
X393374Y89815D01*
Y88724D01*
X396213D01*
Y87873D01*
X389815D01*
Y90841D01*
X389824Y90915D01*
Y90998D01*
X389833Y91193D01*
X389861Y91396D01*
X389889Y91618D01*
X389935Y91821D01*
X389963Y91923D01*
X389991Y92006D01*
Y92015D01*
X390000Y92025D01*
X390028Y92080D01*
X390065Y92163D01*
X390129Y92265D01*
X390212Y92376D01*
X390323Y92496D01*
X390453Y92607D01*
X390601Y92718D01*
X390610D01*
X390619Y92727D01*
X390675Y92764D01*
X390767Y92801D01*
X390887Y92857D01*
X391026Y92903D01*
X391193Y92949D01*
X391368Y92977D01*
X391562Y92986D01*
X391572D01*
X391590D01*
X391627D01*
X391673Y92977D01*
X391738D01*
X391803Y92968D01*
X391960Y92931D01*
X392145Y92875D01*
X392339Y92801D01*
X392533Y92690D01*
X392626Y92616D01*
X392718Y92542D01*
X392727Y92533D01*
X392737Y92524D01*
X392764Y92496D01*
X392792Y92459D01*
X392829Y92413D01*
X392866Y92357D01*
X392912Y92283D01*
X392968Y92210D01*
X393014Y92117D01*
X393060Y92015D01*
X393116Y91904D01*
X393162Y91784D01*
X393199Y91645D01*
X393245Y91507D01*
X393273Y91350D01*
X393301Y91183D01*
X393310Y91202D01*
X393328Y91239D01*
X393365Y91294D01*
X393402Y91368D01*
X393504Y91535D01*
X393569Y91618D01*
X393624Y91692D01*
X393643Y91710D01*
X393689Y91756D01*
X393763Y91830D01*
X393855Y91923D01*
X393985Y92025D01*
X394123Y92145D01*
X394290Y92265D01*
X394475Y92394D01*
X396213Y93495D01*
Y92441D01*
D02*
G37*
G36*
X266664Y58276D02*
X268199D01*
Y57490D01*
X266664D01*
Y54707D01*
X265943D01*
X261801Y57638D01*
Y58276D01*
X265943D01*
Y59145D01*
X266664D01*
Y58276D01*
D02*
G37*
G36*
X268199Y53422D02*
X266868Y52581D01*
X266858D01*
X266840Y52562D01*
X266812Y52544D01*
X266775Y52516D01*
X266673Y52451D01*
X266544Y52368D01*
X266405Y52267D01*
X266257Y52165D01*
X266119Y52063D01*
X265989Y51971D01*
X265980Y51961D01*
X265943Y51934D01*
X265888Y51887D01*
X265823Y51823D01*
X265684Y51684D01*
X265619Y51610D01*
X265564Y51536D01*
X265555Y51527D01*
X265545Y51508D01*
X265527Y51471D01*
X265499Y51416D01*
X265471Y51360D01*
X265444Y51296D01*
X265397Y51148D01*
Y51139D01*
X265388Y51120D01*
Y51083D01*
X265379Y51037D01*
X265370Y50972D01*
Y50898D01*
X265361Y50796D01*
Y49705D01*
X268199D01*
Y48855D01*
X261801D01*
Y51823D01*
X261810Y51897D01*
Y51980D01*
X261819Y52174D01*
X261847Y52377D01*
X261875Y52599D01*
X261921Y52803D01*
X261949Y52904D01*
X261977Y52988D01*
Y52997D01*
X261986Y53006D01*
X262014Y53062D01*
X262051Y53145D01*
X262115Y53246D01*
X262199Y53357D01*
X262309Y53478D01*
X262439Y53589D01*
X262587Y53699D01*
X262596D01*
X262605Y53709D01*
X262661Y53746D01*
X262753Y53783D01*
X262873Y53838D01*
X263012Y53884D01*
X263179Y53931D01*
X263354Y53958D01*
X263548Y53968D01*
X263558D01*
X263576D01*
X263613D01*
X263659Y53958D01*
X263724D01*
X263789Y53949D01*
X263946Y53912D01*
X264131Y53857D01*
X264325Y53783D01*
X264519Y53672D01*
X264612Y53598D01*
X264704Y53524D01*
X264713Y53515D01*
X264723Y53505D01*
X264750Y53478D01*
X264778Y53441D01*
X264815Y53394D01*
X264852Y53339D01*
X264898Y53265D01*
X264954Y53191D01*
X265000Y53099D01*
X265046Y52997D01*
X265102Y52886D01*
X265148Y52766D01*
X265185Y52627D01*
X265231Y52488D01*
X265259Y52331D01*
X265287Y52165D01*
X265296Y52183D01*
X265314Y52220D01*
X265351Y52276D01*
X265388Y52350D01*
X265490Y52516D01*
X265555Y52599D01*
X265610Y52673D01*
X265629Y52692D01*
X265675Y52738D01*
X265749Y52812D01*
X265841Y52904D01*
X265971Y53006D01*
X266109Y53126D01*
X266276Y53246D01*
X266461Y53376D01*
X268199Y54476D01*
Y53422D01*
D02*
G37*
G36*
X338376Y101917D02*
X333374D01*
X333383Y101907D01*
X333420Y101861D01*
X333475Y101806D01*
X333540Y101713D01*
X333623Y101611D01*
X333716Y101482D01*
X333818Y101334D01*
X333919Y101168D01*
Y101158D01*
X333928Y101149D01*
X333965Y101094D01*
X334012Y101001D01*
X334067Y100890D01*
X334132Y100761D01*
X334197Y100622D01*
X334261Y100484D01*
X334317Y100345D01*
X333559D01*
Y100354D01*
X333540Y100373D01*
X333531Y100410D01*
X333503Y100456D01*
X333475Y100511D01*
X333438Y100576D01*
X333346Y100733D01*
X333244Y100918D01*
X333115Y101103D01*
X332967Y101297D01*
X332810Y101491D01*
X332801Y101501D01*
X332791Y101510D01*
X332764Y101538D01*
X332736Y101574D01*
X332643Y101658D01*
X332533Y101769D01*
X332403Y101880D01*
X332255Y102000D01*
X332107Y102101D01*
X331950Y102194D01*
Y102703D01*
X338376D01*
Y101917D01*
D02*
G37*
G36*
Y98191D02*
X337044Y97349D01*
X337035D01*
X337017Y97331D01*
X336989Y97312D01*
X336952Y97284D01*
X336850Y97220D01*
X336721Y97137D01*
X336582Y97035D01*
X336434Y96933D01*
X336295Y96832D01*
X336166Y96739D01*
X336157Y96730D01*
X336120Y96702D01*
X336064Y96656D01*
X336000Y96591D01*
X335861Y96452D01*
X335796Y96378D01*
X335741Y96305D01*
X335731Y96295D01*
X335722Y96277D01*
X335704Y96240D01*
X335676Y96184D01*
X335648Y96129D01*
X335620Y96064D01*
X335574Y95916D01*
Y95907D01*
X335565Y95889D01*
Y95851D01*
X335556Y95805D01*
X335546Y95740D01*
Y95667D01*
X335537Y95565D01*
Y94474D01*
X338376D01*
Y93623D01*
X331978D01*
Y96591D01*
X331987Y96665D01*
Y96748D01*
X331996Y96943D01*
X332024Y97146D01*
X332052Y97368D01*
X332098Y97571D01*
X332126Y97673D01*
X332153Y97756D01*
Y97765D01*
X332163Y97775D01*
X332190Y97830D01*
X332227Y97913D01*
X332292Y98015D01*
X332375Y98126D01*
X332486Y98246D01*
X332616Y98357D01*
X332764Y98468D01*
X332773D01*
X332782Y98477D01*
X332838Y98514D01*
X332930Y98551D01*
X333050Y98607D01*
X333189Y98653D01*
X333355Y98699D01*
X333531Y98727D01*
X333725Y98736D01*
X333734D01*
X333753D01*
X333790D01*
X333836Y98727D01*
X333901D01*
X333965Y98718D01*
X334123Y98681D01*
X334308Y98625D01*
X334502Y98551D01*
X334696Y98440D01*
X334788Y98366D01*
X334881Y98292D01*
X334890Y98283D01*
X334899Y98274D01*
X334927Y98246D01*
X334955Y98209D01*
X334992Y98163D01*
X335029Y98107D01*
X335075Y98033D01*
X335131Y97959D01*
X335177Y97867D01*
X335223Y97765D01*
X335278Y97654D01*
X335325Y97534D01*
X335362Y97395D01*
X335408Y97257D01*
X335436Y97100D01*
X335463Y96933D01*
X335473Y96952D01*
X335491Y96989D01*
X335528Y97044D01*
X335565Y97118D01*
X335667Y97284D01*
X335731Y97368D01*
X335787Y97442D01*
X335805Y97460D01*
X335852Y97506D01*
X335926Y97580D01*
X336018Y97673D01*
X336147Y97775D01*
X336286Y97895D01*
X336453Y98015D01*
X336637Y98144D01*
X338376Y99245D01*
Y98191D01*
D02*
G37*
G36*
X134544Y123787D02*
X133758D01*
Y128789D01*
X133749Y128780D01*
X133703Y128743D01*
X133647Y128687D01*
X133555Y128623D01*
X133453Y128539D01*
X133324Y128447D01*
X133176Y128345D01*
X133009Y128244D01*
X133000D01*
X132991Y128234D01*
X132935Y128197D01*
X132843Y128151D01*
X132732Y128096D01*
X132603Y128031D01*
X132464Y127966D01*
X132325Y127901D01*
X132187Y127846D01*
Y128604D01*
X132196D01*
X132214Y128623D01*
X132251Y128632D01*
X132297Y128660D01*
X132353Y128687D01*
X132418Y128724D01*
X132575Y128817D01*
X132760Y128919D01*
X132945Y129048D01*
X133139Y129196D01*
X133333Y129353D01*
X133342Y129362D01*
X133351Y129372D01*
X133379Y129399D01*
X133416Y129427D01*
X133499Y129519D01*
X133610Y129630D01*
X133721Y129760D01*
X133841Y129908D01*
X133943Y130056D01*
X134036Y130213D01*
X134544D01*
Y123787D01*
D02*
G37*
G36*
X128082Y130176D02*
X128266Y130167D01*
X128451Y130148D01*
X128636Y130120D01*
X128793Y130093D01*
X128803D01*
X128821Y130083D01*
X128849D01*
X128886Y130065D01*
X128988Y130037D01*
X129117Y129991D01*
X129265Y129926D01*
X129422Y129843D01*
X129579Y129751D01*
X129727Y129630D01*
X129736Y129621D01*
X129746Y129612D01*
X129774Y129584D01*
X129810Y129556D01*
X129903Y129464D01*
X130014Y129334D01*
X130134Y129177D01*
X130264Y128992D01*
X130384Y128780D01*
X130485Y128539D01*
Y128530D01*
X130495Y128512D01*
X130513Y128475D01*
X130522Y128419D01*
X130550Y128355D01*
X130569Y128280D01*
X130587Y128197D01*
X130615Y128096D01*
X130643Y127994D01*
X130661Y127874D01*
X130707Y127615D01*
X130735Y127328D01*
X130744Y127014D01*
Y127005D01*
Y126986D01*
Y126940D01*
Y126894D01*
X130735Y126829D01*
Y126755D01*
X130726Y126579D01*
X130698Y126376D01*
X130670Y126163D01*
X130624Y125941D01*
X130569Y125719D01*
Y125710D01*
X130559Y125692D01*
X130550Y125664D01*
X130541Y125627D01*
X130504Y125525D01*
X130448Y125396D01*
X130393Y125248D01*
X130319Y125100D01*
X130226Y124943D01*
X130134Y124795D01*
X130125Y124776D01*
X130088Y124730D01*
X130032Y124665D01*
X129958Y124582D01*
X129875Y124490D01*
X129774Y124397D01*
X129672Y124296D01*
X129552Y124213D01*
X129533Y124203D01*
X129496Y124176D01*
X129431Y124138D01*
X129339Y124092D01*
X129228Y124037D01*
X129099Y123991D01*
X128951Y123935D01*
X128784Y123889D01*
X128766D01*
X128738Y123880D01*
X128710Y123870D01*
X128618Y123861D01*
X128488Y123843D01*
X128340Y123824D01*
X128165Y123806D01*
X127971Y123796D01*
X127758Y123787D01*
X125456D01*
Y130185D01*
X127915D01*
X128082Y130176D01*
D02*
G37*
G36*
X279973Y119218D02*
X280037D01*
X280111Y119208D01*
X280287Y119171D01*
X280481Y119125D01*
X280685Y119051D01*
X280888Y118940D01*
X280990Y118875D01*
X281082Y118801D01*
X281091Y118792D01*
X281101Y118783D01*
X281128Y118755D01*
X281156Y118727D01*
X281202Y118681D01*
X281239Y118626D01*
X281341Y118496D01*
X281443Y118330D01*
X281535Y118126D01*
X281618Y117895D01*
X281674Y117636D01*
X280888Y117572D01*
Y117581D01*
X280879Y117590D01*
X280870Y117646D01*
X280842Y117729D01*
X280805Y117831D01*
X280768Y117942D01*
X280712Y118053D01*
X280648Y118154D01*
X280583Y118237D01*
X280564Y118256D01*
X280527Y118293D01*
X280463Y118348D01*
X280370Y118413D01*
X280250Y118469D01*
X280121Y118524D01*
X279963Y118561D01*
X279797Y118580D01*
X279732D01*
X279658Y118570D01*
X279575Y118552D01*
X279464Y118524D01*
X279353Y118487D01*
X279242Y118441D01*
X279131Y118367D01*
X279113Y118358D01*
X279067Y118321D01*
X279002Y118256D01*
X278919Y118163D01*
X278826Y118053D01*
X278724Y117923D01*
X278632Y117757D01*
X278540Y117572D01*
Y117563D01*
X278530Y117544D01*
X278521Y117516D01*
X278503Y117479D01*
X278493Y117424D01*
X278475Y117359D01*
X278456Y117285D01*
X278438Y117193D01*
X278410Y117091D01*
X278392Y116980D01*
X278373Y116860D01*
X278364Y116730D01*
X278345Y116582D01*
X278336Y116434D01*
X278327Y116268D01*
Y116102D01*
X278336Y116111D01*
X278373Y116166D01*
X278438Y116240D01*
X278521Y116333D01*
X278613Y116444D01*
X278734Y116545D01*
X278863Y116647D01*
X279011Y116740D01*
X279020D01*
X279030Y116749D01*
X279085Y116777D01*
X279168Y116804D01*
X279279Y116851D01*
X279409Y116888D01*
X279557Y116915D01*
X279714Y116943D01*
X279880Y116952D01*
X279954D01*
X280010Y116943D01*
X280084Y116934D01*
X280158Y116925D01*
X280250Y116906D01*
X280343Y116878D01*
X280555Y116814D01*
X280666Y116767D01*
X280777Y116703D01*
X280888Y116638D01*
X281008Y116564D01*
X281119Y116472D01*
X281221Y116370D01*
X281230Y116361D01*
X281248Y116342D01*
X281276Y116314D01*
X281304Y116268D01*
X281350Y116203D01*
X281397Y116139D01*
X281443Y116055D01*
X281498Y115963D01*
X281554Y115861D01*
X281600Y115750D01*
X281646Y115621D01*
X281692Y115492D01*
X281720Y115353D01*
X281748Y115196D01*
X281766Y115038D01*
X281775Y114872D01*
Y114863D01*
Y114844D01*
Y114817D01*
Y114770D01*
X281766Y114715D01*
Y114659D01*
X281739Y114511D01*
X281711Y114336D01*
X281665Y114151D01*
X281600Y113947D01*
X281507Y113753D01*
Y113744D01*
X281498Y113735D01*
X281480Y113707D01*
X281461Y113670D01*
X281406Y113578D01*
X281322Y113457D01*
X281221Y113328D01*
X281101Y113199D01*
X280953Y113069D01*
X280795Y112958D01*
X280786D01*
X280777Y112949D01*
X280749Y112930D01*
X280712Y112921D01*
X280620Y112875D01*
X280500Y112829D01*
X280343Y112773D01*
X280167Y112736D01*
X279973Y112699D01*
X279760Y112690D01*
X279714D01*
X279667Y112699D01*
X279594D01*
X279510Y112709D01*
X279418Y112727D01*
X279307Y112755D01*
X279196Y112782D01*
X279067Y112819D01*
X278937Y112866D01*
X278808Y112921D01*
X278669Y112995D01*
X278540Y113078D01*
X278410Y113171D01*
X278281Y113282D01*
X278160Y113411D01*
X278151Y113420D01*
X278133Y113448D01*
X278105Y113485D01*
X278068Y113550D01*
X278013Y113633D01*
X277966Y113726D01*
X277911Y113846D01*
X277855Y113975D01*
X277791Y114132D01*
X277735Y114308D01*
X277689Y114502D01*
X277643Y114715D01*
X277596Y114955D01*
X277569Y115214D01*
X277550Y115492D01*
X277541Y115787D01*
Y115797D01*
Y115806D01*
Y115834D01*
Y115871D01*
X277550Y115963D01*
Y116093D01*
X277560Y116240D01*
X277578Y116416D01*
X277596Y116610D01*
X277624Y116823D01*
X277661Y117036D01*
X277708Y117267D01*
X277763Y117488D01*
X277828Y117710D01*
X277911Y117923D01*
X278003Y118126D01*
X278105Y118321D01*
X278225Y118487D01*
X278235Y118496D01*
X278253Y118515D01*
X278290Y118552D01*
X278336Y118607D01*
X278392Y118663D01*
X278466Y118718D01*
X278558Y118792D01*
X278650Y118857D01*
X278762Y118922D01*
X278882Y118996D01*
X279020Y119051D01*
X279159Y119116D01*
X279316Y119162D01*
X279483Y119199D01*
X279658Y119218D01*
X279843Y119227D01*
X279917D01*
X279973Y119218D01*
D02*
G37*
G36*
X269396Y119301D02*
X269479Y119291D01*
X269581Y119282D01*
X269682Y119273D01*
X269802Y119245D01*
X270052Y119190D01*
X270329Y119107D01*
X270468Y119051D01*
X270598Y118986D01*
X270727Y118903D01*
X270856Y118820D01*
X270866Y118811D01*
X270884Y118801D01*
X270921Y118774D01*
X270967Y118727D01*
X271014Y118681D01*
X271078Y118617D01*
X271143Y118542D01*
X271217Y118469D01*
X271291Y118376D01*
X271365Y118265D01*
X271448Y118154D01*
X271522Y118034D01*
X271587Y117895D01*
X271661Y117757D01*
X271716Y117609D01*
X271772Y117442D01*
X270940Y117248D01*
Y117257D01*
X270930Y117276D01*
X270912Y117313D01*
X270893Y117359D01*
X270875Y117415D01*
X270847Y117488D01*
X270773Y117636D01*
X270681Y117803D01*
X270570Y117969D01*
X270431Y118126D01*
X270283Y118265D01*
X270265Y118284D01*
X270209Y118321D01*
X270117Y118367D01*
X269997Y118432D01*
X269839Y118487D01*
X269664Y118542D01*
X269451Y118580D01*
X269220Y118589D01*
X269146D01*
X269100Y118580D01*
X269035D01*
X268961Y118570D01*
X268785Y118542D01*
X268591Y118506D01*
X268388Y118441D01*
X268175Y118348D01*
X267981Y118228D01*
X267972D01*
X267963Y118210D01*
X267898Y118163D01*
X267815Y118090D01*
X267713Y117979D01*
X267593Y117840D01*
X267482Y117683D01*
X267380Y117488D01*
X267288Y117276D01*
Y117267D01*
X267278Y117248D01*
X267269Y117220D01*
X267260Y117174D01*
X267241Y117119D01*
X267223Y117054D01*
X267195Y116897D01*
X267158Y116712D01*
X267121Y116509D01*
X267103Y116287D01*
X267094Y116046D01*
Y116037D01*
Y116009D01*
Y115963D01*
Y115907D01*
X267103Y115843D01*
Y115760D01*
X267112Y115667D01*
X267121Y115566D01*
X267149Y115344D01*
X267195Y115103D01*
X267251Y114863D01*
X267325Y114622D01*
Y114613D01*
X267334Y114595D01*
X267352Y114567D01*
X267371Y114521D01*
X267426Y114410D01*
X267510Y114280D01*
X267611Y114132D01*
X267741Y113975D01*
X267889Y113836D01*
X268064Y113707D01*
X268074D01*
X268092Y113698D01*
X268120Y113679D01*
X268157Y113661D01*
X268203Y113642D01*
X268258Y113615D01*
X268388Y113559D01*
X268554Y113504D01*
X268739Y113457D01*
X268943Y113420D01*
X269155Y113411D01*
X269220D01*
X269275Y113420D01*
X269340D01*
X269405Y113430D01*
X269571Y113467D01*
X269765Y113513D01*
X269960Y113587D01*
X270163Y113689D01*
X270265Y113744D01*
X270357Y113818D01*
X270366Y113827D01*
X270376Y113836D01*
X270403Y113864D01*
X270440Y113892D01*
X270477Y113938D01*
X270524Y113994D01*
X270579Y114049D01*
X270625Y114123D01*
X270681Y114206D01*
X270746Y114299D01*
X270801Y114391D01*
X270856Y114502D01*
X270903Y114622D01*
X270949Y114752D01*
X270995Y114890D01*
X271032Y115038D01*
X271883Y114826D01*
Y114817D01*
X271873Y114780D01*
X271855Y114724D01*
X271827Y114650D01*
X271800Y114567D01*
X271763Y114465D01*
X271716Y114354D01*
X271661Y114234D01*
X271531Y113975D01*
X271365Y113716D01*
X271263Y113587D01*
X271162Y113457D01*
X271051Y113347D01*
X270921Y113236D01*
X270912Y113226D01*
X270893Y113208D01*
X270847Y113189D01*
X270801Y113152D01*
X270727Y113106D01*
X270653Y113060D01*
X270551Y113014D01*
X270450Y112967D01*
X270329Y112912D01*
X270200Y112866D01*
X270061Y112819D01*
X269913Y112773D01*
X269756Y112736D01*
X269590Y112718D01*
X269414Y112699D01*
X269229Y112690D01*
X269128D01*
X269054Y112699D01*
X268970D01*
X268869Y112709D01*
X268758Y112727D01*
X268628Y112746D01*
X268360Y112792D01*
X268083Y112866D01*
X267805Y112967D01*
X267676Y113032D01*
X267547Y113106D01*
X267537Y113115D01*
X267519Y113125D01*
X267482Y113152D01*
X267445Y113189D01*
X267389Y113226D01*
X267325Y113282D01*
X267251Y113347D01*
X267177Y113420D01*
X267103Y113504D01*
X267020Y113587D01*
X266853Y113799D01*
X266696Y114049D01*
X266557Y114326D01*
Y114336D01*
X266539Y114363D01*
X266530Y114410D01*
X266502Y114465D01*
X266483Y114539D01*
X266456Y114632D01*
X266419Y114733D01*
X266391Y114844D01*
X266363Y114965D01*
X266326Y115103D01*
X266280Y115390D01*
X266243Y115713D01*
X266224Y116046D01*
Y116055D01*
Y116093D01*
Y116148D01*
X266234Y116213D01*
Y116305D01*
X266243Y116398D01*
X266252Y116518D01*
X266271Y116638D01*
X266317Y116906D01*
X266382Y117202D01*
X266474Y117498D01*
X266604Y117784D01*
X266613Y117794D01*
X266622Y117821D01*
X266640Y117858D01*
X266677Y117905D01*
X266714Y117969D01*
X266761Y118043D01*
X266881Y118210D01*
X267038Y118395D01*
X267223Y118580D01*
X267436Y118764D01*
X267685Y118922D01*
X267694Y118931D01*
X267722Y118940D01*
X267759Y118959D01*
X267805Y118986D01*
X267879Y119014D01*
X267953Y119042D01*
X268046Y119079D01*
X268148Y119116D01*
X268258Y119153D01*
X268379Y119190D01*
X268638Y119245D01*
X268933Y119291D01*
X269238Y119310D01*
X269331D01*
X269396Y119301D01*
D02*
G37*
G36*
X275562Y112801D02*
X274777D01*
Y117803D01*
X274767Y117794D01*
X274721Y117757D01*
X274666Y117701D01*
X274573Y117636D01*
X274471Y117553D01*
X274342Y117461D01*
X274194Y117359D01*
X274028Y117257D01*
X274018D01*
X274009Y117248D01*
X273954Y117211D01*
X273861Y117165D01*
X273750Y117109D01*
X273621Y117045D01*
X273482Y116980D01*
X273344Y116915D01*
X273205Y116860D01*
Y117618D01*
X273214D01*
X273233Y117636D01*
X273270Y117646D01*
X273316Y117674D01*
X273371Y117701D01*
X273436Y117738D01*
X273593Y117831D01*
X273778Y117932D01*
X273963Y118062D01*
X274157Y118210D01*
X274351Y118367D01*
X274361Y118376D01*
X274370Y118385D01*
X274398Y118413D01*
X274435Y118441D01*
X274518Y118533D01*
X274629Y118644D01*
X274740Y118774D01*
X274860Y118922D01*
X274961Y119069D01*
X275054Y119227D01*
X275562D01*
Y112801D01*
D02*
G37*
G36*
X171333Y104757D02*
X171444D01*
X171564Y104748D01*
X171693Y104739D01*
X171989Y104711D01*
X172294Y104665D01*
X172590Y104609D01*
X172729Y104572D01*
X172868Y104526D01*
X172877D01*
X172895Y104517D01*
X172932Y104498D01*
X172978Y104480D01*
X173043Y104461D01*
X173108Y104424D01*
X173265Y104350D01*
X173431Y104258D01*
X173616Y104138D01*
X173783Y103999D01*
X173940Y103833D01*
Y103823D01*
X173958Y103814D01*
X173977Y103786D01*
X173995Y103749D01*
X174023Y103703D01*
X174060Y103657D01*
X174125Y103518D01*
X174190Y103352D01*
X174254Y103158D01*
X174291Y102926D01*
X174310Y102677D01*
Y102584D01*
X174301Y102520D01*
X174291Y102446D01*
X174273Y102353D01*
X174254Y102252D01*
X174227Y102141D01*
X174190Y102030D01*
X174153Y101909D01*
X174097Y101789D01*
X174032Y101669D01*
X173958Y101549D01*
X173866Y101429D01*
X173764Y101318D01*
X173653Y101216D01*
X173644Y101207D01*
X173616Y101188D01*
X173570Y101160D01*
X173496Y101114D01*
X173413Y101068D01*
X173302Y101022D01*
X173173Y100957D01*
X173025Y100902D01*
X172858Y100846D01*
X172664Y100791D01*
X172451Y100735D01*
X172211Y100689D01*
X171952Y100643D01*
X171675Y100615D01*
X171370Y100597D01*
X171046Y100587D01*
X171037D01*
X171000D01*
X170935D01*
X170861D01*
X170760Y100597D01*
X170649D01*
X170528Y100606D01*
X170390Y100615D01*
X170103Y100643D01*
X169798Y100689D01*
X169493Y100744D01*
X169354Y100781D01*
X169216Y100818D01*
X169206D01*
X169188Y100828D01*
X169151Y100846D01*
X169105Y100865D01*
X169040Y100883D01*
X168975Y100920D01*
X168818Y100994D01*
X168652Y101087D01*
X168476Y101207D01*
X168300Y101345D01*
X168152Y101512D01*
Y101521D01*
X168134Y101530D01*
X168115Y101558D01*
X168097Y101595D01*
X168060Y101641D01*
X168032Y101697D01*
X167958Y101835D01*
X167893Y102002D01*
X167829Y102196D01*
X167792Y102427D01*
X167773Y102677D01*
Y102760D01*
X167782Y102862D01*
X167801Y102982D01*
X167829Y103121D01*
X167866Y103268D01*
X167912Y103426D01*
X167986Y103574D01*
Y103583D01*
X167995Y103592D01*
X168023Y103638D01*
X168069Y103712D01*
X168134Y103805D01*
X168226Y103906D01*
X168328Y104017D01*
X168448Y104119D01*
X168587Y104221D01*
X168605Y104230D01*
X168652Y104267D01*
X168735Y104304D01*
X168855Y104369D01*
X168994Y104424D01*
X169151Y104498D01*
X169336Y104563D01*
X169539Y104618D01*
X169548D01*
X169567Y104628D01*
X169595Y104637D01*
X169641Y104646D01*
X169696Y104655D01*
X169761Y104665D01*
X169844Y104683D01*
X169937Y104692D01*
X170038Y104711D01*
X170149Y104720D01*
X170279Y104729D01*
X170408Y104748D01*
X170556Y104757D01*
X170704D01*
X170870Y104766D01*
X171046D01*
X171055D01*
X171092D01*
X171157D01*
X171231D01*
X171333Y104757D01*
D02*
G37*
G36*
X174199Y97786D02*
X169197D01*
X169206Y97777D01*
X169243Y97730D01*
X169299Y97675D01*
X169363Y97583D01*
X169447Y97481D01*
X169539Y97351D01*
X169641Y97203D01*
X169743Y97037D01*
Y97028D01*
X169752Y97018D01*
X169789Y96963D01*
X169835Y96871D01*
X169890Y96760D01*
X169955Y96630D01*
X170020Y96491D01*
X170085Y96353D01*
X170140Y96214D01*
X169382D01*
Y96223D01*
X169363Y96242D01*
X169354Y96279D01*
X169326Y96325D01*
X169299Y96381D01*
X169262Y96445D01*
X169169Y96602D01*
X169068Y96787D01*
X168938Y96972D01*
X168790Y97166D01*
X168633Y97361D01*
X168624Y97370D01*
X168615Y97379D01*
X168587Y97407D01*
X168559Y97444D01*
X168467Y97527D01*
X168356Y97638D01*
X168226Y97749D01*
X168078Y97869D01*
X167930Y97971D01*
X167773Y98063D01*
Y98572D01*
X174199D01*
Y97786D01*
D02*
G37*
G36*
X172220Y94883D02*
X172276Y94864D01*
X172350Y94837D01*
X172433Y94809D01*
X172535Y94772D01*
X172646Y94726D01*
X172766Y94670D01*
X173025Y94541D01*
X173284Y94374D01*
X173413Y94273D01*
X173542Y94171D01*
X173653Y94060D01*
X173764Y93931D01*
X173774Y93921D01*
X173792Y93903D01*
X173811Y93856D01*
X173848Y93810D01*
X173894Y93736D01*
X173940Y93662D01*
X173986Y93561D01*
X174032Y93459D01*
X174088Y93339D01*
X174134Y93209D01*
X174180Y93071D01*
X174227Y92923D01*
X174264Y92766D01*
X174282Y92599D01*
X174301Y92423D01*
X174310Y92239D01*
Y92137D01*
X174301Y92063D01*
Y91980D01*
X174291Y91878D01*
X174273Y91767D01*
X174254Y91638D01*
X174208Y91369D01*
X174134Y91092D01*
X174032Y90815D01*
X173968Y90685D01*
X173894Y90556D01*
X173885Y90547D01*
X173875Y90528D01*
X173848Y90491D01*
X173811Y90454D01*
X173774Y90399D01*
X173718Y90334D01*
X173653Y90260D01*
X173580Y90186D01*
X173496Y90112D01*
X173413Y90029D01*
X173200Y89862D01*
X172951Y89705D01*
X172673Y89566D01*
X172664D01*
X172636Y89548D01*
X172590Y89539D01*
X172535Y89511D01*
X172461Y89493D01*
X172368Y89465D01*
X172267Y89428D01*
X172156Y89400D01*
X172035Y89372D01*
X171897Y89335D01*
X171610Y89289D01*
X171287Y89252D01*
X170954Y89234D01*
X170944D01*
X170907D01*
X170852D01*
X170787Y89243D01*
X170695D01*
X170602Y89252D01*
X170482Y89261D01*
X170362Y89280D01*
X170094Y89326D01*
X169798Y89391D01*
X169502Y89483D01*
X169216Y89613D01*
X169206Y89622D01*
X169179Y89631D01*
X169142Y89650D01*
X169095Y89687D01*
X169031Y89724D01*
X168957Y89770D01*
X168790Y89890D01*
X168605Y90047D01*
X168420Y90232D01*
X168235Y90445D01*
X168078Y90695D01*
X168069Y90704D01*
X168060Y90731D01*
X168041Y90768D01*
X168014Y90815D01*
X167986Y90889D01*
X167958Y90963D01*
X167921Y91055D01*
X167884Y91157D01*
X167847Y91268D01*
X167810Y91388D01*
X167755Y91647D01*
X167708Y91943D01*
X167690Y92248D01*
Y92340D01*
X167699Y92405D01*
X167708Y92488D01*
X167718Y92590D01*
X167727Y92692D01*
X167755Y92812D01*
X167810Y93061D01*
X167893Y93339D01*
X167949Y93477D01*
X168014Y93607D01*
X168097Y93736D01*
X168180Y93866D01*
X168189Y93875D01*
X168199Y93893D01*
X168226Y93931D01*
X168272Y93977D01*
X168319Y94023D01*
X168383Y94088D01*
X168457Y94152D01*
X168531Y94226D01*
X168624Y94300D01*
X168735Y94374D01*
X168846Y94458D01*
X168966Y94531D01*
X169105Y94596D01*
X169243Y94670D01*
X169391Y94726D01*
X169558Y94781D01*
X169752Y93949D01*
X169743D01*
X169724Y93940D01*
X169687Y93921D01*
X169641Y93903D01*
X169585Y93884D01*
X169511Y93856D01*
X169363Y93783D01*
X169197Y93690D01*
X169031Y93579D01*
X168873Y93441D01*
X168735Y93293D01*
X168716Y93274D01*
X168679Y93219D01*
X168633Y93126D01*
X168568Y93006D01*
X168513Y92849D01*
X168457Y92673D01*
X168420Y92460D01*
X168411Y92229D01*
Y92155D01*
X168420Y92109D01*
Y92044D01*
X168430Y91970D01*
X168457Y91795D01*
X168494Y91601D01*
X168559Y91397D01*
X168652Y91185D01*
X168772Y90990D01*
Y90981D01*
X168790Y90972D01*
X168836Y90907D01*
X168910Y90824D01*
X169021Y90722D01*
X169160Y90602D01*
X169317Y90491D01*
X169511Y90389D01*
X169724Y90297D01*
X169733D01*
X169752Y90288D01*
X169779Y90279D01*
X169826Y90269D01*
X169881Y90251D01*
X169946Y90232D01*
X170103Y90204D01*
X170288Y90168D01*
X170491Y90131D01*
X170713Y90112D01*
X170954Y90103D01*
X170963D01*
X170991D01*
X171037D01*
X171092D01*
X171157Y90112D01*
X171240D01*
X171333Y90121D01*
X171434Y90131D01*
X171656Y90158D01*
X171897Y90204D01*
X172137Y90260D01*
X172377Y90334D01*
X172387D01*
X172405Y90343D01*
X172433Y90362D01*
X172479Y90380D01*
X172590Y90436D01*
X172720Y90519D01*
X172868Y90620D01*
X173025Y90750D01*
X173163Y90898D01*
X173293Y91074D01*
Y91083D01*
X173302Y91101D01*
X173321Y91129D01*
X173339Y91166D01*
X173358Y91212D01*
X173385Y91268D01*
X173441Y91397D01*
X173496Y91564D01*
X173542Y91749D01*
X173580Y91952D01*
X173589Y92165D01*
Y92229D01*
X173580Y92285D01*
Y92350D01*
X173570Y92414D01*
X173533Y92581D01*
X173487Y92775D01*
X173413Y92969D01*
X173311Y93172D01*
X173256Y93274D01*
X173182Y93366D01*
X173173Y93376D01*
X173163Y93385D01*
X173136Y93413D01*
X173108Y93450D01*
X173062Y93487D01*
X173006Y93533D01*
X172951Y93588D01*
X172877Y93635D01*
X172794Y93690D01*
X172701Y93755D01*
X172609Y93810D01*
X172498Y93866D01*
X172377Y93912D01*
X172248Y93958D01*
X172109Y94004D01*
X171961Y94041D01*
X172174Y94892D01*
X172183D01*
X172220Y94883D01*
D02*
G37*
%LPC*%
G36*
X225685Y37580D02*
X225611D01*
X225528Y37561D01*
X225417Y37543D01*
X225297Y37506D01*
X225167Y37459D01*
X225047Y37385D01*
X224927Y37284D01*
X224918Y37274D01*
X224881Y37237D01*
X224834Y37173D01*
X224788Y37090D01*
X224733Y36988D01*
X224687Y36868D01*
X224650Y36738D01*
X224640Y36590D01*
Y36581D01*
Y36572D01*
X224650Y36516D01*
X224659Y36433D01*
X224677Y36331D01*
X224714Y36211D01*
X224761Y36091D01*
X224834Y35961D01*
X224927Y35851D01*
X224936Y35841D01*
X224982Y35804D01*
X225047Y35758D01*
X225130Y35712D01*
X225241Y35656D01*
X225371Y35610D01*
X225519Y35573D01*
X225685Y35564D01*
X225704D01*
X225759Y35573D01*
X225842Y35582D01*
X225953Y35601D01*
X226073Y35638D01*
X226194Y35684D01*
X226323Y35758D01*
X226434Y35851D01*
X226443Y35860D01*
X226480Y35906D01*
X226527Y35961D01*
X226582Y36045D01*
X226637Y36147D01*
X226684Y36267D01*
X226721Y36405D01*
X226730Y36553D01*
Y36562D01*
Y36572D01*
Y36627D01*
X226711Y36710D01*
X226693Y36812D01*
X226656Y36923D01*
X226600Y37043D01*
X226527Y37164D01*
X226425Y37284D01*
X226416Y37293D01*
X226369Y37330D01*
X226305Y37376D01*
X226221Y37432D01*
X226110Y37487D01*
X225990Y37533D01*
X225842Y37570D01*
X225685Y37580D01*
D02*
G37*
G36*
X225657Y34926D02*
X225602D01*
X225565Y34917D01*
X225463Y34908D01*
X225334Y34880D01*
X225186Y34834D01*
X225038Y34769D01*
X224881Y34676D01*
X224742Y34556D01*
X224724Y34538D01*
X224687Y34492D01*
X224631Y34408D01*
X224566Y34307D01*
X224492Y34168D01*
X224437Y34011D01*
X224400Y33835D01*
X224382Y33641D01*
Y33622D01*
Y33585D01*
X224391Y33521D01*
X224400Y33438D01*
X224419Y33336D01*
X224446Y33225D01*
X224483Y33114D01*
X224529Y32994D01*
X224539Y32984D01*
X224557Y32938D01*
X224594Y32883D01*
X224650Y32818D01*
X224714Y32735D01*
X224797Y32652D01*
X224890Y32578D01*
X225001Y32504D01*
X225019Y32494D01*
X225056Y32476D01*
X225121Y32448D01*
X225204Y32420D01*
X225306Y32393D01*
X225426Y32365D01*
X225556Y32346D01*
X225685Y32337D01*
X225741D01*
X225778Y32346D01*
X225889Y32356D01*
X226018Y32383D01*
X226166Y32430D01*
X226323Y32485D01*
X226471Y32578D01*
X226619Y32698D01*
X226637Y32716D01*
X226674Y32763D01*
X226739Y32846D01*
X226804Y32947D01*
X226869Y33077D01*
X226933Y33234D01*
X226970Y33419D01*
X226989Y33613D01*
Y33622D01*
Y33641D01*
Y33669D01*
X226980Y33706D01*
X226970Y33807D01*
X226943Y33946D01*
X226896Y34085D01*
X226832Y34242D01*
X226739Y34399D01*
X226610Y34547D01*
X226591Y34565D01*
X226545Y34602D01*
X226462Y34667D01*
X226351Y34741D01*
X226212Y34806D01*
X226046Y34871D01*
X225861Y34908D01*
X225657Y34926D01*
D02*
G37*
G36*
X318668Y-51420D02*
X318612D01*
X318575Y-51430D01*
X318473Y-51448D01*
X318353Y-51476D01*
X318214Y-51531D01*
X318067Y-51615D01*
X317993Y-51670D01*
X317919Y-51726D01*
X317854Y-51800D01*
X317789Y-51883D01*
Y-51892D01*
X317771Y-51911D01*
X317752Y-51947D01*
X317724Y-51994D01*
X317697Y-52068D01*
X317660Y-52151D01*
X317632Y-52253D01*
X317595Y-52373D01*
X317558Y-52512D01*
X317521Y-52669D01*
X317484Y-52844D01*
X317456Y-53039D01*
X317429Y-53260D01*
X317410Y-53501D01*
X317401Y-53760D01*
X317392Y-54046D01*
Y-54065D01*
Y-54111D01*
Y-54194D01*
X317401Y-54305D01*
Y-54425D01*
X317410Y-54573D01*
X317419Y-54730D01*
X317438Y-54897D01*
X317484Y-55257D01*
X317512Y-55433D01*
X317549Y-55599D01*
X317586Y-55757D01*
X317641Y-55905D01*
X317697Y-56034D01*
X317761Y-56145D01*
Y-56154D01*
X317780Y-56164D01*
X317826Y-56228D01*
X317909Y-56311D01*
X318011Y-56404D01*
X318150Y-56496D01*
X318307Y-56579D01*
X318483Y-56644D01*
X318575Y-56653D01*
X318677Y-56663D01*
X318732D01*
X318769Y-56653D01*
X318862Y-56635D01*
X318991Y-56598D01*
X319130Y-56533D01*
X319287Y-56441D01*
X319361Y-56385D01*
X319435Y-56311D01*
X319509Y-56237D01*
X319583Y-56145D01*
Y-56136D01*
X319601Y-56117D01*
X319620Y-56090D01*
X319638Y-56043D01*
X319675Y-55979D01*
X319703Y-55895D01*
X319740Y-55803D01*
X319777Y-55692D01*
X319805Y-55553D01*
X319842Y-55405D01*
X319879Y-55230D01*
X319907Y-55045D01*
X319925Y-54823D01*
X319944Y-54592D01*
X319962Y-54333D01*
Y-54046D01*
Y-54037D01*
Y-54028D01*
Y-53981D01*
Y-53898D01*
X319953Y-53787D01*
Y-53667D01*
X319944Y-53519D01*
X319934Y-53362D01*
X319916Y-53186D01*
X319869Y-52835D01*
X319842Y-52659D01*
X319805Y-52493D01*
X319768Y-52336D01*
X319712Y-52188D01*
X319657Y-52058D01*
X319592Y-51947D01*
Y-51938D01*
X319574Y-51929D01*
X319555Y-51901D01*
X319527Y-51864D01*
X319444Y-51781D01*
X319342Y-51679D01*
X319204Y-51587D01*
X319047Y-51504D01*
X318963Y-51467D01*
X318871Y-51439D01*
X318769Y-51430D01*
X318668Y-51420D01*
D02*
G37*
G36*
X313443Y58607D02*
X310577D01*
X313443Y56591D01*
Y58607D01*
D02*
G37*
G36*
X298703Y-1471D02*
X296687D01*
Y-3589D01*
X298591D01*
X298703Y-3579D01*
X298832Y-3570D01*
X298980Y-3561D01*
X299128Y-3542D01*
X299276Y-3515D01*
X299405Y-3478D01*
X299424Y-3468D01*
X299461Y-3450D01*
X299516Y-3422D01*
X299590Y-3385D01*
X299673Y-3330D01*
X299757Y-3265D01*
X299840Y-3182D01*
X299904Y-3089D01*
X299914Y-3080D01*
X299932Y-3043D01*
X299960Y-2988D01*
X299997Y-2914D01*
X300025Y-2830D01*
X300052Y-2738D01*
X300071Y-2627D01*
X300080Y-2516D01*
Y-2507D01*
Y-2498D01*
X300071Y-2442D01*
X300062Y-2359D01*
X300043Y-2248D01*
X299997Y-2137D01*
X299941Y-2008D01*
X299858Y-1887D01*
X299747Y-1767D01*
X299729Y-1758D01*
X299683Y-1721D01*
X299608Y-1675D01*
X299488Y-1619D01*
X299350Y-1564D01*
X299165Y-1517D01*
X298952Y-1481D01*
X298703Y-1471D01*
D02*
G37*
G36*
X304056Y-1379D02*
X303982D01*
X303899Y-1397D01*
X303788Y-1416D01*
X303667Y-1453D01*
X303538Y-1499D01*
X303418Y-1573D01*
X303298Y-1675D01*
X303288Y-1684D01*
X303251Y-1721D01*
X303205Y-1786D01*
X303159Y-1869D01*
X303103Y-1971D01*
X303057Y-2091D01*
X303020Y-2220D01*
X303011Y-2368D01*
Y-2377D01*
Y-2387D01*
X303020Y-2442D01*
X303029Y-2525D01*
X303048Y-2627D01*
X303085Y-2747D01*
X303131Y-2867D01*
X303205Y-2997D01*
X303298Y-3108D01*
X303307Y-3117D01*
X303353Y-3154D01*
X303418Y-3200D01*
X303501Y-3246D01*
X303612Y-3302D01*
X303741Y-3348D01*
X303889Y-3385D01*
X304056Y-3394D01*
X304074D01*
X304130Y-3385D01*
X304213Y-3376D01*
X304324Y-3357D01*
X304444Y-3320D01*
X304564Y-3274D01*
X304694Y-3200D01*
X304805Y-3108D01*
X304814Y-3099D01*
X304851Y-3052D01*
X304897Y-2997D01*
X304953Y-2914D01*
X305008Y-2812D01*
X305054Y-2692D01*
X305091Y-2553D01*
X305100Y-2405D01*
Y-2396D01*
Y-2387D01*
Y-2331D01*
X305082Y-2248D01*
X305063Y-2146D01*
X305026Y-2035D01*
X304971Y-1915D01*
X304897Y-1795D01*
X304795Y-1675D01*
X304786Y-1665D01*
X304740Y-1629D01*
X304675Y-1582D01*
X304592Y-1527D01*
X304481Y-1471D01*
X304361Y-1425D01*
X304213Y-1388D01*
X304056Y-1379D01*
D02*
G37*
G36*
X304028Y-4032D02*
X303972D01*
X303936Y-4042D01*
X303834Y-4051D01*
X303704Y-4079D01*
X303556Y-4125D01*
X303409Y-4189D01*
X303251Y-4282D01*
X303113Y-4402D01*
X303094Y-4421D01*
X303057Y-4467D01*
X303002Y-4550D01*
X302937Y-4652D01*
X302863Y-4791D01*
X302808Y-4948D01*
X302771Y-5123D01*
X302752Y-5318D01*
Y-5336D01*
Y-5373D01*
X302761Y-5438D01*
X302771Y-5521D01*
X302789Y-5623D01*
X302817Y-5734D01*
X302854Y-5845D01*
X302900Y-5965D01*
X302909Y-5974D01*
X302928Y-6020D01*
X302965Y-6076D01*
X303020Y-6140D01*
X303085Y-6224D01*
X303168Y-6307D01*
X303261Y-6381D01*
X303372Y-6455D01*
X303390Y-6464D01*
X303427Y-6482D01*
X303492Y-6510D01*
X303575Y-6538D01*
X303677Y-6566D01*
X303797Y-6593D01*
X303926Y-6612D01*
X304056Y-6621D01*
X304111D01*
X304148Y-6612D01*
X304259Y-6603D01*
X304389Y-6575D01*
X304536Y-6529D01*
X304694Y-6473D01*
X304842Y-6381D01*
X304989Y-6260D01*
X305008Y-6242D01*
X305045Y-6196D01*
X305110Y-6113D01*
X305174Y-6011D01*
X305239Y-5882D01*
X305304Y-5724D01*
X305341Y-5539D01*
X305359Y-5345D01*
Y-5336D01*
Y-5318D01*
Y-5290D01*
X305350Y-5253D01*
X305341Y-5151D01*
X305313Y-5012D01*
X305267Y-4874D01*
X305202Y-4717D01*
X305110Y-4559D01*
X304980Y-4411D01*
X304962Y-4393D01*
X304916Y-4356D01*
X304832Y-4291D01*
X304721Y-4217D01*
X304583Y-4153D01*
X304416Y-4088D01*
X304231Y-4051D01*
X304028Y-4032D01*
D02*
G37*
G36*
X191558Y19085D02*
X191548D01*
X191539D01*
X191484Y19075D01*
X191401Y19066D01*
X191290Y19048D01*
X191179Y19001D01*
X191049Y18946D01*
X190929Y18863D01*
X190809Y18752D01*
X190800Y18733D01*
X190763Y18687D01*
X190716Y18613D01*
X190661Y18493D01*
X190605Y18354D01*
X190559Y18169D01*
X190522Y17957D01*
X190513Y17707D01*
Y15692D01*
X192630D01*
Y17596D01*
X192621Y17707D01*
X192612Y17837D01*
X192602Y17984D01*
X192584Y18132D01*
X192556Y18280D01*
X192519Y18410D01*
X192510Y18428D01*
X192491Y18465D01*
X192464Y18521D01*
X192427Y18595D01*
X192371Y18678D01*
X192306Y18761D01*
X192223Y18844D01*
X192131Y18909D01*
X192122Y18918D01*
X192085Y18937D01*
X192029Y18965D01*
X191955Y19001D01*
X191872Y19029D01*
X191779Y19057D01*
X191669Y19075D01*
X191558Y19085D01*
D02*
G37*
G36*
X295107Y-53699D02*
X295051D01*
X295014Y-53709D01*
X294922Y-53718D01*
X294792Y-53746D01*
X294653Y-53792D01*
X294496Y-53866D01*
X294348Y-53958D01*
X294200Y-54088D01*
X294182Y-54106D01*
X294145Y-54152D01*
X294080Y-54236D01*
X294016Y-54356D01*
X293951Y-54495D01*
X293886Y-54670D01*
X293849Y-54865D01*
X293831Y-55086D01*
Y-55105D01*
Y-55151D01*
X293840Y-55234D01*
X293849Y-55336D01*
X293868Y-55456D01*
X293905Y-55586D01*
X293942Y-55724D01*
X293997Y-55863D01*
X294006Y-55882D01*
X294034Y-55928D01*
X294071Y-55992D01*
X294126Y-56076D01*
X294191Y-56159D01*
X294274Y-56260D01*
X294367Y-56344D01*
X294478Y-56427D01*
X294496Y-56436D01*
X294533Y-56455D01*
X294598Y-56492D01*
X294681Y-56519D01*
X294774Y-56556D01*
X294885Y-56593D01*
X295005Y-56612D01*
X295134Y-56621D01*
X295180D01*
X295217Y-56612D01*
X295310Y-56603D01*
X295430Y-56575D01*
X295560Y-56519D01*
X295707Y-56455D01*
X295855Y-56353D01*
X295929Y-56297D01*
X295994Y-56224D01*
Y-56214D01*
X296013Y-56205D01*
X296050Y-56150D01*
X296105Y-56057D01*
X296179Y-55937D01*
X296244Y-55780D01*
X296299Y-55595D01*
X296336Y-55382D01*
X296355Y-55133D01*
Y-55123D01*
Y-55105D01*
Y-55068D01*
X296345Y-55022D01*
Y-54966D01*
X296336Y-54901D01*
X296308Y-54753D01*
X296271Y-54587D01*
X296207Y-54411D01*
X296114Y-54245D01*
X295994Y-54088D01*
X295976Y-54069D01*
X295929Y-54023D01*
X295855Y-53968D01*
X295754Y-53894D01*
X295624Y-53820D01*
X295476Y-53764D01*
X295301Y-53718D01*
X295107Y-53699D01*
D02*
G37*
G36*
X289707Y-51471D02*
X287692D01*
Y-53589D01*
X289596D01*
X289707Y-53579D01*
X289837Y-53570D01*
X289984Y-53561D01*
X290132Y-53542D01*
X290280Y-53515D01*
X290410Y-53478D01*
X290428Y-53468D01*
X290465Y-53450D01*
X290521Y-53422D01*
X290595Y-53385D01*
X290678Y-53330D01*
X290761Y-53265D01*
X290844Y-53182D01*
X290909Y-53089D01*
X290918Y-53080D01*
X290937Y-53043D01*
X290965Y-52988D01*
X291001Y-52914D01*
X291029Y-52830D01*
X291057Y-52738D01*
X291075Y-52627D01*
X291085Y-52516D01*
Y-52507D01*
Y-52498D01*
X291075Y-52442D01*
X291066Y-52359D01*
X291048Y-52248D01*
X291001Y-52137D01*
X290946Y-52008D01*
X290863Y-51887D01*
X290752Y-51767D01*
X290733Y-51758D01*
X290687Y-51721D01*
X290613Y-51675D01*
X290493Y-51619D01*
X290354Y-51564D01*
X290169Y-51518D01*
X289957Y-51481D01*
X289707Y-51471D01*
D02*
G37*
G36*
X332684Y-51458D02*
X330668D01*
Y-53575D01*
X332573D01*
X332684Y-53566D01*
X332813Y-53556D01*
X332961Y-53547D01*
X333109Y-53528D01*
X333257Y-53501D01*
X333387Y-53464D01*
X333405Y-53454D01*
X333442Y-53436D01*
X333498Y-53408D01*
X333572Y-53371D01*
X333655Y-53316D01*
X333738Y-53251D01*
X333821Y-53168D01*
X333886Y-53075D01*
X333895Y-53066D01*
X333914Y-53029D01*
X333941Y-52974D01*
X333978Y-52900D01*
X334006Y-52817D01*
X334034Y-52724D01*
X334052Y-52613D01*
X334062Y-52502D01*
Y-52493D01*
Y-52484D01*
X334052Y-52428D01*
X334043Y-52345D01*
X334025Y-52234D01*
X333978Y-52123D01*
X333923Y-51994D01*
X333840Y-51873D01*
X333729Y-51753D01*
X333710Y-51744D01*
X333664Y-51707D01*
X333590Y-51661D01*
X333470Y-51605D01*
X333331Y-51550D01*
X333146Y-51504D01*
X332934Y-51467D01*
X332684Y-51458D01*
D02*
G37*
G36*
X342707Y-14971D02*
X340691D01*
Y-17089D01*
X342596D01*
X342707Y-17079D01*
X342836Y-17070D01*
X342985Y-17061D01*
X343132Y-17042D01*
X343280Y-17015D01*
X343410Y-16978D01*
X343428Y-16968D01*
X343465Y-16950D01*
X343521Y-16922D01*
X343595Y-16885D01*
X343678Y-16830D01*
X343761Y-16765D01*
X343844Y-16682D01*
X343909Y-16589D01*
X343918Y-16580D01*
X343937Y-16543D01*
X343965Y-16488D01*
X344002Y-16414D01*
X344029Y-16330D01*
X344057Y-16238D01*
X344075Y-16127D01*
X344085Y-16016D01*
Y-16007D01*
Y-15998D01*
X344075Y-15942D01*
X344066Y-15859D01*
X344048Y-15748D01*
X344002Y-15637D01*
X343946Y-15508D01*
X343863Y-15387D01*
X343752Y-15267D01*
X343733Y-15258D01*
X343687Y-15221D01*
X343613Y-15175D01*
X343493Y-15119D01*
X343354Y-15064D01*
X343169Y-15017D01*
X342957Y-14981D01*
X342707Y-14971D01*
D02*
G37*
G36*
X216672Y-50420D02*
X216598D01*
X216515Y-50439D01*
X216404Y-50458D01*
X216284Y-50494D01*
X216154Y-50541D01*
X216034Y-50615D01*
X215914Y-50716D01*
X215905Y-50726D01*
X215868Y-50763D01*
X215822Y-50827D01*
X215775Y-50911D01*
X215720Y-51012D01*
X215674Y-51132D01*
X215637Y-51262D01*
X215627Y-51410D01*
Y-51419D01*
Y-51428D01*
X215637Y-51484D01*
X215646Y-51567D01*
X215664Y-51669D01*
X215701Y-51789D01*
X215748Y-51909D01*
X215822Y-52038D01*
X215914Y-52149D01*
X215923Y-52159D01*
X215970Y-52196D01*
X216034Y-52242D01*
X216117Y-52288D01*
X216228Y-52344D01*
X216358Y-52390D01*
X216506Y-52427D01*
X216672Y-52436D01*
X216691D01*
X216746Y-52427D01*
X216829Y-52417D01*
X216940Y-52399D01*
X217061Y-52362D01*
X217181Y-52316D01*
X217310Y-52242D01*
X217421Y-52149D01*
X217430Y-52140D01*
X217467Y-52094D01*
X217514Y-52038D01*
X217569Y-51955D01*
X217624Y-51853D01*
X217671Y-51733D01*
X217708Y-51595D01*
X217717Y-51447D01*
Y-51438D01*
Y-51428D01*
Y-51373D01*
X217698Y-51290D01*
X217680Y-51188D01*
X217643Y-51077D01*
X217588Y-50957D01*
X217514Y-50837D01*
X217412Y-50716D01*
X217403Y-50707D01*
X217356Y-50670D01*
X217292Y-50624D01*
X217208Y-50568D01*
X217097Y-50513D01*
X216977Y-50467D01*
X216829Y-50430D01*
X216672Y-50420D01*
D02*
G37*
G36*
X216644Y-53074D02*
X216589D01*
X216552Y-53083D01*
X216450Y-53092D01*
X216321Y-53120D01*
X216173Y-53166D01*
X216025Y-53231D01*
X215868Y-53324D01*
X215729Y-53444D01*
X215711Y-53462D01*
X215674Y-53509D01*
X215618Y-53592D01*
X215553Y-53693D01*
X215480Y-53832D01*
X215424Y-53989D01*
X215387Y-54165D01*
X215369Y-54359D01*
Y-54378D01*
Y-54415D01*
X215378Y-54479D01*
X215387Y-54563D01*
X215406Y-54664D01*
X215433Y-54775D01*
X215470Y-54886D01*
X215516Y-55006D01*
X215526Y-55016D01*
X215544Y-55062D01*
X215581Y-55117D01*
X215637Y-55182D01*
X215701Y-55265D01*
X215785Y-55348D01*
X215877Y-55422D01*
X215988Y-55496D01*
X216007Y-55506D01*
X216043Y-55524D01*
X216108Y-55552D01*
X216191Y-55580D01*
X216293Y-55607D01*
X216413Y-55635D01*
X216543Y-55654D01*
X216672Y-55663D01*
X216728D01*
X216765Y-55654D01*
X216876Y-55644D01*
X217005Y-55616D01*
X217153Y-55570D01*
X217310Y-55515D01*
X217458Y-55422D01*
X217606Y-55302D01*
X217624Y-55284D01*
X217661Y-55237D01*
X217726Y-55154D01*
X217791Y-55052D01*
X217856Y-54923D01*
X217920Y-54766D01*
X217957Y-54581D01*
X217976Y-54387D01*
Y-54378D01*
Y-54359D01*
Y-54331D01*
X217967Y-54294D01*
X217957Y-54193D01*
X217930Y-54054D01*
X217883Y-53915D01*
X217819Y-53758D01*
X217726Y-53601D01*
X217597Y-53453D01*
X217578Y-53435D01*
X217532Y-53398D01*
X217449Y-53333D01*
X217338Y-53259D01*
X217199Y-53194D01*
X217033Y-53129D01*
X216848Y-53092D01*
X216644Y-53074D01*
D02*
G37*
G36*
X394888Y46490D02*
X392021D01*
X394888Y44475D01*
Y46490D01*
D02*
G37*
G36*
X391572Y92117D02*
X391562D01*
X391553D01*
X391498Y92108D01*
X391414Y92099D01*
X391303Y92080D01*
X391193Y92034D01*
X391063Y91978D01*
X390943Y91895D01*
X390823Y91784D01*
X390813Y91766D01*
X390776Y91720D01*
X390730Y91645D01*
X390675Y91525D01*
X390619Y91387D01*
X390573Y91202D01*
X390536Y90989D01*
X390527Y90739D01*
Y88724D01*
X392644D01*
Y90628D01*
X392635Y90739D01*
X392626Y90869D01*
X392616Y91017D01*
X392598Y91165D01*
X392570Y91313D01*
X392533Y91442D01*
X392524Y91461D01*
X392505Y91498D01*
X392478Y91553D01*
X392441Y91627D01*
X392385Y91710D01*
X392320Y91793D01*
X392237Y91877D01*
X392145Y91941D01*
X392136Y91951D01*
X392099Y91969D01*
X392043Y91997D01*
X391969Y92034D01*
X391886Y92062D01*
X391793Y92089D01*
X391683Y92108D01*
X391572Y92117D01*
D02*
G37*
G36*
X265943Y57490D02*
X263077D01*
X265943Y55475D01*
Y57490D01*
D02*
G37*
G36*
X263558Y53099D02*
X263548D01*
X263539D01*
X263484Y53089D01*
X263400Y53080D01*
X263290Y53062D01*
X263179Y53015D01*
X263049Y52960D01*
X262929Y52877D01*
X262809Y52766D01*
X262799Y52747D01*
X262763Y52701D01*
X262716Y52627D01*
X262661Y52507D01*
X262605Y52368D01*
X262559Y52183D01*
X262522Y51971D01*
X262513Y51721D01*
Y49705D01*
X264630D01*
Y51610D01*
X264621Y51721D01*
X264612Y51850D01*
X264602Y51998D01*
X264584Y52146D01*
X264556Y52294D01*
X264519Y52424D01*
X264510Y52442D01*
X264491Y52479D01*
X264464Y52535D01*
X264427Y52609D01*
X264371Y52692D01*
X264307Y52775D01*
X264223Y52858D01*
X264131Y52923D01*
X264122Y52932D01*
X264085Y52951D01*
X264029Y52978D01*
X263955Y53015D01*
X263872Y53043D01*
X263780Y53071D01*
X263669Y53089D01*
X263558Y53099D01*
D02*
G37*
G36*
X333734Y97867D02*
X333725D01*
X333716D01*
X333660Y97858D01*
X333577Y97849D01*
X333466Y97830D01*
X333355Y97784D01*
X333226Y97728D01*
X333106Y97645D01*
X332985Y97534D01*
X332976Y97516D01*
X332939Y97470D01*
X332893Y97395D01*
X332838Y97275D01*
X332782Y97137D01*
X332736Y96952D01*
X332699Y96739D01*
X332690Y96489D01*
Y94474D01*
X334807D01*
Y96378D01*
X334798Y96489D01*
X334788Y96619D01*
X334779Y96767D01*
X334761Y96915D01*
X334733Y97063D01*
X334696Y97192D01*
X334687Y97211D01*
X334668Y97248D01*
X334641Y97303D01*
X334604Y97377D01*
X334548Y97460D01*
X334483Y97543D01*
X334400Y97627D01*
X334308Y97691D01*
X334298Y97701D01*
X334261Y97719D01*
X334206Y97747D01*
X334132Y97784D01*
X334049Y97811D01*
X333956Y97839D01*
X333845Y97858D01*
X333734Y97867D01*
D02*
G37*
G36*
X127786Y129427D02*
X126306D01*
Y124545D01*
X127823D01*
X127887Y124555D01*
X128026Y124564D01*
X128183Y124573D01*
X128350Y124592D01*
X128516Y124619D01*
X128655Y124656D01*
X128673Y124665D01*
X128720Y124675D01*
X128784Y124703D01*
X128867Y124740D01*
X128960Y124795D01*
X129052Y124850D01*
X129145Y124915D01*
X129237Y124989D01*
X129247Y125008D01*
X129284Y125045D01*
X129339Y125109D01*
X129404Y125202D01*
X129478Y125322D01*
X129561Y125461D01*
X129635Y125618D01*
X129699Y125793D01*
Y125803D01*
X129709Y125821D01*
X129718Y125849D01*
X129727Y125886D01*
X129736Y125932D01*
X129755Y125997D01*
X129774Y126062D01*
X129792Y126136D01*
X129820Y126320D01*
X129847Y126533D01*
X129866Y126774D01*
X129875Y127032D01*
Y127042D01*
Y127079D01*
Y127125D01*
X129866Y127199D01*
Y127282D01*
X129857Y127374D01*
X129847Y127485D01*
X129838Y127596D01*
X129792Y127846D01*
X129736Y128105D01*
X129653Y128345D01*
X129598Y128465D01*
X129542Y128567D01*
Y128576D01*
X129524Y128595D01*
X129505Y128623D01*
X129487Y128660D01*
X129413Y128752D01*
X129320Y128863D01*
X129200Y128983D01*
X129062Y129103D01*
X128904Y129205D01*
X128738Y129288D01*
X128720Y129298D01*
X128673Y129307D01*
X128590Y129334D01*
X128470Y129362D01*
X128322Y129381D01*
X128137Y129409D01*
X128026Y129418D01*
X127906D01*
X127786Y129427D01*
D02*
G37*
G36*
X279723Y116259D02*
X279667D01*
X279631Y116250D01*
X279538Y116240D01*
X279409Y116213D01*
X279270Y116166D01*
X279113Y116093D01*
X278965Y116000D01*
X278817Y115871D01*
X278799Y115852D01*
X278762Y115806D01*
X278697Y115723D01*
X278632Y115602D01*
X278567Y115464D01*
X278503Y115288D01*
X278466Y115094D01*
X278447Y114872D01*
Y114853D01*
Y114807D01*
X278456Y114724D01*
X278466Y114622D01*
X278484Y114502D01*
X278521Y114373D01*
X278558Y114234D01*
X278613Y114095D01*
X278623Y114077D01*
X278650Y114031D01*
X278687Y113966D01*
X278743Y113883D01*
X278808Y113799D01*
X278891Y113698D01*
X278983Y113615D01*
X279094Y113531D01*
X279113Y113522D01*
X279150Y113504D01*
X279214Y113467D01*
X279298Y113439D01*
X279390Y113402D01*
X279501Y113365D01*
X279621Y113347D01*
X279751Y113337D01*
X279797D01*
X279834Y113347D01*
X279926Y113356D01*
X280047Y113384D01*
X280176Y113439D01*
X280324Y113504D01*
X280472Y113605D01*
X280546Y113661D01*
X280611Y113735D01*
Y113744D01*
X280629Y113753D01*
X280666Y113809D01*
X280721Y113901D01*
X280795Y114021D01*
X280860Y114179D01*
X280916Y114363D01*
X280953Y114576D01*
X280971Y114826D01*
Y114835D01*
Y114853D01*
Y114890D01*
X280962Y114937D01*
Y114992D01*
X280953Y115057D01*
X280925Y115205D01*
X280888Y115371D01*
X280823Y115547D01*
X280731Y115713D01*
X280611Y115871D01*
X280592Y115889D01*
X280546Y115935D01*
X280472Y115991D01*
X280370Y116065D01*
X280241Y116139D01*
X280093Y116194D01*
X279917Y116240D01*
X279723Y116259D01*
D02*
G37*
G36*
X171333Y103962D02*
X171046D01*
X171037D01*
X171028D01*
X170981D01*
X170898D01*
X170787Y103953D01*
X170667D01*
X170519Y103944D01*
X170362Y103934D01*
X170186Y103916D01*
X169835Y103869D01*
X169659Y103842D01*
X169493Y103805D01*
X169336Y103768D01*
X169188Y103712D01*
X169058Y103657D01*
X168947Y103592D01*
X168938D01*
X168929Y103574D01*
X168901Y103555D01*
X168864Y103527D01*
X168781Y103444D01*
X168679Y103343D01*
X168587Y103204D01*
X168504Y103047D01*
X168467Y102963D01*
X168439Y102871D01*
X168430Y102769D01*
X168420Y102668D01*
Y102612D01*
X168430Y102575D01*
X168448Y102473D01*
X168476Y102353D01*
X168531Y102214D01*
X168615Y102067D01*
X168670Y101993D01*
X168725Y101919D01*
X168799Y101854D01*
X168883Y101789D01*
X168892D01*
X168910Y101771D01*
X168947Y101752D01*
X168994Y101725D01*
X169068Y101697D01*
X169151Y101660D01*
X169252Y101632D01*
X169373Y101595D01*
X169511Y101558D01*
X169669Y101521D01*
X169844Y101484D01*
X170038Y101456D01*
X170260Y101429D01*
X170501Y101410D01*
X170760Y101401D01*
X171046Y101392D01*
X171065D01*
X171111D01*
X171194D01*
X171305Y101401D01*
X171425D01*
X171573Y101410D01*
X171730Y101419D01*
X171897Y101438D01*
X172257Y101484D01*
X172433Y101512D01*
X172599Y101549D01*
X172757Y101586D01*
X172904Y101641D01*
X173034Y101697D01*
X173145Y101762D01*
X173154D01*
X173163Y101780D01*
X173228Y101826D01*
X173311Y101909D01*
X173404Y102011D01*
X173496Y102150D01*
X173580Y102307D01*
X173644Y102483D01*
X173653Y102575D01*
X173663Y102677D01*
Y102732D01*
X173653Y102769D01*
X173635Y102862D01*
X173598Y102991D01*
X173533Y103130D01*
X173441Y103287D01*
X173385Y103361D01*
X173311Y103435D01*
X173237Y103509D01*
X173145Y103583D01*
X173136D01*
X173117Y103601D01*
X173089Y103620D01*
X173043Y103638D01*
X172978Y103675D01*
X172895Y103703D01*
X172803Y103740D01*
X172692Y103777D01*
X172553Y103805D01*
X172405Y103842D01*
X172230Y103879D01*
X172045Y103906D01*
X171823Y103925D01*
X171592Y103944D01*
X171333Y103962D01*
D02*
G37*
%LPD*%
D10*
X159210Y88000D02*
G03*
X159210Y88000I-29210J0D01*
G01*
X234250Y40750D02*
X252750D01*
X234250Y29250D02*
Y40750D01*
X252750Y29250D02*
Y40750D01*
X234250Y29250D02*
X252750D01*
X153932Y71252D02*
X161431Y63753D01*
X146748Y64068D02*
X154247Y56569D01*
X161431Y63753D01*
X366250Y104250D02*
X384750D01*
Y115750D01*
X366250Y104250D02*
Y115750D01*
X384750D01*
X366250Y99750D02*
X384750D01*
X366250Y88250D02*
Y99750D01*
X384750Y88250D02*
Y99750D01*
X366250Y88250D02*
X384750D01*
X342413Y103913D02*
X360913D01*
X342413Y92413D02*
Y103913D01*
X360913Y92413D02*
Y103913D01*
X342413Y92413D02*
X360913D01*
X279750Y83250D02*
Y101750D01*
X268250D02*
X279750D01*
X268250Y83250D02*
X279750D01*
X268250D02*
Y101750D01*
X331750Y44250D02*
Y62750D01*
X320250D02*
X331750D01*
X320250Y44250D02*
X331750D01*
X320250D02*
Y62750D01*
X266250Y3250D02*
X284750D01*
Y14750D01*
X266250Y3250D02*
Y14750D01*
X284750D01*
X331250Y-10750D02*
X349750D01*
Y750D01*
X331250Y-10750D02*
Y750D01*
X349750D01*
X334750Y-46750D02*
Y-28250D01*
X323250D02*
X334750D01*
X323250Y-46750D02*
X334750D01*
X323250D02*
Y-28250D01*
X318750Y-46750D02*
Y-28250D01*
X307250D02*
X318750D01*
X307250Y-46750D02*
X318750D01*
X307250D02*
Y-28250D01*
X367250Y-10750D02*
X385750D01*
Y750D01*
X367250Y-10750D02*
Y750D01*
X385750D01*
X186250Y-20750D02*
Y-2250D01*
Y-20750D02*
X197750D01*
X186250Y-2250D02*
X197750D01*
Y-20750D02*
Y-2250D01*
X186250Y-48750D02*
Y-30250D01*
Y-48750D02*
X197750D01*
X186250Y-30250D02*
X197750D01*
Y-48750D02*
Y-30250D01*
X176750Y57250D02*
Y75750D01*
X165250D02*
X176750D01*
X165250Y57250D02*
X176750D01*
X165250D02*
Y75750D01*
X291250Y-22250D02*
X309750D01*
Y-10750D01*
X291250Y-22250D02*
Y-10750D01*
X309750D01*
X291250Y-46750D02*
Y-28250D01*
Y-46750D02*
X302750D01*
X291250Y-28250D02*
X302750D01*
Y-46750D02*
Y-28250D01*
D11*
X390300Y67500D02*
G03*
X390300Y67500I-1250J0D01*
G01*
X268750Y-51050D02*
G03*
X268750Y-51050I-1250J0D01*
G01*
X198750Y108050D02*
G03*
X198750Y108050I-1250J0D01*
G01*
D12*
X386000Y35000D02*
Y51000D01*
X336000Y35000D02*
Y51000D01*
X235000Y2000D02*
X251000D01*
X235000Y-48000D02*
X251000D01*
X235000D02*
Y2000D01*
X251000Y-48000D02*
Y2000D01*
X214000Y55000D02*
X230000D01*
X214000Y105000D02*
X230000D01*
Y55000D02*
Y105000D01*
X214000Y55000D02*
Y105000D01*
X123336Y74998D02*
Y65002D01*
X128334D01*
X130000Y66668D01*
Y73332D01*
X128334Y74998D01*
X123336D01*
X133332Y65002D02*
X136664D01*
X134998D01*
Y74998D01*
X133332Y73332D01*
M02*
